<svg width="8" height="6" viewBox="0 0 8 6" fill="none" xmlns="http://www.w3.org/2000/svg">
<path d="M7.33322 1.1133C7.20831 0.989128 7.03934 0.919434 6.86322 0.919434C6.68709 0.919434 6.51813 0.989128 6.39322 1.1133L3.99988 3.4733L1.63988 1.1133C1.51498 0.989128 1.34601 0.919434 1.16988 0.919434C0.993761 0.919434 0.824793 0.989128 0.699884 1.1133C0.637399 1.17527 0.587802 1.249 0.553957 1.33024C0.520111 1.41148 0.502686 1.49862 0.502686 1.58663C0.502686 1.67464 0.520111 1.76177 0.553957 1.84301C0.587802 1.92425 0.637399 1.99799 0.699884 2.05996L3.52655 4.88663C3.58853 4.94911 3.66226 4.99871 3.7435 5.03256C3.82474 5.0664 3.91188 5.08383 3.99988 5.08383C4.08789 5.08383 4.17503 5.0664 4.25627 5.03256C4.33751 4.99871 4.41124 4.94911 4.47322 4.88663L7.33322 2.05996C7.3957 1.99799 7.4453 1.92425 7.47915 1.84301C7.51299 1.76177 7.53042 1.67464 7.53042 1.58663C7.53042 1.49862 7.51299 1.41148 7.47915 1.33024C7.4453 1.249 7.3957 1.17527 7.33322 1.1133Z" fill="black"/>
</svg>
