<svg width="6" height="7" viewBox="0 0 6 7" fill="none" xmlns="http://www.w3.org/2000/svg">
<path d="M5.96 3.64307C5.9362 3.58169 5.90052 3.52562 5.855 3.47807L3.355 0.97807C3.30838 0.931451 3.25304 0.89447 3.19212 0.86924C3.13121 0.84401 3.06593 0.831024 3 0.831024C2.86685 0.831024 2.73915 0.883918 2.645 0.97807C2.59838 1.02469 2.5614 1.08003 2.53617 1.14095C2.51094 1.20186 2.49795 1.26714 2.49795 1.33307C2.49795 1.46622 2.55085 1.59392 2.645 1.68807L4.295 3.33307H0.5C0.367392 3.33307 0.240215 3.38575 0.146447 3.47952C0.0526785 3.57328 0 3.70046 0 3.83307C0 3.96568 0.0526785 4.09286 0.146447 4.18662C0.240215 4.28039 0.367392 4.33307 0.5 4.33307H4.295L2.645 5.97807C2.59814 6.02455 2.56094 6.07985 2.53555 6.14078C2.51017 6.20171 2.4971 6.26706 2.4971 6.33307C2.4971 6.39908 2.51017 6.46443 2.53555 6.52536C2.56094 6.58629 2.59814 6.64159 2.645 6.68807C2.69148 6.73493 2.74678 6.77213 2.80771 6.79752C2.86864 6.8229 2.93399 6.83597 3 6.83597C3.06601 6.83597 3.13136 6.8229 3.19229 6.79752C3.25322 6.77213 3.30852 6.73493 3.355 6.68807L5.855 4.18807C5.90052 4.14052 5.9362 4.08445 5.96 4.02307C6.01001 3.90134 6.01001 3.7648 5.96 3.64307Z" fill="#6057D3"/>
</svg>
