<svg width="8" height="6" viewBox="0 0 8 6" fill="none" xmlns="http://www.w3.org/2000/svg">
<path d="M7.33322 1.11333C7.20831 0.989158 7.03934 0.919464 6.86322 0.919464C6.68709 0.919464 6.51813 0.989158 6.39322 1.11333L3.99988 3.47333L1.63988 1.11333C1.51498 0.989158 1.34601 0.919464 1.16988 0.919464C0.993761 0.919464 0.824793 0.989158 0.699884 1.11333C0.637399 1.1753 0.587802 1.24904 0.553957 1.33027C0.520111 1.41151 0.502686 1.49865 0.502686 1.58666C0.502686 1.67467 0.520111 1.7618 0.553957 1.84304C0.587802 1.92428 0.637399 1.99802 0.699884 2.05999L3.52655 4.88666C3.58853 4.94914 3.66226 4.99874 3.7435 5.03259C3.82474 5.06643 3.91188 5.08386 3.99988 5.08386C4.08789 5.08386 4.17503 5.06643 4.25627 5.03259C4.33751 4.99874 4.41124 4.94914 4.47322 4.88666L7.33322 2.05999C7.3957 1.99802 7.4453 1.92428 7.47915 1.84304C7.51299 1.7618 7.53042 1.67467 7.53042 1.58666C7.53042 1.49865 7.51299 1.41151 7.47915 1.33027C7.4453 1.24904 7.3957 1.1753 7.33322 1.11333Z" fill="#6057D3"/>
</svg>
