<svg width="23" height="26" viewBox="0 0 23 26" fill="none" xmlns="http://www.w3.org/2000/svg">
<path d="M22.875 17.0831C22.8722 16.3327 22.6444 15.6004 22.221 14.9809C21.7976 14.3614 21.1981 13.8832 20.5 13.6081L22.8375 4.85807C22.8863 4.67172 22.8914 4.4766 22.8524 4.28796C22.8134 4.09931 22.7313 3.92224 22.6125 3.77057C22.4911 3.62845 22.3393 3.51537 22.1684 3.43965C21.9975 3.36394 21.8118 3.32752 21.625 3.33307H4.5L4.0875 1.75807C4.01578 1.4917 3.85797 1.25655 3.63866 1.08923C3.41934 0.921923 3.15084 0.831855 2.875 0.833066H0.375V3.33307H1.9125L5.0125 14.9081C5.08575 15.1808 5.24917 15.4206 5.47615 15.5886C5.70313 15.7566 5.9803 15.8427 6.2625 15.8331H19.125C19.4565 15.8331 19.7745 15.9648 20.0089 16.1992C20.2433 16.4336 20.375 16.7515 20.375 17.0831C20.375 17.4146 20.2433 17.7325 20.0089 17.9669C19.7745 18.2014 19.4565 18.3331 19.125 18.3331H2.875C2.54348 18.3331 2.22554 18.4648 1.99112 18.6992C1.7567 18.9336 1.625 19.2515 1.625 19.5831C1.625 19.9146 1.7567 20.2325 1.99112 20.4669C2.22554 20.7014 2.54348 20.8331 2.875 20.8331H4.35C4.14442 21.3995 4.07836 22.0071 4.15741 22.6045C4.23647 23.2018 4.45831 23.7713 4.80415 24.2648C5.14999 24.7582 5.60964 25.161 6.14419 25.4391C6.67874 25.7173 7.27243 25.8625 7.875 25.8625C8.47757 25.8625 9.07126 25.7173 9.60581 25.4391C10.1404 25.161 10.6 24.7582 10.9459 24.2648C11.2917 23.7713 11.5135 23.2018 11.5926 22.6045C11.6716 22.0071 11.6056 21.3995 11.4 20.8331H14.35C14.1629 21.3488 14.0912 21.8994 14.14 22.4458C14.1888 22.9923 14.357 23.5214 14.6326 23.9959C14.9082 24.4703 15.2845 24.8784 15.735 25.1915C16.1856 25.5047 16.6994 25.7151 17.2401 25.808C17.7808 25.9009 18.3354 25.874 18.8646 25.7293C19.3938 25.5845 19.8848 25.3254 20.3029 24.9702C20.7211 24.6149 21.0562 24.1723 21.2846 23.6734C21.5131 23.1746 21.6293 22.6317 21.625 22.0831C21.6227 21.4373 21.4502 20.8035 21.125 20.2456C21.6595 19.9086 22.1002 19.442 22.4062 18.8891C22.7121 18.3362 22.8734 17.715 22.875 17.0831ZM17.9875 13.3331H7.25L5.175 5.83307H20L17.9875 13.3331ZM7.875 23.3331C7.62777 23.3331 7.3861 23.2598 7.18054 23.1224C6.97498 22.9851 6.81476 22.7898 6.72015 22.5614C6.62554 22.333 6.60079 22.0817 6.64902 21.8392C6.69725 21.5967 6.8163 21.374 6.99112 21.1992C7.16593 21.0244 7.38866 20.9053 7.63114 20.8571C7.87361 20.8089 8.12495 20.8336 8.35335 20.9282C8.58176 21.0228 8.77699 21.183 8.91434 21.3886C9.05169 21.5942 9.125 21.8358 9.125 22.0831C9.125 22.4146 8.9933 22.7325 8.75888 22.9669C8.52446 23.2014 8.20652 23.3331 7.875 23.3331ZM17.875 23.3331C17.6278 23.3331 17.3861 23.2598 17.1805 23.1224C16.975 22.9851 16.8148 22.7898 16.7201 22.5614C16.6255 22.333 16.6008 22.0817 16.649 21.8392C16.6973 21.5967 16.8163 21.374 16.9911 21.1992C17.1659 21.0244 17.3887 20.9053 17.6311 20.8571C17.8736 20.8089 18.1249 20.8336 18.3534 20.9282C18.5818 21.0228 18.777 21.183 18.9143 21.3886C19.0517 21.5942 19.125 21.8358 19.125 22.0831C19.125 22.4146 18.9933 22.7325 18.7589 22.9669C18.5245 23.2014 18.2065 23.3331 17.875 23.3331Z" fill="white"/>
</svg>
