<svg width="18" height="12" viewBox="0 0 18 12" fill="none" xmlns="http://www.w3.org/2000/svg">
<path d="M1.49996 1.83341H16.5C16.721 1.83341 16.9329 1.74562 17.0892 1.58934C17.2455 1.43306 17.3333 1.2211 17.3333 1.00008C17.3333 0.779068 17.2455 0.567106 17.0892 0.410826C16.9329 0.254546 16.721 0.166748 16.5 0.166748H1.49996C1.27895 0.166748 1.06698 0.254546 0.910704 0.410826C0.754423 0.567106 0.666626 0.779068 0.666626 1.00008C0.666626 1.2211 0.754423 1.43306 0.910704 1.58934C1.06698 1.74562 1.27895 1.83341 1.49996 1.83341V1.83341ZM6.49996 8.50008H1.49996C1.27895 8.50008 1.06698 8.58788 0.910704 8.74416C0.754423 8.90044 0.666626 9.1124 0.666626 9.33342C0.666626 9.55443 0.754423 9.76639 0.910704 9.92267C1.06698 10.079 1.27895 10.1667 1.49996 10.1667H6.49996C6.72097 10.1667 6.93293 10.079 7.08922 9.92267C7.2455 9.76639 7.33329 9.55443 7.33329 9.33342C7.33329 9.1124 7.2455 8.90044 7.08922 8.74416C6.93293 8.58788 6.72097 8.50008 6.49996 8.50008ZM14.4166 4.33341H1.49996C1.27895 4.33341 1.06698 4.42121 0.910704 4.57749C0.754423 4.73377 0.666626 4.94573 0.666626 5.16675C0.666626 5.38776 0.754423 5.59972 0.910704 5.756C1.06698 5.91228 1.27895 6.00008 1.49996 6.00008H14.4166C14.7481 6.00008 15.0661 6.13178 15.3005 6.3662C15.5349 6.60062 15.6666 6.91856 15.6666 7.25008C15.6666 7.5816 15.5349 7.89954 15.3005 8.13397C15.0661 8.36839 14.7481 8.50008 14.4166 8.50008H11.8416L12.0916 8.25842C12.2485 8.1015 12.3367 7.88867 12.3367 7.66675C12.3367 7.44483 12.2485 7.232 12.0916 7.07508C11.9347 6.91816 11.7219 6.83001 11.5 6.83001C11.278 6.83001 11.0652 6.91816 10.9083 7.07508L9.24163 8.74175C9.16576 8.821 9.10629 8.91446 9.06663 9.01675C8.98328 9.21963 8.98328 9.4472 9.06663 9.65008C9.10629 9.75237 9.16576 9.84583 9.24163 9.92508L10.9083 11.5917C10.9858 11.6699 11.0779 11.7319 11.1795 11.7742C11.281 11.8165 11.3899 11.8382 11.5 11.8382C11.61 11.8382 11.7189 11.8165 11.8204 11.7742C11.922 11.7319 12.0142 11.6699 12.0916 11.5917C12.1697 11.5143 12.2317 11.4221 12.274 11.3206C12.3163 11.219 12.3381 11.1101 12.3381 11.0001C12.3381 10.8901 12.3163 10.7812 12.274 10.6796C12.2317 10.5781 12.1697 10.4859 12.0916 10.4084L11.8416 10.1667H14.4166C15.1902 10.1667 15.932 9.85946 16.479 9.31248C17.026 8.7655 17.3333 8.02363 17.3333 7.25008C17.3333 6.47653 17.026 5.73467 16.479 5.18769C15.932 4.64071 15.1902 4.33341 14.4166 4.33341V4.33341Z" fill="#383838"/>
</svg>
