<svg width="10" height="8" viewBox="0 0 10 8" fill="none" xmlns="http://www.w3.org/2000/svg">
<path d="M9.47297 0.806696C9.411 0.74421 9.33727 0.694614 9.25603 0.660768C9.17479 0.626922 9.08765 0.609497 8.99964 0.609497C8.91163 0.609497 8.8245 0.626922 8.74326 0.660768C8.66202 0.694614 8.58828 0.74421 8.52631 0.806696L3.55964 5.78003L1.47297 3.6867C1.40863 3.62454 1.33267 3.57566 1.24943 3.54286C1.16619 3.51006 1.07731 3.49397 0.987856 3.49552C0.898402 3.49706 0.810129 3.51622 0.728077 3.55188C0.646025 3.58754 0.5718 3.63902 0.509641 3.70336C0.447482 3.76771 0.398606 3.84367 0.365803 3.92691C0.333001 4.01014 0.316914 4.09903 0.318461 4.18848C0.320009 4.27793 0.339161 4.36621 0.374823 4.44826C0.410485 4.53031 0.46196 4.60454 0.526308 4.6667L3.08631 7.2267C3.14828 7.28918 3.22202 7.33878 3.30326 7.37262C3.3845 7.40647 3.47163 7.42389 3.55964 7.42389C3.64765 7.42389 3.73479 7.40647 3.81603 7.37262C3.89727 7.33878 3.971 7.28918 4.03297 7.2267L9.47297 1.7867C9.54064 1.72427 9.59465 1.6485 9.63159 1.56417C9.66853 1.47983 9.6876 1.38876 9.6876 1.2967C9.6876 1.20463 9.66853 1.11356 9.63159 1.02923C9.59465 0.944892 9.54064 0.869124 9.47297 0.806696Z" fill="white"/>
</svg>
