<svg width="18" height="14" viewBox="0 0 18 14" fill="none" xmlns="http://www.w3.org/2000/svg">
<path d="M1.49996 6.99992H6.49996C6.72097 6.99992 6.93293 6.91212 7.08922 6.75584C7.2455 6.59956 7.33329 6.3876 7.33329 6.16658V1.16659C7.33329 0.945571 7.2455 0.73361 7.08922 0.57733C6.93293 0.421049 6.72097 0.333252 6.49996 0.333252H1.49996C1.27895 0.333252 1.06698 0.421049 0.910704 0.57733C0.754423 0.73361 0.666626 0.945571 0.666626 1.16659V6.16658C0.666626 6.3876 0.754423 6.59956 0.910704 6.75584C1.06698 6.91212 1.27895 6.99992 1.49996 6.99992ZM2.33329 1.99992H5.66663V5.33325H2.33329V1.99992ZM9.83329 3.66658H16.5C16.721 3.66658 16.9329 3.57879 17.0892 3.42251C17.2455 3.26623 17.3333 3.05427 17.3333 2.83325C17.3333 2.61224 17.2455 2.40028 17.0892 2.244C16.9329 2.08772 16.721 1.99992 16.5 1.99992H9.83329C9.61228 1.99992 9.40032 2.08772 9.24404 2.244C9.08776 2.40028 8.99996 2.61224 8.99996 2.83325C8.99996 3.05427 9.08776 3.26623 9.24404 3.42251C9.40032 3.57879 9.61228 3.66658 9.83329 3.66658V3.66658ZM9.83329 11.9999H1.49996C1.27895 11.9999 1.06698 12.0877 0.910704 12.244C0.754423 12.4003 0.666626 12.6122 0.666626 12.8333C0.666626 13.0543 0.754423 13.2662 0.910704 13.4225C1.06698 13.5788 1.27895 13.6666 1.49996 13.6666H9.83329C10.0543 13.6666 10.2663 13.5788 10.4225 13.4225C10.5788 13.2662 10.6666 13.0543 10.6666 12.8333C10.6666 12.6122 10.5788 12.4003 10.4225 12.244C10.2663 12.0877 10.0543 11.9999 9.83329 11.9999ZM16.5 8.66658H1.49996C1.27895 8.66658 1.06698 8.75438 0.910704 8.91066C0.754423 9.06694 0.666626 9.2789 0.666626 9.49992C0.666626 9.72093 0.754423 9.93289 0.910704 10.0892C1.06698 10.2455 1.27895 10.3333 1.49996 10.3333H16.5C16.721 10.3333 16.9329 10.2455 17.0892 10.0892C17.2455 9.93289 17.3333 9.72093 17.3333 9.49992C17.3333 9.2789 17.2455 9.06694 17.0892 8.91066C16.9329 8.75438 16.721 8.66658 16.5 8.66658ZM16.5 5.33325H9.83329C9.61228 5.33325 9.40032 5.42105 9.24404 5.57733C9.08776 5.73361 8.99996 5.94557 8.99996 6.16658C8.99996 6.3876 9.08776 6.59956 9.24404 6.75584C9.40032 6.91212 9.61228 6.99992 9.83329 6.99992H16.5C16.721 6.99992 16.9329 6.91212 17.0892 6.75584C17.2455 6.59956 17.3333 6.3876 17.3333 6.16658C17.3333 5.94557 17.2455 5.73361 17.0892 5.57733C16.9329 5.42105 16.721 5.33325 16.5 5.33325Z" fill="#383838"/>
</svg>
