<svg width="12" height="12" viewBox="0 0 12 12" fill="none" xmlns="http://www.w3.org/2000/svg">
<path d="M6.94028 6L11.1403 1.80667C11.2658 1.68113 11.3363 1.51087 11.3363 1.33333C11.3363 1.1558 11.2658 0.985537 11.1403 0.860002C11.0147 0.734466 10.8445 0.66394 10.667 0.66394C10.4894 0.66394 10.3192 0.734466 10.1936 0.860002L6.00029 5.06L1.80695 0.860002C1.68142 0.734466 1.51115 0.663941 1.33362 0.663941C1.15608 0.663941 0.985821 0.734466 0.860285 0.860002C0.734749 0.985537 0.664224 1.1558 0.664224 1.33333C0.664224 1.51087 0.734749 1.68113 0.860285 1.80667L5.06029 6L0.860285 10.1933C0.797799 10.2553 0.748203 10.329 0.714357 10.4103C0.680512 10.4915 0.663086 10.5787 0.663086 10.6667C0.663086 10.7547 0.680512 10.8418 0.714357 10.9231C0.748203 11.0043 0.797799 11.078 0.860285 11.14C0.92226 11.2025 0.995994 11.2521 1.07723 11.2859C1.15847 11.3198 1.24561 11.3372 1.33362 11.3372C1.42163 11.3372 1.50876 11.3198 1.59 11.2859C1.67124 11.2521 1.74498 11.2025 1.80695 11.14L6.00029 6.94L10.1936 11.14C10.2556 11.2025 10.3293 11.2521 10.4106 11.2859C10.4918 11.3198 10.5789 11.3372 10.667 11.3372C10.755 11.3372 10.8421 11.3198 10.9233 11.2859C11.0046 11.2521 11.0783 11.2025 11.1403 11.14C11.2028 11.078 11.2524 11.0043 11.2862 10.9231C11.3201 10.8418 11.3375 10.7547 11.3375 10.6667C11.3375 10.5787 11.3201 10.4915 11.2862 10.4103C11.2524 10.329 11.2028 10.2553 11.1403 10.1933L6.94028 6Z" fill="black"/>
</svg>
