<svg width="18" height="14" viewBox="0 0 18 14" fill="none" xmlns="http://www.w3.org/2000/svg">
<path d="M10.9083 9.15807L8.16666 11.8997L7.09166 10.8247C7.01419 10.7466 6.92202 10.6846 6.82047 10.6423C6.71892 10.6 6.61 10.5782 6.49999 10.5782C6.38998 10.5782 6.28106 10.6 6.17951 10.6423C6.07796 10.6846 5.98579 10.7466 5.90833 10.8247C5.75312 10.9809 5.666 11.1921 5.666 11.4122C5.666 11.6324 5.75312 11.8436 5.90833 11.9997L7.57499 13.6664C7.65246 13.7445 7.74463 13.8065 7.84618 13.8488C7.94773 13.8911 8.05665 13.9129 8.16666 13.9129C8.27667 13.9129 8.38559 13.8911 8.48714 13.8488C8.58869 13.8065 8.68086 13.7445 8.75833 13.6664L12.0917 10.3331C12.2469 10.1769 12.334 9.96572 12.334 9.74557C12.334 9.52541 12.2469 9.3142 12.0917 9.15807C12.0142 9.07996 11.922 9.01796 11.8205 8.97566C11.7189 8.93335 11.61 8.91157 11.5 8.91157C11.39 8.91157 11.2811 8.93335 11.1795 8.97566C11.078 9.01796 10.9858 9.07996 10.9083 9.15807ZM14.35 4.2664C13.8403 3.09624 12.9608 2.12556 11.8464 1.5032C10.7321 0.88083 9.44438 0.641126 8.18073 0.820837C6.91708 1.00055 5.74724 1.58975 4.85059 2.49812C3.95394 3.40648 3.37996 4.58386 3.21666 5.84973C2.52165 6.02217 1.90065 6.41384 1.44561 6.96675C0.990564 7.51966 0.725668 8.2044 0.690142 8.9196C0.654615 9.63479 0.850348 10.3424 1.24836 10.9377C1.64637 11.533 2.2255 11.9843 2.89999 12.2247C3.00644 12.2806 3.1237 12.3128 3.24375 12.319C3.36379 12.3253 3.48377 12.3055 3.59545 12.261C3.70713 12.2166 3.80787 12.1485 3.89076 12.0614C3.97364 11.9744 4.03671 11.8704 4.07564 11.7567C4.11456 11.6429 4.12842 11.5221 4.11626 11.4025C4.1041 11.2829 4.06621 11.1674 4.0052 11.0638C3.94418 10.9603 3.86148 10.8711 3.76277 10.8025C3.66406 10.7339 3.55167 10.6875 3.43333 10.6664C3.10852 10.549 2.82821 10.3336 2.63115 10.0499C2.4341 9.76628 2.33002 9.42843 2.33333 9.08307C2.33333 8.64104 2.50892 8.21711 2.82148 7.90455C3.13404 7.59199 3.55796 7.4164 3.99999 7.4164C4.22101 7.4164 4.43297 7.3286 4.58925 7.17232C4.74553 7.01604 4.83333 6.80408 4.83333 6.58307C4.8374 5.59817 5.19024 4.64657 5.82922 3.89708C6.4682 3.14759 7.35202 2.64868 8.32387 2.48887C9.29572 2.32906 10.2928 2.51868 11.1381 3.02409C11.9834 3.52949 12.6224 4.31801 12.9417 5.24973C12.9905 5.39138 13.0767 5.51723 13.1911 5.61402C13.3055 5.71081 13.4439 5.77497 13.5917 5.79973C14.1467 5.90463 14.6499 6.1944 15.0192 6.62185C15.3885 7.04929 15.6021 7.5892 15.6253 8.1536C15.6485 8.718 15.4799 9.27362 15.1469 9.72993C14.8139 10.1862 14.3362 10.5163 13.7917 10.6664C13.5706 10.694 13.3697 10.8083 13.2329 10.9841C13.0962 11.1599 13.0349 11.3829 13.0625 11.6039C13.0901 11.8249 13.2044 12.0259 13.3802 12.1626C13.556 12.2994 13.779 12.3607 14 12.3331H14.2083C15.0853 12.1013 15.8627 11.5897 16.4225 10.876C16.9823 10.1622 17.2938 9.28524 17.3099 8.37829C17.3259 7.47134 17.0455 6.58394 16.5113 5.85083C15.9771 5.11773 15.2182 4.57898 14.35 4.3164V4.2664Z" fill="#6057D3"/>
</svg>
