<svg width="28" height="26" viewBox="0 0 28 26" fill="none" xmlns="http://www.w3.org/2000/svg">
<path d="M24 18.3331C23.2241 18.3371 22.4686 18.5816 21.8375 19.0331L18.775 17.2206C18.9195 16.7721 18.9954 16.3043 19 15.8331C18.9964 14.7274 18.6264 13.6541 17.9479 12.781C17.2694 11.908 16.3206 11.2845 15.25 11.0081V8.10807C16.084 7.8132 16.7869 7.23299 17.2345 6.46997C17.6821 5.70696 17.8456 4.81028 17.696 3.93841C17.5464 3.06654 17.0934 2.27562 16.4171 1.70544C15.7407 1.13527 14.8846 0.82254 14 0.82254C13.1154 0.82254 12.2593 1.13527 11.5829 1.70544C10.9066 2.27562 10.4536 3.06654 10.304 3.93841C10.1544 4.81028 10.3179 5.70696 10.7655 6.46997C11.2131 7.23299 11.916 7.8132 12.75 8.10807V11.0081C11.6794 11.2845 10.7306 11.908 10.0521 12.781C9.37359 13.6541 9.00359 14.7274 9 15.8331C9.00465 16.3043 9.0805 16.7721 9.225 17.2206L6.1625 19.0331C5.53144 18.5816 4.77589 18.3371 4 18.3331C3.25832 18.3331 2.5333 18.553 1.91661 18.9651C1.29993 19.3771 0.819282 19.9628 0.535453 20.648C0.251625 21.3332 0.177362 22.0872 0.322057 22.8147C0.466751 23.5421 0.823904 24.2103 1.34835 24.7347C1.8728 25.2592 2.54098 25.6163 3.26841 25.761C3.99584 25.9057 4.74984 25.8315 5.43506 25.5476C6.12029 25.2638 6.70596 24.7831 7.11801 24.1665C7.53007 23.5498 7.75 22.8248 7.75 22.0831C7.74538 21.7445 7.69492 21.4081 7.6 21.0831L10.475 19.3706C11.4118 20.3018 12.6791 20.8245 14 20.8245C15.3209 20.8245 16.5882 20.3018 17.525 19.3706L20.4 21.0831C20.1906 21.8401 20.2241 22.6437 20.4959 23.3807C20.7677 24.1176 21.264 24.7506 21.9148 25.1903C22.5656 25.63 23.3381 25.8543 24.1232 25.8315C24.9083 25.8086 25.6664 25.5399 26.2906 25.0631C26.9148 24.5863 27.3735 23.9255 27.602 23.174C27.8305 22.4226 27.8173 21.6183 27.5642 20.8748C27.3111 20.1312 26.831 19.4859 26.1915 19.0299C25.552 18.5738 24.7854 18.3301 24 18.3331ZM4 23.3331C3.75278 23.3331 3.5111 23.2598 3.30554 23.1224C3.09998 22.9851 2.93976 22.7898 2.84515 22.5614C2.75054 22.333 2.72579 22.0817 2.77402 21.8392C2.82225 21.5967 2.9413 21.374 3.11612 21.1992C3.29093 21.0244 3.51366 20.9053 3.75614 20.8571C3.99862 20.8089 4.24995 20.8336 4.47836 20.9282C4.70676 21.0228 4.90199 21.183 5.03934 21.3886C5.17669 21.5942 5.25 21.8358 5.25 22.0831C5.25 22.4146 5.11831 22.7325 4.88388 22.967C4.64946 23.2014 4.33152 23.3331 4 23.3331ZM14 3.33307C14.2472 3.33307 14.4889 3.40639 14.6945 3.54374C14.9 3.68109 15.0602 3.87631 15.1549 4.10472C15.2495 4.33313 15.2742 4.58446 15.226 4.82694C15.1778 5.06941 15.0587 5.29214 14.8839 5.46696C14.7091 5.64177 14.4863 5.76082 14.2439 5.80906C14.0014 5.85729 13.7501 5.83253 13.5216 5.73792C13.2932 5.64331 13.098 5.4831 12.9607 5.27754C12.8233 5.07198 12.75 4.8303 12.75 4.58307C12.75 4.25155 12.8817 3.93361 13.1161 3.69919C13.3505 3.46477 13.6685 3.33307 14 3.33307ZM14 18.3331C13.5055 18.3331 13.0222 18.1865 12.6111 17.9117C12.2 17.637 11.8795 17.2466 11.6903 16.7898C11.5011 16.333 11.4516 15.8303 11.548 15.3453C11.6445 14.8604 11.8826 14.4149 12.2322 14.0653C12.5819 13.7157 13.0273 13.4776 13.5123 13.3811C13.9972 13.2846 14.4999 13.3342 14.9567 13.5234C15.4135 13.7126 15.804 14.033 16.0787 14.4441C16.3534 14.8553 16.5 15.3386 16.5 15.8331C16.5 16.4961 16.2366 17.132 15.7678 17.6008C15.2989 18.0697 14.663 18.3331 14 18.3331ZM24 23.3331C23.7528 23.3331 23.5111 23.2598 23.3055 23.1224C23.1 22.9851 22.9398 22.7898 22.8452 22.5614C22.7505 22.333 22.7258 22.0817 22.774 21.8392C22.8223 21.5967 22.9413 21.374 23.1161 21.1992C23.2909 21.0244 23.5137 20.9053 23.7561 20.8571C23.9986 20.8089 24.2499 20.8336 24.4784 20.9282C24.7068 21.0228 24.902 21.183 25.0393 21.3886C25.1767 21.5942 25.25 21.8358 25.25 22.0831C25.25 22.4146 25.1183 22.7325 24.8839 22.967C24.6495 23.2014 24.3315 23.3331 24 23.3331Z" fill="white"/>
</svg>
