<svg width="26" height="26" viewBox="0 0 26 26" fill="none" xmlns="http://www.w3.org/2000/svg">
<path d="M9.87501 11.4581H13C13.3315 11.4581 13.6495 11.3264 13.8839 11.0919C14.1183 10.8575 14.25 10.5396 14.25 10.2081C14.25 9.87654 14.1183 9.5586 13.8839 9.32418C13.6495 9.08976 13.3315 8.95806 13 8.95806H11.75V8.33306C11.75 8.00154 11.6183 7.6836 11.3839 7.44918C11.1495 7.21476 10.8315 7.08306 10.5 7.08306C10.1685 7.08306 9.85055 7.21476 9.61613 7.44918C9.38171 7.6836 9.25001 8.00154 9.25001 8.33306V9.02056C8.49054 9.17478 7.81546 9.60569 7.35583 10.2296C6.8962 10.8536 6.68481 11.6261 6.76269 12.3971C6.84057 13.1682 7.20218 13.8828 7.7773 14.4022C8.35243 14.9216 9.10004 15.2088 9.87501 15.2081H11.125C11.2908 15.2081 11.4497 15.2739 11.567 15.3911C11.6842 15.5083 11.75 15.6673 11.75 15.8331C11.75 15.9988 11.6842 16.1578 11.567 16.275C11.4497 16.3922 11.2908 16.4581 11.125 16.4581H8.00001C7.66849 16.4581 7.35055 16.5898 7.11613 16.8242C6.88171 17.0586 6.75001 17.3765 6.75001 17.7081C6.75001 18.0396 6.88171 18.3575 7.11613 18.5919C7.35055 18.8264 7.66849 18.9581 8.00001 18.9581H9.25001V19.5831C9.25001 19.9146 9.38171 20.2325 9.61613 20.4669C9.85055 20.7014 10.1685 20.8331 10.5 20.8331C10.8315 20.8331 11.1495 20.7014 11.3839 20.4669C11.6183 20.2325 11.75 19.9146 11.75 19.5831V18.8956C12.5095 18.7413 13.1846 18.3104 13.6442 17.6865C14.1038 17.0625 14.3152 16.29 14.2373 15.519C14.1594 14.748 13.7978 14.0334 13.2227 13.5139C12.6476 12.9945 11.9 12.7073 11.125 12.7081H9.87501C9.70925 12.7081 9.55028 12.6422 9.43307 12.525C9.31586 12.4078 9.25001 12.2488 9.25001 12.0831C9.25001 11.9173 9.31586 11.7583 9.43307 11.6411C9.55028 11.5239 9.70925 11.4581 9.87501 11.4581ZM24.25 13.3331H20.5V2.08306C20.5009 1.8628 20.4435 1.64622 20.3338 1.45525C20.224 1.26427 20.0658 1.10569 19.875 0.995563C19.685 0.885852 19.4694 0.828094 19.25 0.828094C19.0306 0.828094 18.815 0.885852 18.625 0.995563L14.875 3.14556L11.125 0.995563C10.935 0.885852 10.7194 0.828094 10.5 0.828094C10.2806 0.828094 10.065 0.885852 9.87501 0.995563L6.12501 3.14556L2.37501 0.995563C2.18499 0.885852 1.96943 0.828094 1.75001 0.828094C1.53059 0.828094 1.31503 0.885852 1.12501 0.995563C0.934254 1.10569 0.775987 1.26427 0.666233 1.45525C0.556478 1.64622 0.499135 1.8628 0.50001 2.08306V22.0831C0.50001 23.0776 0.895098 24.0315 1.59836 24.7347C2.30162 25.438 3.25545 25.8331 4.25001 25.8331H21.75C22.7446 25.8331 23.6984 25.438 24.4017 24.7347C25.1049 24.0315 25.5 23.0776 25.5 22.0831V14.5831C25.5 14.2515 25.3683 13.9336 25.1339 13.6992C24.8995 13.4648 24.5815 13.3331 24.25 13.3331ZM4.25001 23.3331C3.91849 23.3331 3.60055 23.2014 3.36613 22.9669C3.13171 22.7325 3.00001 22.4146 3.00001 22.0831V4.24556L5.50001 5.67056C5.69293 5.77133 5.90736 5.82395 6.12501 5.82395C6.34266 5.82395 6.55709 5.77133 6.75001 5.67056L10.5 3.52056L14.25 5.67056C14.4429 5.77133 14.6574 5.82395 14.875 5.82395C15.0927 5.82395 15.3071 5.77133 15.5 5.67056L18 4.24556V22.0831C18.0034 22.5095 18.0795 22.9322 18.225 23.3331H4.25001ZM23 22.0831C23 22.4146 22.8683 22.7325 22.6339 22.9669C22.3995 23.2014 22.0815 23.3331 21.75 23.3331C21.4185 23.3331 21.1005 23.2014 20.8661 22.9669C20.6317 22.7325 20.5 22.4146 20.5 22.0831V15.8331H23V22.0831Z" fill="white"/>
</svg>
