<svg width="14" height="9" viewBox="0 0 14 9" fill="none" xmlns="http://www.w3.org/2000/svg">
<path d="M2.19336 3.49999H0.860026C0.683215 3.49999 0.513646 3.57023 0.388621 3.69525C0.263597 3.82028 0.193359 3.98985 0.193359 4.16666C0.193359 4.34347 0.263597 4.51304 0.388621 4.63806C0.513646 4.76309 0.683215 4.83333 0.860026 4.83333H2.19336C2.37017 4.83333 2.53974 4.76309 2.66476 4.63806C2.78979 4.51304 2.86003 4.34347 2.86003 4.16666C2.86003 3.98985 2.78979 3.82028 2.66476 3.69525C2.53974 3.57023 2.37017 3.49999 2.19336 3.49999ZM13.38 1.60666V1.56666C13.189 1.33318 12.9477 1.14594 12.6741 1.01895C12.4004 0.891951 12.1016 0.828494 11.8 0.833325H6.51336C6.0235 0.828925 5.54905 1.00447 5.18003 1.32666C4.83536 1.63035 4.60876 2.04579 4.54003 2.49999L3.95336 5.83333C3.90291 6.12119 3.91616 6.41661 3.99218 6.6988C4.0682 6.98099 4.20514 7.24309 4.39336 7.46666C4.5806 7.68948 4.81422 7.86875 5.0779 7.99196C5.34158 8.11516 5.62898 8.17934 5.92003 8.17999H11.2134C11.6889 8.18718 12.1514 8.0247 12.5179 7.72171C12.8844 7.41871 13.131 6.99502 13.2134 6.52666L13.8 3.19333C13.8462 2.91419 13.8327 2.62843 13.7603 2.35492C13.6879 2.08141 13.5583 1.82638 13.38 1.60666ZM11.5534 2.16666L9.28669 4.00666C9.15268 4.11467 8.98208 4.16666 8.8106 4.15175C8.63912 4.13684 8.48006 4.05618 8.36669 3.92666L6.81336 2.16666H11.5534ZM11.8734 6.27999C11.8464 6.43652 11.7644 6.57827 11.6422 6.67972C11.5199 6.78116 11.3655 6.83564 11.2067 6.83333H5.92003C5.82321 6.83251 5.72774 6.81062 5.64024 6.76917C5.55274 6.72773 5.47532 6.66772 5.41336 6.59333C5.35124 6.51932 5.30595 6.4327 5.28063 6.33946C5.2553 6.24622 5.25055 6.14859 5.26669 6.05333L5.80003 3.03333L7.36669 4.80666C7.7077 5.19424 8.18536 5.43495 8.69976 5.47844C9.21417 5.52192 9.72546 5.36482 10.1267 5.03999L12.42 3.16666L11.8734 6.27999ZM2.86003 0.833325H0.860026C0.683215 0.833325 0.513646 0.903563 0.388621 1.02859C0.263597 1.15361 0.193359 1.32318 0.193359 1.49999C0.193359 1.6768 0.263597 1.84637 0.388621 1.9714C0.513646 2.09642 0.683215 2.16666 0.860026 2.16666H2.86003C3.03684 2.16666 3.20641 2.09642 3.33143 1.9714C3.45645 1.84637 3.52669 1.6768 3.52669 1.49999C3.52669 1.32318 3.45645 1.15361 3.33143 1.02859C3.20641 0.903563 3.03684 0.833325 2.86003 0.833325Z" fill="white"/>
</svg>
