<svg width="10" height="10" viewBox="0 0 10 10" fill="none" xmlns="http://www.w3.org/2000/svg">
<path d="M7.49992 4.50825C7.38941 4.50825 7.28343 4.55215 7.20529 4.63029C7.12715 4.70843 7.08325 4.81441 7.08325 4.92492V7.91659C7.08325 8.02709 7.03935 8.13307 6.96121 8.21121C6.88307 8.28935 6.77709 8.33325 6.66659 8.33325H2.08325C1.97275 8.33325 1.86676 8.28935 1.78862 8.21121C1.71048 8.13307 1.66659 8.02709 1.66659 7.91659V3.33325C1.66659 3.22275 1.71048 3.11676 1.78862 3.03862C1.86676 2.96048 1.97275 2.91659 2.08325 2.91659H5.07492C5.18543 2.91659 5.29141 2.87269 5.36955 2.79455C5.44769 2.71641 5.49159 2.61043 5.49159 2.49992C5.49159 2.38941 5.44769 2.28343 5.36955 2.20529C5.29141 2.12715 5.18543 2.08325 5.07492 2.08325H2.08325C1.75173 2.08325 1.43379 2.21495 1.19937 2.44937C0.964948 2.68379 0.833252 3.00173 0.833252 3.33325V7.91659C0.833252 8.24811 0.964948 8.56605 1.19937 8.80047C1.43379 9.03489 1.75173 9.16659 2.08325 9.16659H6.66659C6.99811 9.16659 7.31605 9.03489 7.55047 8.80047C7.78489 8.56605 7.91659 8.24811 7.91659 7.91659V4.92492C7.91659 4.81441 7.87269 4.70843 7.79455 4.63029C7.71641 4.55215 7.61043 4.50825 7.49992 4.50825ZM9.13325 1.09159C9.09097 0.989773 9.01006 0.908866 8.90825 0.866585C8.85816 0.845235 8.80437 0.83391 8.74992 0.833252H6.24992C6.13941 0.833252 6.03343 0.877151 5.95529 0.955291C5.87715 1.03343 5.83325 1.13941 5.83325 1.24992C5.83325 1.36043 5.87715 1.46641 5.95529 1.54455C6.03343 1.62269 6.13941 1.66659 6.24992 1.66659H7.74575L3.45409 5.95409C3.41503 5.99282 3.38403 6.0389 3.36288 6.08968C3.34173 6.14045 3.33084 6.19491 3.33084 6.24992C3.33084 6.30492 3.34173 6.35938 3.36288 6.41016C3.38403 6.46093 3.41503 6.50702 3.45409 6.54575C3.49282 6.58481 3.5389 6.6158 3.58968 6.63696C3.64045 6.65811 3.69491 6.669 3.74992 6.669C3.80492 6.669 3.85938 6.65811 3.91016 6.63696C3.96093 6.6158 4.00702 6.58481 4.04575 6.54575L8.33325 2.25409V3.74992C8.33325 3.86043 8.37715 3.96641 8.45529 4.04455C8.53343 4.12269 8.63941 4.16659 8.74992 4.16659C8.86043 4.16659 8.96641 4.12269 9.04455 4.04455C9.12269 3.96641 9.16659 3.86043 9.16659 3.74992V1.24992C9.16593 1.19547 9.1546 1.14168 9.13325 1.09159Z" fill="#383838"/>
</svg>
