<svg width="10" height="10" viewBox="0 0 10 10" fill="none" xmlns="http://www.w3.org/2000/svg">
<path d="M9.45 0H0.55C0.404131 0 0.264236 0.0579463 0.161091 0.161091C0.0579463 0.264236 0 0.404131 0 0.55V9.45C0 9.59587 0.0579463 9.73576 0.161091 9.83891C0.264236 9.94205 0.404131 10 0.55 10H5.34V6.125H4.04V4.625H5.34V3.5C5.31307 3.23588 5.34425 2.96906 5.43136 2.71827C5.51846 2.46747 5.65938 2.23877 5.84423 2.04821C6.02908 1.85764 6.25339 1.70982 6.50141 1.61512C6.74944 1.52042 7.01518 1.48113 7.28 1.5C7.66916 1.49761 8.05814 1.51764 8.445 1.56V2.91H7.65C7.02 2.91 6.9 3.21 6.9 3.645V4.61H8.4L8.205 6.11H6.9V10H9.45C9.52223 10 9.59375 9.98577 9.66048 9.95813C9.72721 9.93049 9.78784 9.88998 9.83891 9.83891C9.88998 9.78784 9.93049 9.72721 9.95813 9.66048C9.98577 9.59375 10 9.52223 10 9.45V0.55C10 0.477773 9.98577 0.406253 9.95813 0.339524C9.93049 0.272795 9.88998 0.212164 9.83891 0.161091C9.78784 0.110019 9.72721 0.0695064 9.66048 0.0418663C9.59375 0.0142262 9.52223 0 9.45 0Z" fill="#383838"/>
</svg>
