<svg width="10" height="11" viewBox="0 0 10 11" fill="none" xmlns="http://www.w3.org/2000/svg">
<path d="M8.5 0.5H1.5C1.10218 0.5 0.720645 0.658035 0.43934 0.93934C0.158035 1.22064 9.0439e-08 1.60218 9.0439e-08 2V2.585C-7.16036e-05 2.79147 0.0424832 2.99573 0.125 3.185V3.215C0.19564 3.37549 0.295696 3.52133 0.42 3.645L3.5 6.705V10C3.49983 10.085 3.52132 10.1686 3.56244 10.2429C3.60355 10.3173 3.66294 10.38 3.735 10.425C3.81457 10.4743 3.90639 10.5003 4 10.5C4.07827 10.4995 4.15534 10.4807 4.225 10.445L6.225 9.445C6.30746 9.40345 6.3768 9.33988 6.42534 9.26133C6.47388 9.18279 6.49972 9.09233 6.5 9V6.705L9.56 3.645C9.6843 3.52133 9.78436 3.37549 9.855 3.215V3.185C9.94441 2.99722 9.99379 2.79289 10 2.585V2C10 1.60218 9.84196 1.22064 9.56066 0.93934C9.27936 0.658035 8.89782 0.5 8.5 0.5ZM5.645 6.145C5.59866 6.19172 5.562 6.24713 5.53711 6.30805C5.51223 6.36897 5.49962 6.4342 5.5 6.5V8.69L4.5 9.19V6.5C4.50038 6.4342 4.48777 6.36897 4.46289 6.30805C4.438 6.24713 4.40134 6.19172 4.355 6.145L1.705 3.5H8.295L5.645 6.145ZM9 2.5H1V2C1 1.86739 1.05268 1.74021 1.14645 1.64645C1.24022 1.55268 1.36739 1.5 1.5 1.5H8.5C8.63261 1.5 8.75979 1.55268 8.85355 1.64645C8.94732 1.74021 9 1.86739 9 2V2.5Z" fill="#6057D3"/>
</svg>
