<svg width="10" height="10" viewBox="0 0 10 10" fill="none" xmlns="http://www.w3.org/2000/svg">
<path d="M4.99988 0.123535C3.81259 0.123509 2.66404 0.545977 1.75976 1.31534C0.855479 2.0847 0.254481 3.15074 0.0643174 4.3227C-0.125847 5.49466 0.107234 6.69604 0.721849 7.71186C1.33646 8.72768 2.2925 9.49164 3.41888 9.86703C3.66888 9.91103 3.76238 9.76104 3.76238 9.62954C3.76238 9.51104 3.75638 9.11703 3.75638 8.69853C2.49988 8.92953 2.17488 8.39204 2.07488 8.11104C1.96395 7.83741 1.78805 7.59492 1.56238 7.40454C1.38738 7.31104 1.13738 7.07954 1.55588 7.07353C1.71582 7.09084 1.86923 7.14646 2.0031 7.23568C2.13696 7.3249 2.24735 7.44508 2.32488 7.58604C2.39324 7.70887 2.48518 7.81701 2.59541 7.90426C2.70564 7.9915 2.83201 8.05614 2.96727 8.09446C3.10253 8.13278 3.24402 8.14403 3.38363 8.12757C3.52325 8.11111 3.65824 8.06726 3.78088 7.99854C3.80254 7.74422 3.91591 7.50645 4.09988 7.32954C2.98738 7.20454 1.82488 6.77354 1.82488 4.86104C1.81779 4.36402 2.00117 3.88314 2.33738 3.51704C2.18453 3.08514 2.20242 2.61118 2.38738 2.19204C2.38738 2.19204 2.80588 2.06104 3.76238 2.70454C4.58052 2.47951 5.44424 2.47951 6.26238 2.70454C7.21838 2.05454 7.63738 2.19204 7.63738 2.19204C7.82239 2.61117 7.84027 3.08515 7.68738 3.51704C8.02461 3.88251 8.20814 4.36382 8.19988 4.86104C8.19988 6.77954 7.03088 7.20454 5.91838 7.32954C6.03771 7.45048 6.12961 7.59568 6.18785 7.75529C6.24608 7.91489 6.26928 8.08517 6.25588 8.25454C6.25588 8.92354 6.24988 9.46104 6.24988 9.62954C6.24988 9.76104 6.34338 9.91704 6.59338 9.86703C7.71768 9.4885 8.67087 8.72273 9.28279 7.70641C9.89472 6.6901 10.1255 5.48939 9.93407 4.31863C9.7426 3.14787 9.14129 2.08325 8.23748 1.31483C7.33367 0.5464 6.18619 0.12418 4.99988 0.123535Z" fill="#383838"/>
</svg>
