<svg width="10" height="10" viewBox="0 0 10 10" fill="none" xmlns="http://www.w3.org/2000/svg">
<path d="M5 3.76C4.75475 3.76 4.51501 3.83272 4.31109 3.96898C4.10718 4.10523 3.94824 4.29889 3.85439 4.52547C3.76054 4.75205 3.73598 5.00138 3.78383 5.24191C3.83167 5.48245 3.94977 5.7034 4.12319 5.87681C4.2966 6.05023 4.51755 6.16833 4.75809 6.21617C4.99862 6.26402 5.24795 6.23946 5.47453 6.14561C5.70111 6.05176 5.89477 5.89282 6.03102 5.68891C6.16728 5.48499 6.24 5.24525 6.24 5C6.24 4.83716 6.20793 4.67592 6.14561 4.52547C6.08329 4.37503 5.99196 4.23833 5.87681 4.12319C5.76167 4.00804 5.62497 3.91671 5.47453 3.85439C5.32408 3.79207 5.16284 3.76 5 3.76ZM9.965 2.535C9.96237 2.14888 9.89127 1.76629 9.755 1.405C9.65464 1.14063 9.49936 0.900547 9.29941 0.700593C9.09945 0.500638 8.85937 0.345359 8.595 0.245C8.23372 0.108732 7.85112 0.0376304 7.465 0.035C6.82 -3.35276e-08 6.63 0 5 0C3.37 0 3.18 -3.35276e-08 2.535 0.035C2.14888 0.0376304 1.76629 0.108732 1.405 0.245C1.14063 0.345359 0.900547 0.500638 0.700593 0.700593C0.500638 0.900547 0.345359 1.14063 0.245 1.405C0.108732 1.76629 0.0376304 2.14888 0.035 2.535C-3.35276e-08 3.18 0 3.37 0 5C0 6.63 -3.35276e-08 6.82 0.035 7.465C0.0403819 7.85248 0.111387 8.23625 0.245 8.6C0.344914 8.86316 0.500064 9.10185 0.7 9.3C0.899097 9.50115 1.13969 9.65643 1.405 9.755C1.76629 9.89127 2.14888 9.96237 2.535 9.965C3.18 10 3.37 10 5 10C6.63 10 6.82 10 7.465 9.965C7.85112 9.96237 8.23372 9.89127 8.595 9.755C8.86031 9.65643 9.1009 9.50115 9.3 9.3C9.49994 9.10185 9.65509 8.86316 9.755 8.6C9.89114 8.23694 9.96222 7.85273 9.965 7.465C10 6.82 10 6.63 10 5C10 3.37 10 3.18 9.965 2.535ZM8.695 6.535C8.67895 6.84355 8.6131 7.14748 8.5 7.435C8.40293 7.67484 8.25863 7.89272 8.07568 8.07568C7.89272 8.25863 7.67484 8.40293 7.435 8.5C7.14476 8.6068 6.83914 8.6659 6.53 8.675H3.47C3.16087 8.6659 2.85524 8.6068 2.565 8.5C2.31705 8.40786 2.09314 8.26086 1.91 8.07C1.72883 7.89063 1.58892 7.67393 1.5 7.435C1.39278 7.14506 1.3353 6.83909 1.33 6.53V5V3.47C1.3353 3.16091 1.39278 2.85494 1.5 2.565C1.59214 2.31705 1.73914 2.09314 1.93 1.91C2.11017 1.72981 2.32663 1.59005 2.565 1.5C2.85524 1.3932 3.16087 1.3341 3.47 1.325H6.53C6.83914 1.3341 7.14476 1.3932 7.435 1.5C7.68295 1.59214 7.90686 1.73914 8.09 1.93C8.27117 2.10937 8.41108 2.32607 8.5 2.565C8.6068 2.85524 8.6659 3.16087 8.675 3.47V5C8.675 6.03 8.71 6.135 8.695 6.53V6.535ZM7.895 2.815C7.83547 2.65349 7.74161 2.50682 7.61989 2.38511C7.49818 2.26339 7.35151 2.16953 7.19 2.11C6.96824 2.03313 6.73467 1.9959 6.5 2H3.5C3.26413 2.00231 3.03053 2.04632 2.81 2.13C2.65096 2.18683 2.50585 2.27686 2.38429 2.3941C2.26274 2.51134 2.16753 2.65312 2.105 2.81C2.03239 3.03268 1.99691 3.2658 2 3.5V6.5C2.00496 6.7356 2.04888 6.96875 2.13 7.19C2.18953 7.35151 2.28339 7.49818 2.40511 7.61989C2.52682 7.74161 2.67349 7.83547 2.835 7.895C3.04833 7.97346 3.27283 8.01734 3.5 8.025H6.5C6.73587 8.02269 6.96947 7.97868 7.19 7.895C7.35151 7.83547 7.49818 7.74161 7.61989 7.61989C7.74161 7.49818 7.83547 7.35151 7.895 7.19C7.97868 6.96947 8.02269 6.73587 8.025 6.5V5V3.5C8.02514 3.2639 7.98105 3.02986 7.895 2.81V2.815ZM5 6.91C4.74941 6.91 4.50128 6.86056 4.26983 6.76451C4.03838 6.66847 3.82815 6.5277 3.65119 6.35027C3.47423 6.17285 3.33401 5.96225 3.23857 5.73055C3.14313 5.49884 3.09434 5.25059 3.095 5C3.095 4.62203 3.20715 4.25255 3.41724 3.93834C3.62734 3.62414 3.92594 3.37933 4.27523 3.23492C4.62453 3.0905 5.00883 3.05297 5.37947 3.12707C5.7501 3.20118 6.09042 3.38358 6.35734 3.6512C6.62426 3.91882 6.80578 4.25962 6.87891 4.63045C6.95204 5.00128 6.9135 5.38548 6.76817 5.7344C6.62284 6.08331 6.37725 6.38127 6.0625 6.59054C5.74774 6.79981 5.37797 6.91099 5 6.91ZM7 3.465C6.88947 3.4533 6.78718 3.40111 6.71284 3.31849C6.6385 3.23586 6.59737 3.12865 6.59737 3.0175C6.59737 2.90635 6.6385 2.79914 6.71284 2.71651C6.78718 2.63389 6.88947 2.5817 7 2.57C7.11053 2.5817 7.21282 2.63389 7.28716 2.71651C7.3615 2.79914 7.40263 2.90635 7.40263 3.0175C7.40263 3.12865 7.3615 3.23586 7.28716 3.31849C7.21282 3.40111 7.11053 3.4533 7 3.465Z" fill="#383838"/>
</svg>
