<svg width="18" height="18" viewBox="0 0 18 18" fill="none" xmlns="http://www.w3.org/2000/svg">
<path d="M16.5 3.00807L17.0916 2.42473C17.2485 2.26781 17.3367 2.05498 17.3367 1.83307C17.3367 1.61115 17.2485 1.39832 17.0916 1.2414C16.9347 1.08448 16.7219 0.996323 16.5 0.996323C16.278 0.996323 16.0652 1.08448 15.9083 1.2414L14.7416 2.4164L12.3833 4.77473L7.12496 10.0247C6.26332 9.45626 5.22135 9.22787 4.20093 9.38381C3.18051 9.53974 2.25431 10.0689 1.60178 10.8688C0.949253 11.6686 0.616865 12.6822 0.669022 13.7132C0.721179 14.7441 1.15417 15.719 1.88409 16.4489C2.61401 17.1789 3.58889 17.6118 4.61984 17.664C5.65078 17.7162 6.66439 17.3838 7.46425 16.7312C8.26411 16.0787 8.79328 15.1525 8.94922 14.1321C9.10515 13.1117 8.87676 12.0697 8.30829 11.2081L12.9666 6.5414L14.7333 8.3164C14.811 8.39355 14.9031 8.45464 15.0044 8.49619C15.1057 8.53773 15.2142 8.55891 15.3237 8.55853C15.4332 8.55814 15.5416 8.53619 15.6426 8.49393C15.7436 8.45167 15.8353 8.38993 15.9125 8.31223C15.9896 8.23453 16.0507 8.1424 16.0922 8.04109C16.1338 7.93978 16.155 7.83128 16.1546 7.72179C16.1542 7.61229 16.1322 7.50394 16.09 7.40293C16.0477 7.30192 15.986 7.21022 15.9083 7.13306L14.1416 5.3664L15.325 4.1914L15.9083 4.77473C15.9854 4.85243 16.0771 4.91417 16.1782 4.95643C16.2792 4.99869 16.3875 5.02064 16.497 5.02103C16.6065 5.02142 16.715 5.00023 16.8163 4.95869C16.9176 4.91714 17.0098 4.85605 17.0875 4.7789C17.1652 4.70175 17.2269 4.61005 17.2692 4.50903C17.3114 4.40802 17.3334 4.29967 17.3338 4.19018C17.3341 4.08068 17.313 3.97218 17.2714 3.87087C17.2299 3.76957 17.1688 3.67743 17.0916 3.59973L16.5 3.00807ZM4.83329 15.9997C4.33884 15.9997 3.85549 15.8531 3.44437 15.5784C3.03324 15.3037 2.71281 14.9133 2.52359 14.4564C2.33437 13.9996 2.28487 13.497 2.38133 13.012C2.47779 12.5271 2.71589 12.0816 3.06552 11.732C3.41516 11.3823 3.86061 11.1442 4.34557 11.0478C4.83052 10.9513 5.33318 11.0008 5.79 11.19C6.24681 11.3793 6.63726 11.6997 6.91196 12.1108C7.18667 12.5219 7.33329 13.0053 7.33329 13.4997C7.33329 14.1628 7.0699 14.7987 6.60106 15.2675C6.13222 15.7363 5.49633 15.9997 4.83329 15.9997Z" fill="#6057D3"/>
</svg>
