<svg width="10" height="10" viewBox="0 0 10 10" fill="none" xmlns="http://www.w3.org/2000/svg">
<path d="M9.23503 6.99154e-05H0.765029C0.669819 -0.0012524 0.57528 0.0161937 0.486812 0.0514118C0.398344 0.0866299 0.317681 0.13893 0.249428 0.205326C0.181175 0.271722 0.12667 0.350912 0.0890253 0.438375C0.0513805 0.525837 0.0313335 0.619859 0.0300293 0.71507V9.28507C0.0313335 9.38028 0.0513805 9.4743 0.0890253 9.56176C0.12667 9.64923 0.181175 9.72842 0.249428 9.79481C0.317681 9.86121 0.398344 9.91351 0.486812 9.94873C0.57528 9.98395 0.669819 10.0014 0.765029 10.0001H9.23503C9.33024 10.0014 9.42478 9.98395 9.51325 9.94873C9.60171 9.91351 9.68238 9.86121 9.75063 9.79481C9.81888 9.72842 9.87339 9.64923 9.91103 9.56176C9.94868 9.4743 9.96873 9.38028 9.97003 9.28507V0.71507C9.96873 0.619859 9.94868 0.525837 9.91103 0.438375C9.87339 0.350912 9.81888 0.271722 9.75063 0.205326C9.68238 0.13893 9.60171 0.0866299 9.51325 0.0514118C9.42478 0.0161937 9.33024 -0.0012524 9.23503 6.99154e-05ZM3.04503 8.37007H1.54503V3.87007H3.04503V8.37007ZM2.29503 3.24007C2.08816 3.24007 1.88976 3.15789 1.74349 3.01161C1.59721 2.86533 1.51503 2.66694 1.51503 2.46007C1.51503 2.2532 1.59721 2.05481 1.74349 1.90853C1.88976 1.76225 2.08816 1.68007 2.29503 1.68007C2.40488 1.66761 2.51612 1.6785 2.62147 1.71201C2.72682 1.74553 2.8239 1.80091 2.90636 1.87455C2.98882 1.94819 3.05479 2.03841 3.09996 2.13931C3.14514 2.24021 3.16849 2.34952 3.16849 2.46007C3.16849 2.57062 3.14514 2.67993 3.09996 2.78083C3.05479 2.88173 2.98882 2.97195 2.90636 3.04559C2.8239 3.11923 2.72682 3.17461 2.62147 3.20813C2.51612 3.24164 2.40488 3.25253 2.29503 3.24007ZM8.45503 8.37007H6.95503V5.95507C6.95503 5.35007 6.74003 4.95507 6.19503 4.95507C6.02636 4.95631 5.86212 5.00921 5.72445 5.10666C5.58677 5.2041 5.48227 5.34141 5.42503 5.50007C5.3859 5.61759 5.36895 5.74136 5.37503 5.86507V8.36507H3.87503V3.86507H5.37503V4.50007C5.51129 4.26362 5.70948 4.06883 5.94825 3.93667C6.18702 3.80451 6.45731 3.74 6.73003 3.75007C7.73003 3.75007 8.45503 4.39507 8.45503 5.78007V8.37007Z" fill="#383838"/>
</svg>
