<svg width="18" height="17" viewBox="0 0 18 17" fill="none" xmlns="http://www.w3.org/2000/svg">
<path d="M9.09186 11.325L5.85852 14.5583C5.46705 14.9361 4.94424 15.1473 4.40019 15.1473C3.85614 15.1473 3.33332 14.9361 2.94186 14.5583C2.74986 14.3671 2.59752 14.1398 2.49357 13.8896C2.38962 13.6393 2.33611 13.371 2.33611 13.1C2.33611 12.829 2.38962 12.5607 2.49357 12.3104C2.59752 12.0602 2.74986 11.8329 2.94186 11.6417L6.17519 8.40833C6.33211 8.25141 6.42027 8.03858 6.42027 7.81666C6.42027 7.59475 6.33211 7.38192 6.17519 7.225C6.01827 7.06808 5.80544 6.97992 5.58352 6.97992C5.3616 6.97992 5.14878 7.06808 4.99186 7.225L1.75852 10.4667C1.10715 11.1757 0.754873 12.1089 0.775251 13.0715C0.79563 14.034 1.18709 14.9515 1.86788 15.6323C2.54868 16.3131 3.46616 16.7046 4.42873 16.7249C5.3913 16.7453 6.32453 16.393 7.03352 15.7417L10.2752 12.5083C10.3529 12.4306 10.4145 12.3384 10.4566 12.2369C10.4986 12.1354 10.5203 12.0265 10.5203 11.9167C10.5203 11.8068 10.4986 11.698 10.4566 11.5965C10.4145 11.4949 10.3529 11.4027 10.2752 11.325C10.1975 11.2473 10.1052 11.1857 10.0037 11.1436C9.90221 11.1016 9.79341 11.0799 9.68352 11.0799C9.57364 11.0799 9.46483 11.1016 9.36332 11.1436C9.2618 11.1857 9.16955 11.2473 9.09186 11.325ZM16.2419 1.25833C15.5408 0.56167 14.5927 0.170654 13.6044 0.170654C12.616 0.170654 11.6679 0.56167 10.9669 1.25833L7.72519 4.49166C7.64749 4.56936 7.58586 4.6616 7.54381 4.76312C7.50176 4.86464 7.48011 4.97345 7.48011 5.08333C7.48011 5.19321 7.50176 5.30202 7.54381 5.40354C7.58586 5.50506 7.64749 5.5973 7.72519 5.675C7.80289 5.7527 7.89513 5.81433 7.99665 5.85638C8.09817 5.89843 8.20697 5.92007 8.31686 5.92007C8.42674 5.92007 8.53555 5.89843 8.63706 5.85638C8.73858 5.81433 8.83082 5.7527 8.90852 5.675L12.1419 2.44166C12.5333 2.06385 13.0561 1.85271 13.6002 1.85271C14.1442 1.85271 14.6671 2.06385 15.0585 2.44166C15.2505 2.6329 15.4029 2.86017 15.5068 3.11043C15.6108 3.36069 15.6643 3.62901 15.6643 3.9C15.6643 4.17099 15.6108 4.43931 15.5068 4.68957C15.4029 4.93982 15.2505 5.16709 15.0585 5.35833L11.8252 8.59166C11.7471 8.66913 11.6851 8.7613 11.6428 8.86285C11.6005 8.9644 11.5787 9.07332 11.5787 9.18333C11.5787 9.29334 11.6005 9.40226 11.6428 9.50381C11.6851 9.60536 11.7471 9.69753 11.8252 9.775C11.9027 9.8531 11.9948 9.9151 12.0964 9.95741C12.1979 9.99971 12.3068 10.0215 12.4169 10.0215C12.5269 10.0215 12.6358 9.99971 12.7373 9.95741C12.8389 9.9151 12.9311 9.8531 13.0085 9.775L16.2419 6.53333C16.9385 5.83231 17.3295 4.88414 17.3295 3.89583C17.3295 2.90752 16.9385 1.95935 16.2419 1.25833ZM6.35852 11.1417C6.43639 11.2189 6.52874 11.28 6.63027 11.3215C6.7318 11.3629 6.84052 11.384 6.95019 11.3833C7.05986 11.384 7.16858 11.3629 7.27011 11.3215C7.37164 11.28 7.46399 11.2189 7.54186 11.1417L11.6419 7.04166C11.7988 6.88474 11.8869 6.67192 11.8869 6.45C11.8869 6.22808 11.7988 6.01525 11.6419 5.85833C11.4849 5.70141 11.2721 5.61325 11.0502 5.61325C10.8283 5.61325 10.6154 5.70141 10.4585 5.85833L6.35852 9.95833C6.28042 10.0358 6.21842 10.128 6.17611 10.2295C6.13381 10.3311 6.11202 10.44 6.11202 10.55C6.11202 10.66 6.13381 10.7689 6.17611 10.8705C6.21842 10.972 6.28042 11.0642 6.35852 11.1417Z" fill="#6057D3"/>
</svg>
