<svg width="20" height="19" viewBox="0 0 20 19" fill="none" xmlns="http://www.w3.org/2000/svg">
<path d="M18.8342 1.05141C18.7967 0.908611 18.7219 0.77835 18.6175 0.673951C18.5131 0.569552 18.3828 0.494763 18.24 0.457238C16.5307 0.0133576 14.7307 0.0612409 13.0474 0.595376C11.364 1.12951 9.86575 2.12818 8.72503 3.4764L7.79503 4.57974L5.62503 4.05641C5.09733 3.87228 4.52082 3.88536 4.002 4.09322C3.48319 4.30108 3.05713 4.68969 2.80253 5.18724L0.969201 8.43724C0.905011 8.55104 0.868479 8.67833 0.862552 8.80885C0.856626 8.93937 0.881471 9.06945 0.935083 9.1886C0.988696 9.30775 1.06957 9.41262 1.17118 9.49475C1.27279 9.57688 1.39229 9.63397 1.52003 9.6614L4.08087 10.2106C3.86401 10.8708 3.70918 11.5499 3.61837 12.2389C3.60186 12.3654 3.61462 12.494 3.65565 12.6148C3.69668 12.7356 3.7649 12.8453 3.85503 12.9356L6.43837 15.5189C6.51583 15.5964 6.60781 15.6578 6.70905 15.6997C6.81029 15.7416 6.9188 15.7632 7.02837 15.7631C7.0517 15.7631 7.07587 15.7622 7.10003 15.7597C7.8046 15.6964 8.50062 15.5596 9.1767 15.3514L9.71337 17.8547C9.7408 17.9825 9.79789 18.102 9.88002 18.2036C9.96215 18.3052 10.067 18.3861 10.1862 18.4397C10.3053 18.4933 10.4354 18.5181 10.5659 18.5122C10.6964 18.5063 10.8237 18.4698 10.9375 18.4056L14.1917 16.5706C14.6498 16.2923 15.0077 15.8756 15.2136 15.3808C15.4196 14.8859 15.4629 14.3384 15.3375 13.8172L14.7809 11.5172L15.8117 10.5697C17.1648 9.43202 18.1671 7.93351 18.7021 6.24851C19.237 4.56351 19.2825 2.76127 18.8334 1.05141H18.8342ZM2.9767 8.2689L4.27337 5.9689C4.35406 5.81288 4.49135 5.6936 4.65712 5.63551C4.82289 5.57741 5.0046 5.58489 5.16503 5.6564L6.5967 6.00307L6.05503 6.6464C5.54131 7.26183 5.09696 7.93198 4.73003 8.64474L2.9767 8.2689ZM13.3684 15.1206L11.1059 16.3972L10.7475 14.7264C11.4732 14.3646 12.1493 13.9109 12.7592 13.3764L13.3784 12.8072L13.715 14.1939C13.7586 14.3653 13.7487 14.5459 13.6868 14.7115C13.6248 14.8771 13.5137 15.0199 13.3684 15.1206ZM14.7142 9.3164L11.6434 12.1381C10.4281 13.189 8.9291 13.8571 7.33503 14.0581L5.33087 12.0547C5.6 10.4564 6.29069 8.95877 7.3317 7.7164L8.73087 6.05557C8.75411 6.0314 8.77582 6.00579 8.79587 5.9789L9.9917 4.55807C10.8759 3.51381 12.0214 2.7229 13.3112 2.26612C14.6011 1.80933 15.989 1.70303 17.3334 1.95807C17.5945 3.3066 17.4892 4.70048 17.0286 5.99451C16.5679 7.28854 15.7687 8.43538 14.7142 9.31557V9.3164ZM13.945 4.17974C13.6978 4.17974 13.4561 4.25305 13.2506 4.3904C13.045 4.52775 12.8848 4.72298 12.7902 4.95138C12.6956 5.17979 12.6708 5.43112 12.7191 5.6736C12.7673 5.91608 12.8863 6.13881 13.0612 6.31362C13.236 6.48844 13.4587 6.60749 13.7012 6.65572C13.9436 6.70395 14.195 6.6792 14.4234 6.58459C14.6518 6.48998 14.847 6.32976 14.9844 6.1242C15.1217 5.91864 15.195 5.67696 15.195 5.42974C15.195 5.09822 15.0633 4.78027 14.8289 4.54585C14.5945 4.31143 14.2766 4.17974 13.945 4.17974Z" fill="#6057D3"/>
</svg>
