<svg width="26" height="29" viewBox="0 0 26 29" fill="none" xmlns="http://www.w3.org/2000/svg">
<path d="M8 6.83307C8.24723 6.83307 8.4889 6.75976 8.69446 6.62241C8.90002 6.48505 9.06024 6.28983 9.15485 6.06142C9.24946 5.83302 9.27421 5.58168 9.22598 5.33921C9.17775 5.09673 9.0587 4.874 8.88388 4.69919C8.70907 4.52437 8.48634 4.40532 8.24386 4.35709C8.00139 4.30886 7.75005 4.33361 7.52165 4.42822C7.29324 4.52283 7.09801 4.68304 6.96066 4.88861C6.82331 5.09417 6.75 5.33584 6.75 5.58307C6.75 5.91459 6.8817 6.23253 7.11612 6.46695C7.35054 6.70137 7.66848 6.83307 8 6.83307ZM24.25 23.0831H16.525C16.3384 22.5588 16.0374 22.0827 15.6439 21.6892C15.2504 21.2957 14.7742 20.9947 14.25 20.8081V18.0831H19.25C20.2446 18.0831 21.1984 17.688 21.9017 16.9847C22.6049 16.2815 23 15.3276 23 14.3331V11.8331C22.9945 10.908 22.6472 10.0176 22.025 9.33307C22.6472 8.64852 22.9945 7.75814 23 6.83307V4.33307C23 3.33851 22.6049 2.38468 21.9017 1.68142C21.1984 0.978157 20.2446 0.583069 19.25 0.583069H6.75C5.75544 0.583069 4.80161 0.978157 4.09835 1.68142C3.39509 2.38468 3 3.33851 3 4.33307V6.83307C3.00551 7.75814 3.35276 8.64852 3.975 9.33307C3.35276 10.0176 3.00551 10.908 3 11.8331V14.3331C3 15.3276 3.39509 16.2815 4.09835 16.9847C4.80161 17.688 5.75544 18.0831 6.75 18.0831H11.75V20.8081C11.2258 20.9947 10.7496 21.2957 10.3561 21.6892C9.96263 22.0827 9.66165 22.5588 9.475 23.0831H1.75C1.41848 23.0831 1.10054 23.2148 0.866116 23.4492C0.631696 23.6836 0.5 24.0015 0.5 24.3331C0.5 24.6646 0.631696 24.9825 0.866116 25.217C1.10054 25.4514 1.41848 25.5831 1.75 25.5831H9.475C9.73776 26.307 10.217 26.9325 10.8477 27.3745C11.4784 27.8165 12.2299 28.0537 13 28.0537C13.7701 28.0537 14.5216 27.8165 15.1523 27.3745C15.783 26.9325 16.2622 26.307 16.525 25.5831H24.25C24.5815 25.5831 24.8995 25.4514 25.1339 25.217C25.3683 24.9825 25.5 24.6646 25.5 24.3331C25.5 24.0015 25.3683 23.6836 25.1339 23.4492C24.8995 23.2148 24.5815 23.0831 24.25 23.0831ZM5.5 4.33307C5.5 4.00155 5.6317 3.68361 5.86612 3.44919C6.10054 3.21476 6.41848 3.08307 6.75 3.08307H19.25C19.5815 3.08307 19.8995 3.21476 20.1339 3.44919C20.3683 3.68361 20.5 4.00155 20.5 4.33307V6.83307C20.5 7.16459 20.3683 7.48253 20.1339 7.71695C19.8995 7.95137 19.5815 8.08307 19.25 8.08307H6.75C6.41848 8.08307 6.10054 7.95137 5.86612 7.71695C5.6317 7.48253 5.5 7.16459 5.5 6.83307V4.33307ZM6.75 15.5831C6.41848 15.5831 6.10054 15.4514 5.86612 15.217C5.6317 14.9825 5.5 14.6646 5.5 14.3331V11.8331C5.5 11.5015 5.6317 11.1836 5.86612 10.9492C6.10054 10.7148 6.41848 10.5831 6.75 10.5831H19.25C19.5815 10.5831 19.8995 10.7148 20.1339 10.9492C20.3683 11.1836 20.5 11.5015 20.5 11.8331V14.3331C20.5 14.6646 20.3683 14.9825 20.1339 15.217C19.8995 15.4514 19.5815 15.5831 19.25 15.5831H6.75ZM13 25.5831C12.7528 25.5831 12.5111 25.5098 12.3055 25.3724C12.1 25.2351 11.9398 25.0398 11.8451 24.8114C11.7505 24.583 11.7258 24.3317 11.774 24.0892C11.8222 23.8467 11.9413 23.624 12.1161 23.4492C12.2909 23.2744 12.5137 23.1553 12.7561 23.1071C12.9986 23.0589 13.2499 23.0836 13.4784 23.1782C13.7068 23.2728 13.902 23.433 14.0393 23.6386C14.1767 23.8442 14.25 24.0858 14.25 24.3331C14.25 24.6646 14.1183 24.9825 13.8839 25.217C13.6495 25.4514 13.3315 25.5831 13 25.5831ZM8 11.8331C7.75277 11.8331 7.5111 11.9064 7.30554 12.0437C7.09998 12.1811 6.93976 12.3763 6.84515 12.6047C6.75054 12.8331 6.72579 13.0845 6.77402 13.3269C6.82225 13.5694 6.9413 13.7921 7.11612 13.967C7.29093 14.1418 7.51366 14.2608 7.75614 14.3091C7.99861 14.3573 8.24995 14.3325 8.47835 14.2379C8.70676 14.1433 8.90199 13.9831 9.03934 13.7775C9.17669 13.572 9.25 13.3303 9.25 13.0831C9.25 12.7515 9.1183 12.4336 8.88388 12.1992C8.64946 11.9648 8.33152 11.8331 8 11.8331Z" fill="white"/>
</svg>
