<svg width="18" height="18" viewBox="0 0 18 18" fill="none" xmlns="http://www.w3.org/2000/svg">
<path d="M0.666748 11.2251C0.666748 11.6671 0.842343 12.091 1.1549 12.4036C1.46746 12.7162 1.89139 12.8917 2.33341 12.8917C2.77544 12.8917 3.19937 12.7162 3.51193 12.4036C3.82449 12.091 4.00008 11.6671 4.00008 11.2251V9.55842H2.33341C1.89139 9.55842 1.46746 9.73401 1.1549 10.0466C0.842343 10.3591 0.666748 10.7831 0.666748 11.2251ZM11.2001 8.44175C11.6421 8.44175 12.066 8.26615 12.3786 7.95359C12.6912 7.64103 12.8667 7.21711 12.8667 6.77508V2.33341C12.8667 1.89139 12.6912 1.46746 12.3786 1.1549C12.066 0.842343 11.6421 0.666748 11.2001 0.666748C10.7581 0.666748 10.3341 0.842343 10.0216 1.1549C9.70901 1.46746 9.53342 1.89139 9.53342 2.33341V6.77508C9.5334 6.99536 9.57706 7.21346 9.66186 7.41676C9.74666 7.62006 9.87091 7.80454 10.0274 7.95953C10.184 8.11451 10.3697 8.23693 10.5738 8.3197C10.778 8.40247 10.9965 8.44395 11.2167 8.44175H11.2001ZM17.3001 6.77508C17.3001 6.33305 17.1245 5.90913 16.8119 5.59657C16.4994 5.28401 16.0754 5.10842 15.6334 5.10842C15.1914 5.10842 14.7675 5.28401 14.4549 5.59657C14.1423 5.90913 13.9667 6.33305 13.9667 6.77508V8.44175H15.6334C15.8551 8.44618 16.0754 8.40635 16.2815 8.32458C16.4875 8.24281 16.6752 8.12075 16.8335 7.96554C16.9918 7.81033 17.1176 7.6251 17.2034 7.42068C17.2893 7.21627 17.3335 6.99679 17.3334 6.77508H17.3001ZM6.78342 9.55842C6.34139 9.55842 5.91746 9.73401 5.6049 10.0466C5.29234 10.3591 5.11675 10.7831 5.11675 11.2251V15.6667C5.11675 16.1088 5.29234 16.5327 5.6049 16.8453C5.91746 17.1578 6.34139 17.3334 6.78342 17.3334C7.22544 17.3334 7.64937 17.1578 7.96193 16.8453C8.27449 16.5327 8.45008 16.1088 8.45008 15.6667V11.2251C8.45008 10.7831 8.27449 10.3591 7.96193 10.0466C7.64937 9.73401 7.22544 9.55842 6.78342 9.55842ZM11.2167 14.0001H9.55008V15.6667C9.55008 15.9964 9.64783 16.3186 9.83097 16.5927C10.0141 16.8668 10.2744 17.0804 10.5789 17.2065C10.8835 17.3327 11.2186 17.3657 11.5419 17.3014C11.8652 17.2371 12.1622 17.0783 12.3953 16.8453C12.6283 16.6122 12.7871 16.3152 12.8514 15.9919C12.9157 15.6686 12.8827 15.3335 12.7565 15.0289C12.6304 14.7244 12.4168 14.4641 12.1427 14.281C11.8686 14.0978 11.5464 14.0001 11.2167 14.0001ZM15.6667 9.55842H11.2167C10.7747 9.55842 10.3508 9.73401 10.0382 10.0466C9.72568 10.3591 9.55008 10.7831 9.55008 11.2251C9.55008 11.6671 9.72568 12.091 10.0382 12.4036C10.3508 12.7162 10.7747 12.8917 11.2167 12.8917H15.6667C16.1088 12.8917 16.5327 12.7162 16.8453 12.4036C17.1578 12.091 17.3334 11.6671 17.3334 11.2251C17.3334 10.7831 17.1578 10.3591 16.8453 10.0466C16.5327 9.73401 16.1088 9.55842 15.6667 9.55842ZM6.78342 5.10842H2.33341C1.89139 5.10842 1.46746 5.28401 1.1549 5.59657C0.842343 5.90913 0.666748 6.33305 0.666748 6.77508C0.666748 7.21711 0.842343 7.64103 1.1549 7.95359C1.46746 8.26615 1.89139 8.44175 2.33341 8.44175H6.78342C7.22544 8.44175 7.64937 8.26615 7.96193 7.95359C8.27449 7.64103 8.45008 7.21711 8.45008 6.77508C8.45008 6.33305 8.27449 5.90913 7.96193 5.59657C7.64937 5.28401 7.22544 5.10842 6.78342 5.10842ZM6.78342 0.666748C6.34139 0.666748 5.91746 0.842343 5.6049 1.1549C5.29234 1.46746 5.11675 1.89139 5.11675 2.33341C5.11675 2.77544 5.29234 3.19937 5.6049 3.51193C5.91746 3.82449 6.34139 4.00008 6.78342 4.00008H8.45008V2.33341C8.45008 1.89139 8.27449 1.46746 7.96193 1.1549C7.64937 0.842343 7.22544 0.666748 6.78342 0.666748Z" fill="#383838"/>
</svg>
