<svg width="10" height="10" viewBox="0 0 10 10" fill="none" xmlns="http://www.w3.org/2000/svg">
<path d="M10 1.9001C9.62417 2.06315 9.22671 2.17094 8.82 2.2201C9.24909 1.96377 9.57064 1.5605 9.725 1.0851C9.32178 1.32514 8.88038 1.49425 8.42 1.5851C8.11227 1.25139 7.70248 1.02925 7.2549 0.953531C6.80733 0.877808 6.34727 0.952784 5.9469 1.1667C5.54652 1.38061 5.22847 1.72137 5.04262 2.13552C4.85677 2.54968 4.81365 3.0138 4.92 3.4551C4.10471 3.41387 3.30722 3.20158 2.57933 2.83204C1.85143 2.46249 1.20942 1.94395 0.695 1.3101C0.514569 1.62519 0.41976 1.98202 0.42 2.3451C0.41936 2.6823 0.502109 3.01441 0.660878 3.31189C0.819647 3.60936 1.04951 3.86296 1.33 4.0501C1.00399 4.04123 0.684943 3.95375 0.4 3.7951V3.8201C0.402443 4.29255 0.567997 4.74965 0.868657 5.11409C1.16932 5.47852 1.58663 5.72793 2.05 5.82011C1.87163 5.87439 1.68644 5.90301 1.5 5.90511C1.37095 5.9036 1.24221 5.89189 1.115 5.8701C1.24695 6.27651 1.50231 6.63168 1.84554 6.88618C2.18876 7.14069 2.60279 7.28188 3.03 7.2901C2.3086 7.85774 1.41794 8.16753 0.5 8.1701C0.332868 8.17065 0.165868 8.16063 0 8.14011C0.937214 8.74523 2.02941 9.06647 3.145 9.0651C3.91485 9.0731 4.67857 8.92761 5.39156 8.63715C6.10455 8.34668 6.75251 7.91705 7.2976 7.37335C7.84269 6.82966 8.27398 6.1828 8.56628 5.47056C8.85858 4.75832 9.00602 3.99497 9 3.2251V2.9601C9.39235 2.66751 9.73074 2.30882 10 1.9001Z" fill="#383838"/>
</svg>
