<svg width="12" height="8" viewBox="0 0 12 8" fill="none" xmlns="http://www.w3.org/2000/svg">
<path d="M11.5 2.85499C11.5247 2.13932 11.3682 1.429 11.045 0.789992C10.8257 0.527791 10.5214 0.350847 10.185 0.289992C8.79377 0.163755 7.39678 0.112014 6.00001 0.134992C4.60834 0.110971 3.21637 0.161042 1.83001 0.284992C1.55592 0.33485 1.30227 0.463413 1.10001 0.654992C0.650013 1.06999 0.600013 1.77999 0.550013 2.37999C0.477469 3.45877 0.477469 4.54121 0.550013 5.61999C0.564479 5.95769 0.61476 6.29291 0.700013 6.61999C0.760301 6.87252 0.882275 7.10616 1.05501 7.29999C1.25865 7.50172 1.51821 7.6376 1.80001 7.68999C2.87797 7.82305 3.96412 7.87819 5.05001 7.85499C6.80001 7.87999 8.33501 7.85499 10.15 7.71499C10.4387 7.66581 10.7056 7.52976 10.915 7.32499C11.055 7.18495 11.1596 7.01354 11.22 6.82499C11.3988 6.2763 11.4867 5.70205 11.48 5.12499C11.5 4.84499 11.5 3.15499 11.5 2.85499ZM4.87001 5.42499V2.32999L7.83001 3.88499C7.00001 4.34499 5.90501 4.86499 4.87001 5.42499Z" fill="#383838"/>
</svg>
