<svg xmlns="http://www.w3.org/2000/svg" viewBox="0 0 982.31 175.68"><title>browsers</title><g id="Layer_1" data-name="Layer 1"><path d="M982.31,86.43c0,54.83-33.95,87.79-83.91,87.79-46.71,0-80.64-33.2-80.64-85.78,0-49.81,34.39-88.29,83-88.29C949.06.15,982.31,35.35,982.31,86.43ZM899.08,27.14c-23.09,0-35.49,23-35.49,56.44,0,24.42,8.08,63.64,38.69,63.64,24.6,0,34.19-25.61,34.19-58C936.47,55,922.38,27.14,899.08,27.14Z" style="fill:#e16b5a"/><path d="M896.26,27.27c-.86-.08-1.73-.13-2.62-.13-23.09,0-35.49,23-35.49,56.44,0,24.42,8.08,63.64,38.69,63.64.91,0,1.78,0,2.64-.11-28.31-2.32-35.89-39.88-35.89-63.53C863.59,51.55,875,29.09,896.26,27.27Z" style="fill:#bf5b4d"/><path d="M900.72.15c-.88,0-1.74,0-2.61.06,46.8,1.36,78.76,36.15,78.76,86.22,0,53.79-32.68,86.5-81.1,87.73.88,0,1.74.06,2.63.06,50,0,83.91-33,83.91-87.79C982.31,35.35,949.06.15,900.72.15Z" style="fill:#bf5b4d"/></g><g id="Layer_2" data-name="Layer 2"><circle cx="506.03" cy="88.52" r="87.03" style="fill:#f5f5f5"/><path d="M506,1.49c-.45,0-.9,0-1.36,0a87,87,0,0,1,0,174c.46,0,.91,0,1.36,0A87,87,0,1,0,506,1.49Z" style="fill:#e6e6e6"/><path d="M506,167.82a79.3,79.3,0,1,1,79.3-79.3A79.39,79.39,0,0,1,506,167.82Z" style="fill:#88c5cc"/><path d="M434.47,88.52A79.41,79.41,0,0,1,509.9,9.32Q508,9.23,506,9.23a79.3,79.3,0,1,0,0,158.59c1.3,0,2.59,0,3.87-.1A79.39,79.39,0,0,1,434.47,88.52Z" style="fill:#80b9bf"/><path d="M506,59.51a29,29,0,1,0,29,29A29,29,0,0,0,506,59.51Zm0,50.29a21.28,21.28,0,1,1,21.28-21.28A21.29,21.29,0,0,1,506,109.8Z" style="fill:#f5f5f5"/><polygon points="506.03 38.24 500.23 61.45 506.03 61.45 511.84 61.45 506.03 38.24" style="fill:#f5f5f5"/><polygon points="506.03 138.81 500.23 115.6 506.03 115.6 511.84 115.6 506.03 138.81" style="fill:#f5f5f5"/><polygon points="455.75 88.52 478.95 94.33 478.95 88.52 478.95 82.72 455.75 88.52" style="fill:#f5f5f5"/><polygon points="556.32 88.52 533.11 94.33 533.11 88.52 533.11 82.72 556.32 88.52" style="fill:#f5f5f5"/><polygon points="553.9 40.66 499.2 81.69 506.03 88.52 512.87 95.36 553.9 40.66" style="fill:#e16b5a"/><polygon points="458.17 136.39 499.2 81.69 506.03 88.52 512.87 95.36 458.17 136.39" style="fill:#e6e6e6"/></g><g id="Layer_3" data-name="Layer 3"><path d="M291.16,1.63S342.47-.68,369.67,50.8H286.79s-15.65-.52-29,18.44c-3.85,7.94-8,16.14-3.34,32.27-6.67-11.27-35.4-61.21-35.4-61.21S239.33,3.67,291.16,1.63Z" style="fill:#e16b5a"/><path d="M291.16,1.63c-.89,0-1.74.1-2.61.15,13.85,1,51.28,7.64,73.14,49h8C342.47-.68,291.16,1.63,291.16,1.63Z" style="fill:#cc6152"/><path d="M367,132.33s-23.67,45.5-81.93,43.26c7.19-12.41,41.45-71.63,41.45-71.63s8.27-13.27-1.5-34.28c-5-7.3-20-15-36.31-19,13.11-.13,80.79,0,80.79,0S391.14,86.5,367,132.33Z" style="fill:#ffd464"/><path d="M369.5,50.66s-34.52-.07-59-.06c23.51,0,51.68.06,51.68.06s21.64,35.84-2.51,81.67c0,0-21.68,41.61-74.57,43.26h0c58.26,2.24,81.93-43.26,81.93-43.26C391.14,86.5,369.5,50.66,369.5,50.66Z" style="fill:#f2c95f"/><path d="M215.68,132.67S188,89.46,219.11,40.21l41.42,71.65s7.38,13.79,30.49,15.85c8.81-.64,18-1.18,29.67-13.24-6.45,11.4-35.42,61.21-35.42,61.21S243.36,176.46,215.68,132.67Z" style="fill:#74b340"/><circle cx="290.95" cy="89.35" r="39.44" style="fill:#fff"/><circle cx="290.93" cy="89.35" r="31.28" style="fill:#2995cc"/><path d="M290.94,58.08c-.62,0-1.24,0-1.85.06a31.27,31.27,0,0,1,0,62.44c.61,0,1.23.06,1.85.06a31.28,31.28,0,1,0,0-62.56Z" style="fill:#268cbf"/></g><g id="Layer_5" data-name="Layer 5"><path d="M786.84,39.56C803-2.23,771.66.7,771.66.7,751.59.7,726.51,19,726.51,19s-29.93-8.07-59.86,10C634,49.8,635.11,86.71,635.11,86.71c26.53-38,63.44-53.4,63.44-53.4v2.51c-54.48,37.25-67.38,91.75-70.61,102.86s-1.07,36,21.87,36S696,156.24,696,156.24s5,1.08,18.64,1.08c57.34,0,71-50.54,71-50.54H734.75s-3.59,16.49-21.86,16.49c-25.09,0-23.66-26.16-23.66-26.16h97.13c4.66-67.38-54.12-77.06-54.12-77.06S753,5.36,771,5.36c28.42,0,15,33.3,15,33.3ZM693.2,155.5s-35,21.24-50.72,6.52c-8.42-14.72,5.26-35.56,5.26-35.56S659.32,147.92,693.2,155.5Zm42.1-81.32H689.11s-.59-22.52,23.68-22.52C736.22,51.66,735.3,74.18,735.3,74.18Z" style="fill:#2995cc"/></g><g id="Layer_4" data-name="Layer 4"><path d="M86.71,171.19c46.06,0,83.41-38.33,83.41-85.6S132.77,0,86.71,0,3.3,38.33,3.3,85.59,40.64,171.19,86.71,171.19Z" style="fill:#2179a6"/><path d="M169.38,96.8c-.43.33-.88.66-1.35,1a47.94,47.94,0,0,0,2-7.53c.08-1.54.13-3.08.13-4.64A86.78,86.78,0,0,0,155.64,37.4,69.32,69.32,0,0,0,121.21,15c16,10.85,22,20.07,25.84,28.27-4.3-4.5-11.64-9.2-16.6-9.59,7.44,5.68,19.88,22.5,18.56,48-1.91-4.11-5.4-10.54-7.88-12.79,2.67,25,.33,30.42-1.29,37.07a22,22,0,0,0-2.05-6.75s-.28,7.83-5.24,19c-3.75,8.45-7.63,11.06-9.35,10.76a1.18,1.18,0,0,1-.71-.25,7.26,7.26,0,0,0,0-3,5.93,5.93,0,0,0-2.6,2,7.8,7.8,0,0,1-1.65,1.72c-.12.1,1.13-1.64,1-1.56a19.88,19.88,0,0,0-1.94,1.82c-2.43,2.59-4.63,5.46-5.77,4.64a3.89,3.89,0,0,0,2.14-3.08c-1,.69-3.38,2.55-8.82,3.38-2.22.34-11.68,2.1-24.27-4.36,1.84-.21,4.58-.87,6.67.4-2.09-2.35-7.15-1.86-10.77-3-3.16-1-7.28-5.57-9.65-7.86,9.68,2.43,20,.67,25.92-3.5s9.57-7.29,12.76-6.56,5.32-2.55,2.83-5.47a16.41,16.41,0,0,0-16.65-4.74c-6.26,1.61-11.59,6.76-20.37,3.18-.54-.22-1.08-.47-1.65-.75s1.84.34,1.25,0a38.7,38.7,0,0,1-5.52-2.63c-.13-.09,1.27.26,1.12.17-8.34-5.06-7.79-9.11-7.79-11.62a7.31,7.31,0,0,1,3.41-6,16,16,0,0,1,1.95.84s-.55-.87-.9-1.3l.25-.08a26.58,26.58,0,0,1,6.33,3.34c2.22-4.25.56-11.28.34-11.71v0c.47-2.16,13-8.9,14-9.62a11.89,11.89,0,0,0,3.45-4.25,9.33,9.33,0,0,0,.92-5c-.09-1.66-1-2.67-14.42-2.55a8.94,8.94,0,0,1-7.48-4.24c-.29-.45-.55-.88-.78-1.27a13.81,13.81,0,0,1-.69-1.5c1.6-5.95,6.93-14.4,11.74-17C67.9,24.7,57,32.86,53.93,37.24l0,0a35.08,35.08,0,0,0-20,.32c-4.12-2.05-6.74-6.35-8.22-10.33A85.67,85.67,0,0,0,15.61,40.84a50.63,50.63,0,0,0-.26,9.77c0,.49.07,1,.06,1.39a40.35,40.35,0,0,0-4,6.79c-2.57,5.13-5.2,13-7.32,25.28a59.65,59.65,0,0,1,4.27-9.85c-2,6.4-3.64,16.27-2.85,30.91l.15.63c.16-1.41.62-4.74,1.52-9a80.67,80.67,0,0,0,10.68,36.41c.72,1.27,1.59,2.75,2.63,4.38C35.73,158,59.72,171.19,86.71,171.19,129.07,171.19,164,138.77,169.38,96.8Z" style="fill:#195d80"/><path d="M149.93,136.33c4.79-9.25,11.29-14.66,14.81-21.05,4.67-8.51,13.49-32.43,6.84-51.72,3,12.08,2.09,24.35-7.63,30.52,3.14-8.51,5.12-27.18,1.87-44C163.71,39.15,157,29.36,152.7,26.3c4,3.08,7.22,14.11,7.13,19.17-8.37-14.47-22-28.29-42.7-34.14,16.05,10.85,22,20.07,25.84,28.27-4.29-4.5-11.64-9.19-16.6-9.58,7.44,5.67,19.89,22.5,18.56,48-1.91-4.11-5.4-10.53-7.88-12.78,2.67,25,.33,30.41-1.29,37.06a22.38,22.38,0,0,0-2-6.75s-.29,7.83-5.25,19c-3.75,8.44-7.63,11-9.34,10.75a1.12,1.12,0,0,1-.72-.25,6.93,6.93,0,0,0,0-3,5.93,5.93,0,0,0-2.6,2,7.8,7.8,0,0,1-1.65,1.72c-.12.1,1.13-1.64,1-1.56a21.19,21.19,0,0,0-1.94,1.82c-2.43,2.59-4.63,5.46-5.77,4.65a3.9,3.9,0,0,0,2.15-3.08c-1,.68-3.39,2.54-8.82,3.37-2.23.34-11.69,2.1-24.28-4.35,1.84-.22,4.58-.88,6.68.39-2.1-2.34-7.15-1.86-10.78-3-3.16-1-7.28-5.57-9.65-7.87,9.69,2.43,20,.68,25.92-3.49s9.57-7.3,12.76-6.57,5.32-2.55,2.83-5.47A16.43,16.43,0,0,0,87.6,95.87c-6.25,1.61-11.59,6.76-20.37,3.18q-.8-.31-1.65-.75c-.56-.29,1.84.34,1.25,0a37.65,37.65,0,0,1-5.52-2.63c-.13-.09,1.27.26,1.12.17-8.34-5.06-7.79-9.11-7.79-11.61a7.3,7.3,0,0,1,3.42-6,16.24,16.24,0,0,1,1.94.84s-.55-.87-.9-1.3l.25-.07A26.32,26.32,0,0,1,65.69,81c2.21-4.25.56-11.28.33-11.71v0c.47-2.16,13-8.9,14-9.61a11.91,11.91,0,0,0,3.45-4.26,9.33,9.33,0,0,0,.92-5c-.09-1.66-1-2.67-14.42-2.55a8.93,8.93,0,0,1-7.47-4.23c-.29-.46-.55-.89-.78-1.28a11.48,11.48,0,0,1-.69-1.5c1.59-6,6.92-14.4,11.73-17C63.82,21,52.94,29.17,49.85,33.55l0,0a35.08,35.08,0,0,0-20,.32c-6.8-3.38-9.52-12.9-9.77-17-3.82,2.71-7.35,13.66-7.82,15.84a52.54,52.54,0,0,0-1,14.14c0,.49.07,1,.06,1.39a40.35,40.35,0,0,0-4,6.79c-2.57,5.13-5.2,13-7.32,25.28a60.71,60.71,0,0,1,4.27-9.85C2.17,77.12.53,87.37,1.5,102.75a89.37,89.37,0,0,1,1.59-9.63,80.64,80.64,0,0,0,10.68,36.41c5.91,10.39,21.5,34.53,60.63,43.57a18.57,18.57,0,0,1-7-3.82S82,174.1,92.71,173.69c-3.34-.59-4-2.25-4-2.25s37.91,2.2,51-16.14c-4.48,5.38-15.83,6.89-20.12,6.94,6.54-6.16,21-6,36.63-21.81,8.58-8.66,9.51-15.25,10.44-21.41C165.24,127.09,157.75,131.93,149.93,136.33Z" style="fill:#e78244"/><path d="M84.63,54.48c.61-1.51,1.3-5.08-.69-5.83A19.25,19.25,0,0,0,78.19,48c.89.23,3.44.75,4.1,2,1.27,2.33-1.72,7.92-2.15,9.11C81.5,59.09,84,56,84.63,54.48Z" style="fill:#144f66"/></g></svg>