<svg xmlns="http://www.w3.org/2000/svg" width="1144" height="621" fill="none"><g clip-path="url(#a)"><g clip-path="url(#b)"><path fill="#363247" fill-rule="evenodd" d="M846.44 518.22a8.18 8.18 0 0 1-8.25 8.37H705.02c-4.18-53.67-38.52-98.88-86.08-118.69l61.49-130.29a8.18 8.18 0 0 1 11.09-3.88 283.67 283.67 0 0 1 154.92 244.49z" clip-rule="evenodd" opacity=".65"/><path fill="#0C2921" fill-rule="evenodd" d="M281.92 518.22a8.18 8.18 0 0 0 8.25 8.37H420.5a140.11 140.11 0 0 1 43.29-90.4l-104.06-92.55a8.18 8.18 0 0 0-11.73.78 283.72 283.72 0 0 0-66.08 173.8z" clip-rule="evenodd" opacity=".65"/><path fill="#34481C" fill-rule="evenodd" d="M349.92 385.92a8.16 8.16 0 0 0 2.85 11.4l95.53 56.21a140.24 140.24 0 0 1 112.2-55.94h4.6c44.3 0 83.8 20.5 109.55 52.54l94.37-60.05a8.16 8.16 0 0 0 2.45-11.48 252.44 252.44 0 0 0-212.75-109.93 252.4 252.4 0 0 0-208.8 117.25z" clip-rule="evenodd" opacity=".65"/><path fill="#FBFDFC" d="M476.06 586.5v-6.9l-5.56-12.09h3.4l2.97 6.58a15.22 15.22 0 0 1 .88 2.7l.31-1.17c.16-.5.35-1.01.58-1.53l2.88-6.58h3.38l-5.56 12.1v6.88h-3.28zm17.23.25a7 7 0 0 1-3.17-.67 5.07 5.07 0 0 1-2.06-1.96 6.1 6.1 0 0 1-.7-2.99v-8.26c0-1.15.24-2.14.7-2.97a4.86 4.86 0 0 1 2.06-1.95c.9-.47 1.96-.7 3.17-.7a6.7 6.7 0 0 1 3.17.7 4.7 4.7 0 0 1 2.03 1.95c.49.83.73 1.81.73 2.94v8.3c0 1.14-.24 2.14-.73 2.99a4.9 4.9 0 0 1-2.03 1.95 6.9 6.9 0 0 1-3.17.67zm0-2.86c.89 0 1.55-.23 2-.7a2.9 2.9 0 0 0 .68-2.06v-8.26c0-.9-.23-1.59-.68-2.06-.45-.47-1.11-.7-2-.7-.88 0-1.55.23-2 .7-.45.47-.68 1.16-.68 2.06v8.26c0 .89.23 1.57.68 2.06.47.47 1.13.7 2 .7zm15.6 2.86c-1.86 0-3.32-.5-4.38-1.5a5.57 5.57 0 0 1-1.56-4.17v-13.57h3.28v13.55c0 .9.23 1.6.68 2.1.45.5 1.1.76 1.97.76.85 0 1.5-.25 1.95-.76.47-.5.7-1.2.7-2.1V567.5h3.28v13.57c0 1.75-.52 3.14-1.56 4.16-1.04 1-2.5 1.51-4.37 1.51zm9.76-.26v-18.98h6c1.27 0 2.36.23 3.28.7a5.25 5.25 0 0 1 2.97 4.94c0 1.25-.32 2.35-.97 3.3a5.08 5.08 0 0 1-2.54 2.03l3.76 8.01h-3.63l-3.3-7.54h-2.32v7.54h-3.25zm3.25-10.4h2.75c.92 0 1.64-.25 2.16-.75.52-.5.78-1.2.78-2.08 0-.9-.26-1.6-.78-2.11a2.92 2.92 0 0 0-2.15-.78h-2.76v5.72zm33.86 10.66a7.17 7.17 0 0 1-3.2-.67 5.2 5.2 0 0 1-2.1-1.96 5.93 5.93 0 0 1-.73-2.99v-8.26c0-1.16.24-2.16.72-3 .5-.83 1.2-1.47 2.11-1.92.92-.47 1.99-.7 3.2-.7a6.7 6.7 0 0 1 3.17.7c.9.45 1.6 1.1 2.1 1.93.5.83.76 1.83.76 2.99h-3.28c0-.9-.24-1.59-.72-2.06-.47-.47-1.15-.7-2.03-.7-.89 0-1.57.23-2.06.7-.48.47-.72 1.15-.72 2.03v8.3c0 .88.24 1.56.72 2.05.49.47 1.17.7 2.06.7.88 0 1.56-.23 2.03-.7.48-.49.72-1.17.72-2.06h3.28c0 1.13-.25 2.12-.75 2.97-.5.85-1.2 1.5-2.1 1.98-.9.45-1.95.67-3.18.67zm15.49 0c-1.86 0-3.32-.5-4.37-1.5a5.57 5.57 0 0 1-1.56-4.17v-13.57h3.27v13.55c0 .9.23 1.6.68 2.1.45.5 1.1.76 1.98.76.84 0 1.5-.25 1.95-.76.46-.5.7-1.2.7-2.1V567.5h3.27v13.57c0 1.75-.52 3.14-1.56 4.16-1.04 1-2.5 1.51-4.37 1.51zm9.76-.26v-18.98h6c1.27 0 2.37.23 3.28.7a5.25 5.25 0 0 1 2.97 4.94c0 1.25-.32 2.35-.96 3.3a5.08 5.08 0 0 1-2.55 2.03l3.77 8.01h-3.64l-3.3-7.54h-2.32v7.54h-3.25zm3.25-10.4h2.76c.92 0 1.64-.25 2.16-.75.52-.5.78-1.2.78-2.08 0-.9-.26-1.6-.78-2.11a2.92 2.92 0 0 0-2.16-.78h-2.76v5.72zm12.34 10.4v-18.98h6c1.27 0 2.37.23 3.28.7a5.25 5.25 0 0 1 2.97 4.94c0 1.25-.32 2.35-.96 3.3a5.09 5.09 0 0 1-2.55 2.03l3.77 8.01h-3.64l-3.3-7.54h-2.32v7.54h-3.25zm3.25-10.4h2.76c.92 0 1.64-.25 2.16-.75.52-.5.78-1.2.78-2.08 0-.9-.26-1.6-.78-2.11a2.92 2.92 0 0 0-2.16-.78h-2.76v5.72zm12.65 10.4v-18.98h11.4v2.83h-8.2v4.94h7.28v2.81h-7.28v5.57h8.2v2.83h-11.4zm15.18 0v-18.98h3.98l5.28 15.34-.19-1.95a94.61 94.61 0 0 1-.18-4.4v-8.99h2.97v18.98h-3.98l-5.23-15.34.13 1.82a79.35 79.35 0 0 1 .18 4.24v9.28h-2.96zm19.88 0v-15.96h-4.97v-3.02h13.21v3.02h-4.96v15.96h-3.28zm-144.48 34v-18.98h5.83c1.84 0 3.3.44 4.37 1.33a4.33 4.33 0 0 1 1.6 3.56c0 .85-.18 1.59-.56 2.2-.39.63-.9 1.12-1.56 1.47-.64.34-1.39.51-2.24.51v-.1c.92-.02 1.73.16 2.45.52.72.35 1.3.87 1.71 1.56.43.7.65 1.54.65 2.52 0 1.1-.25 2.05-.75 2.86a5.06 5.06 0 0 1-2.13 1.9c-.9.43-1.99.65-3.26.65h-6.1zm3.18-2.7h2.73c.95 0 1.7-.25 2.23-.76.56-.52.83-1.22.83-2.1 0-.89-.27-1.6-.83-2.13a2.97 2.97 0 0 0-2.23-.84h-2.73v5.83zm0-8.45h2.6c.86 0 1.54-.23 2.02-.68.5-.47.76-1.1.76-1.9 0-.8-.25-1.42-.76-1.87a2.87 2.87 0 0 0-2.02-.68h-2.6v5.13zm18.21 11.41c-1.85 0-3.3-.5-4.37-1.5a5.57 5.57 0 0 1-1.56-4.17v-13.57h3.28v13.55c0 .9.23 1.6.68 2.1.45.5 1.1.76 1.97.76.85 0 1.5-.25 1.95-.76.47-.5.7-1.2.7-2.1V601.5h3.28v13.57c0 1.75-.52 3.14-1.56 4.16-1.04 1-2.5 1.51-4.37 1.51zm15.65 0a8.1 8.1 0 0 1-3.38-.65 5.06 5.06 0 0 1-2.22-1.85 5.52 5.52 0 0 1-.77-2.86H537c0 .78.27 1.4.83 1.85.57.43 1.34.65 2.31.65.94 0 1.67-.22 2.19-.65.53-.43.8-1.03.8-1.8a2.73 2.73 0 0 0-2.16-2.65l-2.18-.6a6.37 6.37 0 0 1-3.46-2.05 5.53 5.53 0 0 1-1.2-3.59c0-1.07.25-2 .73-2.8a4.84 4.84 0 0 1 2.06-1.85c.9-.43 1.96-.65 3.17-.65 1.84 0 3.3.48 4.37 1.43a4.85 4.85 0 0 1 1.64 3.8h-3.25c0-.75-.25-1.33-.73-1.75a2.98 2.98 0 0 0-2.06-.65c-.85 0-1.5.2-1.97.6-.47.4-.7.96-.7 1.7 0 .65.17 1.22.52 1.68.36.45.88.77 1.56.97l2.26.62a6.24 6.24 0 0 1 3.46 2.05 5.5 5.5 0 0 1 1.2 3.62c0 1.07-.27 2.02-.79 2.86a5.2 5.2 0 0 1-2.18 1.9c-.94.45-2.04.67-3.3.67zm10.07-.26v-2.86h3.83v-13.26h-3.83v-2.86h10.92v2.86h-3.82v13.26h3.83v2.86h-10.93zm15.13 0v-18.98h3.97l5.28 15.34-.18-1.95a99.88 99.88 0 0 1-.18-4.4v-8.99h2.96v18.98h-3.97l-5.23-15.34.13 1.82a83.5 83.5 0 0 1 .18 4.24v9.28h-2.96zm16 0v-18.98h11.4v2.83h-8.2v4.94h7.28v2.81h-7.28v5.57h8.2v2.83h-11.4zm21.16.26a8.1 8.1 0 0 1-3.38-.65 5.06 5.06 0 0 1-2.21-1.85 5.5 5.5 0 0 1-.78-2.86h3.25c0 .78.27 1.4.83 1.85.57.43 1.34.65 2.31.65.94 0 1.67-.22 2.19-.65.54-.43.8-1.03.8-1.8a2.73 2.73 0 0 0-2.16-2.65l-2.18-.6a6.37 6.37 0 0 1-3.46-2.05 5.53 5.53 0 0 1-1.2-3.59c0-1.07.25-2 .74-2.8a4.84 4.84 0 0 1 2.05-1.85c.9-.43 1.96-.65 3.17-.65 1.84 0 3.3.48 4.37 1.43a4.86 4.86 0 0 1 1.64 3.8h-3.25c0-.75-.24-1.33-.73-1.75a2.98 2.98 0 0 0-2.05-.65c-.85 0-1.51.2-1.98.6-.47.4-.7.96-.7 1.7 0 .65.17 1.22.52 1.68.36.45.88.77 1.56.97l2.26.62a6.25 6.25 0 0 1 3.46 2.05 5.5 5.5 0 0 1 1.2 3.62c0 1.07-.26 2.02-.78 2.86a5.2 5.2 0 0 1-2.19 1.9c-.94.45-2.04.67-3.3.67zm15.59 0a8.1 8.1 0 0 1-3.38-.65 5.06 5.06 0 0 1-2.21-1.85 5.5 5.5 0 0 1-.78-2.86h3.25c0 .78.28 1.4.83 1.85.57.43 1.34.65 2.32.65.93 0 1.66-.22 2.18-.65.54-.43.8-1.03.8-1.8a2.73 2.73 0 0 0-2.16-2.65l-2.18-.6a6.37 6.37 0 0 1-3.46-2.05 5.53 5.53 0 0 1-1.2-3.59c0-1.07.25-2 .74-2.8a4.84 4.84 0 0 1 2.05-1.85c.9-.43 1.96-.65 3.17-.65 1.84 0 3.3.48 4.37 1.43a4.85 4.85 0 0 1 1.64 3.8h-3.25c0-.75-.24-1.33-.73-1.75a2.98 2.98 0 0 0-2.05-.65c-.85 0-1.51.2-1.98.6-.47.4-.7.96-.7 1.7 0 .65.17 1.22.52 1.68.36.45.88.77 1.56.97l2.26.62a6.24 6.24 0 0 1 3.46 2.05 5.5 5.5 0 0 1 1.2 3.62c0 1.07-.26 2.02-.79 2.86a5.2 5.2 0 0 1-2.18 1.9c-.94.45-2.04.67-3.3.67zM601.92 499a2.5 2.5 0 0 1-2.5 2.5h-34.08v34.09a2.5 2.5 0 1 1-4.99 0V501.5h-34.08a2.5 2.5 0 1 1 0-4.99h34.09v-34.08a2.5 2.5 0 0 1 4.98 0v34.08h34.09a2.5 2.5 0 0 1 2.5 2.5z" opacity=".85"/><mask id="a" width="197" height="139" x="142" y="247" maskUnits="userSpaceOnUse" style="mask-type:luminance"><path fill="#fff" d="m338.75 355.66-18.06 29.87-177.97-107.7 18.07-29.86 177.96 107.7z"/></mask><g filter="url(#c)" mask="url(#a)"><mask id="b" width="173" height="115" x="157" y="271" maskUnits="userSpaceOnUse" style="mask-type:luminance"><path fill="#fff" d="m329.62 370.76-8.94 14.77-163.56-98.98 8.94-14.76 163.56 98.97z"/></mask><g mask="url(#b)"><path fill="#95F3D9" fill-rule="evenodd" d="m324.56 379.13-154.22-93.4 1.19-1.98 154.22 93.42-1.2 1.96z" clip-rule="evenodd"/></g><path fill="#95F3D9" d="m324.03 380 2.24-3.7-9.23-5.58a2.16 2.16 0 1 0-2.23 3.7l9.22 5.57z"/></g><mask id="e" width="107" height="35" x="177" y="475" maskUnits="userSpaceOnUse" style="mask-type:luminance"><path fill="#fff" d="M283.47 475.7v34.1h-106.3v-34.1h106.3z"/></mask><g fill="#95F3D9" filter="url(#d)" mask="url(#e)"><path fill-rule="evenodd" d="M283.47 502.46h-90.3v-2.26h90.3v2.26z" clip-rule="evenodd"/><path d="M283.47 503.44v-4.23h-9.06c-1 0-1.81.95-1.81 2.12 0 1.17.8 2.12 1.8 2.12h9.07z"/></g><mask id="c" width="227" height="70" x="73" y="401" maskUnits="userSpaceOnUse" style="mask-type:luminance"><path fill="#fff" d="m299.3 435.77-5.5 34.9L73.7 435.9l5.5-34.89 220.1 34.75z"/></mask><g fill="#95F3D9" filter="url(#f)" mask="url(#c)"><path fill-rule="evenodd" d="m294.98 463.19-216-34.45.36-2.3 216 34.45-.36 2.3z" clip-rule="evenodd"/><path d="m294.81 464.2.69-4.32-10.78-1.7a2.18 2.18 0 1 0-.68 4.31l10.77 1.7z"/></g><mask id="h" width="129" height="78" x="184" y="352" maskUnits="userSpaceOnUse" style="mask-type:luminance"><path fill="#fff" d="m312.63 397.46-12.3 32.1-116.03-44.5 12.31-32.1 116.02 44.5z"/></mask><g filter="url(#g)" mask="url(#h)"><mask id="i" width="107" height="55" x="200" y="375" maskUnits="userSpaceOnUse" style="mask-type:luminance"><path fill="#fff" d="m306.41 413.7-6.08 15.86-99.8-38.27 6.08-15.87 99.8 38.27z"/></mask><g mask="url(#i)"><path fill="#95F3D9" fill-rule="evenodd" d="m302.96 422.69-92.15-35.53.81-2.11 92.15 35.52-.8 2.12z" clip-rule="evenodd"/></g><path fill="#95F3D9" d="m302.6 423.61 1.53-3.97-9.92-3.8a2.13 2.13 0 0 0-1.52 3.97l9.92 3.8z"/></g><path fill="#C4FD7F" d="M351.43 396.6a6.83 6.83 0 0 1-2.39-9.5A252.45 252.45 0 0 1 558.6 268.68a252.37 252.37 0 0 1 213.54 111.08 6.83 6.83 0 0 1-2.06 9.58 7.13 7.13 0 0 1-9.7-2.09 238.5 238.5 0 0 0-201.53-104.63 238.44 238.44 0 0 0-197.78 111.57 7.13 7.13 0 0 1-9.63 2.42z"/><path fill="#AA99EC" d="M838.82 526.59a7.58 7.58 0 0 0 7.64-7.74 283.7 283.7 0 0 0-155.5-245.4 7.58 7.58 0 0 0-10.27 3.6 7.92 7.92 0 0 0 3.65 10.4 268.17 268.17 0 0 1 146.63 231.4 7.92 7.92 0 0 0 7.85 7.74z"/><path fill="#95F3D9" d="M289.54 526.59a7.58 7.58 0 0 1-7.64-7.75 283.72 283.72 0 0 1 66.51-174.9 7.58 7.58 0 0 1 10.85-.71 7.92 7.92 0 0 1 .73 11 268.23 268.23 0 0 0-62.6 164.62 7.92 7.92 0 0 1-7.85 7.74z"/><mask id="d" width="121" height="127" x="285" y="232" maskUnits="userSpaceOnUse" style="mask-type:luminance"><path fill="#fff" d="m405 334.8-26.13 23.76-93.35-102.74 26.14-23.75L405 334.8z"/></mask><g filter="url(#j)" mask="url(#d)"><mask id="k" width="96" height="103" x="285" y="243" maskUnits="userSpaceOnUse" style="mask-type:luminance"><path fill="#fff" d="m298.34 243.97-12.92 11.74 81.7 89.93 12.93-11.74-81.7-89.93z"/></mask><g mask="url(#k)"><path fill="#C4FD7F" fill-rule="evenodd" d="m295.1 251.73 79.1 86.98-1.73 1.56-79.1-86.98 1.73-1.56z" clip-rule="evenodd"/></g><mask id="f" width="95" height="103" x="297" y="256" maskUnits="userSpaceOnUse" style="mask-type:luminance"><path fill="#fff" d="m391.79 346.82-12.92 11.74-81.7-89.93 12.91-11.74 81.7 89.93z"/></mask><g mask="url(#f)"><path fill="#C4FD7F" fill-rule="evenodd" d="m384.47 353.47-81.45-89.65 1.72-1.56 81.45 89.65-1.72 1.56z" clip-rule="evenodd"/></g><path fill="#C4FD7F" d="m383.71 354.16 3.23-2.94-7.33-8.08a2.18 2.18 0 0 0-3.24 2.94l7.34 8.08z"/></g><mask id="m" width="123" height="129" x="752" y="215" maskUnits="userSpaceOnUse" style="mask-type:luminance"><path fill="#fff" d="m752.6 319.24 27.18 24.7 94.5-104.01-27.18-24.7-94.5 104z"/></mask><g filter="url(#l)" mask="url(#m)"><mask id="g" width="90" height="97" x="766" y="247" maskUnits="userSpaceOnUse" style="mask-type:luminance"><path fill="#fff" d="m766.34 331.73 13.44 12.2 76.11-83.77-13.43-12.2-76.12 83.77z"/></mask><g mask="url(#g)"><path fill="#AA99EC" fill-rule="evenodd" d="m772.17 337.02 76.54-83.75 1.8 1.63-76.55 83.74-1.8-1.62z" clip-rule="evenodd"/></g><path fill="#AA99EC" d="m774.74 339.36-3.36-3.06 7.63-8.4a2.27 2.27 0 1 1 3.36 3.06l-7.63 8.4z"/></g><mask id="o" width="96" height="146" x="404" y="146" maskUnits="userSpaceOnUse" style="mask-type:luminance"><path fill="#fff" d="m499.38 275.47-31.66 15.66-63.59-128.6 31.66-15.65 63.59 128.6z"/></mask><g filter="url(#n)" mask="url(#o)"><mask id="p" width="72" height="122" x="412" y="170" maskUnits="userSpaceOnUse" style="mask-type:luminance"><path fill="#fff" d="m483.37 283.4-15.65 7.73-55.71-112.67 15.65-7.74 55.71 112.67z"/></mask><g mask="url(#p)"><path fill="#C4FD7F" fill-rule="evenodd" d="m474.5 287.78-53.67-109.04 2.09-1.03 53.67 109.04-2.09 1.03z" clip-rule="evenodd"/></g><path fill="#C4FD7F" d="m473.59 288.23 3.91-1.94-4.83-9.78a2.18 2.18 0 1 0-3.92 1.94l4.84 9.78z"/></g><mask id="j" width="36" height="121" x="554" y="149" maskUnits="userSpaceOnUse" style="mask-type:luminance"><path fill="#fff" d="M589.83 269.22h-35.16V149.08h35.16v120.14z"/></mask><g filter="url(#q)" mask="url(#j)"><mask id="r" width="19" height="123" x="554" y="147" maskUnits="userSpaceOnUse" style="mask-type:luminance"><path fill="#fff" d="M572.13 269.22h-17.46V147.48h17.46v121.74z"/></mask><g mask="url(#r)"><path fill="#C4FD7F" fill-rule="evenodd" d="M562.72 269.33V149.08h1.6v120.25h-1.6z" clip-rule="evenodd"/></g><path fill="#C4FD7F" d="M561.22 269.22h4.36v-9.38c0-1.03-.97-1.87-2.18-1.87-1.2 0-2.18.84-2.18 1.87v9.38z"/></g><mask id="t" width="243" height="74" x="833" y="398" maskUnits="userSpaceOnUse" style="mask-type:luminance"><path fill="#fff" d="m833.31 436.2 5.63 35.67 236.91-37.4-5.63-35.67-236.91 37.4z"/></mask><g filter="url(#s)" mask="url(#t)"><mask id="u" width="223" height="53" x="836" y="419" maskUnits="userSpaceOnUse" style="mask-type:luminance"><path fill="#fff" d="m836.16 454.23 2.78 17.63 219.66-34.68-2.78-17.63-219.66 34.68z"/></mask><g mask="url(#u)"><path fill="#AA99EC" fill-rule="evenodd" d="m837.36 461.88 209.54-33.83.37 2.35-209.54 33.82-.37-2.35z" clip-rule="evenodd"/></g><path fill="#AA99EC" d="m837.9 465.25-.7-4.4 11.01-1.74a2.23 2.23 0 0 1 .7 4.4l-11.01 1.74z"/></g><mask id="l" width="163" height="215" x="285" y="104" maskUnits="userSpaceOnUse" style="mask-type:luminance"><path fill="#fff" d="m447.27 298.81-29.16 19.92L285.47 124.5l29.16-19.92L447.27 298.8z"/></mask><g fill="#C4FD7F" filter="url(#v)" mask="url(#l)"><path fill-rule="evenodd" d="M424.36 314.46 304.6 138.66l1.92-1.3 119.76 175.8-1.92 1.3z" clip-rule="evenodd"/><path d="m423.52 315.04 3.6-2.46-6.15-9.01a2.18 2.18 0 1 0-3.6 2.46l6.15 9.01z"/></g><mask id="x" width="154" height="201" x="707" y="104" maskUnits="userSpaceOnUse" style="mask-type:luminance"><path fill="#fff" d="m707.98 284.65 29.64 20.25 123-180.1-29.64-20.25-123 180.1z"/></mask><g fill="#AA99EC" filter="url(#w)" mask="url(#x)"><path fill-rule="evenodd" d="m729.32 299.23 110.76-162.17 1.96 1.33-110.76 162.17-1.96-1.33z" clip-rule="evenodd"/><path d="m732.13 301.15-3.66-2.5 6.25-9.16a2.22 2.22 0 1 1 3.66 2.5l-6.25 9.16z"/></g><path fill="#D5FBD7" fill-opacity=".06" d="M749.95 524.74A187.35 187.35 0 0 0 562.8 343.65a187.27 187.27 0 0 0-187.2 181.03l5.17.17A182.17 182.17 0 0 1 562.8 348.83 182.09 182.09 0 0 1 744.79 524.9l5.17-.17z"/><mask id="z" width="72" height="235" x="467" y="40" maskUnits="userSpaceOnUse" style="mask-type:luminance"><path fill="#fff" d="m538.8 269.15-34.87 5.54-36.26-228.2 34.87-5.54 36.27 228.2z"/></mask><g filter="url(#y)" mask="url(#z)"><mask id="n" width="52" height="215" x="470" y="60" maskUnits="userSpaceOnUse" style="mask-type:luminance"><path fill="#fff" d="m521.17 271.95-17.24 2.74-33.52-210.95L487.65 61l33.52 210.95z"/></mask><g mask="url(#n)"><path fill="#C4FD7F" fill-rule="evenodd" d="M511.4 273.5 477.86 64.48l2.3-.37 33.54 209.03-2.3.37z" clip-rule="evenodd"/></g><path fill="#C4FD7F" d="m510.4 273.67 4.3-.7-1.7-10.77a2.18 2.18 0 0 0-4.31.69l1.7 10.78z"/></g><mask id="B" width="88" height="233" x="605" y="44" maskUnits="userSpaceOnUse" style="mask-type:luminance"><path fill="#fff" d="m640.25 276.98-34.4-7.97 51.91-224.15 34.4 7.97-51.9 224.15z"/></mask><g filter="url(#A)" mask="url(#B)"><mask id="C" width="66" height="212" x="605" y="61" maskUnits="userSpaceOnUse" style="mask-type:luminance"><path fill="#fff" d="m622.86 272.95-17-3.94 48-207.28 17 3.94-48 207.28z"/></mask><g mask="url(#C)"><path fill="#C4FD7F" fill-rule="evenodd" d="m613.22 270.72 47.44-206.33 2.26.52-47.43 206.33-2.27-.52z" clip-rule="evenodd"/></g><path fill="#C4FD7F" d="m612.23 270.49 4.25.99 2.46-10.64a2.18 2.18 0 0 0-4.25-.98l-2.46 10.63z"/></g><path fill="#081717" fill-opacity=".75" d="M341 450.8h-87.7a19.2 19.2 0 0 0 0 38.41H341a19.2 19.2 0 0 0 0-38.41z"/><path fill="#FBFDFC" d="M254.96 476.49a6.98 6.98 0 0 1-3.37-.81c-1-.55-1.79-1.32-2.36-2.31-.58-1-.87-2.17-.87-3.48 0-1.3.3-2.46.87-3.47.57-1 1.36-1.79 2.35-2.34 1-.56 2.13-.83 3.38-.83 1.24 0 2.36.27 3.36.82 1 .55 1.8 1.33 2.36 2.34.58 1.01.86 2.17.86 3.48 0 1.33-.28 2.49-.86 3.49a5.95 5.95 0 0 1-2.36 2.3c-1 .54-2.12.81-3.36.81zm-.01-1.55a5 5 0 0 0 2.47-.61c.74-.41 1.31-1 1.73-1.77.42-.78.63-1.67.63-2.68 0-1-.2-1.9-.62-2.67-.42-.78-1-1.37-1.73-1.78a4.88 4.88 0 0 0-2.48-.64 4.9 4.9 0 0 0-2.48.63 4.39 4.39 0 0 0-1.73 1.79 5.57 5.57 0 0 0-.62 2.68c0 1.02.2 1.92.63 2.68.43.77 1 1.36 1.74 1.77.74.4 1.56.6 2.46.6zm8.2 1.35v-9.66h1.64v1.98h.1c.22-.66.58-1.16 1.1-1.48.53-.34 1.14-.5 1.82-.5h.44v1.6h-.44c-.61 0-1.15.12-1.6.36-.45.23-.8.57-1.05 1.01-.25.43-.37.94-.37 1.51v5.18h-1.64zm10.52.22c-.87 0-1.68-.19-2.42-.56a4.36 4.36 0 0 1-1.77-1.7 5.38 5.38 0 0 1-.66-2.75c0-1.05.21-1.96.63-2.73a4.4 4.4 0 0 1 1.74-1.76c.73-.4 1.55-.6 2.47-.6.84 0 1.59.17 2.23.51.64.34 1.15.8 1.51 1.38.38.58.6 1.22.69 1.92h-1.62A3.09 3.09 0 0 0 276 469a2.82 2.82 0 0 0-2.34-1.2 3.01 3.01 0 0 0-2.79 1.74c-.27.56-.4 1.2-.4 1.95 0 .76.13 1.41.42 1.97.28.54.67.96 1.15 1.24.48.28 1.01.42 1.6.42.51 0 .96-.1 1.36-.3a2.65 2.65 0 0 0 1.46-1.98h1.63a4.24 4.24 0 0 1-2.24 3.18c-.63.33-1.36.5-2.2.5zm5.94-.22v-12.84h1.65v4.98h.08c.24-.64.64-1.14 1.18-1.5.55-.34 1.2-.52 1.97-.52.73 0 1.36.16 1.87.48.51.31.9.75 1.15 1.32.26.57.4 1.25.4 2.02v6.06h-1.66v-5.8c0-.85-.2-1.49-.6-1.94a2.1 2.1 0 0 0-1.69-.69 2.52 2.52 0 0 0-2.38 1.4c-.22.44-.32.92-.32 1.45v5.58h-1.65zm14.5.2a4.38 4.38 0 0 1-4.16-2.45 5.75 5.75 0 0 1-.57-2.6c0-1.02.2-1.9.62-2.67.41-.76.98-1.35 1.69-1.75a4.78 4.78 0 0 1 2.4-.62c.89 0 1.66.2 2.33.6.68.4 1.2.95 1.57 1.68a5.41 5.41 0 0 1 .5 3.24H291c.06.67.22 1.25.5 1.74.29.49.66.85 1.12 1.1.47.25.99.37 1.57.37.43 0 .83-.08 1.2-.22.37-.16.68-.37.93-.65.25-.27.43-.6.53-.96h1.64c-.14.64-.41 1.2-.8 1.68-.4.47-.9.84-1.5 1.11-.62.27-1.3.4-2.06.4zm2.78-5.88a3.44 3.44 0 0 0-.39-1.52 2.51 2.51 0 0 0-.97-1.03 3.15 3.15 0 0 0-2.87-.04c-.43.2-.79.53-1.08.97-.3.43-.48.97-.57 1.62h5.88zm6.77 5.9c-1.25 0-2.23-.3-2.93-.9a3.4 3.4 0 0 1-1.15-2.53h1.64c.03.65.25 1.16.66 1.53.4.37 1 .55 1.79.55a2.8 2.8 0 0 0 1.6-.39c.38-.26.58-.62.58-1.07 0-.34-.08-.61-.24-.8-.14-.2-.4-.36-.75-.49a9.27 9.27 0 0 0-1.5-.37 8.7 8.7 0 0 1-1.99-.54c-.48-.2-.83-.49-1.06-.83a2.4 2.4 0 0 1-.34-1.32c0-.58.14-1.09.43-1.53.3-.44.72-.79 1.27-1.03a4.8 4.8 0 0 1 1.98-.38c.77 0 1.44.13 2 .37.57.24 1.01.6 1.32 1.06.3.46.47 1.01.49 1.65h-1.61a1.7 1.7 0 0 0-.62-1.28c-.37-.3-.9-.45-1.58-.45-.43 0-.8.06-1.1.18-.31.1-.55.27-.7.49-.15.2-.23.45-.23.72 0 .3.07.55.2.73.15.17.39.31.73.42.33.12.81.23 1.44.34.87.16 1.56.34 2.06.56.5.22.88.5 1.12.85.25.35.37.8.37 1.35 0 .62-.15 1.17-.45 1.63-.3.46-.73.82-1.31 1.09-.59.26-1.3.39-2.12.39zm8.6-.22c-.55 0-.98-.09-1.3-.25a1.43 1.43 0 0 1-.68-.67c-.14-.3-.2-.64-.2-1.06v-6.26h-1.82v-1.42h1.81v-2.47h1.65v2.47h2.4v1.42h-2.4v6.24c0 .2.04.34.13.43.08.08.22.12.42.12h1.84v1.45h-1.86zm3.2 0v-9.66h1.65v1.98h.1c.2-.66.57-1.16 1.1-1.48.52-.34 1.13-.5 1.81-.5h.45v1.6h-.45c-.6 0-1.14.12-1.6.36-.45.23-.8.57-1.05 1.01-.24.43-.37.94-.37 1.51v5.18h-1.64zm8.84.18c-.64 0-1.2-.12-1.68-.36-.47-.25-.84-.6-1.1-1.04a3.08 3.08 0 0 1-.37-1.56c0-.57.13-1.06.4-1.48.27-.43.66-.76 1.18-.99a4.42 4.42 0 0 1 1.81-.34h1.93c.36 0 .63-.08.8-.24.18-.16.27-.42.27-.78a1.72 1.72 0 0 0-1.07-1.65 2.96 2.96 0 0 0-1.2-.22c-.45 0-.84.08-1.17.23-.33.16-.58.38-.77.66a2 2 0 0 0-.33.99h-1.6a3.22 3.22 0 0 1 1.9-2.88c.58-.26 1.23-.4 1.98-.4.8 0 1.49.14 2.07.4a2.9 2.9 0 0 1 1.32 1.13c.31.5.47 1.08.47 1.74v6.6h-1.6v-1.85h-.11a3.03 3.03 0 0 1-1.19 1.5c-.55.36-1.2.54-1.94.54zm.35-1.33c.63 0 1.15-.14 1.59-.43.43-.3.75-.68.97-1.16.22-.48.33-1 .33-1.56v-.25h-.02c-.1.06-.25.1-.45.14-.2.02-.4.04-.63.04h-1.87c-.58 0-1.03.13-1.36.41-.32.28-.48.67-.48 1.16 0 .33.07.62.22.87s.37.44.66.58c.3.13.64.2 1.04.2zm9.37 1.15c-.54 0-.97-.09-1.29-.25a1.43 1.43 0 0 1-.68-.67c-.14-.3-.2-.64-.2-1.06v-6.26h-1.82v-1.42h1.81v-2.47h1.65v2.47h2.4v1.42h-2.4v6.24c0 .2.04.34.12.43.09.08.23.12.43.12h1.83v1.45h-1.85zm7.48.2a4.4 4.4 0 0 1-4.16-2.45 5.75 5.75 0 0 1-.57-2.6c0-1.02.2-1.9.6-2.67.42-.76.99-1.35 1.7-1.75a4.77 4.77 0 0 1 2.41-.62c.88 0 1.65.2 2.32.6.68.4 1.2.95 1.57 1.68a5.4 5.4 0 0 1 .5 3.24h-7.5c.06.67.23 1.25.5 1.74.29.49.66.85 1.13 1.1.46.25.98.37 1.56.37.44 0 .84-.08 1.2-.22.37-.16.68-.37.93-.65.25-.27.43-.6.53-.96h1.64c-.14.64-.4 1.2-.8 1.68-.4.47-.9.84-1.5 1.11-.62.27-1.3.4-2.06.4zm2.78-5.88a3.46 3.46 0 0 0-.4-1.52 2.52 2.52 0 0 0-.97-1.03 3.15 3.15 0 0 0-2.87-.04c-.42.2-.79.53-1.08.97-.29.43-.48.97-.57 1.62h5.89z"/><path fill="#FBFDFC" fill-opacity=".4" fill-rule="evenodd" d="M253.3 452.53a17.48 17.48 0 0 0 0 34.96H341a17.48 17.48 0 0 0 0-34.96h-87.7zM234.02 470a19.26 19.26 0 0 1 19.26-19.27H341a19.26 19.26 0 0 1 0 38.53h-87.7A19.26 19.26 0 0 1 234.03 470z" clip-rule="evenodd"/><path fill="#081717" fill-opacity=".75" d="M603.3 331.31h-79.73a21.64 21.64 0 0 0 0 43.28h79.74a21.64 21.64 0 0 0 0-43.28z"/><path fill="#FBFDFC" fill-rule="evenodd" d="M603.74 367.85v-3.15h.2c1.33 0 2.14-.58 2.8-1.62a20 20 0 0 0 1.5-3.25l.51-1.3 6.21-14.31h3.7l-6.64 15.38-.28.66c-.74 1.7-1.33 3.09-1.96 4.18a6.43 6.43 0 0 1-2.56 2.71c-.9.47-2.01.7-3.48.7zm-50.57-4.72a9.5 9.5 0 0 0 6.5-2.5v2.08h3.43v-24.65h-3.57v8.07a9.58 9.58 0 0 0-6.36-2.34c-5.37 0-9.43 4.13-9.43 9.67s4.06 9.67 9.43 9.67zm29.27-5.56h-3.8c-1 1.66-2.7 2.22-4.8 2.22-3.2 0-5.54-1.95-6.08-4.97h15.16l.03-.22c.03-.33.07-.63.07-1.1 0-5.69-4.03-9.71-9.4-9.71-5.48 0-9.5 4.1-9.5 9.67 0 5.5 3.95 9.67 9.68 9.67 4.2 0 7.08-2.11 8.64-5.56zm16.61-10.27 5.83 10.27h3.73l-7.58-13.35h-8.3v-6.16h-3.56v17.49c0 2.25.66 4.03 1.86 5.26 1.2 1.23 2.96 1.9 5.15 1.9h3.22v-3.08h-3.03c-1.17 0-2.09-.3-2.7-.93-.63-.62-.94-1.98-.94-3.23v-8.17h6.32zM584 344.22v18.5h3.56v-18.5H584zm-36.7 9.24c0-3.77 2.52-6.33 6.19-6.33 3.67 0 6.18 2.56 6.18 6.33s-2.51 6.33-6.18 6.33-6.19-2.56-6.19-6.33zm20.55-1.8a5.73 5.73 0 0 1 5.77-4.53c3.1 0 5.08 1.92 5.67 4.53h-11.44zm16.15-13.6v4.1h3.56l.01-4.1H584zm-74.39 12.02 8.12 4.77 5.02-8.86a.97.97 0 0 1 .1-.18l4.02-7.08a14.4 14.4 0 0 0-17.26 11.34zm19.21-10.74-2.43 4.29 5.02-2.95a14.2 14.2 0 0 0-2.59-1.34zm4.32 2.67-8.12 4.77 5.03 8.87.1.16 4 7.07c2.39-2.6 3.84-6.1 3.84-9.93 0-4.36-1.87-8.27-4.85-10.94zm-.48 22.3-2.42-4.28v5.89c.86-.46 1.67-1 2.42-1.62zm-4.42 2.47v-9.53h-18.28a14.37 14.37 0 0 0 13.7 10.29c1.6 0 3.15-.27 4.58-.76zm-18.74-11.56h4.88l-5.03-2.96a15.64 15.64 0 0 0 .15 2.96zm10.32 0h7.69l-3.85-6.78-3.84 6.78zm-12.3-4.77a16.42 16.42 0 0 1 16.14-14.11 16.08 16.08 0 0 1 10.2 3.64 16.7 16.7 0 0 1 6.13 12.97c0 4.9-2.08 9.3-5.38 12.33a16.05 16.05 0 0 1-10.95 4.29 16.4 16.4 0 0 1-15.96-13.12 16.9 16.9 0 0 1-.18-6z" clip-rule="evenodd"/><path fill="#FBFDFC" fill-opacity=".4" fill-rule="evenodd" d="M523.57 331.37a21.58 21.58 0 0 0 0 43.17h79.74a21.58 21.58 0 0 0 0-43.17h-79.74zm-23.36 21.58a23.37 23.37 0 0 1 23.36-23.37h79.74a23.37 23.37 0 0 1 0 46.74h-79.74a23.37 23.37 0 0 1-23.36-23.37z" clip-rule="evenodd"/><path fill="#081717" fill-opacity=".75" d="M409.23 333.07H336.6a19.2 19.2 0 0 0 0 38.42h72.63a19.2 19.2 0 0 0 0-38.42z"/><path fill="#FBFDFC" d="M335.6 358.56V347.2h-4.02v-1.47h9.68v1.47h-4.02v11.36h-1.65zm6.3 0v-9.66h1.64v1.99h.1c.21-.67.58-1.16 1.1-1.49.53-.33 1.13-.5 1.82-.5h.44v1.6h-.44c-.61 0-1.15.12-1.6.36-.46.24-.8.58-1.06 1.02-.24.43-.36.94-.36 1.51v5.17h-1.65zm8.83.19c-.63 0-1.2-.12-1.67-.37-.48-.25-.84-.6-1.1-1.04a3.07 3.07 0 0 1-.38-1.56c0-.56.13-1.05.4-1.47.27-.43.67-.76 1.18-1a4.4 4.4 0 0 1 1.82-.34h1.92c.36 0 .63-.08.8-.23.18-.16.27-.42.27-.78a1.72 1.72 0 0 0-1.07-1.65 2.94 2.94 0 0 0-1.2-.22c-.44 0-.83.08-1.16.23a1.8 1.8 0 0 0-.78.66 2 2 0 0 0-.33.99h-1.6c.06-.68.24-1.26.57-1.75.33-.5.78-.87 1.34-1.13.57-.27 1.23-.4 1.97-.4.8 0 1.5.13 2.07.4a2.9 2.9 0 0 1 1.33 1.13c.3.5.46 1.07.46 1.74v6.6h-1.6v-1.86h-.1a3.04 3.04 0 0 1-1.19 1.5c-.55.37-1.2.55-1.95.55zm.36-1.34c.62 0 1.15-.14 1.58-.42.43-.3.76-.68.97-1.16.22-.48.33-1 .33-1.57v-.25h-.02c-.1.07-.24.12-.44.14-.2.03-.4.04-.63.04H351c-.58 0-1.04.14-1.37.42-.31.28-.48.66-.48 1.16 0 .33.08.62.23.87.15.25.37.44.66.58.3.13.64.2 1.04.2zm6.36 1.15v-9.66h1.65v1.8h.08c.25-.63.65-1.13 1.19-1.48a3.5 3.5 0 0 1 1.96-.53c.73 0 1.36.16 1.87.47.51.32.9.76 1.15 1.33.26.57.4 1.24.4 2.02v6.05h-1.66v-5.8c0-.84-.2-1.48-.6-1.93-.4-.46-.96-.69-1.69-.69-.56 0-1.04.13-1.45.38-.4.24-.71.59-.93 1.02-.22.43-.32.91-.32 1.45v5.57h-1.65zm13.7.22c-1.24 0-2.22-.3-2.92-.89a3.4 3.4 0 0 1-1.15-2.53h1.64c.03.64.25 1.15.66 1.53.4.37 1 .55 1.79.55a2.8 2.8 0 0 0 1.6-.4c.38-.26.58-.62.58-1.07 0-.34-.08-.6-.24-.8-.15-.2-.4-.36-.75-.48a9.21 9.21 0 0 0-1.5-.37 8.71 8.71 0 0 1-2-.54c-.47-.21-.82-.5-1.05-.84a2.39 2.39 0 0 1-.34-1.31c0-.58.14-1.09.43-1.53a2.8 2.8 0 0 1 1.27-1.04 4.8 4.8 0 0 1 1.98-.37c.77 0 1.44.12 2 .37.57.24 1 .6 1.32 1.05.3.47.47 1.02.49 1.65h-1.61a1.7 1.7 0 0 0-.62-1.27c-.37-.3-.9-.46-1.58-.46-.43 0-.8.06-1.1.18-.32.12-.55.28-.7.5-.16.2-.23.44-.23.72 0 .3.07.55.2.72.14.18.38.32.72.43.34.11.82.23 1.44.34.88.15 1.56.34 2.07.56.5.21.88.5 1.12.84.25.36.37.8.37 1.36 0 .62-.15 1.16-.45 1.63-.3.45-.73.82-1.32 1.08-.58.26-1.28.4-2.12.4zm8.56-13.59h2.01v1.43h-1.82c-.17 0-.3.04-.4.12-.1.07-.15.22-.15.44v1.72h2.37v1.43h-2.37v8.23h-1.64v-8.23h-1.95v-1.43h1.95v-1.71c0-.62.17-1.1.49-1.46.32-.36.83-.54 1.5-.54zm7.41 13.58c-.9 0-1.72-.2-2.45-.63a4.57 4.57 0 0 1-1.75-1.78 5.4 5.4 0 0 1-.63-2.62c0-.98.21-1.86.63-2.62.42-.77 1-1.36 1.74-1.79a4.83 4.83 0 0 1 2.47-.64c.91 0 1.74.21 2.47.64a4.45 4.45 0 0 1 1.72 1.78c.42.77.63 1.64.63 2.63 0 .98-.21 1.86-.64 2.62-.42.77-1 1.36-1.73 1.78-.73.42-1.55.63-2.46.63zm0-1.38a2.96 2.96 0 0 0 2.74-1.72c.28-.55.42-1.2.42-1.93a4.2 4.2 0 0 0-.42-1.93 3.1 3.1 0 0 0-1.13-1.28 2.93 2.93 0 0 0-1.6-.45 2.98 2.98 0 0 0-2.76 1.73c-.28.56-.42 1.2-.42 1.93s.14 1.38.42 1.93a3 3 0 0 0 2.75 1.72zm6.36 1.17v-9.66h1.64v1.99h.11c.2-.67.57-1.16 1.1-1.49.52-.33 1.13-.5 1.81-.5h.44v1.6h-.44c-.61 0-1.14.12-1.6.36-.45.24-.8.58-1.05 1.02-.25.43-.37.94-.37 1.51v5.17h-1.64zm6.28 0v-9.66h1.65v1.68h.08a2.74 2.74 0 0 1 1.68-1.68 3.8 3.8 0 0 1 3.13.28c.49.33.83.8 1.03 1.41h.07c.23-.62.62-1.1 1.16-1.43a3.7 3.7 0 0 1 1.92-.49c.7 0 1.28.15 1.77.45.48.29.84.7 1.08 1.25.25.54.37 1.18.37 1.92v6.27h-1.65v-6.05a2.5 2.5 0 0 0-.57-1.75c-.37-.42-.9-.63-1.58-.63-.5 0-.92.11-1.27.34-.34.22-.6.53-.8.94-.18.4-.27.88-.27 1.43v5.72h-1.66v-6.09c0-.73-.18-1.3-.55-1.72-.36-.4-.87-.6-1.53-.6a2.21 2.21 0 0 0-2.12 1.3c-.2.4-.3.88-.3 1.4v5.71h-1.64z"/><path fill="#FBFDFC" fill-opacity=".4" fill-rule="evenodd" d="M336.6 334.8a17.48 17.48 0 0 0 0 34.96h72.63a17.48 17.48 0 0 0 0-34.96H336.6zm-19.26 17.48a19.26 19.26 0 0 1 19.26-19.26h72.63a19.26 19.26 0 0 1 0 38.53H336.6a19.26 19.26 0 0 1-19.26-19.27z" clip-rule="evenodd"/><path fill="#081717" fill-opacity=".75" d="M791.11 333.07h-63.43a19.2 19.2 0 0 0 0 38.42h63.43a19.2 19.2 0 0 0 0-38.42z"/><path fill="#FBFDFC" d="M729.73 358.77a6.98 6.98 0 0 1-3.36-.81 6 6 0 0 1-2.37-2.32c-.57-1-.86-2.16-.86-3.47 0-1.3.29-2.46.86-3.47a6.098 6.098 0 0 1 2.36-2.34c1-.56 2.13-.84 3.37-.84 1.25 0 2.37.28 3.37.83 1 .55 1.79 1.33 2.36 2.34.57 1 .86 2.17.86 3.48 0 1.32-.29 2.48-.86 3.48a5.96 5.96 0 0 1-2.36 2.3c-1 .55-2.12.82-3.37.82zm0-1.55a5 5 0 0 0 2.47-.62c.73-.4 1.31-1 1.73-1.77.42-.77.63-1.66.63-2.67s-.2-1.9-.62-2.68c-.42-.77-1-1.36-1.73-1.78a4.88 4.88 0 0 0-2.49-.63 4.9 4.9 0 0 0-2.48.63c-.73.42-1.3 1.01-1.72 1.78a5.57 5.57 0 0 0-.63 2.68c0 1.03.21 1.92.63 2.69.43.76 1.01 1.35 1.75 1.76.74.4 1.55.6 2.46.6zm13.4 1.56c-.48 0-.95-.08-1.39-.24a3.7 3.7 0 0 1-2.07-1.87h-.1v5.35h-1.65V348.9h1.65v1.9h.1a3.64 3.64 0 0 1 2-1.86c.44-.16.93-.25 1.45-.25.83 0 1.57.21 2.2.63.65.42 1.16 1 1.52 1.77.37.77.55 1.65.55 2.66 0 1.02-.19 1.92-.57 2.68a3.96 3.96 0 0 1-3.68 2.35zm-.5-1.45c.59 0 1.12-.15 1.58-.44.47-.3.84-.72 1.1-1.26.28-.54.4-1.18.4-1.9a4.2 4.2 0 0 0-.4-1.89 2.91 2.91 0 0 0-1.09-1.25c-.47-.3-1-.44-1.59-.44-.62 0-1.16.15-1.63.45-.46.3-.82.73-1.08 1.28a4.3 4.3 0 0 0-.38 1.86c0 .71.13 1.35.38 1.9a3 3 0 0 0 1.09 1.25 3 3 0 0 0 1.61.44zm9.35 1.23a2.9 2.9 0 0 1-1.29-.24 1.43 1.43 0 0 1-.68-.68c-.14-.29-.2-.64-.2-1.06v-6.25h-1.82v-1.43h1.81v-2.46h1.65v2.46h2.4v1.43h-2.4v6.24c0 .2.04.34.12.43.09.08.23.12.43.12h1.84v1.44h-1.86zm3.95-11.1c-.2 0-.38-.05-.54-.14-.16-.1-.28-.22-.38-.38a1.1 1.1 0 0 1-.13-.55c0-.2.04-.38.13-.54a1 1 0 0 1 .38-.37c.16-.1.34-.15.54-.15a1.04 1.04 0 0 1 1.06 1.06c0 .2-.04.39-.14.55-.09.16-.21.28-.37.38a1.1 1.1 0 0 1-.55.13zm-.81 11.1v-9.66h1.64v9.66h-1.64zm3.63 0v-9.66h1.64v1.68h.09a2.73 2.73 0 0 1 1.68-1.68c.4-.14.84-.22 1.31-.22.73 0 1.34.17 1.82.5.49.33.83.8 1.03 1.42h.07c.23-.63.61-1.11 1.16-1.44.55-.32 1.2-.49 1.92-.49.7 0 1.28.15 1.76.45.48.29.85.7 1.09 1.25.24.54.36 1.18.36 1.92v6.27h-1.64v-6.05a2.5 2.5 0 0 0-.57-1.75c-.38-.42-.9-.63-1.59-.63-.49 0-.9.12-1.26.34-.34.22-.61.53-.8.94-.18.4-.28.88-.28 1.43v5.72h-1.65v-6.09c0-.73-.18-1.3-.55-1.72-.37-.4-.88-.6-1.53-.6a2.22 2.22 0 0 0-2.12 1.3c-.2.4-.3.88-.3 1.4v5.71h-1.64zm16.64-11.1c-.2 0-.38-.05-.54-.14-.16-.1-.3-.22-.38-.38a1.1 1.1 0 0 1-.14-.55c0-.2.04-.38.13-.54a1 1 0 0 1 .39-.37c.16-.1.34-.15.54-.15s.38.05.54.15c.16.09.29.21.38.37.1.16.14.34.14.54a1.05 1.05 0 0 1-1.06 1.06zm-.82 11.1v-9.66h1.65v9.66h-1.65zm3.15 0v-1.38l4.99-5.94a3.89 3.89 0 0 1 .79-.73v-.2h-5.76v-1.4h7.64v1.4l-4.98 5.92c-.1.14-.23.27-.37.42l-.42.42v.08h5.77v1.41h-7.66zm13.51.2a4.4 4.4 0 0 1-4.16-2.45 5.74 5.74 0 0 1-.57-2.6c0-1.01.2-1.9.61-2.66.42-.77.98-1.35 1.7-1.75.71-.41 1.51-.62 2.4-.62.88 0 1.66.2 2.33.6.67.39 1.2.95 1.56 1.67a5.41 5.41 0 0 1 .51 3.24h-7.5c.05.68.22 1.26.5 1.75.28.48.65.85 1.12 1.1.46.24.98.36 1.56.36.44 0 .84-.07 1.2-.22.37-.15.68-.37.93-.64.26-.28.43-.6.54-.96h1.63c-.14.63-.4 1.2-.8 1.67-.39.48-.9.85-1.5 1.12-.61.26-1.3.4-2.06.4zm2.78-5.88a3.44 3.44 0 0 0-.4-1.51 2.5 2.5 0 0 0-.96-1.03 3.17 3.17 0 0 0-2.87-.05c-.43.21-.8.53-1.09.97a3.8 3.8 0 0 0-.56 1.62H794z"/><path fill="#FBFDFC" fill-opacity=".4" fill-rule="evenodd" d="M727.68 334.8a17.48 17.48 0 0 0 0 34.96h63.43a17.48 17.48 0 0 0 0-34.96h-63.43zm-19.26 17.48a19.26 19.26 0 0 1 19.26-19.26h63.43a19.26 19.26 0 0 1 0 38.53h-63.43a19.26 19.26 0 0 1-19.26-19.27z" clip-rule="evenodd"/><mask id="q" width="96" height="154" x="636" y="139" maskUnits="userSpaceOnUse" style="mask-type:luminance"><path fill="#fff" d="m636.9 277.42 32.56 14.69 62.14-137.84-32.56-14.68-62.15 137.83z"/></mask><g filter="url(#D)" mask="url(#q)"><mask id="E" width="72" height="131" x="653" y="162" maskUnits="userSpaceOnUse" style="mask-type:luminance"><path fill="#fff" d="m653.36 284.85 16.1 7.26 55.02-122.04-16.1-7.26-55.02 122.04z"/></mask><g mask="url(#E)"><path fill="#C4FD7F" fill-rule="evenodd" d="m660.34 288 50.14-110.22 2.14.96-50.14 110.22-2.14-.97z" clip-rule="evenodd"/></g><path fill="#C4FD7F" d="m663.42 289.38-4.02-1.81 4.53-10.06a2.2 2.2 0 1 1 4.03 1.81l-4.54 10.06z"/></g><path fill="#081717" fill-opacity=".75" d="M874.19 450.55h-81a19.2 19.2 0 0 0 0 38.41h81a19.2 19.2 0 0 0 0-38.41z"/><path fill="#FBFDFC" d="M788.99 476.03V463.2h7.97v1.44h-6.32v4.16h5.54v1.38h-5.54v4.41h6.32v1.44h-7.97zm8.62 0 3.59-4.8-3.6-4.86h1.88l2.17 3.02a8.48 8.48 0 0 1 .58 1.03h.1a9.76 9.76 0 0 1 .55-1.03l2.18-3.01h1.88l-3.6 4.85 3.6 4.8h-1.85l-2.24-3.08a6.8 6.8 0 0 1-.53-.92h-.09c-.14.3-.32.6-.53.92l-2.23 3.08h-1.86zm15.68.22c-.5 0-.96-.08-1.4-.24a3.7 3.7 0 0 1-2.07-1.87h-.1v5.36h-1.65v-13.13h1.65v1.91h.1a3.66 3.66 0 0 1 3.45-2.12c.83 0 1.56.21 2.2.63.65.42 1.16 1 1.52 1.77.37.77.55 1.65.55 2.66 0 1.02-.19 1.92-.57 2.68a4.15 4.15 0 0 1-1.53 1.74c-.64.4-1.36.6-2.15.6zm-.52-1.45c.6 0 1.12-.15 1.6-.44.46-.3.83-.72 1.1-1.26.26-.54.4-1.18.4-1.9a4.2 4.2 0 0 0-.4-1.89 2.9 2.9 0 0 0-2.7-1.69c-.6 0-1.15.15-1.62.45a3 3 0 0 0-1.08 1.28 4.32 4.32 0 0 0-.38 1.86c0 .72.13 1.35.38 1.9a3 3 0 0 0 1.09 1.25 3 3 0 0 0 1.61.44zm10.68 1.44a4.38 4.38 0 0 1-4.16-2.45 5.76 5.76 0 0 1-.58-2.6c0-1.02.21-1.91.62-2.67.41-.77.98-1.35 1.69-1.75.72-.41 1.52-.62 2.41-.62.88 0 1.66.2 2.33.6.67.4 1.2.95 1.56 1.67a5.41 5.41 0 0 1 .5 3.24h-7.5c.06.68.22 1.26.5 1.75.29.48.66.85 1.13 1.1.46.24.98.37 1.56.37.44 0 .84-.08 1.2-.23.37-.15.68-.36.93-.64s.43-.6.53-.96h1.64a4 4 0 0 1-.8 1.67c-.4.48-.9.85-1.5 1.12-.62.26-1.3.4-2.06.4zm2.78-5.89a3.43 3.43 0 0 0-.4-1.51 2.5 2.5 0 0 0-.97-1.03 3.15 3.15 0 0 0-2.87-.04c-.42.2-.79.52-1.08.96-.29.44-.48.98-.57 1.62h5.89zm3.24 5.68v-9.65h1.64v1.98h.1c.22-.67.58-1.16 1.1-1.49.53-.33 1.14-.5 1.82-.5h.44v1.6h-.44c-.61 0-1.15.13-1.6.36-.45.24-.8.58-1.05 1.02-.25.43-.37.94-.37 1.51v5.17h-1.64zm7.1-11.1c-.2 0-.39-.05-.55-.14a1.1 1.1 0 0 1-.38-.38 1.1 1.1 0 0 1-.13-.55c0-.2.04-.38.13-.54.1-.16.23-.28.38-.37.16-.1.35-.14.55-.14a1.05 1.05 0 0 1 1.06 1.06c0 .2-.05.38-.15.54a1 1 0 0 1-.37.38c-.16.09-.34.13-.54.13zm-.82 11.1v-9.65h1.65v9.65h-1.65zm7.95.2c-.94 0-1.78-.2-2.5-.63a4.4 4.4 0 0 1-1.65-1.81 5.75 5.75 0 0 1-.58-2.6c0-1.02.2-1.91.62-2.67.41-.77.97-1.35 1.69-1.75.71-.41 1.52-.62 2.4-.62.88 0 1.66.2 2.33.6.68.4 1.2.95 1.57 1.67.37.72.55 1.55.55 2.5 0 .12 0 .23-.02.35l-.02.4h-7.5c.04.67.21 1.25.49 1.74.28.48.66.85 1.12 1.1.46.24.99.37 1.57.37.43 0 .83-.08 1.2-.23.36-.15.67-.36.92-.64.26-.28.44-.6.54-.96h1.63c-.14.64-.4 1.2-.8 1.67a4 4 0 0 1-1.5 1.12c-.61.26-1.3.4-2.06.4zm2.78-5.88a3.39 3.39 0 0 0-.4-1.51 2.46 2.46 0 0 0-.96-1.03 3.15 3.15 0 0 0-2.86-.04c-.44.2-.8.52-1.1.96-.28.44-.47.98-.56 1.62h5.88zm3.24 5.68v-9.65h1.65v1.8h.1c.23-.64.63-1.13 1.17-1.49a3.5 3.5 0 0 1 1.96-.53c.74 0 1.36.16 1.87.47.52.32.9.76 1.15 1.33.27.57.4 1.24.4 2.02v6.05h-1.66v-5.8c0-.84-.2-1.48-.6-1.93a2.1 2.1 0 0 0-1.69-.69c-.56 0-1.04.13-1.45.38-.4.25-.72.59-.93 1.02-.21.43-.32.92-.32 1.45v5.57h-1.65zm14.62.23c-.87 0-1.68-.2-2.42-.57a4.34 4.34 0 0 1-1.77-1.7 5.41 5.41 0 0 1-.65-2.75c0-1.05.2-1.95.63-2.72.42-.77 1-1.36 1.73-1.76.73-.4 1.55-.6 2.47-.6.84 0 1.59.16 2.23.5.64.35 1.15.8 1.52 1.39.37.57.6 1.21.67 1.92h-1.61a3.18 3.18 0 0 0-.46-1.24 2.82 2.82 0 0 0-2.34-1.2c-.63.01-1.18.16-1.66.46-.48.3-.86.73-1.13 1.29-.27.56-.41 1.2-.41 1.95s.14 1.41.42 1.96a3.03 3.03 0 0 0 2.77 1.67c.5 0 .95-.1 1.35-.3.4-.2.72-.47.97-.81.25-.36.41-.74.49-1.17h1.63a4.24 4.24 0 0 1-2.24 3.18 4.7 4.7 0 0 1-2.2.5zm10.26-.02a4.4 4.4 0 0 1-4.16-2.45 5.76 5.76 0 0 1-.57-2.6c0-1.02.2-1.91.62-2.67a4.3 4.3 0 0 1 1.69-1.75 4.8 4.8 0 0 1 2.4-.62c.89 0 1.66.2 2.33.6.68.4 1.2.95 1.57 1.67.36.72.54 1.55.54 2.5l-.01.35-.03.4h-7.5c.05.67.22 1.25.5 1.74.28.48.66.85 1.12 1.1.47.24.99.37 1.56.37.44 0 .84-.08 1.2-.23a2.36 2.36 0 0 0 1.46-1.6h1.65a3.9 3.9 0 0 1-2.3 2.79c-.62.26-1.3.4-2.06.4zm2.78-5.89a3.51 3.51 0 0 0-.39-1.51 2.52 2.52 0 0 0-.97-1.03 3.13 3.13 0 0 0-2.86-.04c-.44.2-.8.52-1.1.96-.28.44-.47.98-.56 1.62h5.88z"/><path fill="#FBFDFC" fill-opacity=".4" fill-rule="evenodd" d="M793.18 452.27a17.48 17.48 0 0 0 0 34.96h81a17.48 17.48 0 0 0 0-34.96h-81zm-19.26 17.48a19.26 19.26 0 0 1 19.26-19.26h81a19.26 19.26 0 0 1 0 38.53h-81a19.26 19.26 0 0 1-19.26-19.27z" clip-rule="evenodd"/><path fill="#081717" fill-opacity=".75" d="M614.52 270.41h-103a18.8 18.8 0 0 0 0 37.6h103a18.8 18.8 0 0 0 0-37.6z"/><path fill="#FBFDFC" d="M513.7 295.5v-12.84h1.71v12.83h-1.71zm3.96 0v-9.67h1.65v1.8h.09c.25-.63.64-1.13 1.18-1.48a3.5 3.5 0 0 1 1.96-.53c.74 0 1.36.16 1.87.47.52.32.9.76 1.16 1.33.26.57.39 1.24.39 2.02v6.05h-1.66v-5.8c0-.84-.2-1.48-.6-1.93a2.1 2.1 0 0 0-1.68-.69 2.51 2.51 0 0 0-2.38 1.4c-.22.43-.33.92-.33 1.45v5.57h-1.65zm13.2 0a2.9 2.9 0 0 1-1.3-.25 1.43 1.43 0 0 1-.68-.68c-.14-.29-.2-.64-.2-1.06v-6.25h-1.82v-1.43h1.81v-2.46h1.65v2.46h2.4v1.43h-2.4v6.24c0 .2.04.34.12.43.09.08.23.12.43.12h1.84v1.44h-1.86zm7.47.2a4.4 4.4 0 0 1-4.16-2.45 5.74 5.74 0 0 1-.58-2.6c0-1.02.2-1.91.62-2.67.41-.77.98-1.35 1.69-1.75.72-.41 1.52-.62 2.41-.62.88 0 1.65.2 2.32.6.68.39 1.2.95 1.57 1.67a5.41 5.41 0 0 1 .5 3.24h-7.5c.06.68.22 1.26.5 1.75.29.48.66.85 1.13 1.1.46.24.98.36 1.56.36.44 0 .84-.07 1.2-.22.37-.15.68-.37.93-.64.25-.28.43-.6.53-.96h1.64a4 4 0 0 1-.8 1.67c-.4.48-.9.85-1.5 1.12-.62.26-1.3.4-2.06.4zm2.78-5.89a3.44 3.44 0 0 0-.4-1.51 2.5 2.5 0 0 0-.97-1.03 3.16 3.16 0 0 0-2.87-.05c-.42.21-.79.53-1.08.97-.29.44-.48.98-.57 1.62h5.89zm3.24 5.68v-9.66h1.64v1.99h.1a2.6 2.6 0 0 1 1.1-1.49c.53-.33 1.14-.5 1.82-.5h.44v1.6h-.44c-.61 0-1.15.13-1.6.36-.45.24-.8.58-1.05 1.02-.25.43-.37.94-.37 1.51v5.17h-1.64zm10.44.22c-.9 0-1.72-.21-2.45-.64a4.57 4.57 0 0 1-1.75-1.78 5.4 5.4 0 0 1-.63-2.62c0-.98.21-1.86.63-2.62.42-.77 1-1.36 1.74-1.79a4.83 4.83 0 0 1 2.47-.64c.92 0 1.74.21 2.47.64a4.45 4.45 0 0 1 1.73 1.78c.41.77.62 1.64.62 2.63 0 .98-.21 1.86-.63 2.62a4.5 4.5 0 0 1-1.74 1.78c-.73.43-1.55.64-2.46.64zm0-1.4a2.96 2.96 0 0 0 2.75-1.71c.27-.55.41-1.2.41-1.93a4.2 4.2 0 0 0-.42-1.93 3.1 3.1 0 0 0-1.13-1.28 2.93 2.93 0 0 0-1.6-.45 2.97 2.97 0 0 0-2.76 1.73 4.2 4.2 0 0 0-.41 1.93c0 .73.13 1.38.41 1.93a3 3 0 0 0 2.75 1.72zm11.57 1.4c-.48 0-.95-.08-1.4-.24a3.7 3.7 0 0 1-2.07-1.87h-.1v5.35h-1.64v-13.12h1.64v1.9h.1a3.63 3.63 0 0 1 2-1.86c.45-.16.93-.25 1.46-.25.83 0 1.56.21 2.2.63.65.42 1.15 1 1.52 1.77.36.77.55 1.65.55 2.66 0 1.02-.2 1.92-.57 2.68a3.96 3.96 0 0 1-3.68 2.35zm-.51-1.45c.6 0 1.12-.15 1.59-.44.47-.3.84-.72 1.1-1.26.27-.54.4-1.18.4-1.9a4.2 4.2 0 0 0-.4-1.89 2.91 2.91 0 0 0-1.09-1.25c-.47-.3-1-.44-1.6-.44-.61 0-1.15.15-1.62.45-.47.3-.82.73-1.08 1.28a4.3 4.3 0 0 0-.38 1.86c0 .71.13 1.35.38 1.9.26.53.62.95 1.09 1.25a3 3 0 0 0 1.6.44zm10.68 1.44a4.4 4.4 0 0 1-4.16-2.45 5.76 5.76 0 0 1-.58-2.6c0-1.02.2-1.91.62-2.67.41-.77.98-1.35 1.69-1.75.72-.41 1.52-.62 2.41-.62.88 0 1.65.2 2.32.6.68.39 1.2.95 1.57 1.67a5.42 5.42 0 0 1 .5 3.24h-7.5c.06.68.22 1.26.5 1.75.29.48.66.85 1.12 1.1.47.24.99.36 1.57.36.43 0 .83-.07 1.2-.22s.68-.37.93-.64c.25-.28.43-.6.53-.96h1.64a4 4 0 0 1-.8 1.67c-.4.48-.9.85-1.5 1.12-.62.26-1.3.4-2.06.4zm2.77-5.89a3.43 3.43 0 0 0-.39-1.51 2.5 2.5 0 0 0-.97-1.03 3.16 3.16 0 0 0-2.87-.05c-.43.21-.79.53-1.08.97-.29.44-.48.98-.57 1.62h5.88zm3.24 5.68v-9.66h1.65v1.99h.1c.21-.67.58-1.16 1.1-1.49.53-.33 1.13-.5 1.82-.5h.44v1.6h-.44c-.61 0-1.15.13-1.6.36-.46.24-.8.58-1.06 1.02-.24.43-.36.94-.36 1.51v5.17h-1.65zm8.84.19c-.63 0-1.2-.12-1.67-.37-.48-.25-.84-.6-1.1-1.04a3.08 3.08 0 0 1-.38-1.56c0-.56.13-1.05.4-1.47.27-.43.67-.76 1.18-1a4.42 4.42 0 0 1 1.82-.34h1.92c.36 0 .63-.08.8-.23.18-.16.27-.42.27-.78 0-.39-.1-.72-.27-1-.19-.28-.45-.5-.8-.65a2.96 2.96 0 0 0-1.19-.22c-.45 0-.84.08-1.17.23a1.8 1.8 0 0 0-.78.66c-.19.28-.3.6-.33.99h-1.6a3.22 3.22 0 0 1 1.9-2.88c.58-.27 1.24-.4 1.98-.4.8 0 1.5.13 2.07.4a2.9 2.9 0 0 1 1.33 1.13c.3.5.46 1.07.46 1.74v6.6h-1.6v-1.86h-.1a3.03 3.03 0 0 1-1.19 1.5c-.55.37-1.2.55-1.95.55zm.36-1.34c.62 0 1.15-.14 1.58-.42.43-.3.76-.68.97-1.16.22-.48.33-1 .33-1.57v-.25h-.02c-.1.07-.24.12-.44.15-.2.02-.4.03-.63.03h-1.87c-.58 0-1.04.14-1.37.42-.31.28-.48.66-.48 1.16 0 .33.08.62.23.87.14.25.37.44.66.58.3.13.64.2 1.04.2zm9.37 1.15a2.9 2.9 0 0 1-1.3-.24 1.43 1.43 0 0 1-.68-.68c-.13-.29-.2-.64-.2-1.06v-6.25h-1.82v-1.43h1.82v-2.46h1.65v2.46h2.39v1.43h-2.4v6.24c0 .2.05.34.13.43.08.08.22.12.43.12h1.83v1.44h-1.85zm7.47.2a4.4 4.4 0 0 1-4.16-2.45 5.74 5.74 0 0 1-.57-2.6c0-1.01.2-1.9.61-2.66.42-.77.98-1.35 1.7-1.75.71-.41 1.52-.62 2.4-.62.89 0 1.66.2 2.33.6.68.39 1.2.95 1.57 1.67a5.41 5.41 0 0 1 .53 2.85l-.03.4h-7.5c.05.67.22 1.25.5 1.74.28.48.66.85 1.12 1.1.46.24.99.36 1.57.36.43 0 .83-.07 1.2-.22s.67-.37.92-.64c.26-.28.44-.6.54-.96h1.64a4 4 0 0 1-.8 1.67c-.4.48-.9.85-1.51 1.12-.61.26-1.3.4-2.06.4zm2.78-5.88a3.44 3.44 0 0 0-.39-1.51 2.5 2.5 0 0 0-.97-1.03 3.16 3.16 0 0 0-2.87-.05c-.43.21-.8.53-1.08.97-.3.44-.48.98-.57 1.62h5.88z"/><path fill="#FBFDFC" fill-opacity=".4" fill-rule="evenodd" d="M511.53 272.14a17.07 17.07 0 0 0 0 34.14h103a17.07 17.07 0 0 0 0-34.14h-103zm-18.85 17.07a18.85 18.85 0 0 1 18.85-18.85h103a18.85 18.85 0 0 1 0 37.7h-103a18.85 18.85 0 0 1-18.85-18.85z" clip-rule="evenodd"/><path fill="#071616" fill-opacity=".5" d="M69.07 387.06H25.44a10.88 10.88 0 0 0-10.88 10.89v43.63c0 6.01 4.87 10.89 10.88 10.89h43.63c6.01 0 10.88-4.88 10.88-10.89v-43.63c0-6.01-4.87-10.89-10.88-10.89z"/><mask id="F" width="40" height="40" x="27" y="400" maskUnits="userSpaceOnUse" style="mask-type:alpha"><path fill="#8DF7DB" fill-rule="evenodd" d="M28 419.76c0 1.71 1.18 3.14 2.77 3.52a16.87 16.87 0 0 0 12.97 12.97 3.61 3.61 0 0 0 7.03 0 16.87 16.87 0 0 0 12.97-12.97 3.61 3.61 0 0 0 0-7.03 16.87 16.87 0 0 0-12.97-12.97 3.61 3.61 0 0 0-7.03 0 16.87 16.87 0 0 0-12.97 12.97 3.61 3.61 0 0 0-2.77 3.51z" clip-rule="evenodd"/></mask><g fill="#fff" fill-rule="evenodd" clip-rule="evenodd" mask="url(#F)"><path d="M47.3 439.02a19.26 19.26 0 1 0-.08 0 3.61 3.61 0 0 1-1.57-6.84v-2.1a10.44 10.44 0 0 1-8.7-8.71h-2.1a3.61 3.61 0 1 1 0-3.21h2.1a10.43 10.43 0 0 1 8.7-8.7v-2.1a3.61 3.61 0 1 1 3.21 0v2.1c4.48.69 8.01 4.22 8.7 8.7h2.1a3.61 3.61 0 1 1 0 3.2h-2.1a10.44 10.44 0 0 1-8.7 8.71v2.1a3.6 3.6 0 0 1-1.57 6.85z"/><path d="M51.8 421.37a4.82 4.82 0 1 1 0-3.21h5.89v3.2h-5.9z"/></g><path fill="#95F3D9" fill-rule="evenodd" d="M25.44 388.8a9.15 9.15 0 0 0-9.15 9.15v43.63c0 5.06 4.1 9.16 9.15 9.16h43.63c5.06 0 9.15-4.1 9.15-9.16v-43.63c0-5.06-4.1-9.16-9.15-9.16H25.44zm-10.93 9.15c0-6.05 4.9-10.94 10.93-10.94h43.63c6.04 0 10.94 4.9 10.94 10.94v43.63c0 6.04-4.9 10.94-10.94 10.94H25.44c-6.04 0-10.93-4.9-10.93-10.94v-43.63z" clip-rule="evenodd"/><path fill="#071616" fill-opacity=".5" d="M182.6 470.33h-43.63a10.88 10.88 0 0 0-10.88 10.88v43.64c0 6 4.87 10.88 10.88 10.88h43.63c6.01 0 10.88-4.87 10.88-10.88V481.2c0-6-4.87-10.88-10.88-10.88z"/><path fill="#fff" fill-rule="evenodd" d="M155 509.44a6.8 6.8 0 0 1-6.76-6.84 6.8 6.8 0 0 1 6.75-6.84h11.6a6.8 6.8 0 0 1 6.76 6.84 6.8 6.8 0 0 1-6.76 6.84h-11.6zm11.87 3.71c5.77 0 10.42-4.72 10.42-10.55 0-5.84-4.65-10.57-10.42-10.57h-12.14a10.5 10.5 0 0 0-10.45 10.57 10.5 10.5 0 0 0 10.45 10.55h12.14z" clip-rule="evenodd"/><path fill="#95F3D9" fill-rule="evenodd" d="M138.97 472.06a9.15 9.15 0 0 0-9.15 9.15v43.64c0 5.05 4.1 9.15 9.15 9.15h43.63c5.06 0 9.15-4.1 9.15-9.15V481.2c0-5.05-4.1-9.15-9.15-9.15h-43.63zm-10.94 9.15c0-6.04 4.9-10.94 10.94-10.94h43.63c6.04 0 10.94 4.9 10.94 10.94v43.64c0 6.04-4.9 10.94-10.94 10.94h-43.63c-6.04 0-10.94-4.9-10.94-10.94V481.2z" clip-rule="evenodd"/><path fill="#071616" fill-opacity=".5" d="M201.18 340.51h-43.63a10.88 10.88 0 0 0-10.88 10.88v43.64c0 6.01 4.87 10.89 10.88 10.89h43.63c6.01 0 10.88-4.88 10.88-10.89V351.4c0-6.02-4.87-10.89-10.88-10.89z"/><path fill="#fff" fill-rule="evenodd" d="M181.77 361.6c-1.84 0-3.5.78-4.7 2.04a7.17 7.17 0 0 0-5.73-2.86 7.23 7.23 0 0 0-6.6 10.15 6.34 6.34 0 0 0-3.1 5.47 6.25 6.25 0 0 0 7.46 6.18 6.67 6.67 0 0 0 6.25 4.4c2.76 0 5.12-1.68 6.14-4.1a5.83 5.83 0 0 0 7.66-2.43c.5.11 1.03.17 1.57.17 4.41 0 7.99-3.65 7.99-8.15s-3.58-8.14-8-8.14c-1.1 0-2.2.23-3.22.7a6.55 6.55 0 0 0-5.72-3.43zm1.75 8.35.21.05c.02 0 .06.03.04.08l-.16.45c-.02.04-.03.06-.1.04l-.1-.03a.91.91 0 0 0-.18-.02.73.73 0 0 0-.23.04.44.44 0 0 0-.18.11.64.64 0 0 0-.15.23c-.07.2-.1.41-.11.47v.02h.68c.06 0 .08.03.07.07l-.08.45c-.01.07-.07.06-.07.06h-.7l-.5 2.77c-.04.29-.1.53-.18.73-.08.2-.16.35-.28.49a.98.98 0 0 1-.4.28c-.15.05-.33.08-.53.08a1.3 1.3 0 0 1-.5-.09c-.03 0-.06-.04-.04-.09l.16-.44c.02-.05.08-.03.08-.03l.11.04a.79.79 0 0 0 .42-.02.4.4 0 0 0 .2-.15c.06-.08.1-.18.16-.31.04-.14.09-.32.12-.54l.48-2.71h-.47c-.06 0-.08-.03-.07-.08l.08-.45c.01-.06.07-.06.07-.06h.49l.03-.15c.07-.43.22-.76.43-.98.21-.22.52-.33.9-.33.1 0 .2 0 .3.02zm-9.45 4.81c.04 0 .06-.03.06-.06v-4.63c0-.04-.02-.07-.06-.07h-.57c-.03 0-.06.03-.06.06v4.64c0 .03.03.06.06.06h.57zm-7.05-.31c-.01-.01-.03-.03-.01-.08l.15-.42c.02-.07.08-.05.1-.03.02 0 .03.01.05.03l.07.04c.45.29.86.29.98.29.33 0 .54-.18.54-.42 0-.27-.32-.37-.68-.48l-.08-.02c-.5-.15-1.04-.36-1.04-1v-.01c0-.61.49-1.04 1.18-1.04h.08c.4 0 .8.12 1.09.3.02.01.05.04.03.09l-.15.42c-.03.07-.1.02-.1.02a2.17 2.17 0 0 0-.97-.25c-.3 0-.48.16-.48.37v.01c0 .26.32.36.7.49l.06.02c.5.16 1.04.38 1.04.99v.01c0 .66-.47 1.07-1.24 1.07-.37 0-.73-.06-1.1-.27l-.05-.02-.16-.1-.01-.01zm11.13 0c-.01-.01-.03-.03 0-.08l.14-.42c.02-.07.09-.04.1-.03l.03.01.1.06c.44.29.85.29.98.29.33 0 .53-.18.53-.42 0-.27-.31-.37-.68-.48l-.08-.02c-.5-.15-1.04-.36-1.04-1v-.01c0-.61.49-1.04 1.18-1.04h.08c.4 0 .8.12 1.09.3.02.01.05.04.04.09l-.16.42c-.03.07-.1.02-.1.02a2.17 2.17 0 0 0-.97-.25c-.29 0-.48.16-.48.37v.01c0 .26.33.36.7.49l.07.02c.5.16 1.03.38 1.03.99v.01c0 .66-.47 1.07-1.23 1.07a2.25 2.25 0 0 1-1.33-.4zm7.39-.5c.13-.2.2-.5.2-.87s-.07-.66-.2-.87c-.14-.2-.34-.3-.62-.3-.28 0-.48.1-.62.3-.13.2-.2.5-.2.87s.07.67.2.87c.13.2.34.3.62.3.28 0 .48-.1.62-.3zm.55-2.11c.13.15.22.34.29.55a2.49 2.49 0 0 1 0 1.38c-.07.21-.16.4-.3.56-.12.16-.29.28-.48.37-.2.09-.42.13-.68.13a1.6 1.6 0 0 1-.68-.13 1.3 1.3 0 0 1-.49-.37 1.58 1.58 0 0 1-.29-.56 2.45 2.45 0 0 1 0-1.38c.06-.21.16-.4.3-.55.12-.16.28-.29.48-.38.2-.09.42-.14.68-.14.26 0 .49.05.68.14.2.1.36.22.49.38zm5.42 2.28s.06-.02.08.04l.15.43c.02.06-.02.08-.02.08-.24.1-.58.16-.9.16-.55 0-.97-.16-1.25-.47a1.86 1.86 0 0 1-.43-1.28c0-.25.04-.48.1-.7.08-.2.18-.4.32-.55.13-.15.3-.28.5-.37.21-.1.45-.14.72-.14a2.44 2.44 0 0 1 .9.14s.05.03.03.08l-.1.3-.05.13c-.03.07-.08.05-.08.05-.2-.07-.4-.1-.67-.1-.31 0-.55.1-.7.31-.16.21-.24.49-.25.85 0 .4.1.7.28.88.17.18.42.27.72.27.13 0 .25 0 .35-.03.1-.01.2-.04.3-.08zm1.36-1.9c-.09.13-.14.3-.17.5h1.53c-.01-.2-.05-.37-.14-.5a.67.67 0 0 0-.6-.32.68.68 0 0 0-.62.31zm1.7-.46c.08.1.21.3.27.51.13.46.07.86.06.93 0 .06-.06.06-.06.06h-2.15c.01.33.09.56.25.72.15.16.4.26.73.26.47 0 .7-.09.84-.15h.02l.03-.01s.06-.02.08.04l.14.4c.03.06 0 .08-.02.1-.13.07-.46.21-1.08.21-.3 0-.57-.04-.78-.12a1.42 1.42 0 0 1-.85-.92 2.5 2.5 0 0 1 0-1.38 1.4 1.4 0 0 1 .79-.94 1.68 1.68 0 0 1 1.31-.02c.14.06.27.16.41.31zm-18.9.45c-.1.14-.15.3-.18.52h1.53a1.1 1.1 0 0 0-.14-.52.67.67 0 0 0-.6-.31.68.68 0 0 0-.62.31zm1.68-.45c.09.1.22.3.28.51.13.46.07.86.06.93 0 .06-.06.06-.06.06h-2.15c.01.33.1.56.25.72.16.16.4.26.74.26.46 0 .68-.09.84-.15l.04-.01s.06-.02.08.04l.14.4c.03.06 0 .08-.02.1-.13.07-.46.21-1.08.21-.3 0-.56-.04-.78-.12-.22-.09-.4-.21-.54-.36a1.43 1.43 0 0 1-.31-.56 2.5 2.5 0 0 1 0-1.38c.06-.22.15-.4.28-.57.13-.15.3-.28.5-.38a1.68 1.68 0 0 1 1.32-.01c.14.06.27.16.41.31zm-6.63 2.26c.03.04.04.06.13.13 0 0 .19.15.63.12.3-.01.58-.07.58-.07v-1c-.2-.02-.4-.04-.59-.04-.44 0-.62.16-.62.16-.13.09-.2.23-.2.42 0 .12.03.21.07.28zm.65-1.4a4.4 4.4 0 0 1 .69.04v-.09c0-.29-.06-.42-.18-.51a.86.86 0 0 0-.53-.14s-.53-.01-.94.21l-.03.02s-.06.02-.07-.03l-.16-.42c-.02-.06.02-.08.02-.08.2-.15.67-.25.67-.25.15-.03.4-.05.57-.05.43 0 .76.1.99.3.22.2.34.52.34.96v1.98s0 .06-.05.07l-.15.04-.54.11a3.9 3.9 0 0 1-1.22 0c-.17-.04-.32-.1-.44-.2a.9.9 0 0 1-.28-.33c-.06-.14-.1-.3-.1-.5a1.05 1.05 0 0 1 .43-.86c.13-.1.28-.16.45-.2.16-.06.34-.08.53-.08zm17.67-1.14v.02l-.17.46c-.01.04-.04.06-.08.06 0 0-.12-.03-.23-.03-.1 0-.2.01-.3.04-.1.03-.18.09-.26.16a.8.8 0 0 0-.19.32 1.9 1.9 0 0 0-.07.57v1.62c0 .01 0 .03-.02.04a.06.06 0 0 1-.04.02h-.57c-.02 0-.03 0-.04-.02a.07.07 0 0 1-.02-.04v-3.24c0-.04.02-.07.06-.07h.55c.04 0 .06.03.06.07v.27a.96.96 0 0 1 .37-.28c.13-.06.28-.1.55-.09a1.8 1.8 0 0 1 .38.08l.01.02v.02z" clip-rule="evenodd"/><path fill="#95F3D9" fill-rule="evenodd" d="M157.55 342.24a9.15 9.15 0 0 0-9.15 9.15v43.64c0 5.06 4.1 9.15 9.15 9.15h43.63c5.06 0 9.15-4.1 9.15-9.15v-43.64c0-5.05-4.1-9.15-9.15-9.15h-43.63zm-10.94 9.15c0-6.04 4.9-10.94 10.94-10.94h43.63c6.04 0 10.94 4.9 10.94 10.94v43.64c0 6.04-4.9 10.94-10.94 10.94h-43.63c-6.04 0-10.94-4.9-10.94-10.94v-43.64z" clip-rule="evenodd"/><path fill="#071616" fill-opacity=".5" d="M160.53 231.5H116.9c-6 0-10.88 4.87-10.88 10.88v43.64c0 6 4.87 10.88 10.88 10.88h43.63c6.01 0 10.88-4.87 10.88-10.88v-43.64c0-6.01-4.87-10.88-10.88-10.88z"/><path fill="#fff" fill-rule="evenodd" d="M138.93 274.02h-20.07v-19.65h39.72l-19.65 19.65zm-.42-15.72h3.92c3.73 0 5.49 1.27 5.5 4.17 0 2.6-1.81 4.16-4.87 4.16h-1.26l-.02 3.47h-5.94l-.4-1.5a6.58 6.58 0 0 1-4.13-.03l-.6 1.53h-3.3l.14-.76-.02.02-.12.1c-.89.72-2 1.04-3.37 1.07h-.36a8.4 8.4 0 0 1-4.27-1.11l1.21-2.4a5.4 5.4 0 0 0 3.24.92c.57 0 .99-.11 1.26-.4a.92.92 0 0 0 .25-.6c.02-.63-.87-.92-1.95-1.26a9.1 9.1 0 0 1-2.66-1.21 3.06 3.06 0 0 1-1.35-2.73 3.3 3.3 0 0 1 .94-2.28 5.37 5.37 0 0 1 3.9-1.43h.02c1.43 0 3.17.4 4.43 1.05l-1.36 2.36a6.4 6.4 0 0 0-2.86-.77c-1.17-.06-1.76.36-1.77.8-.01.56 1.1 1.06 2.16 1.4 1.6.5 3.62 1.18 3.93 3.14l2.92-7.71h3.38l3.42 9.23-.01-9.23zm-6.37 7.67a3.64 3.64 0 0 0 2.48.01l-1.22-3.92h-.02l-1.24 3.91zm9.66-2.03h.86c1.15 0 2.06-.38 2.06-1.6 0-1.16-.91-1.55-2.06-1.55h-.86v3.15z" clip-rule="evenodd"/><path fill="#95F3D9" fill-rule="evenodd" d="M116.9 233.23a9.15 9.15 0 0 0-9.15 9.15v43.64c0 5.05 4.1 9.15 9.15 9.15h43.63c5.06 0 9.15-4.1 9.15-9.15v-43.64c0-5.05-4.1-9.15-9.15-9.15H116.9zm-10.93 9.15c0-6.04 4.9-10.94 10.93-10.94h43.63c6.04 0 10.94 4.9 10.94 10.94v43.64c0 6.04-4.9 10.94-10.94 10.94H116.9c-6.04 0-10.93-4.9-10.93-10.94v-43.64z" clip-rule="evenodd"/><path fill="#071616" fill-opacity=".5" d="M284.41 197.58h-43.63a10.88 10.88 0 0 0-10.88 10.88v43.64c0 6 4.87 10.88 10.88 10.88h43.63c6.01 0 10.88-4.87 10.88-10.88v-43.64c0-6.01-4.87-10.88-10.88-10.88z"/><path fill="#fff" d="M244.17 213.22c-.08.05-.14 7.6-.14 16.72.02 14.04.06 16.53.27 16.12.16-.28 2.99-7.11 6.31-15.21l6.6-16.07c.32-.76.57-1.45.57-1.53 0-.2-13.42-.23-13.61-.03zm23.93.06c0 .12 1.7 4.52 3.8 9.8l6.47 16.25c1.45 3.68 2.68 6.73 2.72 6.77.04.04.08-7.36.08-16.46V213.1h-6.54c-4.3 0-6.53.05-6.53.2zm-8.2 19.53a616.89 616.89 0 0 0-2.8 7c-.07.32.2.36 2.98.4l3.05.05 1.21 3.26 1.22 3.27h2.69c2.49 0 2.69-.02 2.58-.35-.47-1.35-8.08-20.29-8.15-20.29-.06 0-1.31 3-2.79 6.66z"/><path fill="#C4FD7F" fill-rule="evenodd" d="M240.78 199.3a9.15 9.15 0 0 0-9.15 9.16v43.64c0 5.05 4.1 9.15 9.15 9.15h43.63c5.06 0 9.15-4.1 9.15-9.15v-43.64c0-5.06-4.1-9.15-9.15-9.15h-43.63zm-10.93 9.16c0-6.04 4.9-10.94 10.93-10.94h43.63c6.04 0 10.94 4.9 10.94 10.94v43.64c0 6.04-4.9 10.94-10.94 10.94h-43.63c-6.04 0-10.93-4.9-10.93-10.94v-43.64z" clip-rule="evenodd"/><path fill="#071616" fill-opacity=".5" d="M902.96 197.58h-43.63c-6.01 0-10.88 4.87-10.88 10.88v43.64c0 6 4.87 10.88 10.88 10.88h43.63c6 0 10.88-4.87 10.88-10.88v-43.64c0-6.01-4.87-10.88-10.88-10.88z"/><path fill="#AA99EC" fill-rule="evenodd" d="M859.33 199.3a9.15 9.15 0 0 0-9.15 9.16v43.64c0 5.05 4.1 9.15 9.15 9.15h43.63c5.05 0 9.15-4.1 9.15-9.15v-43.64c0-5.06-4.1-9.15-9.15-9.15h-43.63zm-10.94 9.16c0-6.04 4.9-10.94 10.94-10.94h43.63c6.04 0 10.93 4.9 10.93 10.94v43.64c0 6.04-4.9 10.94-10.93 10.94h-43.63c-6.04 0-10.94-4.9-10.94-10.94v-43.64z" clip-rule="evenodd"/><path fill="#fff" d="M867.36 234.05c0 1.36.3 2.4.68 3.03.5.83 1.26 1.18 2.03 1.18.98 0 1.9-.25 3.64-2.7 1.4-1.95 3.04-4.7 4.15-6.43l1.88-2.92c1.3-2.03 2.82-4.28 4.55-5.8 1.41-1.26 2.94-1.95 4.47-1.95 2.58 0 5.03 1.51 6.91 4.35 2.06 3.1 3.06 7 3.06 11.04 0 2.4-.47 4.16-1.27 5.56a5.26 5.26 0 0 1-4.78 2.69v-3.84c2.16 0 2.7-2 2.7-4.3 0-3.27-.76-6.9-2.42-9.5-1.18-1.83-2.7-2.95-4.38-2.95-1.82 0-3.28 1.38-4.92 3.85a73.75 73.75 0 0 0-2.78 4.72l-1.1 1.99c-2.23 4-2.8 4.9-3.9 6.4-1.96 2.63-3.62 3.63-5.81 3.63-2.6 0-4.25-1.14-5.27-2.86a10.46 10.46 0 0 1-1.24-5.33l3.8.14z"/><path fill="#fff" d="M866.55 223.08c1.75-2.72 4.26-4.62 7.14-4.62 1.67 0 3.33.5 5.06 1.93 1.9 1.57 3.92 4.15 6.44 8.4l.9 1.52c2.18 3.68 3.42 5.57 4.15 6.46.94 1.15 1.59 1.49 2.44 1.49 2.16 0 2.7-2 2.7-4.3l3.35-.1c0 2.4-.47 4.15-1.27 5.54a5.26 5.26 0 0 1-4.78 2.7 5.92 5.92 0 0 1-4.49-1.81 25.22 25.22 0 0 1-3.61-4.91l-3.16-5.34a36.59 36.59 0 0 0-3.87-5.57c-.9-.97-2.07-2.14-3.92-2.14-1.5 0-2.77 1.06-3.84 2.7l-3.24-1.95z"/><path fill="#fff" d="M873.63 222.33c-1.5 0-2.77 1.06-3.84 2.7-1.5 2.3-2.43 5.72-2.43 9.02 0 1.36.3 2.4.68 3.03l-3.24 2.16a10.46 10.46 0 0 1-1.24-5.33c0-3.8 1.03-7.77 3-10.83 1.74-2.72 4.25-4.62 7.13-4.62l-.06 3.87z"/><path fill="#071616" fill-opacity=".5" d="M308.33 73.64H264.7c-6.01 0-10.88 4.88-10.88 10.89v43.63c0 6.01 4.87 10.89 10.88 10.89h43.63c6 0 10.88-4.88 10.88-10.89V84.53c0-6.01-4.87-10.89-10.88-10.89z"/><path fill="#fff" d="M280.94 125.27v-20.04H301l-20.05 20.04z"/><path fill="#fff" d="M289.86 105.23h-17.82V87.42l17.81 17.81z" opacity=".6"/><path fill="#fff" d="M272.04 105.23h8.9v8.9l-8.9-8.9z" opacity=".3"/><path fill="#C4FD7F" fill-rule="evenodd" d="M264.7 75.37a9.15 9.15 0 0 0-9.15 9.16v43.63c0 5.06 4.1 9.16 9.15 9.16h43.63c5.05 0 9.15-4.1 9.15-9.16V84.53c0-5.06-4.1-9.16-9.15-9.16H264.7zm-10.94 9.16c0-6.05 4.9-10.94 10.94-10.94h43.63c6.04 0 10.94 4.9 10.94 10.94v43.63c0 6.04-4.9 10.94-10.94 10.94H264.7c-6.04 0-10.94-4.9-10.94-10.94V84.53z" clip-rule="evenodd"/><path fill="#071616" fill-opacity=".5" d="M881.22 73.67h-43.63c-6 0-10.88 4.88-10.88 10.89v43.63c0 6.01 4.87 10.89 10.88 10.89h43.63c6.01 0 10.88-4.88 10.88-10.89V84.56c0-6.01-4.87-10.89-10.88-10.89z"/><g fill="#fff" clip-path="url(#G)"><path d="M871.09 116.32c-13.1 6.24-21.24 1.02-26.44-2.15-.32-.2-.87.05-.4.6 1.74 2.1 7.42 7.16 14.84 7.16s11.84-4.05 12.39-4.75c.55-.7.16-1.09-.4-.86zm3.67-2.03c-.35-.46-2.13-.54-3.26-.4-1.13.13-2.82.82-2.67 1.23.07.16.23.09 1 .02.78-.08 2.95-.36 3.4.24.46.6-.69 3.43-.9 3.9-.2.45.08.57.46.26.38-.3 1.06-1.1 1.51-2.21.46-1.12.73-2.7.46-3.04z"/><path fill-rule="evenodd" d="M862.28 103.6c0 1.64.04 3-.79 4.45-.67 1.18-1.72 1.91-2.9 1.91-1.62 0-2.56-1.23-2.56-3.04 0-3.58 3.21-4.23 6.25-4.23v.9zm4.23 10.23a.88.88 0 0 1-1 .1c-1.38-1.15-1.63-1.69-2.4-2.8-2.3 2.36-3.93 3.06-6.92 3.06-3.53 0-6.29-2.18-6.29-6.55 0-3.4 1.85-5.72 4.48-6.86 2.28-1 5.46-1.18 7.9-1.46v-.54c0-1 .07-2.18-.51-3.04-.52-.78-1.5-1.1-2.36-1.1-1.6 0-3.03.83-3.38 2.53-.07.38-.35.75-.72.77l-4.08-.44c-.34-.08-.72-.36-.62-.88.93-4.94 5.4-6.43 9.39-6.43 2.04 0 4.7.55 6.32 2.1 2.04 1.9 1.85 4.45 1.85 7.22v6.54c0 1.97.82 2.83 1.58 3.9.27.37.33.83 0 1.1-.87.72-2.39 2.05-3.23 2.8v-.02" clip-rule="evenodd"/><path d="M871.09 116.32c-13.1 6.24-21.24 1.02-26.44-2.15-.32-.2-.87.05-.4.6 1.74 2.1 7.42 7.16 14.84 7.16s11.84-4.05 12.39-4.75c.55-.7.16-1.09-.4-.86zm3.67-2.03c-.35-.46-2.13-.54-3.26-.4-1.13.13-2.82.82-2.67 1.23.07.16.23.09 1 .02.78-.08 2.95-.36 3.4.24.46.6-.69 3.43-.9 3.9-.2.45.08.57.46.26.38-.3 1.06-1.1 1.51-2.21.46-1.12.73-2.7.46-3.04z"/><path fill-rule="evenodd" d="M862.28 103.6c0 1.64.04 3-.79 4.45-.67 1.18-1.72 1.91-2.9 1.91-1.62 0-2.56-1.23-2.56-3.04 0-3.58 3.21-4.23 6.25-4.23v.9zm4.23 10.23a.88.88 0 0 1-1 .1c-1.38-1.15-1.63-1.69-2.4-2.8-2.3 2.36-3.93 3.06-6.92 3.06-3.53 0-6.29-2.18-6.29-6.55 0-3.4 1.85-5.72 4.48-6.86 2.28-1 5.46-1.18 7.9-1.46v-.54c0-1 .07-2.18-.51-3.04-.52-.78-1.5-1.1-2.36-1.1-1.6 0-3.03.83-3.38 2.53-.07.38-.35.75-.72.77l-4.08-.44c-.34-.08-.72-.36-.62-.88.93-4.94 5.4-6.43 9.39-6.43 2.04 0 4.7.55 6.32 2.1 2.04 1.9 1.85 4.45 1.85 7.22v6.54c0 1.97.82 2.83 1.58 3.9.27.37.33.83 0 1.1-.87.72-2.39 2.05-3.23 2.8v-.02" clip-rule="evenodd"/></g><path fill="#AA99EC" fill-rule="evenodd" d="M837.6 75.4a9.15 9.15 0 0 0-9.16 9.16v43.63c0 5.06 4.1 9.16 9.15 9.16h43.63c5.05 0 9.15-4.1 9.15-9.16V84.56c0-5.06-4.1-9.16-9.15-9.16h-43.63zm-10.95 9.16c0-6.04 4.9-10.94 10.94-10.94h43.63c6.04 0 10.94 4.9 10.94 10.94v43.63c0 6.04-4.9 10.94-10.94 10.94h-43.63c-6.04 0-10.94-4.9-10.94-10.94V84.56z" clip-rule="evenodd"/><path fill="#071616" fill-opacity=".5" d="M492.83 0h-43.62a10.88 10.88 0 0 0-10.89 10.88v43.64c0 6.01 4.88 10.88 10.89 10.88h43.62c6.01 0 10.89-4.87 10.89-10.88V10.88c0-6-4.88-10.88-10.89-10.88z"/><path fill="#fff" d="M466.97 19.16c1.23 1.22 1.7 3 1.23 4.67a9.8 9.8 0 0 1 5.03-1.38h.04c2.6 0 5.1 1.04 6.93 2.88a3.88 3.88 0 0 0 5.44.13 3.8 3.8 0 0 0 .03-5.5 17.54 17.54 0 0 0-12.38-5.14h-.06c-3.49 0-6.89 1.02-9.78 2.95h.11c1.28 0 2.5.5 3.41 1.4zm16 19.74a4 4 0 0 0-2.72 1.05 10.14 10.14 0 0 1-6.93 2.68h-.03c-1.78 0-3.53-.46-5.05-1.33.12.4.17.8.17 1.21 0 2.5-2.16 4.54-4.83 4.54h-.13c2.9 1.85 6.31 2.84 9.81 2.85h.07c4.63 0 9.08-1.72 12.37-4.8a3.48 3.48 0 0 0 .02-5.13 4 4 0 0 0-2.75-1.07zm-23.46-.57a4.76 4.76 0 0 1 4.61-1.17 8.97 8.97 0 0 1 .02-9.56 4.74 4.74 0 0 1-5.8-3.2c-.1-.39-.17-.8-.17-1.2v-.13a16.1 16.1 0 0 0-.04 18.57v-.1c0-1.2.5-2.36 1.38-3.21z"/><path fill="#fff" d="M463.45 19.38c-.95 0-1.61.39-2.42 1.2a2.95 2.95 0 0 0-1.01 2.24 3.44 3.44 0 1 0 3.44-3.45zm-3.43 22.59c0 .95.4 1.62 1.2 2.43.77.77 1.44 1.01 2.25 1.02a3.44 3.44 0 1 0-3.45-3.44v-.01z"/><path fill="#C4FD7F" fill-rule="evenodd" d="M449.2 1.73a9.15 9.15 0 0 0-9.15 9.15v43.64c0 5.06 4.1 9.15 9.16 9.15h43.63c5.05 0 9.15-4.1 9.15-9.15V10.88c0-5.05-4.1-9.15-9.16-9.15h-43.62zm-10.93 9.15c0-6.04 4.9-10.94 10.94-10.94h43.63c6.04 0 10.93 4.9 10.93 10.94v43.64c0 6.04-4.9 10.94-10.94 10.94h-43.62c-6.04 0-10.94-4.9-10.94-10.94V10.88z" clip-rule="evenodd"/><path fill="#071616" fill-opacity=".5" d="M690.79.16h-43.63a10.88 10.88 0 0 0-10.88 10.88v43.64c0 6.01 4.87 10.88 10.88 10.88h43.63c6 0 10.88-4.87 10.88-10.88V11.04c0-6-4.87-10.88-10.88-10.88z"/><path fill="#fff" fill-rule="evenodd" d="M676.57 22.45c-.31-.02-.6-.04-.92-.04-2.87 0-5.59 1.17-7.54 3.23a10.38 10.38 0 0 0-7.51-3.23 10.3 10.3 0 0 0-10.34 10.25v12.93h5.57V32.8a4.9 4.9 0 0 1 4.23-4.74l.47-.02a4.7 4.7 0 0 1 4.7 4.64v12.9h5.68v-12.8a4.9 4.9 0 0 1 4.24-4.73l.47-.02a4.69 4.69 0 0 1 4.7 4.62v12.93H686V32.8a10.44 10.44 0 0 0-9.44-10.36z" clip-rule="evenodd"/><path fill="#C4FD7F" fill-rule="evenodd" d="M647.16 1.89a9.15 9.15 0 0 0-9.15 9.15v43.64c0 5.05 4.1 9.15 9.15 9.15h43.63c5.05 0 9.15-4.1 9.15-9.15V11.04c0-5.05-4.1-9.15-9.15-9.15h-43.63zm-10.94 9.15C636.22 5 641.12.1 647.16.1h43.63c6.04 0 10.93 4.9 10.93 10.94v43.64c0 6.04-4.9 10.94-10.93 10.94h-43.63c-6.04 0-10.94-4.9-10.94-10.94V11.04z" clip-rule="evenodd"/><path fill="#071616" fill-opacity=".5" d="M585.3 83.69h-43.62a10.88 10.88 0 0 0-10.88 10.88v43.64c0 6.01 4.87 10.88 10.88 10.88h43.63c6 0 10.88-4.87 10.88-10.88V94.57c0-6-4.88-10.88-10.89-10.88z"/><path fill="#fff" d="M564.59 118.9h4.21c1.2 0 1.96-.67 1.96-1.73 0-1-.76-1.71-1.96-1.71h-4.21c-.14 0-.26.12-.26.24v2.95c.02.14.12.24.26.24zm0 6.8h4.35c1.34 0 2.14-.67 2.14-1.87 0-1.04-.76-1.88-2.14-1.88h-4.35c-.14 0-.26.12-.26.24v3.25c.02.16.12.26.26.26z"/><path fill="#fff" d="m580 99.96-12.46 12.42h2.04c3.17 0 5.05 2 5.05 4.18a3.94 3.94 0 0 1-2.4 3.53c-.2.08-.2.36.03.44a4.04 4.04 0 0 1 2.45 3.81c0 2.48-1.66 4.46-4.87 4.46H561c-.14 0-.26-.12-.26-.24v-9.4l-13.68 13.61c-.18.18-.06.5.2.5h32.9c.12 0 .22-.1.22-.22v-32.91c.06-.22-.22-.34-.38-.18z"/><path fill="#C4FD7F" fill-rule="evenodd" d="M541.68 85.42a9.15 9.15 0 0 0-9.16 9.15v43.64c0 5.05 4.1 9.15 9.16 9.15h43.62c5.06 0 9.16-4.1 9.16-9.15V94.57c0-5.05-4.1-9.15-9.16-9.15h-43.62zm-10.94 9.15c0-6.04 4.9-10.94 10.94-10.94h43.62c6.04 0 10.94 4.9 10.94 10.94v43.64c0 6.04-4.9 10.94-10.94 10.94h-43.62c-6.04 0-10.94-4.9-10.94-10.94V94.57z" clip-rule="evenodd"/><path fill="#071616" fill-opacity=".5" d="M748.51 113.86H704.9c-6.01 0-10.88 4.87-10.88 10.88v43.64c0 6 4.87 10.88 10.88 10.88h43.63c6 0 10.88-4.87 10.88-10.88v-43.64c0-6-4.88-10.88-10.88-10.88z"/><path fill="#fff" d="M735.33 132.12h-22.59v7.26h14.85c.97 0 1.61.8 1.61 1.61v12.75h-3.23c-.96 0-1.6-.8-1.6-1.61v-9.2h-6.3a5.79 5.79 0 0 0-5.81 5.8v6.46a5.79 5.79 0 0 0 5.8 5.81h23.08v-23.07a5.79 5.79 0 0 0-5.8-5.81z"/><path fill="#C4FD7F" fill-rule="evenodd" d="M704.89 115.59a9.15 9.15 0 0 0-9.16 9.15v43.64c0 5.05 4.1 9.15 9.16 9.15h43.63c5.05 0 9.15-4.1 9.15-9.15v-43.64c0-5.05-4.1-9.15-9.15-9.15h-43.63zm-10.94 9.15c0-6.04 4.9-10.94 10.94-10.94h43.63c6.03 0 10.93 4.9 10.93 10.94v43.64c0 6.04-4.9 10.94-10.94 10.94H704.9c-6.04 0-10.94-4.9-10.94-10.94v-43.64z" clip-rule="evenodd"/><path fill="#071616" fill-opacity=".5" d="M429.04 113.88h-43.63a10.88 10.88 0 0 0-10.88 10.88v43.64c0 6.01 4.87 10.88 10.88 10.88h43.63c6.01 0 10.88-4.87 10.88-10.88v-43.64c0-6-4.87-10.88-10.88-10.88z"/><path fill="#fff" d="M407.7 132.16a14.9 14.9 0 0 0-14.89 14.67 14.94 14.94 0 0 0 14.8 15.1c2.55.02 5-.6 7.18-1.78.2-.12.24-.41.06-.57l-1.4-1.24a.98.98 0 0 0-1.03-.17 12.12 12.12 0 0 1-16.8-11.32 12.1 12.1 0 0 1 12.08-11.88h12.09v21.47l-6.86-6.1a.5.5 0 0 0-.74.09 5.62 5.62 0 1 1 1.11-3.88 1 1 0 0 0 .33.66l1.79 1.58c.2.19.52.08.57-.2a8.45 8.45 0 0 0-7.76-9.96 8.44 8.44 0 0 0-8.96 8.19 8.53 8.53 0 0 0 8.24 8.65c1.92.04 3.7-.56 5.14-1.6l8.96 7.93a.6.6 0 0 0 .99-.44v-28.64a.57.57 0 0 0-.57-.56H407.7z"/><path fill="#C4FD7F" fill-rule="evenodd" d="M385.41 115.6a9.15 9.15 0 0 0-9.15 9.16v43.64c0 5.05 4.1 9.15 9.15 9.15h43.63c5.06 0 9.15-4.1 9.15-9.15v-43.64c0-5.05-4.1-9.15-9.15-9.15h-43.63zm-10.93 9.16c0-6.04 4.9-10.94 10.93-10.94h43.63c6.04 0 10.94 4.9 10.94 10.94v43.64c0 6.04-4.9 10.94-10.94 10.94h-43.63c-6.04 0-10.93-4.9-10.93-10.94v-43.64z" clip-rule="evenodd"/><mask id="s" width="203" height="143" x="791" y="248" maskUnits="userSpaceOnUse" style="mask-type:luminance"><path fill="#fff" d="m791.97 359.15 18.79 31.05L993.3 279.73l-18.78-31.06-182.56 110.48z"/></mask><g filter="url(#H)" mask="url(#s)"><mask id="I" width="178" height="118" x="801" y="273" maskUnits="userSpaceOnUse" style="mask-type:luminance"><path fill="#fff" d="m801.47 374.85 9.28 15.35 167.28-101.23-9.29-15.35-167.27 101.23z"/></mask><g mask="url(#I)"><path fill="#AA99EC" fill-rule="evenodd" d="m806.14 381.11 160.45-96.94 1.23 2.04-160.44 96.95-1.24-2.05z" clip-rule="evenodd"/></g><path fill="#AA99EC" d="m807.27 384.44-2.32-3.83 9.6-5.8a2.24 2.24 0 1 1 2.32 3.83l-9.6 5.8z"/></g><mask id="K" width="117" height="38" x="844" y="474" maskUnits="userSpaceOnUse" style="mask-type:luminance"><path fill="#fff" d="M844.29 474.1v37.3h116.35v-37.3H844.29z"/></mask><g filter="url(#J)" mask="url(#K)"><mask id="v" width="99" height="20" x="847" y="492" maskUnits="userSpaceOnUse" style="mask-type:luminance"><path fill="#fff" d="M847.5 492.88v18.52h97.82v-18.52h-97.83z"/></mask><g mask="url(#v)"><path fill="#AA99EC" fill-rule="evenodd" d="M844.29 500.9h100.8v2.47H844.3v-2.47z" clip-rule="evenodd"/></g><path fill="#AA99EC" d="M844.29 504.46v-4.64h11.57a2.32 2.32 0 1 1 0 4.64H844.3z"/></g><mask id="M" width="132" height="81" x="815" y="354" maskUnits="userSpaceOnUse" style="mask-type:luminance"><path fill="#fff" d="m815.74 399.6 13.3 34.69 117.27-44.98-13.3-34.69-117.27 44.98z"/></mask><g filter="url(#L)" mask="url(#M)"><mask id="w" width="108" height="57" x="822" y="378" maskUnits="userSpaceOnUse" style="mask-type:luminance"><path fill="#fff" d="m822.46 417.14 6.58 17.15 100.08-38.38-6.57-17.16-100.09 38.39z"/></mask><g mask="url(#w)"><path fill="#AA99EC" fill-rule="evenodd" d="m825.31 424.57 100.55-38.2.87 2.28-100.54 38.2-.88-2.28z" clip-rule="evenodd"/></g><path fill="#AA99EC" d="m826.57 427.86-1.64-4.29 10.72-4.11a2.3 2.3 0 0 1 1.64 4.29l-10.72 4.1z"/></g><path fill="#071616" fill-opacity=".5" d="M1100.52 387.06h-43.62a10.89 10.89 0 0 0-10.89 10.89v43.63c0 6.01 4.88 10.89 10.89 10.89h43.62c6.01 0 10.89-4.88 10.89-10.89v-43.63c0-6.01-4.88-10.89-10.89-10.89z"/><path fill="#fff" d="M1066.7 406.83v25.87c0 .05.01.1.05.15.03.05.07.09.12.1a.3.3 0 0 0 .17.03.3.3 0 0 0 .14-.08l13.47-13.13-13.47-13.14a.28.28 0 0 0-.31-.06.27.27 0 0 0-.12.1.23.23 0 0 0-.05.16zm19.59 7.54-16.88-9.3-.01-.01c-.29-.16-.57.23-.33.46l13.24 12.66 3.98-3.81zM1069.07 434c-.24.23.04.62.33.46h.01l16.88-9.3-3.98-3.82-13.24 12.66zm24.04-15.9-4.72-2.59-4.42 4.25 4.42 4.24 4.72-2.6a1.88 1.88 0 0 0 0-3.3z"/><path fill="#AA99EC" fill-rule="evenodd" d="M1056.9 388.8a9.16 9.16 0 0 0-9.16 9.15v43.63c0 5.06 4.1 9.16 9.16 9.16h43.62c5.06 0 9.16-4.1 9.16-9.16v-43.63c0-5.06-4.1-9.16-9.16-9.16h-43.62zm-10.94 9.15c0-6.05 4.9-10.94 10.94-10.94h43.62c6.04 0 10.94 4.9 10.94 10.94v43.63c0 6.04-4.9 10.94-10.94 10.94h-43.62c-6.04 0-10.94-4.9-10.94-10.94v-43.63z" clip-rule="evenodd"/><path fill="#071616" fill-opacity=".5" d="M998.85 470.33h-43.63a10.88 10.88 0 0 0-10.88 10.88v43.64c0 6.01 4.87 10.88 10.88 10.88h43.63c6.01 0 10.88-4.87 10.88-10.88V481.2c0-6-4.87-10.88-10.88-10.88z"/><path fill="#fff" d="M977.03 486.35a16.68 16.68 0 1 0 0 33.37 16.68 16.68 0 0 0 0-33.37zm13.34 10.47h-6.57a22.65 22.65 0 0 0-3.84-8.21 14.75 14.75 0 0 1 10.4 8.2zm1.38 6.21c0 1.44-.21 2.87-.63 4.25h-6.91c.46-2.81.46-5.69 0-8.5h6.91c.42 1.38.63 2.81.63 4.25zm-14.72 14.72c-.04 0-.08-.01-.11-.03a.24.24 0 0 1-.1-.07 20.04 20.04 0 0 1-4.52-8.4h9.47a20.02 20.02 0 0 1-4.52 8.4.24.24 0 0 1-.1.07.26.26 0 0 1-.12.03zm-5.18-10.47c-.5-2.81-.5-5.69 0-8.5h10.37c.5 2.81.5 5.69 0 8.5h-10.37zm-9.53-4.25c0-1.44.2-2.87.63-4.25h6.91a26.37 26.37 0 0 0 0 8.5h-6.91a14.65 14.65 0 0 1-.63-4.25zm14.71-14.72c.05 0 .09.01.12.03.04.02.08.04.1.07a20.02 20.02 0 0 1 4.52 8.4h-9.47a20.04 20.04 0 0 1 4.52-8.4.24.24 0 0 1 .1-.07.26.26 0 0 1 .11-.03zm-2.93.3a22.67 22.67 0 0 0-3.83 8.2h-6.57a14.7 14.7 0 0 1 10.4-8.2zm-10.4 20.63h6.57a22.68 22.68 0 0 0 3.83 8.21 14.75 14.75 0 0 1-10.4-8.2zm16.26 8.21a22.66 22.66 0 0 0 3.84-8.2h6.57a14.7 14.7 0 0 1-10.4 8.2z"/><path fill="#AA99EC" fill-rule="evenodd" d="M955.22 472.06a9.15 9.15 0 0 0-9.15 9.15v43.64c0 5.05 4.1 9.15 9.15 9.15h43.63c5.05 0 9.15-4.1 9.15-9.15V481.2c0-5.05-4.1-9.15-9.15-9.15h-43.63zm-10.94 9.15c0-6.04 4.9-10.94 10.94-10.94h43.63c6.04 0 10.94 4.9 10.94 10.94v43.64c0 6.04-4.9 10.94-10.94 10.94h-43.63c-6.04 0-10.94-4.9-10.94-10.94V481.2z" clip-rule="evenodd"/><path fill="#071616" fill-opacity=".5" d="M980.27 340.51h-43.63c-6.01 0-10.88 4.87-10.88 10.88v43.64c0 6.01 4.87 10.89 10.88 10.89h43.63c6 0 10.88-4.88 10.88-10.89V351.4c0-6.02-4.87-10.89-10.88-10.89z"/><path fill="#fff" d="m950.15 384.1-1.6 2.79a2.13 2.13 0 0 1-3.7-2.13l1.19-2.06.12-.2c.2-.29.7-.8 1.7-.7 0 0 2.37.26 2.54 1.49 0 0 .02.4-.25.8zm22.87-7.14h-5.03c-.35-.02-.5-.14-.56-.21v-.01l-5.38-9.32-.33-.46c-.53-.8-1.37 1.26-1.37 1.26-1 2.3.14 4.93.54 5.72l7.48 12.95a2.13 2.13 0 0 0 3.7-2.13l-1.88-3.24c-.04-.08-.1-.3.28-.3h2.55a2.13 2.13 0 0 0 0-4.26zm-9.77 2.9s.26 1.37-.77 1.37h-18.59a2.13 2.13 0 0 1 0-4.27h4.78c.78-.04.96-.49.96-.49l6.24-10.8c.11-.2.02-.4 0-.44l-2.06-3.56a2.12 2.12 0 1 1 3.69-2.13l.96 1.65.94-1.65a2.13 2.13 0 0 1 3.7 2.13l-8.68 15.03c-.04.1-.04.24.23.26h5.2v.05s2.99.05 3.4 2.85z"/><path fill="#AA99EC" fill-rule="evenodd" d="M936.64 342.24a9.15 9.15 0 0 0-9.15 9.15v43.64c0 5.06 4.1 9.15 9.15 9.15h43.63c5.05 0 9.15-4.1 9.15-9.15v-43.64c0-5.05-4.1-9.15-9.15-9.15h-43.63zm-10.94 9.15c0-6.04 4.9-10.94 10.94-10.94h43.63c6.04 0 10.93 4.9 10.93 10.94v43.64c0 6.04-4.9 10.94-10.93 10.94h-43.63c-6.04 0-10.94-4.9-10.94-10.94v-43.64z" clip-rule="evenodd"/><path fill="#071616" fill-opacity=".5" d="M1020.91 231.5h-43.63c-6 0-10.88 4.87-10.88 10.88v43.64c0 6 4.88 10.88 10.88 10.88h43.63c6.01 0 10.88-4.87 10.88-10.88v-43.64c0-6.01-4.87-10.88-10.88-10.88z"/><path fill="#fff" d="m1003.97 270.46 5.07-12.52h-3.36l-3.47 8.09-2.46-8.1h-2.58l-2.65 8.1-1.86-3.69-1.69 5.18 1.72 2.94h3.3l2.39-7.26 2.28 7.26h3.31z"/><path fill="#fff" fill-rule="evenodd" d="M985.6 266.16h2.05c.58 0 1.13-.06 1.68-.2l2.02-6.24a4.16 4.16 0 0 0-.39-.51c-.76-.85-1.88-1.27-3.36-1.27h-5.18v12.52h3.18v-4.3zm2.73-5.34c.3.3.45.7.45 1.2 0 .51-.14.91-.4 1.22-.28.33-.82.5-1.59.5h-1.2v-3.37h1.2c.73 0 1.23.15 1.54.45zm19.62 4.97-.97 2.43h4.51l.82 2.24h3.48l-4.73-12.52-1.65 4.16 1.32 3.69h-2.78z" clip-rule="evenodd"/><path fill="#AA99EC" fill-rule="evenodd" d="M977.28 233.23a9.15 9.15 0 0 0-9.15 9.15v43.64c0 5.05 4.1 9.15 9.15 9.15h43.63c5.06 0 9.16-4.1 9.16-9.15v-43.64c0-5.05-4.1-9.15-9.16-9.15h-43.63zm-10.93 9.15c0-6.04 4.9-10.94 10.93-10.94h43.63c6.04 0 10.94 4.9 10.94 10.94v43.64c0 6.04-4.9 10.94-10.94 10.94h-43.63c-6.03 0-10.93-4.9-10.93-10.94v-43.64z" clip-rule="evenodd"/><path fill="#95F3D9" d="M305.52 521.3a2.5 2.5 0 0 1-1.13-.23c-.32-.17-.57-.4-.75-.7a2.1 2.1 0 0 1-.25-1.05v-2.93c0-.4.08-.76.25-1.05.18-.3.43-.53.75-.7.32-.16.7-.24 1.13-.24.43 0 .8.08 1.13.25.32.16.56.39.74.69a2 2 0 0 1 .27 1.05h-1.16c0-.31-.09-.55-.26-.72-.16-.17-.4-.26-.72-.26-.3 0-.55.09-.72.25-.18.17-.26.4-.26.72v2.94c0 .3.08.55.26.72a1 1 0 0 0 .72.25c.32 0 .56-.08.72-.25a.99.99 0 0 0 .26-.72h1.16a1.85 1.85 0 0 1-1.01 1.75c-.32.16-.7.23-1.13.23zm3.43-.09v-6.72h2.12c.45 0 .84.08 1.16.25a1.86 1.86 0 0 1 1.05 1.75c0 .45-.11.84-.34 1.18-.22.33-.52.57-.9.7l1.33 2.84h-1.29l-1.16-2.67h-.82v2.67h-1.16zm1.15-3.68h.97c.33 0 .58-.09.77-.27a.98.98 0 0 0 .27-.73 1 1 0 0 0-.28-.75 1.02 1.02 0 0 0-.76-.28h-.97v2.03zm4.18 3.68v-6.72h1.36l.65 2.14a6.04 6.04 0 0 1 .24.97 6.95 6.95 0 0 1 .24-.97l.63-2.14h1.38v6.72h-1.08v-2.82c0-.62.02-1.2.07-1.73s.1-1.04.17-1.51l-.92 3.17h-1l-.92-3.11.18 1.42c.05.5.08 1.1.08 1.76v2.82h-1.08zm11.08 1.02 3.22-8.66h1.2l-3.22 8.66h-1.2zm13.25-.93c-.64 0-1.16-.17-1.54-.53a1.93 1.93 0 0 1-.56-1.45v-2.93c0-.61.19-1.1.56-1.45.38-.36.9-.54 1.54-.54.65 0 1.16.18 1.53.54.38.36.57.84.57 1.44v2.94c0 .6-.19 1.09-.57 1.45-.37.36-.88.53-1.53.53zm0-1c.31 0 .55-.09.71-.26.16-.17.24-.41.24-.72v-2.93c0-.31-.08-.55-.24-.72-.16-.17-.4-.26-.7-.26-.32 0-.56.09-.72.26-.16.17-.24.4-.24.72v2.93c0 .3.08.55.24.72.16.17.4.25.71.25zm3.28.91v-6.72h1.36l.64 2.14a6.06 6.06 0 0 1 .24.97 6.73 6.73 0 0 1 .24-.97l.64-2.14h1.37v6.72h-1.08v-2.82c0-.62.03-1.2.08-1.73s.1-1.04.16-1.51l-.91 3.17h-1l-.92-3.11c.06.43.12.9.17 1.42.06.5.08 1.1.08 1.76v2.82h-1.07zm7.78.1c-.46 0-.86-.08-1.2-.23-.33-.16-.59-.38-.78-.67a1.84 1.84 0 0 1-.27-1.01h1.15c0 .27.1.5.3.66.2.16.47.24.81.24.33 0 .6-.08.77-.24a.8.8 0 0 0 .29-.65.9.9 0 0 0-.2-.58.97.97 0 0 0-.53-.34l-.8-.22a2.31 2.31 0 0 1-1.22-.73 1.92 1.92 0 0 1-.44-1.26c0-.57.2-1.03.57-1.37.38-.34.9-.51 1.54-.51.65 0 1.17.17 1.55.5.39.34.58.78.58 1.35h-1.15a.77.77 0 0 0-.27-.62 1.04 1.04 0 0 0-.72-.23c-.3 0-.53.08-.7.23a.8.8 0 0 0-.25.63c0 .2.06.39.18.54.13.16.31.26.55.33l.82.23c.52.14.93.38 1.2.73.3.35.44.77.44 1.28 0 .39-.1.73-.27 1.02-.19.3-.45.52-.78.68-.33.16-.72.23-1.17.23z"/><path fill="#AA99EC" d="M782.63 521.3a2.5 2.5 0 0 1-1.13-.23c-.32-.17-.57-.4-.74-.7a2.1 2.1 0 0 1-.26-1.05v-2.93c0-.4.09-.76.26-1.05.17-.3.42-.53.74-.7.32-.16.7-.24 1.13-.24.44 0 .81.08 1.13.25.32.16.57.39.74.69.18.3.27.64.27 1.05h-1.16c0-.31-.09-.55-.26-.72-.16-.17-.4-.26-.72-.26a1 1 0 0 0-.72.25c-.17.17-.26.4-.26.72v2.94c0 .31.09.55.26.72a1 1 0 0 0 .73.25c.3 0 .55-.08.71-.25.17-.17.26-.41.26-.72h1.16a1.84 1.84 0 0 1-1.01 1.75c-.32.16-.7.24-1.13.24zm3.44-.09v-6.72h1.15v2.7h1.8v-2.7h1.15v6.72h-1.15v-2.98h-1.8v2.98h-1.15zm5.13 0 1.7-6.72h1.48l1.7 6.72h-1.18l-.37-1.63h-1.78l-.37 1.63h-1.18zm1.76-2.57h1.36l-.4-1.8a48.42 48.42 0 0 1-.28-1.35 18.54 18.54 0 0 1-.28 1.34l-.4 1.81zm4.1 2.57v-6.72h1.41l1.87 5.43-.06-.69-.05-.82-.02-.73v-3.19h1.05v6.72h-1.4l-1.86-5.43a74.4 74.4 0 0 0 .1 1.42l.01.73v3.28h-1.05zm5.52 0v-6.72H804l1.87 5.43-.06-.69-.05-.82-.02-.73v-3.19h1.05v6.72h-1.4l-1.86-5.43a48.43 48.43 0 0 0 .1 1.42l.01.73v3.28h-1.05zm5.67 0v-6.72h4.03v1.01h-2.9v1.75h2.58v.98h-2.58v1.97h2.9v1.01h-4.03zm5.83 0v-6.72h1.15v5.68h2.85v1.04h-4zm7.18.1c-.46 0-.86-.08-1.2-.23-.33-.16-.59-.38-.78-.67a1.84 1.84 0 0 1-.27-1.01h1.15c0 .28.1.5.3.66.2.16.47.24.81.24.33 0 .6-.08.77-.24a.81.81 0 0 0 .3-.65.9.9 0 0 0-.2-.58.97.97 0 0 0-.54-.34l-.8-.22a2.33 2.33 0 0 1-1.22-.73 1.92 1.92 0 0 1-.44-1.26c0-.57.2-1.03.58-1.37.38-.34.89-.51 1.53-.51.65 0 1.17.17 1.55.5.39.34.58.79.58 1.35h-1.15a.77.77 0 0 0-.27-.62 1.04 1.04 0 0 0-.72-.23c-.3 0-.53.08-.7.23a.8.8 0 0 0-.25.63c0 .2.06.39.18.54.13.16.31.26.55.33l.82.23c.52.14.93.38 1.2.73.3.35.44.77.44 1.28 0 .39-.09.73-.27 1.02-.19.3-.45.52-.78.68-.33.16-.72.24-1.17.24z"/><path fill="#C4FD7F" d="M366.21 399.58a2.5 2.5 0 0 1-.85-.78c-.2-.3-.3-.63-.3-.97 0-.35.1-.7.31-1.05l1.48-2.53c.2-.35.45-.6.75-.77.3-.17.63-.25.99-.23.36.02.73.14 1.1.36.38.22.66.48.85.78.2.3.3.62.3.97a2 2 0 0 1-.3 1.05l-1-.59c.15-.27.2-.52.13-.75-.05-.23-.22-.43-.49-.58a1 1 0 0 0-.75-.16c-.23.06-.43.22-.58.5l-1.49 2.53a.99.99 0 0 0-.14.76 1 1 0 0 0 .5.58c.27.16.52.2.75.15a.98.98 0 0 0 .59-.5l1 .58a1.83 1.83 0 0 1-1.76 1 2.46 2.46 0 0 1-1.09-.35zm4.74 2.76a2.16 2.16 0 0 1-1.06-1.24c-.14-.5-.06-1.01.25-1.54l1.47-2.52c.31-.53.72-.85 1.22-.97a2.14 2.14 0 0 1 1.6.3c.56.33.9.74 1.05 1.25.15.5.07 1-.24 1.52l-1.48 2.54c-.3.53-.7.85-1.22.97-.5.12-1.03.02-1.59-.3zm.51-.87c.27.15.52.2.74.14.22-.07.41-.24.57-.5l1.48-2.54c.15-.27.2-.52.15-.74-.05-.23-.21-.42-.48-.58-.27-.16-.52-.2-.74-.13-.22.06-.41.23-.57.5l-1.48 2.52c-.15.28-.2.52-.16.75.06.23.22.42.49.58zm2.36 2.44 3.4-5.8 1.17.68-.52 2.17a6.1 6.1 0 0 1-.29.97 5.59 5.59 0 0 1 .7-.73l1.63-1.52 1.18.69-3.38 5.8-.94-.54 1.43-2.44c.31-.53.62-1.02.93-1.45l.9-1.23-2.38 2.29-.86-.5.77-3.16c-.17.4-.35.84-.57 1.31-.2.47-.48.99-.81 1.56l-1.43 2.44-.93-.54zm4.94 2.88 3.39-5.8 1.93 1.12c.39.23.68.5.88.82.2.31.3.65.3 1.02.01.36-.09.72-.3 1.08-.21.36-.47.63-.8.8-.3.18-.65.25-1.03.23a2.49 2.49 0 0 1-1.14-.37l-.94-.55-1.3 2.23-.99-.58zm2.8-2.52.94.55c.28.16.56.2.82.13.26-.07.47-.24.63-.51.16-.27.2-.54.14-.8a1.03 1.03 0 0 0-.52-.65l-.94-.55-1.07 1.83zm3.7 6.42c-.56-.32-.91-.74-1.06-1.24-.14-.5-.06-1.01.24-1.54l1.48-2.53c.3-.52.71-.84 1.21-.96a2.14 2.14 0 0 1 1.6.3c.56.33.91.74 1.05 1.24.15.5.07 1.01-.23 1.53l-1.48 2.54c-.3.53-.71.85-1.23.97-.5.12-1.03.01-1.58-.31zm.5-.88c.28.16.52.21.74.15.23-.07.42-.24.58-.51l1.47-2.53c.16-.27.21-.52.16-.74-.05-.23-.21-.42-.48-.58-.28-.16-.52-.2-.75-.14-.22.07-.4.23-.57.5l-1.47 2.53c-.16.27-.21.52-.16.75.05.23.22.42.49.57zm4.28 3.67c-.4-.23-.7-.5-.92-.8-.2-.3-.32-.63-.34-.97-.01-.34.08-.68.27-1.01l1 .58a.82.82 0 0 0-.08.72c.1.25.3.45.58.62.29.17.55.23.8.18a.81.81 0 0 0 .57-.42.9.9 0 0 0 .12-.6.97.97 0 0 0-.29-.56l-.58-.6c-.38-.38-.61-.8-.69-1.24-.07-.45.02-.88.26-1.3.3-.5.69-.8 1.18-.9.5-.1 1.03 0 1.6.33.55.33.91.74 1.07 1.22.17.48.11.96-.17 1.45l-1-.58a.77.77 0 0 0 .08-.67c-.07-.21-.24-.4-.5-.56-.26-.15-.5-.2-.73-.16a.8.8 0 0 0-.53.42.85.85 0 0 0-.12.56c.04.2.14.39.32.56l.6.61c.37.39.6.8.66 1.25.08.44-.01.88-.27 1.32-.2.33-.45.58-.75.74-.3.16-.64.22-1.01.2a2.67 2.67 0 0 1-1.13-.39zm3.11 1.71 3.39-5.8 3.48 2.03-.5.87-2.51-1.46-.88 1.51 2.22 1.3-.49.85-2.23-1.3-.99 1.7 2.5 1.46-.5.88-3.49-2.04zm4.68 2.73 3.38-5.8 1.84 1.06c.39.23.68.5.88.8a1.86 1.86 0 0 1 .02 2.04c-.22.4-.52.67-.89.85-.36.18-.73.23-1.13.16l-.28 3.12-1.11-.65.33-2.9-.7-.4-1.35 2.3-1-.58zm2.85-2.6.84.49c.28.16.55.21.8.15a.98.98 0 0 0 .6-.5c.16-.26.2-.53.13-.78a1.02 1.02 0 0 0-.51-.62l-.84-.5-1.02 1.76z"/></g></g><defs><filter id="y" width="293.37" height="498.14" x="349.6" y="64.11" color-interpolation-filters="sRGB" filterUnits="userSpaceOnUse"><feFlood flood-opacity="0" result="BackgroundImageFix"/><feColorMatrix in="SourceAlpha" result="hardAlpha" values="0 0 0 0 0 0 0 0 0 0 0 0 0 0 0 0 0 0 127 0"/><feOffset dy="4.44"/><feGaussianBlur stdDeviation="1.77"/><feColorMatrix values="0 0 0 0 0 0 0 0 0 0 0 0 0 0 0 0 0 0 0.01 0"/><feBlend in2="BackgroundImageFix" result="effect1_dropShadow_4289_60941"/><feColorMatrix in="SourceAlpha" result="hardAlpha" values="0 0 0 0 0 0 0 0 0 0 0 0 0 0 0 0 0 0 127 0"/><feOffset dy="10.66"/><feGaussianBlur stdDeviation="4.26"/><feColorMatrix values="0 0 0 0 0 0 0 0 0 0 0 0 0 0 0 0 0 0 0.0121168 0"/><feBlend in2="effect1_dropShadow_4289_60941" result="effect2_dropShadow_4289_60941"/><feColorMatrix in="SourceAlpha" result="hardAlpha" values="0 0 0 0 0 0 0 0 0 0 0 0 0 0 0 0 0 0 127 0"/><feOffset dy="20.08"/><feGaussianBlur stdDeviation="8.03"/><feColorMatrix values="0 0 0 0 0 0 0 0 0 0 0 0 0 0 0 0 0 0 0.015 0"/><feBlend in2="effect2_dropShadow_4289_60941" result="effect3_dropShadow_4289_60941"/><feColorMatrix in="SourceAlpha" result="hardAlpha" values="0 0 0 0 0 0 0 0 0 0 0 0 0 0 0 0 0 0 127 0"/><feOffset dy="35.81"/><feGaussianBlur stdDeviation="14.32"/><feColorMatrix values="0 0 0 0 0 0 0 0 0 0 0 0 0 0 0 0 0 0 0.0178832 0"/><feBlend in2="effect3_dropShadow_4289_60941" result="effect4_dropShadow_4289_60941"/><feColorMatrix in="SourceAlpha" result="hardAlpha" values="0 0 0 0 0 0 0 0 0 0 0 0 0 0 0 0 0 0 127 0"/><feOffset dy="66.98"/><feGaussianBlur stdDeviation="26.79"/><feColorMatrix values="0 0 0 0 0 0 0 0 0 0 0 0 0 0 0 0 0 0 0.0215656 0"/><feBlend in2="effect4_dropShadow_4289_60941" result="effect5_dropShadow_4289_60941"/><feColorMatrix in="SourceAlpha" result="hardAlpha" values="0 0 0 0 0 0 0 0 0 0 0 0 0 0 0 0 0 0 127 0"/><feOffset dy="160.32"/><feGaussianBlur stdDeviation="64.13"/><feColorMatrix values="0 0 0 0 0 0 0 0 0 0 0 0 0 0 0 0 0 0 0.03 0"/><feBlend in2="effect5_dropShadow_4289_60941" result="effect6_dropShadow_4289_60941"/><feBlend in="SourceGraphic" in2="effect6_dropShadow_4289_60941" result="shape"/></filter><filter id="A" width="307.21" height="495.67" x="483.97" y="64.39" color-interpolation-filters="sRGB" filterUnits="userSpaceOnUse"><feFlood flood-opacity="0" result="BackgroundImageFix"/><feColorMatrix in="SourceAlpha" result="hardAlpha" values="0 0 0 0 0 0 0 0 0 0 0 0 0 0 0 0 0 0 127 0"/><feOffset dy="4.44"/><feGaussianBlur stdDeviation="1.77"/><feColorMatrix values="0 0 0 0 0 0 0 0 0 0 0 0 0 0 0 0 0 0 0.01 0"/><feBlend in2="BackgroundImageFix" result="effect1_dropShadow_4289_60941"/><feColorMatrix in="SourceAlpha" result="hardAlpha" values="0 0 0 0 0 0 0 0 0 0 0 0 0 0 0 0 0 0 127 0"/><feOffset dy="10.66"/><feGaussianBlur stdDeviation="4.26"/><feColorMatrix values="0 0 0 0 0 0 0 0 0 0 0 0 0 0 0 0 0 0 0.0121168 0"/><feBlend in2="effect1_dropShadow_4289_60941" result="effect2_dropShadow_4289_60941"/><feColorMatrix in="SourceAlpha" result="hardAlpha" values="0 0 0 0 0 0 0 0 0 0 0 0 0 0 0 0 0 0 127 0"/><feOffset dy="20.08"/><feGaussianBlur stdDeviation="8.03"/><feColorMatrix values="0 0 0 0 0 0 0 0 0 0 0 0 0 0 0 0 0 0 0.015 0"/><feBlend in2="effect2_dropShadow_4289_60941" result="effect3_dropShadow_4289_60941"/><feColorMatrix in="SourceAlpha" result="hardAlpha" values="0 0 0 0 0 0 0 0 0 0 0 0 0 0 0 0 0 0 127 0"/><feOffset dy="35.81"/><feGaussianBlur stdDeviation="14.32"/><feColorMatrix values="0 0 0 0 0 0 0 0 0 0 0 0 0 0 0 0 0 0 0.0178832 0"/><feBlend in2="effect3_dropShadow_4289_60941" result="effect4_dropShadow_4289_60941"/><feColorMatrix in="SourceAlpha" result="hardAlpha" values="0 0 0 0 0 0 0 0 0 0 0 0 0 0 0 0 0 0 127 0"/><feOffset dy="66.98"/><feGaussianBlur stdDeviation="26.79"/><feColorMatrix values="0 0 0 0 0 0 0 0 0 0 0 0 0 0 0 0 0 0 0.0215656 0"/><feBlend in2="effect4_dropShadow_4289_60941" result="effect5_dropShadow_4289_60941"/><feColorMatrix in="SourceAlpha" result="hardAlpha" values="0 0 0 0 0 0 0 0 0 0 0 0 0 0 0 0 0 0 127 0"/><feOffset dy="160.32"/><feGaussianBlur stdDeviation="64.13"/><feColorMatrix values="0 0 0 0 0 0 0 0 0 0 0 0 0 0 0 0 0 0 0.03 0"/><feBlend in2="effect5_dropShadow_4289_60941" result="effect6_dropShadow_4289_60941"/><feBlend in="SourceGraphic" in2="effect6_dropShadow_4289_60941" result="shape"/></filter><filter id="D" width="309.75" height="400.19" x="531.13" y="177.78" color-interpolation-filters="sRGB" filterUnits="userSpaceOnUse"><feFlood flood-opacity="0" result="BackgroundImageFix"/><feColorMatrix in="SourceAlpha" result="hardAlpha" values="0 0 0 0 0 0 0 0 0 0 0 0 0 0 0 0 0 0 127 0"/><feOffset dy="4.44"/><feGaussianBlur stdDeviation="1.77"/><feColorMatrix values="0 0 0 0 0 0 0 0 0 0 0 0 0 0 0 0 0 0 0.01 0"/><feBlend in2="BackgroundImageFix" result="effect1_dropShadow_4289_60941"/><feColorMatrix in="SourceAlpha" result="hardAlpha" values="0 0 0 0 0 0 0 0 0 0 0 0 0 0 0 0 0 0 127 0"/><feOffset dy="10.66"/><feGaussianBlur stdDeviation="4.26"/><feColorMatrix values="0 0 0 0 0 0 0 0 0 0 0 0 0 0 0 0 0 0 0.0121168 0"/><feBlend in2="effect1_dropShadow_4289_60941" result="effect2_dropShadow_4289_60941"/><feColorMatrix in="SourceAlpha" result="hardAlpha" values="0 0 0 0 0 0 0 0 0 0 0 0 0 0 0 0 0 0 127 0"/><feOffset dy="20.08"/><feGaussianBlur stdDeviation="8.03"/><feColorMatrix values="0 0 0 0 0 0 0 0 0 0 0 0 0 0 0 0 0 0 0.015 0"/><feBlend in2="effect2_dropShadow_4289_60941" result="effect3_dropShadow_4289_60941"/><feColorMatrix in="SourceAlpha" result="hardAlpha" values="0 0 0 0 0 0 0 0 0 0 0 0 0 0 0 0 0 0 127 0"/><feOffset dy="35.81"/><feGaussianBlur stdDeviation="14.32"/><feColorMatrix values="0 0 0 0 0 0 0 0 0 0 0 0 0 0 0 0 0 0 0.0178832 0"/><feBlend in2="effect3_dropShadow_4289_60941" result="effect4_dropShadow_4289_60941"/><feColorMatrix in="SourceAlpha" result="hardAlpha" values="0 0 0 0 0 0 0 0 0 0 0 0 0 0 0 0 0 0 127 0"/><feOffset dy="66.98"/><feGaussianBlur stdDeviation="26.79"/><feColorMatrix values="0 0 0 0 0 0 0 0 0 0 0 0 0 0 0 0 0 0 0.0215656 0"/><feBlend in2="effect4_dropShadow_4289_60941" result="effect5_dropShadow_4289_60941"/><feColorMatrix in="SourceAlpha" result="hardAlpha" values="0 0 0 0 0 0 0 0 0 0 0 0 0 0 0 0 0 0 127 0"/><feOffset dy="160.32"/><feGaussianBlur stdDeviation="64.13"/><feColorMatrix values="0 0 0 0 0 0 0 0 0 0 0 0 0 0 0 0 0 0 0.03 0"/><feBlend in2="effect5_dropShadow_4289_60941" result="effect6_dropShadow_4289_60941"/><feBlend in="SourceGraphic" in2="effect6_dropShadow_4289_60941" result="shape"/></filter><filter id="H" width="419.39" height="388.86" x="676.69" y="284.17" color-interpolation-filters="sRGB" filterUnits="userSpaceOnUse"><feFlood flood-opacity="0" result="BackgroundImageFix"/><feColorMatrix in="SourceAlpha" result="hardAlpha" values="0 0 0 0 0 0 0 0 0 0 0 0 0 0 0 0 0 0 127 0"/><feOffset dy="4.44"/><feGaussianBlur stdDeviation="1.77"/><feColorMatrix values="0 0 0 0 0 0 0 0 0 0 0 0 0 0 0 0 0 0 0.01 0"/><feBlend in2="BackgroundImageFix" result="effect1_dropShadow_4289_60941"/><feColorMatrix in="SourceAlpha" result="hardAlpha" values="0 0 0 0 0 0 0 0 0 0 0 0 0 0 0 0 0 0 127 0"/><feOffset dy="10.66"/><feGaussianBlur stdDeviation="4.26"/><feColorMatrix values="0 0 0 0 0 0 0 0 0 0 0 0 0 0 0 0 0 0 0.0121168 0"/><feBlend in2="effect1_dropShadow_4289_60941" result="effect2_dropShadow_4289_60941"/><feColorMatrix in="SourceAlpha" result="hardAlpha" values="0 0 0 0 0 0 0 0 0 0 0 0 0 0 0 0 0 0 127 0"/><feOffset dy="20.08"/><feGaussianBlur stdDeviation="8.03"/><feColorMatrix values="0 0 0 0 0 0 0 0 0 0 0 0 0 0 0 0 0 0 0.015 0"/><feBlend in2="effect2_dropShadow_4289_60941" result="effect3_dropShadow_4289_60941"/><feColorMatrix in="SourceAlpha" result="hardAlpha" values="0 0 0 0 0 0 0 0 0 0 0 0 0 0 0 0 0 0 127 0"/><feOffset dy="35.81"/><feGaussianBlur stdDeviation="14.32"/><feColorMatrix values="0 0 0 0 0 0 0 0 0 0 0 0 0 0 0 0 0 0 0.0178832 0"/><feBlend in2="effect3_dropShadow_4289_60941" result="effect4_dropShadow_4289_60941"/><feColorMatrix in="SourceAlpha" result="hardAlpha" values="0 0 0 0 0 0 0 0 0 0 0 0 0 0 0 0 0 0 127 0"/><feOffset dy="66.98"/><feGaussianBlur stdDeviation="26.79"/><feColorMatrix values="0 0 0 0 0 0 0 0 0 0 0 0 0 0 0 0 0 0 0.0215656 0"/><feBlend in2="effect4_dropShadow_4289_60941" result="effect5_dropShadow_4289_60941"/><feColorMatrix in="SourceAlpha" result="hardAlpha" values="0 0 0 0 0 0 0 0 0 0 0 0 0 0 0 0 0 0 127 0"/><feOffset dy="160.32"/><feGaussianBlur stdDeviation="64.13"/><feColorMatrix values="0 0 0 0 0 0 0 0 0 0 0 0 0 0 0 0 0 0 0.03 0"/><feBlend in2="effect5_dropShadow_4289_60941" result="effect6_dropShadow_4289_60941"/><feBlend in="SourceGraphic" in2="effect6_dropShadow_4289_60941" result="shape"/></filter><filter id="J" width="357.32" height="293.22" x="716.03" y="499.82" color-interpolation-filters="sRGB" filterUnits="userSpaceOnUse"><feFlood flood-opacity="0" result="BackgroundImageFix"/><feColorMatrix in="SourceAlpha" result="hardAlpha" values="0 0 0 0 0 0 0 0 0 0 0 0 0 0 0 0 0 0 127 0"/><feOffset dy="4.44"/><feGaussianBlur stdDeviation="1.77"/><feColorMatrix values="0 0 0 0 0 0 0 0 0 0 0 0 0 0 0 0 0 0 0.01 0"/><feBlend in2="BackgroundImageFix" result="effect1_dropShadow_4289_60941"/><feColorMatrix in="SourceAlpha" result="hardAlpha" values="0 0 0 0 0 0 0 0 0 0 0 0 0 0 0 0 0 0 127 0"/><feOffset dy="10.66"/><feGaussianBlur stdDeviation="4.26"/><feColorMatrix values="0 0 0 0 0 0 0 0 0 0 0 0 0 0 0 0 0 0 0.0121168 0"/><feBlend in2="effect1_dropShadow_4289_60941" result="effect2_dropShadow_4289_60941"/><feColorMatrix in="SourceAlpha" result="hardAlpha" values="0 0 0 0 0 0 0 0 0 0 0 0 0 0 0 0 0 0 127 0"/><feOffset dy="20.08"/><feGaussianBlur stdDeviation="8.03"/><feColorMatrix values="0 0 0 0 0 0 0 0 0 0 0 0 0 0 0 0 0 0 0.015 0"/><feBlend in2="effect2_dropShadow_4289_60941" result="effect3_dropShadow_4289_60941"/><feColorMatrix in="SourceAlpha" result="hardAlpha" values="0 0 0 0 0 0 0 0 0 0 0 0 0 0 0 0 0 0 127 0"/><feOffset dy="35.81"/><feGaussianBlur stdDeviation="14.32"/><feColorMatrix values="0 0 0 0 0 0 0 0 0 0 0 0 0 0 0 0 0 0 0.0178832 0"/><feBlend in2="effect3_dropShadow_4289_60941" result="effect4_dropShadow_4289_60941"/><feColorMatrix in="SourceAlpha" result="hardAlpha" values="0 0 0 0 0 0 0 0 0 0 0 0 0 0 0 0 0 0 127 0"/><feOffset dy="66.98"/><feGaussianBlur stdDeviation="26.79"/><feColorMatrix values="0 0 0 0 0 0 0 0 0 0 0 0 0 0 0 0 0 0 0.0215656 0"/><feBlend in2="effect4_dropShadow_4289_60941" result="effect5_dropShadow_4289_60941"/><feColorMatrix in="SourceAlpha" result="hardAlpha" values="0 0 0 0 0 0 0 0 0 0 0 0 0 0 0 0 0 0 127 0"/><feOffset dy="160.32"/><feGaussianBlur stdDeviation="64.13"/><feColorMatrix values="0 0 0 0 0 0 0 0 0 0 0 0 0 0 0 0 0 0 0.03 0"/><feBlend in2="effect5_dropShadow_4289_60941" result="effect6_dropShadow_4289_60941"/><feBlend in="SourceGraphic" in2="effect6_dropShadow_4289_60941" result="shape"/></filter><filter id="L" width="358.32" height="330.08" x="696.67" y="386.36" color-interpolation-filters="sRGB" filterUnits="userSpaceOnUse"><feFlood flood-opacity="0" result="BackgroundImageFix"/><feColorMatrix in="SourceAlpha" result="hardAlpha" values="0 0 0 0 0 0 0 0 0 0 0 0 0 0 0 0 0 0 127 0"/><feOffset dy="4.44"/><feGaussianBlur stdDeviation="1.77"/><feColorMatrix values="0 0 0 0 0 0 0 0 0 0 0 0 0 0 0 0 0 0 0.01 0"/><feBlend in2="BackgroundImageFix" result="effect1_dropShadow_4289_60941"/><feColorMatrix in="SourceAlpha" result="hardAlpha" values="0 0 0 0 0 0 0 0 0 0 0 0 0 0 0 0 0 0 127 0"/><feOffset dy="10.66"/><feGaussianBlur stdDeviation="4.26"/><feColorMatrix values="0 0 0 0 0 0 0 0 0 0 0 0 0 0 0 0 0 0 0.0121168 0"/><feBlend in2="effect1_dropShadow_4289_60941" result="effect2_dropShadow_4289_60941"/><feColorMatrix in="SourceAlpha" result="hardAlpha" values="0 0 0 0 0 0 0 0 0 0 0 0 0 0 0 0 0 0 127 0"/><feOffset dy="20.08"/><feGaussianBlur stdDeviation="8.03"/><feColorMatrix values="0 0 0 0 0 0 0 0 0 0 0 0 0 0 0 0 0 0 0.015 0"/><feBlend in2="effect2_dropShadow_4289_60941" result="effect3_dropShadow_4289_60941"/><feColorMatrix in="SourceAlpha" result="hardAlpha" values="0 0 0 0 0 0 0 0 0 0 0 0 0 0 0 0 0 0 127 0"/><feOffset dy="35.81"/><feGaussianBlur stdDeviation="14.32"/><feColorMatrix values="0 0 0 0 0 0 0 0 0 0 0 0 0 0 0 0 0 0 0.0178832 0"/><feBlend in2="effect3_dropShadow_4289_60941" result="effect4_dropShadow_4289_60941"/><feColorMatrix in="SourceAlpha" result="hardAlpha" values="0 0 0 0 0 0 0 0 0 0 0 0 0 0 0 0 0 0 127 0"/><feOffset dy="66.98"/><feGaussianBlur stdDeviation="26.79"/><feColorMatrix values="0 0 0 0 0 0 0 0 0 0 0 0 0 0 0 0 0 0 0.0215656 0"/><feBlend in2="effect4_dropShadow_4289_60941" result="effect5_dropShadow_4289_60941"/><feColorMatrix in="SourceAlpha" result="hardAlpha" values="0 0 0 0 0 0 0 0 0 0 0 0 0 0 0 0 0 0 127 0"/><feOffset dy="160.32"/><feGaussianBlur stdDeviation="64.13"/><feColorMatrix values="0 0 0 0 0 0 0 0 0 0 0 0 0 0 0 0 0 0 0.03 0"/><feBlend in2="effect5_dropShadow_4289_60941" result="effect6_dropShadow_4289_60941"/><feBlend in="SourceGraphic" in2="effect6_dropShadow_4289_60941" result="shape"/></filter><clipPath id="G"><path fill="#fff" d="M843.22 90.2h32.36v32.35h-32.36z"/></clipPath></defs></svg>