<svg width="60" height="60" viewBox="0 0 246 246" fill="none" xmlns="http://www.w3.org/2000/svg">
<path fill-rule="evenodd" clip-rule="evenodd" d="M167.951 8.47277C163.248 6.62514 158.403 5.0589 153.437 3.79481C143.703 1.31697 133.505 0 123 0C119.319 0 115.676 0.161691 112.077 0.478359C58.097 5.22837 14.1246 44.848 2.82383 96.6738C1.69735 101.84 0.895506 107.127 0.44075 112.513C0.148895 115.97 0 119.468 0 123C0 129.263 0.468148 135.417 1.37136 141.429C2.1343 146.507 3.20767 151.483 4.57153 156.338C19.1048 208.071 66.6231 246 123 246C136.004 246 148.537 243.982 160.302 240.242C165.426 238.613 170.404 236.658 175.211 234.401C183.987 230.281 192.197 225.154 199.691 219.17C203.67 215.993 207.446 212.575 210.999 208.937C232.655 186.765 246 156.441 246 123C246 87.0012 230.535 54.6144 205.887 32.1208C201.947 28.5259 197.773 25.1837 193.391 22.1198C185.533 16.627 177.004 12.0287 167.951 8.47277ZM123 14.9091C69.5909 14.9091 25.2291 53.6454 16.4764 104.556L75.5659 138.671L116.157 68.3646C116.373 67.8773 116.641 67.4114 116.959 66.9765L145.648 17.2855C138.344 15.7285 130.768 14.9091 123 14.9091ZM14.9091 123C14.9091 122.291 14.9159 121.584 14.9295 120.879L50.5239 141.429H16.4738C15.4451 135.44 14.9091 129.283 14.9091 123ZM154.808 141.429H91.1893L122.999 86.3334L154.808 141.429ZM178.916 30.4769L143.413 50.9742L160.399 21.5539C166.887 23.9464 173.082 26.9435 178.916 30.4769ZM192.244 39.9972C215.986 59.825 231.091 89.6485 231.091 123C231.091 150.874 220.54 176.284 203.214 195.453L174.541 145.789C174.344 145.358 174.107 144.949 173.835 144.567L133.157 74.1109L192.244 39.9972ZM175.211 176.769V217.668C181.228 214.342 186.894 210.46 192.14 206.09L175.211 176.769ZM123 231.091C136.11 231.091 148.675 228.757 160.302 224.482V156.338H20.148C34.1999 199.721 74.9365 231.091 123 231.091Z" fill="#FBFDFC"/>
</svg>
