<?xml version="1.0" encoding="UTF-8" standalone="no"?>
<!DOCTYPE svg PUBLIC "-//W3C//DTD SVG 1.1//EN" "http://www.w3.org/Graphics/SVG/1.1/DTD/svg11.dtd">
<svg width="100%" height="100%" viewBox="0 0 162 64" version="1.1" xmlns="http://www.w3.org/2000/svg" xmlns:xlink="http://www.w3.org/1999/xlink" xml:space="preserve" xmlns:serif="http://www.serif.com/" style="fill-rule:evenodd;clip-rule:evenodd;stroke-linejoin:round;stroke-miterlimit:2;">
    <g>
        <path d="M31.713,0L39.215,4.332L39.215,16.769L31.773,12.541L14.864,22.315L14.864,41.862L31.768,51.636L48.683,41.862L48.682,9.798L59.426,16L59.426,48L31.713,64L4,48L4,16L31.713,0ZM31.893,23.636L39.228,27.848L39.228,36.273L31.898,40.485L24.561,36.273L24.561,27.848L31.892,23.636L31.893,23.636Z" style="fill:rgb(160,204,63);"/>
        <g transform="matrix(1,0,0,1,0,-0.686691)">
            <g transform="matrix(1,0,0,1,0,-6.44174)">
                <path d="M78.883,22C85.493,21.97 89.478,26.206 89.478,31.97C89.478,37.794 85.14,42 78.883,42L70,42L70,22.03L78.883,22ZM74.84,26.47L74.84,37.53L78.883,37.53C82.247,37.53 84.579,35.324 84.579,31.97C84.579,28.383 82.306,26.47 78.883,26.47L74.84,26.47ZM92.196,22L107.571,22L107.571,26.47L97.036,26.47L97.036,29.912L105.83,29.912L105.83,34.088L97.036,34.088L97.036,37.529L107.571,37.529L107.571,42L92.196,42L92.196,22ZM115.956,22L115.956,42L111.116,42L111.116,22L115.956,22ZM138.004,22L138.004,26.47L130.892,26.47L130.892,42L125.992,42L125.992,26.47L118.88,26.47L118.88,22L138.004,22ZM162,22L153.383,34.441L153.383,42L148.513,42L148.513,34.441L139.955,22.001L145.532,22.001L150.992,30.177L156.363,22L162,22Z"/>
            </g>
            <g transform="matrix(1.36709,0,0,1.36709,-35.8179,-20.117)">
                <text x="76.527px" y="50.926px" style="font-family:'AvenirNext-Bold', 'Avenir Next', sans-serif;font-weight:700;font-size:12px;fill:rgb(160,204,63);">DOCS</text>
            </g>
        </g>
    </g>
</svg>
