<svg version="1.2" xmlns="http://www.w3.org/2000/svg" viewBox="0 0 126 24" width="126" height="24">
	<title>deity-logo-docs-svg</title>
	<style>
		.s0 { fill: #ffffff } 
		.s1 { fill: #8a918e } 
	</style>
	<path id="Layer" class="s0" d="m70.5 22.5v-2.2h0.1c1 0 1.6-0.4 2-1.2 0.4-0.5 0.7-1.3 1.1-2.3q0.2-0.4 0.4-0.9l4.5-10.2h2.7l-4.8 11q-0.1 0.2-0.2 0.4c-0.6 1.2-1 2.2-1.5 3-0.5 0.9-1 1.6-1.8 1.9-0.7 0.4-1.5 0.5-2.5 0.5z"/>
	<path id="Layer" fill-rule="evenodd" class="s0" d="m26.9 12.3c0-4 2.9-6.9 6.8-6.9 1.8 0 3.4 0.6 4.6 1.6v-5.7h2.6v17.6h-2.5v-1.5c-1.2 1.1-2.8 1.8-4.7 1.8-3.9 0-6.8-3-6.8-6.9zm7 4.5c2.7 0 4.5-1.8 4.5-4.5 0-2.7-1.8-4.5-4.5-4.5-2.6 0-4.5 1.8-4.5 4.5 0 2.7 1.9 4.5 4.5 4.5z"/>
	<path id="Layer" fill-rule="evenodd" class="s0" d="m48.7 19.2c-4.2 0-7-3-7-6.9 0-4 2.9-6.9 6.9-6.9 3.9 0 6.8 2.8 6.8 6.9 0 0.3 0 0.5-0.1 0.8v0.1h-11c0.4 2.2 2.1 3.6 4.4 3.6 1.5 0 2.8-0.4 3.5-1.6h2.8c-1.2 2.5-3.3 4-6.3 4zm4-8.2c-0.4-1.9-1.9-3.2-4.1-3.2-2.1 0-3.7 1.2-4.2 3.2z"/>
	<path id="Layer" class="s0" d="m62.5 7.9v5.8c0 0.9 0.2 1.9 0.6 2.3q0.7 0.7 2 0.7h2.2v2.2h-2.3c-1.6 0-2.9-0.5-3.8-1.4-0.9-0.9-1.3-2.1-1.3-3.7v-12.5h2.6v4.4h6l5.5 9.5h-2.7l-4.2-7.3z"/>
	<path id="Layer" class="s0" d="m58.7 5.7v13.2h-2.6v-13.2z"/>
	<path id="Layer" class="s0" d="m58.7 1.3v2.9h-2.6v-2.9z"/>
	<path id="Layer" fill-rule="evenodd" class="s0" d="m0.4 10.2c0.9-5.7 5.8-10.1 11.7-10.1q2 0 3.7 0.6c1.4 0.5 2.6 1.1 3.8 2 2.7 2.2 4.4 5.6 4.4 9.3 0 3.5-1.5 6.6-3.9 8.8-1.1 1-2.3 1.7-3.6 2.3-1.4 0.5-2.8 0.8-4.4 0.8-5.7 0-10.4-4.1-11.6-9.4q-0.2-1.2-0.2-2.5 0-0.9 0.1-1.8zm1.5-0.3l5.9 3.5 3.7-6.4q0 0 0-0.1l3-5.1q-1.2-0.2-2.4-0.2c-5 0-9.2 3.6-10.2 8.3zm14-7.6l-1.8 3 3.7-2.1q-0.9-0.5-1.9-0.9zm3.1 1.9l-5.9 3.4 3.7 6.3q0 0.1 0 0.1l3 5.1c1.7-1.9 2.8-4.4 2.8-7.1 0-3.1-1.4-5.9-3.6-7.8zm-0.3 15.9l-1.8-3v4.2q1-0.5 1.8-1.2zm-3.2 1.8v-6.8h-13.3c1.3 4.2 5.3 7.3 9.9 7.3q1.8 0 3.4-0.5zm-13.7-8.3h3.6l-3.7-2.1q0 0.3 0 0.5 0 0.8 0.1 1.6zm7.5 0h5.6l-2.8-4.8z"/>
	<path id="Layer" fill-rule="evenodd" class="s1" d="m90.1 16.6v-9.2h2.9q1.6 0 2.7 0.6 1.1 0.6 1.7 1.6 0.5 1 0.5 2.4 0 1.4-0.5 2.4-0.6 1-1.7 1.6-1.1 0.6-2.7 0.6zm3-1.3q1 0 1.8-0.4 0.7-0.4 1.2-1.1 0.4-0.8 0.4-1.8 0-1-0.4-1.8-0.5-0.7-1.2-1.1-0.8-0.4-1.8-0.4h-1.5v6.6z"/>
	<path id="Layer" fill-rule="evenodd" class="s1" d="m103.7 16.7q-1.4 0-2.5-0.6-1.1-0.5-1.7-1.6-0.6-1.1-0.6-2.5 0-1.4 0.6-2.5 0.6-1 1.7-1.6 1.1-0.6 2.5-0.6 1.3 0 2.4 0.6 1.1 0.6 1.7 1.6 0.7 1.1 0.7 2.5 0 1.4-0.7 2.5-0.6 1.1-1.7 1.6-1.1 0.6-2.4 0.6zm0-1.3q0.9 0 1.6-0.5 0.8-0.4 1.2-1.1 0.4-0.8 0.4-1.8 0-1-0.4-1.8-0.4-0.7-1.2-1.1-0.7-0.5-1.6-0.5-1 0-1.7 0.5-0.7 0.4-1.1 1.1-0.4 0.8-0.4 1.8 0 1 0.4 1.8 0.4 0.7 1.1 1.2 0.8 0.4 1.7 0.4z"/>
	<path id="Layer" class="s1" d="m114 16.7q-1.4 0-2.4-0.6-1.1-0.6-1.6-1.7-0.6-1-0.6-2.4 0-1.4 0.6-2.4 0.5-1.1 1.6-1.7 1-0.6 2.4-0.6 1.1 0 1.9 0.4 0.9 0.4 1.5 1.1 0.5 0.8 0.7 1.8h-1.5q-0.2-0.6-0.5-1.1-0.4-0.4-0.9-0.7-0.6-0.2-1.2-0.2-0.9 0-1.6 0.4-0.7 0.5-1.1 1.3-0.4 0.7-0.4 1.7 0 1 0.4 1.8 0.4 0.8 1.1 1.2 0.7 0.4 1.6 0.4 0.7 0 1.2-0.3 0.6-0.2 0.9-0.7 0.4-0.5 0.5-1.1h1.5q-0.1 1-0.7 1.8-0.5 0.8-1.4 1.2-0.9 0.4-2 0.4z"/>
	<path id="Layer" class="s1" d="m122.5 16.7q-1.1 0-1.9-0.3-0.8-0.4-1.2-1.1-0.5-0.7-0.5-1.6h1.5q0.1 0.5 0.3 0.9 0.2 0.4 0.7 0.6 0.4 0.2 1.1 0.2 0.6 0 1-0.1 0.4-0.2 0.6-0.5 0.3-0.3 0.3-0.7 0-0.4-0.3-0.7-0.2-0.3-0.6-0.5-0.4-0.1-1.1-0.3-1.1-0.1-1.8-0.4-0.7-0.3-1.1-0.8-0.3-0.5-0.3-1.3 0-0.9 0.4-1.5 0.3-0.6 1.1-1 0.7-0.3 1.7-0.3 1.1 0 1.8 0.3 0.8 0.4 1.2 1 0.4 0.6 0.4 1.5h-1.5q-0.1-0.4-0.3-0.8-0.2-0.3-0.6-0.5-0.4-0.2-1-0.2-0.5 0-0.9 0.1-0.4 0.2-0.6 0.5-0.2 0.3-0.2 0.7 0 0.4 0.2 0.6 0.2 0.3 0.6 0.4 0.4 0.2 1.1 0.3 1.1 0.2 1.8 0.5 0.8 0.3 1.1 0.8 0.4 0.6 0.4 1.4 0 0.9-0.4 1.6-0.4 0.6-1.2 0.9-0.8 0.3-1.8 0.3z"/>
</svg>