<svg width="69" height="28" viewBox="0 0 69 28" fill="none" xmlns="http://www.w3.org/2000/svg">
<path fill-rule="evenodd" clip-rule="evenodd" d="M12.703 0.345703L15.9446 2.21755V7.59157L12.729 5.76465L5.42259 9.98799V18.4342L12.7268 22.6576L20.0357 18.4342L20.0353 4.57941L24.6778 7.25928V21.0864L12.703 28L0.728271 21.0864V7.25928L12.703 0.345703ZM12.7808 10.5588L15.9502 12.3788V16.0192L12.783 17.8392L9.61265 16.0192V12.3788L12.7804 10.5588H12.7808Z" fill="#A0CC3F"/>
<path fill-rule="evenodd" clip-rule="evenodd" d="M33.0852 9.85188C35.9413 9.83891 37.6632 11.6693 37.6632 14.1599C37.6632 16.6764 35.7888 18.4938 33.0852 18.4938H29.2468V9.86484L33.0852 9.85188ZM31.3382 11.7834V16.5624H33.0852C34.5387 16.5624 35.5464 15.6092 35.5464 14.1599C35.5464 12.61 34.5642 11.7834 33.0852 11.7834H31.3382ZM38.8377 9.85188H45.4812V11.7834H40.9291V13.2706H44.7289V15.0751H40.9291V16.5619H45.4812V18.4938H38.8377V9.85188ZM49.1044 9.85188V18.4938H47.013V9.85188H49.1044ZM58.6313 9.85188V11.7834H55.5582V18.4938H53.4409V11.7834H50.3678V9.85188H58.6313ZM68.9999 9.85188L65.2765 15.2276V18.4938H63.1722V15.2276L59.4743 9.85231H61.8841L64.2434 13.3851L66.5642 9.85188H68.9999Z" fill="#383838"/>
</svg>
