<svg width="83" height="33" viewBox="0 0 83 33" fill="none" xmlns="http://www.w3.org/2000/svg">
<path d="M65.8721 32.0733C65.7957 32.0741 65.7336 32.0121 65.7336 31.9356V28.8235C65.7336 28.7472 65.7954 28.6853 65.8718 28.6853H65.9554C67.4129 28.6853 68.2959 28.0574 69.0185 26.9464C69.6 26.0545 70.081 24.864 70.6565 23.4396C70.8353 22.9971 71.023 22.5319 71.2261 22.0458L77.9941 6.71828C78.0162 6.66819 78.0658 6.63588 78.1205 6.63588H81.8661C81.9659 6.63588 82.0328 6.73836 81.9926 6.82972L74.8098 23.1885C74.7024 23.4328 74.5977 23.6713 74.4955 23.9044C73.6918 25.7365 73.038 27.2274 72.3508 28.4068C71.5517 29.7729 70.7055 30.7278 69.544 31.3221C68.5882 31.812 67.4141 32.0572 65.8721 32.0733Z" fill="black"/>
<path fill-rule="evenodd" clip-rule="evenodd" d="M10.3331 26.9957C12.9949 26.9957 15.4086 26.0677 17.2223 24.5139C17.3136 24.4358 17.4571 24.4996 17.4571 24.6197L17.4574 26.406C17.4574 26.4823 17.5193 26.5442 17.5956 26.5442H21.0698C21.1461 26.5442 21.208 26.4823 21.208 26.4059V0.13825C21.208 0.0618969 21.1461 0 21.0698 0H17.4408C17.3645 0 17.3026 0.0618968 17.3026 0.13825V8.39082C17.3026 8.50916 17.163 8.57357 17.0712 8.49899C15.2727 7.03909 12.927 6.17139 10.3331 6.17139C4.45172 6.17139 0 10.6219 0 16.5836C0 22.5452 4.45172 26.9957 10.3331 26.9957ZM3.90574 16.5836C3.90574 12.5245 6.66036 9.76779 10.6816 9.76779C14.7027 9.76779 17.4574 12.5245 17.4574 16.5836C17.4574 20.6426 14.7027 23.399 10.6816 23.399C6.66036 23.399 3.90574 20.6426 3.90574 16.5836Z" fill="black"/>
<path fill-rule="evenodd" clip-rule="evenodd" d="M42.3065 21.2097C42.3502 21.1188 42.2836 21.0139 42.1828 21.0139H38.3071C38.259 21.0139 38.2142 21.0394 38.1885 21.0801C37.0914 22.8133 35.2394 23.399 32.9687 23.399C29.5271 23.399 26.9961 21.3725 26.3486 18.2158C26.3313 18.1313 26.3965 18.0526 26.4827 18.0526H42.8012C42.8716 18.0526 42.9307 17.9997 42.9385 17.9297L42.9516 17.8133C42.9912 17.456 43.0305 17.1383 43.0305 16.6221C43.0305 10.5014 38.6177 6.17139 32.7364 6.17139C26.7364 6.17139 22.3261 10.5827 22.3261 16.5836C22.3261 22.5035 26.6533 26.9957 32.9297 26.9957C37.4464 26.9957 40.5799 24.8011 42.3065 21.2097ZM26.5904 14.6497C26.5007 14.6497 26.4348 14.5651 26.4583 14.4785C27.2406 11.6007 29.6386 9.76779 32.7364 9.76779C36.0689 9.76779 38.2091 11.756 38.9059 14.4805C38.9279 14.5667 38.8621 14.6497 38.7732 14.6497H26.5904Z" fill="black"/>
<path d="M60.5169 9.95416C60.5663 9.95416 60.612 9.98051 60.6366 10.0233L66.9411 20.9448C66.9658 20.9876 67.0114 21.0139 67.0608 21.0139H70.8292C70.9356 21.0139 71.0021 20.8987 70.9489 20.8066L62.8088 6.70514C62.7841 6.66237 62.7385 6.63602 62.6891 6.63602H53.8138C53.7374 6.63602 53.6756 6.57412 53.6756 6.49777V0.13825C53.6756 0.0618967 53.6137 0 53.5373 0H49.9081C49.8317 0 49.7698 0.0618968 49.7698 0.13825V18.829C49.7698 21.2535 50.4959 23.1777 51.8136 24.4988C53.132 25.8199 55.0478 26.5442 57.453 26.5442H60.8393C60.9157 26.5442 60.9775 26.4823 60.9775 26.4059V23.3645C60.9775 23.2882 60.9157 23.2263 60.8393 23.2263H57.6644C56.3745 23.2263 55.3709 22.9028 54.6942 22.2307C54.0171 21.5587 53.6756 20.0972 53.6756 18.7516V10.0924C53.6756 10.0161 53.7374 9.95416 53.8138 9.95416H60.5169Z" fill="black"/>
<path d="M44.2419 6.63588C44.1656 6.63588 44.1037 6.69778 44.1037 6.77413V26.4059C44.1037 26.4823 44.1656 26.5442 44.2419 26.5442H47.8712C47.9476 26.5442 48.0094 26.4823 48.0094 26.4059V6.77413C48.0094 6.69778 47.9476 6.63588 47.8712 6.63588H44.2419Z" fill="black"/>
<path d="M44.2517 0C44.1755 0 44.1137 0.0617049 44.1135 0.137935L44.104 4.28535C44.1039 4.36183 44.1658 4.42392 44.2423 4.42392H47.8715C47.9477 4.42392 48.0096 4.36221 48.0097 4.28597L48.0189 0.138555C48.0191 0.0620826 47.9571 0 47.8807 0H44.2517Z" fill="black"/>
</svg>
