<svg width="126" height="24" viewBox="0 0 126 24" fill="none" xmlns="http://www.w3.org/2000/svg">
<path d="M70.4576 22.5449V20.2974H70.6048C71.5716 20.2974 72.1573 19.881 72.6367 19.1441C73.0224 18.5525 73.3414 17.7629 73.7232 16.8182C73.8418 16.5247 73.9664 16.2162 74.1011 15.8938L78.6147 5.67338H81.2995L76.4783 16.6517C76.407 16.8137 76.3376 16.9719 76.2698 17.1265C75.7367 18.3416 75.303 19.3305 74.8471 20.1127C74.317 21.0187 73.7557 21.652 72.9852 22.0462C72.3324 22.3808 71.5259 22.5433 70.4576 22.5449Z" fill="#1A1E1C"/>
<path fill-rule="evenodd" clip-rule="evenodd" d="M33.7079 19.1768C35.5509 19.1768 37.2146 18.5062 38.4336 17.3931L38.4338 18.8773H40.9218V1.27222H38.3311V7.03758C37.1196 5.99193 35.5034 5.36531 33.7079 5.36531C29.8065 5.36531 26.8535 8.31707 26.8535 12.2711C26.8535 16.225 29.8065 19.1768 33.7079 19.1768ZM29.4444 12.2711C29.4444 9.57891 31.2716 7.75058 33.9391 7.75058C36.6065 7.75058 38.4338 9.57891 38.4338 12.2711C38.4338 14.9632 36.6065 16.7913 33.9391 16.7913C31.2716 16.7913 29.4444 14.9632 29.4444 12.2711Z" fill="#1A1E1C"/>
<path fill-rule="evenodd" clip-rule="evenodd" d="M54.9785 15.2094H52.213C51.4889 16.393 50.2485 16.7913 48.7232 16.7913C46.4011 16.7913 44.7039 15.4008 44.3108 13.2453H55.3275L55.3453 13.0867C55.3716 12.8497 55.3976 12.639 55.3976 12.2966C55.3976 8.23713 52.4704 5.36531 48.5691 5.36531C44.589 5.36531 41.6634 8.29107 41.6634 12.2711C41.6634 16.1973 44.5339 19.1768 48.6973 19.1768C51.7475 19.1768 53.8467 17.6682 54.9785 15.2094ZM44.3752 10.9885C44.861 9.01457 46.4737 7.75058 48.5691 7.75058C50.8252 7.75058 52.2575 9.1241 52.6889 10.9885H44.3752Z" fill="#1A1E1C"/>
<path d="M67.0501 7.87418L71.2851 15.2094H73.9966L68.491 5.67347H62.459V1.27222H59.8681V13.7603C59.8681 15.3684 60.3498 16.6445 61.2239 17.5207C62.0984 18.397 63.3693 18.8773 64.9647 18.8773H67.3027V16.6767H65.105C64.2493 16.6767 63.5836 16.4622 63.1347 16.0165C62.6855 15.5707 62.459 14.6014 62.459 13.709V7.87418H67.0501Z" fill="#1A1E1C"/>
<path d="M56.1095 5.67338V18.8773H58.7004V5.67338H56.1095Z" fill="#1A1E1C"/>
<path d="M56.1162 1.27222L56.1095 4.20632H58.7004L58.7068 1.27222H56.1162Z" fill="#1A1E1C"/>
<path fill-rule="evenodd" clip-rule="evenodd" d="M0.40641 10.212C1.26907 4.50803 6.19141 0.136353 12.1361 0.136353C13.4074 0.136353 14.6333 0.336572 15.7833 0.707738C17.1687 1.15486 18.4421 1.84951 19.5517 2.73905C22.2621 4.91206 23.9997 8.25336 23.9997 12C23.9997 15.4919 22.4901 18.6323 20.0903 20.8022C19.0338 21.7575 17.804 22.5256 16.4531 23.0535C15.1143 23.5768 13.6578 23.8636 12.1361 23.8636C6.43952 23.8636 1.68219 19.8493 0.535593 14.4958C0.363112 13.6905 0.272461 12.8554 0.272461 12C0.272461 11.3927 0.318155 10.7956 0.40641 10.212ZM1.92377 9.94624L7.82228 13.3517L11.4723 7.0297C11.4927 6.98399 11.5179 6.94024 11.5476 6.89929L14.4648 1.84652C13.7166 1.67568 12.9373 1.58535 12.1361 1.58535C7.08762 1.58535 2.87705 5.17814 1.92377 9.94624ZM15.8871 2.28107L14.1197 5.34222L17.7664 3.23683C17.1778 2.8578 16.5487 2.53658 15.8871 2.28107ZM19.0211 4.18558L13.1235 7.59056L16.7814 13.9264C16.8069 13.9624 16.8291 14.0008 16.8477 14.0412L19.7635 19.0915C21.4937 17.2315 22.5507 14.7396 22.5507 12C22.5507 8.88793 21.1865 6.09495 19.0211 4.18558ZM18.6759 20.1057L16.9139 17.0538V21.2567C17.5409 20.9323 18.131 20.546 18.6759 20.1057ZM15.4649 21.8715V15.0685H2.18067C3.49026 19.3228 7.45285 22.4146 12.1361 22.4146C13.3012 22.4146 14.4204 22.2236 15.4649 21.8715ZM1.84653 13.6196H5.38815L1.7328 11.5091C1.72527 11.6718 1.72145 11.8354 1.72145 12C1.72145 12.5513 1.76422 13.0921 1.84653 13.6196ZM9.34081 13.6196H14.9311L12.136 8.77818L9.34081 13.6196Z" fill="#1A1E1C"/>
<path d="M90.0908 16.5735V7.42017H93.0361C94.0602 7.42017 94.9425 7.60848 95.6831 7.98511C96.4237 8.36174 96.9865 8.89494 97.3716 9.58472C97.7567 10.2745 97.9492 11.0828 97.9492 12.0095C97.9492 12.9278 97.7567 13.7319 97.3716 14.4216C96.9865 15.1072 96.4237 15.6383 95.6831 16.0149C94.9425 16.3873 94.0602 16.5735 93.0361 16.5735H90.0908ZM93.0298 15.3103C93.728 15.3103 94.3289 15.1791 94.8325 14.9167C95.3403 14.6501 95.7318 14.2672 96.0068 13.7678C96.2819 13.2685 96.4194 12.6824 96.4194 12.0095C96.4194 11.3282 96.2819 10.7379 96.0068 10.2385C95.7318 9.73918 95.3403 9.3562 94.8325 9.0896C94.3247 8.823 93.7217 8.6897 93.0234 8.6897H91.5889V15.3103H93.0298Z" fill="#8A918E"/>
<path d="M103.678 16.7195C102.772 16.7195 101.956 16.5269 101.228 16.1418C100.504 15.7525 99.9327 15.2024 99.5138 14.4915C99.0991 13.7763 98.8917 12.9511 98.8917 12.0159C98.8917 11.0849 99.0991 10.2597 99.5138 9.54028C99.9327 8.82088 100.504 8.2644 101.228 7.87085C101.951 7.47306 102.768 7.27417 103.678 7.27417C104.579 7.27417 105.392 7.47095 106.115 7.8645C106.843 8.25806 107.415 8.81453 107.829 9.53394C108.244 10.2533 108.451 11.0806 108.451 12.0159C108.451 12.9596 108.242 13.7869 107.823 14.4978C107.408 15.2087 106.839 15.7568 106.115 16.1418C105.392 16.5269 104.579 16.7195 103.678 16.7195ZM103.665 15.3547C104.275 15.3547 104.825 15.2193 105.316 14.9485C105.806 14.6777 106.189 14.2883 106.464 13.7805C106.744 13.2727 106.883 12.6824 106.883 12.0095C106.883 11.3367 106.746 10.7463 106.471 10.2385C106.196 9.72648 105.813 9.33293 105.322 9.05786C104.835 8.77856 104.283 8.63892 103.665 8.63892C103.052 8.63892 102.499 8.77856 102.008 9.05786C101.522 9.33293 101.141 9.72648 100.866 10.2385C100.591 10.7463 100.453 11.3367 100.453 12.0095C100.453 12.6951 100.593 13.2896 100.872 13.7932C101.156 14.2968 101.541 14.684 102.027 14.9548C102.514 15.2214 103.06 15.3547 103.665 15.3547Z" fill="#8A918E"/>
<path d="M113.977 16.7195C113.059 16.7195 112.252 16.5185 111.558 16.1165C110.869 15.7102 110.333 15.1495 109.952 14.4343C109.576 13.7192 109.387 12.9067 109.387 11.9968C109.387 11.087 109.576 10.2745 109.952 9.55933C110.329 8.83993 110.862 8.27922 111.552 7.8772C112.246 7.47095 113.046 7.26782 113.951 7.26782C114.684 7.26782 115.344 7.40535 115.932 7.68042C116.52 7.95125 117 8.33846 117.373 8.84204C117.749 9.34562 117.993 9.92961 118.103 10.594H116.579C116.486 10.1793 116.319 9.8217 116.078 9.52124C115.841 9.22078 115.54 8.99015 115.177 8.82935C114.817 8.66854 114.417 8.58813 113.977 8.58813C113.38 8.58813 112.851 8.73625 112.39 9.03247C111.933 9.32446 111.577 9.73071 111.323 10.2512C111.074 10.7717 110.949 11.3578 110.949 12.0095C110.949 12.6866 111.074 13.2812 111.323 13.7932C111.573 14.3053 111.927 14.7009 112.384 14.9802C112.841 15.2595 113.367 15.3992 113.964 15.3992C114.43 15.3992 114.846 15.3103 115.215 15.1326C115.587 14.9548 115.89 14.7115 116.122 14.4026C116.359 14.0894 116.516 13.7382 116.592 13.3489H118.115C118.031 14.0006 117.807 14.5824 117.443 15.0945C117.083 15.6023 116.605 16.0001 116.008 16.2878C115.416 16.5756 114.739 16.7195 113.977 16.7195Z" fill="#8A918E"/>
<path d="M122.473 16.7322C121.732 16.7322 121.1 16.6137 120.575 16.3767C120.055 16.1355 119.648 15.7864 119.356 15.3293C119.064 14.8723 118.899 14.3201 118.861 13.6726H120.435C120.457 14.0111 120.543 14.3116 120.696 14.574C120.848 14.8321 121.072 15.0374 121.369 15.1897C121.669 15.342 122.041 15.4182 122.486 15.4182C122.871 15.4182 123.201 15.3695 123.476 15.2722C123.755 15.1707 123.971 15.0204 124.123 14.8215C124.276 14.6226 124.352 14.3835 124.352 14.1042C124.352 13.8123 124.28 13.571 124.136 13.3806C123.992 13.1902 123.779 13.04 123.495 12.9299C123.211 12.8157 122.833 12.7183 122.359 12.6379C121.635 12.5152 121.043 12.3586 120.581 12.1682C120.12 11.9736 119.769 11.7091 119.528 11.3748C119.286 11.0362 119.166 10.6025 119.166 10.0735C119.166 9.49373 119.295 8.9965 119.553 8.58179C119.811 8.16284 120.184 7.83911 120.67 7.6106C121.157 7.38208 121.741 7.26782 122.422 7.26782C123.12 7.26782 123.717 7.3842 124.212 7.61694C124.712 7.84969 125.095 8.17977 125.361 8.60718C125.632 9.03459 125.791 9.54663 125.837 10.1433H124.269C124.248 9.83016 124.164 9.55721 124.015 9.32446C123.872 9.08748 123.662 8.90552 123.387 8.77856C123.112 8.64738 122.778 8.58179 122.384 8.58179C122.033 8.58179 121.73 8.63468 121.476 8.74048C121.223 8.84627 121.028 9.00073 120.892 9.20386C120.757 9.40698 120.689 9.64608 120.689 9.92114C120.689 10.1624 120.753 10.3612 120.88 10.5178C121.007 10.6744 121.203 10.8056 121.47 10.9114C121.737 11.0129 122.101 11.1082 122.562 11.197C123.328 11.3324 123.95 11.4996 124.428 11.6985C124.911 11.8974 125.281 12.1767 125.539 12.5364C125.797 12.8918 125.926 13.3616 125.926 13.9456C125.926 14.5465 125.786 15.0564 125.507 15.4753C125.232 15.8901 124.836 16.2032 124.32 16.4148C123.804 16.6264 123.188 16.7322 122.473 16.7322Z" fill="#8A918E"/>
</svg>
