<svg width="110" height="32" viewBox="0 0 110 32" fill="none" xmlns="http://www.w3.org/2000/svg">
  <path fill-rule="evenodd" clip-rule="evenodd"
    d="M16.1818 0.181763C8.25557 0.181763 1.69246 6.01067 0.542246 13.616C0.424573 14.394 0.363647 15.1902 0.363647 15.9999C0.363647 17.1405 0.484516 18.2539 0.71449 19.3277C2.24329 26.4657 8.58639 31.8181 16.1818 31.8181C18.2108 31.8181 20.1527 31.4356 21.9378 30.738C23.739 30.034 25.3787 29.0099 26.7874 27.7363C29.9872 24.843 32 20.6559 32 15.9999C32 11.0044 29.6832 6.54938 26.0692 3.65202C24.5898 2.46597 22.8919 1.53978 21.0448 0.94361C19.5115 0.448722 17.8769 0.181763 16.1818 0.181763ZM10.4301 17.8023L2.56539 13.2616C3.83643 6.90415 9.45053 2.11375 16.1818 2.11375C17.2501 2.11375 18.2892 2.2342 19.2868 2.46198L15.3972 9.19902C15.3575 9.25362 15.324 9.31194 15.2968 9.37289L10.4301 17.8023ZM18.8267 7.12292L21.1831 3.04138C22.0652 3.38207 22.904 3.81037 23.6889 4.31573L18.8267 7.12292ZM17.4983 10.1207L25.3618 5.58074C28.249 8.12656 30.068 11.8505 30.068 15.9999C30.068 19.6528 28.6586 22.9754 26.3517 25.4552L22.464 18.7216C22.4392 18.6677 22.4095 18.6165 22.3756 18.5685L17.4983 10.1207ZM22.5522 22.7383L24.9016 26.8076C24.175 27.3946 23.3883 27.9097 22.5522 28.3422V22.7383ZM20.6202 20.0914V29.162C19.2276 29.6314 17.7353 29.8861 16.1818 29.8861C9.9375 29.8861 4.65405 25.7637 2.90793 20.0914H20.6202ZM7.18457 18.1594H2.4624C2.35267 17.4561 2.29564 16.735 2.29564 15.9999C2.29564 15.7805 2.30072 15.5623 2.31077 15.3455L7.18457 18.1594ZM16.1817 11.7042L19.9085 18.1594H12.4548L16.1817 11.7042ZM51.2442 23.1907C49.6189 24.6749 47.4006 25.569 44.9433 25.569C39.7415 25.569 35.8041 21.6333 35.8041 16.3613C35.8041 11.0894 39.7415 7.1537 44.9433 7.1537C47.3372 7.1537 49.4922 7.98919 51.1076 9.38338V1.69623H54.5617V25.1697H51.2445L51.2442 23.1907ZM45.2515 10.334C41.6949 10.334 39.2586 12.7718 39.2586 16.3613C39.2586 19.9509 41.6949 22.3883 45.2515 22.3883C48.8081 22.3883 51.2445 19.9509 51.2445 16.3613C51.2445 12.7718 48.8081 10.334 45.2515 10.334ZM93.9429 27.0631V30.0599C95.3673 30.0576 96.4426 29.841 97.313 29.3949C98.3404 28.8693 99.0887 28.0249 99.7956 26.8168C100.402 25.7757 100.98 24.4599 101.689 22.8437L101.692 22.8353C101.783 22.6292 101.875 22.4182 101.97 22.2022L108.399 7.56445H104.819L98.8008 21.1917C98.624 21.6148 98.4603 22.02 98.3045 22.4058L98.3039 22.4071L98.297 22.4243L98.2963 22.426C97.7876 23.6848 97.3624 24.737 96.8483 25.5254C96.2091 26.5079 95.4282 27.0631 94.1391 27.0631H93.9429ZM73.304 20.2792H69.6167C68.6512 21.8573 66.9973 22.3883 64.9636 22.3883C61.8675 22.3883 59.6046 20.5344 59.0805 17.6604H73.7694L73.7931 17.4488L73.7996 17.3902C73.8323 17.0973 73.8629 16.8236 73.8629 16.3954C73.8629 10.9828 69.96 7.1537 64.7581 7.1537C59.4514 7.1537 55.5506 11.0547 55.5506 16.3613C55.5506 21.5964 59.3779 25.569 64.9291 25.569C68.996 25.569 71.795 23.5576 73.304 20.2792ZM59.1663 14.6512C59.814 12.0194 61.9644 10.334 64.7581 10.334C67.7663 10.334 69.6761 12.1654 70.2513 14.6512H59.1663ZM95.0462 20.2792L89.3996 10.4989H83.278V18.2786C83.278 19.4685 83.5801 20.7609 84.1789 21.3552C84.7775 21.9496 85.6652 22.2356 86.806 22.2356H89.7364V25.1697H86.619C84.4917 25.1697 82.7973 24.5292 81.6312 23.3609C80.4658 22.1926 79.8236 20.4911 79.8236 18.347V1.69623H83.278V7.56457H91.3207L98.6615 20.2792H95.0462ZM74.8121 7.56445V25.1697H78.2666V7.56445H74.8121ZM74.8121 5.60838L74.821 1.69623H78.2752L78.2666 5.60838H74.8121Z"
    fill="currentColor" />
</svg>