<svg width="1289" height="1314" xmlns="http://www.w3.org/2000/svg"><g transform="translate(-2 -2)" fill="none" fill-rule="evenodd"><g transform="translate(480 560)"><g transform="translate(6 6)" opacity=".4" stroke="#594ECC"><path d="M80 93V0m0 93L0 46m80 47L0 140m80-47v93m0-93l80 47M80 93l80-47"/></g><g transform="translate(5 6)" opacity=".1" stroke="#594ECC"><path d="M1 46H161V140H1z"/><path transform="rotate(120 81 93)" d="M1 46H161V140H1z"/><path transform="rotate(-120 81 93)" d="M1 46H161V140H1z"/></g><path stroke="#594ECC" stroke-width="2" d="M6 52L86 6 166 52 166 146 86 192 6 146z"/><g fill="#594ECC"><path d="M166 142c2.206 0 4 1.78 4 4 0 2.2-1.794 4-4 4-2.208 0-4-1.8-4-4 0-2.22 1.792-4 4-4z" opacity=".7"/><path d="M166 48c2.206 0 4 1.78 4 4 0 2.2-1.794 4-4 4-2.208 0-4-1.8-4-4 0-2.22 1.792-4 4-4zM86 188c2.208 0 4 1.78 4 4 0 2.2-1.792 4-4 4s-4-1.8-4-4c0-2.22 1.792-4 4-4zM6 48c2.208 0 4 1.78 4 4 0 2.2-1.792 4-4 4s-4-1.8-4-4c0-2.22 1.792-4 4-4zM86 2c2.208 0 4 1.78 4 4 0 2.2-1.792 4-4 4s-4-1.8-4-4c0-2.22 1.792-4 4-4z" opacity=".6"/><path d="M6 142c2.208 0 4 1.78 4 4 0 2.2-1.792 4-4 4s-4-1.8-4-4c0-2.22 1.792-4 4-4z" opacity=".7"/></g><path d="M86 95c2.208 0 4 1.78 4 4 0 2.2-1.792 4-4 4s-4-1.8-4-4c0-2.22 1.792-4 4-4z" fill="#D0E65F"/></g><g transform="translate(640 560)"><g transform="translate(6 6)" opacity=".4" stroke="#594ECC"><path d="M80 93V0m0 93L0 46m80 47L0 140m80-47v93m0-93l80 47M80 93l80-47"/></g><g transform="translate(5 6)" opacity=".1" stroke="#594ECC"><path d="M1 46H161V140H1z"/><path transform="rotate(120 81 93)" d="M1 46H161V140H1z"/><path transform="rotate(-120 81 93)" d="M1 46H161V140H1z"/></g><path stroke="#594ECC" stroke-width="2" d="M6 52L86 6 166 52 166 146 86 192 6 146z"/><g fill="#594ECC"><path d="M166 142c2.206 0 4 1.78 4 4 0 2.2-1.794 4-4 4-2.208 0-4-1.8-4-4 0-2.22 1.792-4 4-4z" opacity=".7"/><path d="M166 48c2.206 0 4 1.78 4 4 0 2.2-1.794 4-4 4-2.208 0-4-1.8-4-4 0-2.22 1.792-4 4-4zM86 188c2.208 0 4 1.78 4 4 0 2.2-1.792 4-4 4s-4-1.8-4-4c0-2.22 1.792-4 4-4zM6 48c2.208 0 4 1.78 4 4 0 2.2-1.792 4-4 4s-4-1.8-4-4c0-2.22 1.792-4 4-4zM86 2c2.208 0 4 1.78 4 4 0 2.2-1.792 4-4 4s-4-1.8-4-4c0-2.22 1.792-4 4-4z" opacity=".6"/><path d="M6 142c2.208 0 4 1.78 4 4 0 2.2-1.792 4-4 4s-4-1.8-4-4c0-2.22 1.792-4 4-4z" opacity=".7"/></g><path d="M86 95c2.208 0 4 1.78 4 4 0 2.2-1.792 4-4 4s-4-1.8-4-4c0-2.22 1.792-4 4-4z" fill="#D0E65F"/></g><g transform="translate(800 560)"><g transform="translate(6 6)" opacity=".4" stroke="#594ECC"><path d="M80 93V0m0 93L0 46m80 47L0 140m80-47v93m0-93l80 47M80 93l80-47"/></g><g transform="translate(5 6)" opacity=".1" stroke="#594ECC"><path d="M1 46H161V140H1z"/><path transform="rotate(120 81 93)" d="M1 46H161V140H1z"/><path transform="rotate(-120 81 93)" d="M1 46H161V140H1z"/></g><path stroke="#594ECC" stroke-width="2" d="M6 52L86 6 166 52 166 146 86 192 6 146z"/><g fill="#594ECC"><path d="M166 142c2.206 0 4 1.78 4 4 0 2.2-1.794 4-4 4-2.208 0-4-1.8-4-4 0-2.22 1.792-4 4-4z" opacity=".7"/><path d="M166 48c2.206 0 4 1.78 4 4 0 2.2-1.794 4-4 4-2.208 0-4-1.8-4-4 0-2.22 1.792-4 4-4zM86 188c2.208 0 4 1.78 4 4 0 2.2-1.792 4-4 4s-4-1.8-4-4c0-2.22 1.792-4 4-4zM6 48c2.208 0 4 1.78 4 4 0 2.2-1.792 4-4 4s-4-1.8-4-4c0-2.22 1.792-4 4-4zM86 2c2.208 0 4 1.78 4 4 0 2.2-1.792 4-4 4s-4-1.8-4-4c0-2.22 1.792-4 4-4z" opacity=".6"/><path d="M6 142c2.208 0 4 1.78 4 4 0 2.2-1.792 4-4 4s-4-1.8-4-4c0-2.22 1.792-4 4-4z" opacity=".7"/></g><path d="M86 95c2.208 0 4 1.78 4 4 0 2.2-1.792 4-4 4s-4-1.8-4-4c0-2.22 1.792-4 4-4z" fill="#D0E65F"/></g><g transform="translate(560 700)"><g transform="translate(6 6)" opacity=".4" stroke="#594ECC"><path d="M80 93V0m0 93L0 46m80 47L0 140m80-47v93m0-93l80 47M80 93l80-47"/></g><g transform="translate(5 6)" opacity=".1" stroke="#594ECC"><path d="M1 46H161V140H1z"/><path transform="rotate(120 81 93)" d="M1 46H161V140H1z"/><path transform="rotate(-120 81 93)" d="M1 46H161V140H1z"/></g><path stroke="#594ECC" stroke-width="2" d="M6 52L86 6 166 52 166 146 86 192 6 146z"/><g fill="#594ECC"><path d="M166 142c2.206 0 4 1.78 4 4 0 2.2-1.794 4-4 4-2.208 0-4-1.8-4-4 0-2.22 1.792-4 4-4z" opacity=".7"/><path d="M166 48c2.206 0 4 1.78 4 4 0 2.2-1.794 4-4 4-2.208 0-4-1.8-4-4 0-2.22 1.792-4 4-4zM86 188c2.208 0 4 1.78 4 4 0 2.2-1.792 4-4 4s-4-1.8-4-4c0-2.22 1.792-4 4-4zM6 48c2.208 0 4 1.78 4 4 0 2.2-1.792 4-4 4s-4-1.8-4-4c0-2.22 1.792-4 4-4zM86 2c2.208 0 4 1.78 4 4 0 2.2-1.792 4-4 4s-4-1.8-4-4c0-2.22 1.792-4 4-4z" opacity=".6"/><path d="M6 142c2.208 0 4 1.78 4 4 0 2.2-1.792 4-4 4s-4-1.8-4-4c0-2.22 1.792-4 4-4z" opacity=".7"/></g><path d="M86 95c2.208 0 4 1.78 4 4 0 2.2-1.792 4-4 4s-4-1.8-4-4c0-2.22 1.792-4 4-4z" fill="#D0E65F"/></g><g transform="translate(720 700)"><g transform="translate(6 6)" opacity=".4" stroke="#594ECC"><path d="M80 93V0m0 93L0 46m80 47L0 140m80-47v93m0-93l80 47M80 93l80-47"/></g><g transform="translate(5 6)" opacity=".1" stroke="#594ECC"><path d="M1 46H161V140H1z"/><path transform="rotate(120 81 93)" d="M1 46H161V140H1z"/><path transform="rotate(-120 81 93)" d="M1 46H161V140H1z"/></g><path stroke="#594ECC" stroke-width="2" d="M6 52L86 6 166 52 166 146 86 192 6 146z"/><g fill="#594ECC"><path d="M166 142c2.206 0 4 1.78 4 4 0 2.2-1.794 4-4 4-2.208 0-4-1.8-4-4 0-2.22 1.792-4 4-4z" opacity=".7"/><path d="M166 48c2.206 0 4 1.78 4 4 0 2.2-1.794 4-4 4-2.208 0-4-1.8-4-4 0-2.22 1.792-4 4-4zM86 188c2.208 0 4 1.78 4 4 0 2.2-1.792 4-4 4s-4-1.8-4-4c0-2.22 1.792-4 4-4zM6 48c2.208 0 4 1.78 4 4 0 2.2-1.792 4-4 4s-4-1.8-4-4c0-2.22 1.792-4 4-4zM86 2c2.208 0 4 1.78 4 4 0 2.2-1.792 4-4 4s-4-1.8-4-4c0-2.22 1.792-4 4-4z" opacity=".6"/><path d="M6 142c2.208 0 4 1.78 4 4 0 2.2-1.792 4-4 4s-4-1.8-4-4c0-2.22 1.792-4 4-4z" opacity=".7"/></g><path d="M86 95c2.208 0 4 1.78 4 4 0 2.2-1.792 4-4 4s-4-1.8-4-4c0-2.22 1.792-4 4-4z" fill="#D0E65F"/></g><g transform="translate(880 700)"><g transform="translate(6 6)" opacity=".4" stroke="#594ECC"><path d="M80 93V0m0 93L0 46m80 47L0 140m80-47v93m0-93l80 47M80 93l80-47"/></g><g transform="translate(5 6)" opacity=".1" stroke="#594ECC"><path d="M1 46H161V140H1z"/><path transform="rotate(120 81 93)" d="M1 46H161V140H1z"/><path transform="rotate(-120 81 93)" d="M1 46H161V140H1z"/></g><path stroke="#594ECC" stroke-width="2" d="M6 52L86 6 166 52 166 146 86 192 6 146z"/><g fill="#594ECC"><path d="M166 142c2.206 0 4 1.78 4 4 0 2.2-1.794 4-4 4-2.208 0-4-1.8-4-4 0-2.22 1.792-4 4-4z" opacity=".7"/><path d="M166 48c2.206 0 4 1.78 4 4 0 2.2-1.794 4-4 4-2.208 0-4-1.8-4-4 0-2.22 1.792-4 4-4zM86 188c2.208 0 4 1.78 4 4 0 2.2-1.792 4-4 4s-4-1.8-4-4c0-2.22 1.792-4 4-4zM6 48c2.208 0 4 1.78 4 4 0 2.2-1.792 4-4 4s-4-1.8-4-4c0-2.22 1.792-4 4-4zM86 2c2.208 0 4 1.78 4 4 0 2.2-1.792 4-4 4s-4-1.8-4-4c0-2.22 1.792-4 4-4z" opacity=".6"/><path d="M6 142c2.208 0 4 1.78 4 4 0 2.2-1.792 4-4 4s-4-1.8-4-4c0-2.22 1.792-4 4-4z" opacity=".7"/></g><path d="M86 95c2.208 0 4 1.78 4 4 0 2.2-1.792 4-4 4s-4-1.8-4-4c0-2.22 1.792-4 4-4z" fill="#D0E65F"/></g><g transform="translate(561 420)"><g transform="translate(6 6)" opacity=".4" stroke="#594ECC"><path d="M80 93V0m0 93L0 46m80 47L0 140m80-47v93m0-93l80 47M80 93l80-47"/></g><g transform="translate(5 6)" opacity=".1" stroke="#594ECC"><path d="M1 46H161V140H1z"/><path transform="rotate(120 81 93)" d="M1 46H161V140H1z"/><path transform="rotate(-120 81 93)" d="M1 46H161V140H1z"/></g><path stroke="#594ECC" stroke-width="2" d="M6 52L86 6 166 52 166 146 86 192 6 146z"/><g fill="#594ECC"><path d="M166 142c2.206 0 4 1.78 4 4 0 2.2-1.794 4-4 4-2.208 0-4-1.8-4-4 0-2.22 1.792-4 4-4z" opacity=".7"/><path d="M166 48c2.206 0 4 1.78 4 4 0 2.2-1.794 4-4 4-2.208 0-4-1.8-4-4 0-2.22 1.792-4 4-4zM86 188c2.208 0 4 1.78 4 4 0 2.2-1.792 4-4 4s-4-1.8-4-4c0-2.22 1.792-4 4-4zM6 48c2.208 0 4 1.78 4 4 0 2.2-1.792 4-4 4s-4-1.8-4-4c0-2.22 1.792-4 4-4zM86 2c2.208 0 4 1.78 4 4 0 2.2-1.792 4-4 4s-4-1.8-4-4c0-2.22 1.792-4 4-4z" opacity=".6"/><path d="M6 142c2.208 0 4 1.78 4 4 0 2.2-1.792 4-4 4s-4-1.8-4-4c0-2.22 1.792-4 4-4z" opacity=".7"/></g><path d="M86 95c2.208 0 4 1.78 4 4 0 2.2-1.792 4-4 4s-4-1.8-4-4c0-2.22 1.792-4 4-4z" fill="#D0E65F"/></g><g transform="translate(721 420)"><g transform="translate(6 6)" opacity=".4" stroke="#594ECC"><path d="M80 93V0m0 93L0 46m80 47L0 140m80-47v93m0-93l80 47M80 93l80-47"/></g><g transform="translate(5 6)" opacity=".1" stroke="#594ECC"><path d="M1 46H161V140H1z"/><path transform="rotate(120 81 93)" d="M1 46H161V140H1z"/><path transform="rotate(-120 81 93)" d="M1 46H161V140H1z"/></g><path stroke="#594ECC" stroke-width="2" d="M6 52L86 6 166 52 166 146 86 192 6 146z"/><g fill="#594ECC"><path d="M166 142c2.206 0 4 1.78 4 4 0 2.2-1.794 4-4 4-2.208 0-4-1.8-4-4 0-2.22 1.792-4 4-4z" opacity=".7"/><path d="M166 48c2.206 0 4 1.78 4 4 0 2.2-1.794 4-4 4-2.208 0-4-1.8-4-4 0-2.22 1.792-4 4-4zM86 188c2.208 0 4 1.78 4 4 0 2.2-1.792 4-4 4s-4-1.8-4-4c0-2.22 1.792-4 4-4zM6 48c2.208 0 4 1.78 4 4 0 2.2-1.792 4-4 4s-4-1.8-4-4c0-2.22 1.792-4 4-4zM86 2c2.208 0 4 1.78 4 4 0 2.2-1.792 4-4 4s-4-1.8-4-4c0-2.22 1.792-4 4-4z" opacity=".6"/><path d="M6 142c2.208 0 4 1.78 4 4 0 2.2-1.792 4-4 4s-4-1.8-4-4c0-2.22 1.792-4 4-4z" opacity=".7"/></g><path d="M86 95c2.208 0 4 1.78 4 4 0 2.2-1.792 4-4 4s-4-1.8-4-4c0-2.22 1.792-4 4-4z" fill="#D0E65F"/></g><g transform="translate(881 420)"><g transform="translate(6 6)" opacity=".4" stroke="#594ECC"><path d="M80 93V0m0 93L0 46m80 47L0 140m80-47v93m0-93l80 47M80 93l80-47"/></g><g transform="translate(5 6)" opacity=".1" stroke="#594ECC"><path d="M1 46H161V140H1z"/><path transform="rotate(120 81 93)" d="M1 46H161V140H1z"/><path transform="rotate(-120 81 93)" d="M1 46H161V140H1z"/></g><path stroke="#594ECC" stroke-width="2" d="M6 52L86 6 166 52 166 146 86 192 6 146z"/><g fill="#594ECC"><path d="M166 142c2.206 0 4 1.78 4 4 0 2.2-1.794 4-4 4-2.208 0-4-1.8-4-4 0-2.22 1.792-4 4-4z" opacity=".7"/><path d="M166 48c2.206 0 4 1.78 4 4 0 2.2-1.794 4-4 4-2.208 0-4-1.8-4-4 0-2.22 1.792-4 4-4zM86 188c2.208 0 4 1.78 4 4 0 2.2-1.792 4-4 4s-4-1.8-4-4c0-2.22 1.792-4 4-4zM6 48c2.208 0 4 1.78 4 4 0 2.2-1.792 4-4 4s-4-1.8-4-4c0-2.22 1.792-4 4-4zM86 2c2.208 0 4 1.78 4 4 0 2.2-1.792 4-4 4s-4-1.8-4-4c0-2.22 1.792-4 4-4z" opacity=".6"/><path d="M6 142c2.208 0 4 1.78 4 4 0 2.2-1.792 4-4 4s-4-1.8-4-4c0-2.22 1.792-4 4-4z" opacity=".7"/></g><path d="M86 95c2.208 0 4 1.78 4 4 0 2.2-1.792 4-4 4s-4-1.8-4-4c0-2.22 1.792-4 4-4z" fill="#D0E65F"/></g><g transform="translate(0 560)"><g transform="translate(6 6)" opacity=".4" stroke="#594ECC"><path d="M80 93V0m0 93L0 46m80 47L0 140m80-47v93m0-93l80 47M80 93l80-47"/></g><g transform="translate(5 6)" opacity=".1" stroke="#594ECC"><path d="M1 46H161V140H1z"/><path transform="rotate(120 81 93)" d="M1 46H161V140H1z"/><path transform="rotate(-120 81 93)" d="M1 46H161V140H1z"/></g><path stroke="#594ECC" stroke-width="2" d="M6 52L86 6 166 52 166 146 86 192 6 146z"/><g fill="#594ECC"><path d="M166 142c2.206 0 4 1.78 4 4 0 2.2-1.794 4-4 4-2.208 0-4-1.8-4-4 0-2.22 1.792-4 4-4z" opacity=".7"/><path d="M166 48c2.206 0 4 1.78 4 4 0 2.2-1.794 4-4 4-2.208 0-4-1.8-4-4 0-2.22 1.792-4 4-4zM86 188c2.208 0 4 1.78 4 4 0 2.2-1.792 4-4 4s-4-1.8-4-4c0-2.22 1.792-4 4-4zM6 48c2.208 0 4 1.78 4 4 0 2.2-1.792 4-4 4s-4-1.8-4-4c0-2.22 1.792-4 4-4zM86 2c2.208 0 4 1.78 4 4 0 2.2-1.792 4-4 4s-4-1.8-4-4c0-2.22 1.792-4 4-4z" opacity=".6"/><path d="M6 142c2.208 0 4 1.78 4 4 0 2.2-1.792 4-4 4s-4-1.8-4-4c0-2.22 1.792-4 4-4z" opacity=".7"/></g><path d="M86 95c2.208 0 4 1.78 4 4 0 2.2-1.792 4-4 4s-4-1.8-4-4c0-2.22 1.792-4 4-4z" fill="#D0E65F"/></g><g transform="translate(160 560)"><g transform="translate(6 6)" opacity=".4" stroke="#594ECC"><path d="M80 93V0m0 93L0 46m80 47L0 140m80-47v93m0-93l80 47M80 93l80-47"/></g><g transform="translate(5 6)" opacity=".1" stroke="#594ECC"><path d="M1 46H161V140H1z"/><path transform="rotate(120 81 93)" d="M1 46H161V140H1z"/><path transform="rotate(-120 81 93)" d="M1 46H161V140H1z"/></g><path stroke="#594ECC" stroke-width="2" d="M6 52L86 6 166 52 166 146 86 192 6 146z"/><g fill="#594ECC"><path d="M166 142c2.206 0 4 1.78 4 4 0 2.2-1.794 4-4 4-2.208 0-4-1.8-4-4 0-2.22 1.792-4 4-4z" opacity=".7"/><path d="M166 48c2.206 0 4 1.78 4 4 0 2.2-1.794 4-4 4-2.208 0-4-1.8-4-4 0-2.22 1.792-4 4-4zM86 188c2.208 0 4 1.78 4 4 0 2.2-1.792 4-4 4s-4-1.8-4-4c0-2.22 1.792-4 4-4zM6 48c2.208 0 4 1.78 4 4 0 2.2-1.792 4-4 4s-4-1.8-4-4c0-2.22 1.792-4 4-4zM86 2c2.208 0 4 1.78 4 4 0 2.2-1.792 4-4 4s-4-1.8-4-4c0-2.22 1.792-4 4-4z" opacity=".6"/><path d="M6 142c2.208 0 4 1.78 4 4 0 2.2-1.792 4-4 4s-4-1.8-4-4c0-2.22 1.792-4 4-4z" opacity=".7"/></g><path d="M86 95c2.208 0 4 1.78 4 4 0 2.2-1.792 4-4 4s-4-1.8-4-4c0-2.22 1.792-4 4-4z" fill="#D0E65F"/></g><g transform="translate(320 560)"><g transform="translate(6 6)" opacity=".4" stroke="#594ECC"><path d="M80 93V0m0 93L0 46m80 47L0 140m80-47v93m0-93l80 47M80 93l80-47"/></g><g transform="translate(5 6)" opacity=".1" stroke="#594ECC"><path d="M1 46H161V140H1z"/><path transform="rotate(120 81 93)" d="M1 46H161V140H1z"/><path transform="rotate(-120 81 93)" d="M1 46H161V140H1z"/></g><path stroke="#594ECC" stroke-width="2" d="M6 52L86 6 166 52 166 146 86 192 6 146z"/><g fill="#594ECC"><path d="M166 142c2.206 0 4 1.78 4 4 0 2.2-1.794 4-4 4-2.208 0-4-1.8-4-4 0-2.22 1.792-4 4-4z" opacity=".7"/><path d="M166 48c2.206 0 4 1.78 4 4 0 2.2-1.794 4-4 4-2.208 0-4-1.8-4-4 0-2.22 1.792-4 4-4zM86 188c2.208 0 4 1.78 4 4 0 2.2-1.792 4-4 4s-4-1.8-4-4c0-2.22 1.792-4 4-4zM6 48c2.208 0 4 1.78 4 4 0 2.2-1.792 4-4 4s-4-1.8-4-4c0-2.22 1.792-4 4-4zM86 2c2.208 0 4 1.78 4 4 0 2.2-1.792 4-4 4s-4-1.8-4-4c0-2.22 1.792-4 4-4z" opacity=".6"/><path d="M6 142c2.208 0 4 1.78 4 4 0 2.2-1.792 4-4 4s-4-1.8-4-4c0-2.22 1.792-4 4-4z" opacity=".7"/></g><path d="M86 95c2.208 0 4 1.78 4 4 0 2.2-1.792 4-4 4s-4-1.8-4-4c0-2.22 1.792-4 4-4z" fill="#D0E65F"/></g><g transform="translate(80 700)"><g transform="translate(6 6)" opacity=".4" stroke="#594ECC"><path d="M80 93V0m0 93L0 46m80 47L0 140m80-47v93m0-93l80 47M80 93l80-47"/></g><g transform="translate(5 6)" opacity=".1" stroke="#594ECC"><path d="M1 46H161V140H1z"/><path transform="rotate(120 81 93)" d="M1 46H161V140H1z"/><path transform="rotate(-120 81 93)" d="M1 46H161V140H1z"/></g><path stroke="#594ECC" stroke-width="2" d="M6 52L86 6 166 52 166 146 86 192 6 146z"/><g fill="#594ECC"><path d="M166 142c2.206 0 4 1.78 4 4 0 2.2-1.794 4-4 4-2.208 0-4-1.8-4-4 0-2.22 1.792-4 4-4z" opacity=".7"/><path d="M166 48c2.206 0 4 1.78 4 4 0 2.2-1.794 4-4 4-2.208 0-4-1.8-4-4 0-2.22 1.792-4 4-4zM86 188c2.208 0 4 1.78 4 4 0 2.2-1.792 4-4 4s-4-1.8-4-4c0-2.22 1.792-4 4-4zM6 48c2.208 0 4 1.78 4 4 0 2.2-1.792 4-4 4s-4-1.8-4-4c0-2.22 1.792-4 4-4zM86 2c2.208 0 4 1.78 4 4 0 2.2-1.792 4-4 4s-4-1.8-4-4c0-2.22 1.792-4 4-4z" opacity=".6"/><path d="M6 142c2.208 0 4 1.78 4 4 0 2.2-1.792 4-4 4s-4-1.8-4-4c0-2.22 1.792-4 4-4z" opacity=".7"/></g><path d="M86 95c2.208 0 4 1.78 4 4 0 2.2-1.792 4-4 4s-4-1.8-4-4c0-2.22 1.792-4 4-4z" fill="#D0E65F"/></g><g transform="translate(240 700)"><g transform="translate(6 6)" opacity=".4" stroke="#594ECC"><path d="M80 93V0m0 93L0 46m80 47L0 140m80-47v93m0-93l80 47M80 93l80-47"/></g><g transform="translate(5 6)" opacity=".1" stroke="#594ECC"><path d="M1 46H161V140H1z"/><path transform="rotate(120 81 93)" d="M1 46H161V140H1z"/><path transform="rotate(-120 81 93)" d="M1 46H161V140H1z"/></g><path stroke="#594ECC" stroke-width="2" d="M6 52L86 6 166 52 166 146 86 192 6 146z"/><g fill="#594ECC"><path d="M166 142c2.206 0 4 1.78 4 4 0 2.2-1.794 4-4 4-2.208 0-4-1.8-4-4 0-2.22 1.792-4 4-4z" opacity=".7"/><path d="M166 48c2.206 0 4 1.78 4 4 0 2.2-1.794 4-4 4-2.208 0-4-1.8-4-4 0-2.22 1.792-4 4-4zM86 188c2.208 0 4 1.78 4 4 0 2.2-1.792 4-4 4s-4-1.8-4-4c0-2.22 1.792-4 4-4zM6 48c2.208 0 4 1.78 4 4 0 2.2-1.792 4-4 4s-4-1.8-4-4c0-2.22 1.792-4 4-4zM86 2c2.208 0 4 1.78 4 4 0 2.2-1.792 4-4 4s-4-1.8-4-4c0-2.22 1.792-4 4-4z" opacity=".6"/><path d="M6 142c2.208 0 4 1.78 4 4 0 2.2-1.792 4-4 4s-4-1.8-4-4c0-2.22 1.792-4 4-4z" opacity=".7"/></g><path d="M86 95c2.208 0 4 1.78 4 4 0 2.2-1.792 4-4 4s-4-1.8-4-4c0-2.22 1.792-4 4-4z" fill="#D0E65F"/></g><g transform="translate(400 700)"><g transform="translate(6 6)" opacity=".4" stroke="#594ECC"><path d="M80 93V0m0 93L0 46m80 47L0 140m80-47v93m0-93l80 47M80 93l80-47"/></g><g transform="translate(5 6)" opacity=".1" stroke="#594ECC"><path d="M1 46H161V140H1z"/><path transform="rotate(120 81 93)" d="M1 46H161V140H1z"/><path transform="rotate(-120 81 93)" d="M1 46H161V140H1z"/></g><path stroke="#594ECC" stroke-width="2" d="M6 52L86 6 166 52 166 146 86 192 6 146z"/><g fill="#594ECC"><path d="M166 142c2.206 0 4 1.78 4 4 0 2.2-1.794 4-4 4-2.208 0-4-1.8-4-4 0-2.22 1.792-4 4-4z" opacity=".7"/><path d="M166 48c2.206 0 4 1.78 4 4 0 2.2-1.794 4-4 4-2.208 0-4-1.8-4-4 0-2.22 1.792-4 4-4zM86 188c2.208 0 4 1.78 4 4 0 2.2-1.792 4-4 4s-4-1.8-4-4c0-2.22 1.792-4 4-4zM6 48c2.208 0 4 1.78 4 4 0 2.2-1.792 4-4 4s-4-1.8-4-4c0-2.22 1.792-4 4-4zM86 2c2.208 0 4 1.78 4 4 0 2.2-1.792 4-4 4s-4-1.8-4-4c0-2.22 1.792-4 4-4z" opacity=".6"/><path d="M6 142c2.208 0 4 1.78 4 4 0 2.2-1.792 4-4 4s-4-1.8-4-4c0-2.22 1.792-4 4-4z" opacity=".7"/></g><path d="M86 95c2.208 0 4 1.78 4 4 0 2.2-1.792 4-4 4s-4-1.8-4-4c0-2.22 1.792-4 4-4z" fill="#D0E65F"/></g><g transform="translate(81 420)"><g transform="translate(6 6)" opacity=".4" stroke="#594ECC"><path d="M80 93V0m0 93L0 46m80 47L0 140m80-47v93m0-93l80 47M80 93l80-47"/></g><g transform="translate(5 6)" opacity=".1" stroke="#594ECC"><path d="M1 46H161V140H1z"/><path transform="rotate(120 81 93)" d="M1 46H161V140H1z"/><path transform="rotate(-120 81 93)" d="M1 46H161V140H1z"/></g><path stroke="#594ECC" stroke-width="2" d="M6 52L86 6 166 52 166 146 86 192 6 146z"/><g fill="#594ECC"><path d="M166 142c2.206 0 4 1.78 4 4 0 2.2-1.794 4-4 4-2.208 0-4-1.8-4-4 0-2.22 1.792-4 4-4z" opacity=".7"/><path d="M166 48c2.206 0 4 1.78 4 4 0 2.2-1.794 4-4 4-2.208 0-4-1.8-4-4 0-2.22 1.792-4 4-4zM86 188c2.208 0 4 1.78 4 4 0 2.2-1.792 4-4 4s-4-1.8-4-4c0-2.22 1.792-4 4-4zM6 48c2.208 0 4 1.78 4 4 0 2.2-1.792 4-4 4s-4-1.8-4-4c0-2.22 1.792-4 4-4zM86 2c2.208 0 4 1.78 4 4 0 2.2-1.792 4-4 4s-4-1.8-4-4c0-2.22 1.792-4 4-4z" opacity=".6"/><path d="M6 142c2.208 0 4 1.78 4 4 0 2.2-1.792 4-4 4s-4-1.8-4-4c0-2.22 1.792-4 4-4z" opacity=".7"/></g><path d="M86 95c2.208 0 4 1.78 4 4 0 2.2-1.792 4-4 4s-4-1.8-4-4c0-2.22 1.792-4 4-4z" fill="#D0E65F"/></g><g transform="translate(241 420)"><g transform="translate(6 6)" opacity=".4" stroke="#594ECC"><path d="M80 93V0m0 93L0 46m80 47L0 140m80-47v93m0-93l80 47M80 93l80-47"/></g><g transform="translate(5 6)" opacity=".1" stroke="#594ECC"><path d="M1 46H161V140H1z"/><path transform="rotate(120 81 93)" d="M1 46H161V140H1z"/><path transform="rotate(-120 81 93)" d="M1 46H161V140H1z"/></g><path stroke="#594ECC" stroke-width="2" d="M6 52L86 6 166 52 166 146 86 192 6 146z"/><g fill="#594ECC"><path d="M166 142c2.206 0 4 1.78 4 4 0 2.2-1.794 4-4 4-2.208 0-4-1.8-4-4 0-2.22 1.792-4 4-4z" opacity=".7"/><path d="M166 48c2.206 0 4 1.78 4 4 0 2.2-1.794 4-4 4-2.208 0-4-1.8-4-4 0-2.22 1.792-4 4-4zM86 188c2.208 0 4 1.78 4 4 0 2.2-1.792 4-4 4s-4-1.8-4-4c0-2.22 1.792-4 4-4zM6 48c2.208 0 4 1.78 4 4 0 2.2-1.792 4-4 4s-4-1.8-4-4c0-2.22 1.792-4 4-4zM86 2c2.208 0 4 1.78 4 4 0 2.2-1.792 4-4 4s-4-1.8-4-4c0-2.22 1.792-4 4-4z" opacity=".6"/><path d="M6 142c2.208 0 4 1.78 4 4 0 2.2-1.792 4-4 4s-4-1.8-4-4c0-2.22 1.792-4 4-4z" opacity=".7"/></g><path d="M86 95c2.208 0 4 1.78 4 4 0 2.2-1.792 4-4 4s-4-1.8-4-4c0-2.22 1.792-4 4-4z" fill="#D0E65F"/></g><g transform="translate(401 420)"><g transform="translate(6 6)" opacity=".4" stroke="#594ECC"><path d="M80 93V0m0 93L0 46m80 47L0 140m80-47v93m0-93l80 47M80 93l80-47"/></g><g transform="translate(5 6)" opacity=".1" stroke="#594ECC"><path d="M1 46H161V140H1z"/><path transform="rotate(120 81 93)" d="M1 46H161V140H1z"/><path transform="rotate(-120 81 93)" d="M1 46H161V140H1z"/></g><path stroke="#594ECC" stroke-width="2" d="M6 52L86 6 166 52 166 146 86 192 6 146z"/><g fill="#594ECC"><path d="M166 142c2.206 0 4 1.78 4 4 0 2.2-1.794 4-4 4-2.208 0-4-1.8-4-4 0-2.22 1.792-4 4-4z" opacity=".7"/><path d="M166 48c2.206 0 4 1.78 4 4 0 2.2-1.794 4-4 4-2.208 0-4-1.8-4-4 0-2.22 1.792-4 4-4zM86 188c2.208 0 4 1.78 4 4 0 2.2-1.792 4-4 4s-4-1.8-4-4c0-2.22 1.792-4 4-4zM6 48c2.208 0 4 1.78 4 4 0 2.2-1.792 4-4 4s-4-1.8-4-4c0-2.22 1.792-4 4-4zM86 2c2.208 0 4 1.78 4 4 0 2.2-1.792 4-4 4s-4-1.8-4-4c0-2.22 1.792-4 4-4z" opacity=".6"/><path d="M6 142c2.208 0 4 1.78 4 4 0 2.2-1.792 4-4 4s-4-1.8-4-4c0-2.22 1.792-4 4-4z" opacity=".7"/></g><path d="M86 95c2.208 0 4 1.78 4 4 0 2.2-1.792 4-4 4s-4-1.8-4-4c0-2.22 1.792-4 4-4z" fill="#D0E65F"/></g><g transform="translate(241 140)"><g transform="translate(6 6)" opacity=".4" stroke="#594ECC"><path d="M80 93V0m0 93L0 46m80 47L0 140m80-47v93m0-93l80 47M80 93l80-47"/></g><g transform="translate(5 6)" opacity=".1" stroke="#594ECC"><path d="M1 46H161V140H1z"/><path transform="rotate(120 81 93)" d="M1 46H161V140H1z"/><path transform="rotate(-120 81 93)" d="M1 46H161V140H1z"/></g><path stroke="#594ECC" stroke-width="2" d="M6 52L86 6 166 52 166 146 86 192 6 146z"/><g fill="#594ECC"><path d="M166 142c2.206 0 4 1.78 4 4 0 2.2-1.794 4-4 4-2.208 0-4-1.8-4-4 0-2.22 1.792-4 4-4z" opacity=".7"/><path d="M166 48c2.206 0 4 1.78 4 4 0 2.2-1.794 4-4 4-2.208 0-4-1.8-4-4 0-2.22 1.792-4 4-4zM86 188c2.208 0 4 1.78 4 4 0 2.2-1.792 4-4 4s-4-1.8-4-4c0-2.22 1.792-4 4-4zM6 48c2.208 0 4 1.78 4 4 0 2.2-1.792 4-4 4s-4-1.8-4-4c0-2.22 1.792-4 4-4zM86 2c2.208 0 4 1.78 4 4 0 2.2-1.792 4-4 4s-4-1.8-4-4c0-2.22 1.792-4 4-4z" opacity=".6"/><path d="M6 142c2.208 0 4 1.78 4 4 0 2.2-1.792 4-4 4s-4-1.8-4-4c0-2.22 1.792-4 4-4z" opacity=".7"/></g><path d="M86 95c2.208 0 4 1.78 4 4 0 2.2-1.792 4-4 4s-4-1.8-4-4c0-2.22 1.792-4 4-4z" fill="#D0E65F"/></g><g transform="translate(401 140)"><g transform="translate(6 6)" opacity=".4" stroke="#594ECC"><path d="M80 93V0m0 93L0 46m80 47L0 140m80-47v93m0-93l80 47M80 93l80-47"/></g><g transform="translate(5 6)" opacity=".1" stroke="#594ECC"><path d="M1 46H161V140H1z"/><path transform="rotate(120 81 93)" d="M1 46H161V140H1z"/><path transform="rotate(-120 81 93)" d="M1 46H161V140H1z"/></g><path stroke="#594ECC" stroke-width="2" d="M6 52L86 6 166 52 166 146 86 192 6 146z"/><g fill="#594ECC"><path d="M166 142c2.206 0 4 1.78 4 4 0 2.2-1.794 4-4 4-2.208 0-4-1.8-4-4 0-2.22 1.792-4 4-4z" opacity=".7"/><path d="M166 48c2.206 0 4 1.78 4 4 0 2.2-1.794 4-4 4-2.208 0-4-1.8-4-4 0-2.22 1.792-4 4-4zM86 188c2.208 0 4 1.78 4 4 0 2.2-1.792 4-4 4s-4-1.8-4-4c0-2.22 1.792-4 4-4zM6 48c2.208 0 4 1.78 4 4 0 2.2-1.792 4-4 4s-4-1.8-4-4c0-2.22 1.792-4 4-4zM86 2c2.208 0 4 1.78 4 4 0 2.2-1.792 4-4 4s-4-1.8-4-4c0-2.22 1.792-4 4-4z" opacity=".6"/><path d="M6 142c2.208 0 4 1.78 4 4 0 2.2-1.792 4-4 4s-4-1.8-4-4c0-2.22 1.792-4 4-4z" opacity=".7"/></g><path d="M86 95c2.208 0 4 1.78 4 4 0 2.2-1.792 4-4 4s-4-1.8-4-4c0-2.22 1.792-4 4-4z" fill="#D0E65F"/></g><g transform="translate(561 140)"><g transform="translate(6 6)" opacity=".4" stroke="#594ECC"><path d="M80 93V0m0 93L0 46m80 47L0 140m80-47v93m0-93l80 47M80 93l80-47"/></g><g transform="translate(5 6)" opacity=".1" stroke="#594ECC"><path d="M1 46H161V140H1z"/><path transform="rotate(120 81 93)" d="M1 46H161V140H1z"/><path transform="rotate(-120 81 93)" d="M1 46H161V140H1z"/></g><path stroke="#594ECC" stroke-width="2" d="M6 52L86 6 166 52 166 146 86 192 6 146z"/><g fill="#594ECC"><path d="M166 142c2.206 0 4 1.78 4 4 0 2.2-1.794 4-4 4-2.208 0-4-1.8-4-4 0-2.22 1.792-4 4-4z" opacity=".7"/><path d="M166 48c2.206 0 4 1.78 4 4 0 2.2-1.794 4-4 4-2.208 0-4-1.8-4-4 0-2.22 1.792-4 4-4zM86 188c2.208 0 4 1.78 4 4 0 2.2-1.792 4-4 4s-4-1.8-4-4c0-2.22 1.792-4 4-4zM6 48c2.208 0 4 1.78 4 4 0 2.2-1.792 4-4 4s-4-1.8-4-4c0-2.22 1.792-4 4-4zM86 2c2.208 0 4 1.78 4 4 0 2.2-1.792 4-4 4s-4-1.8-4-4c0-2.22 1.792-4 4-4z" opacity=".6"/><path d="M6 142c2.208 0 4 1.78 4 4 0 2.2-1.792 4-4 4s-4-1.8-4-4c0-2.22 1.792-4 4-4z" opacity=".7"/></g><path d="M86 95c2.208 0 4 1.78 4 4 0 2.2-1.792 4-4 4s-4-1.8-4-4c0-2.22 1.792-4 4-4z" fill="#D0E65F"/></g><g transform="translate(321 280)"><g transform="translate(6 6)" opacity=".4" stroke="#594ECC"><path d="M80 93V0m0 93L0 46m80 47L0 140m80-47v93m0-93l80 47M80 93l80-47"/></g><g transform="translate(5 6)" opacity=".1" stroke="#594ECC"><path d="M1 46H161V140H1z"/><path transform="rotate(120 81 93)" d="M1 46H161V140H1z"/><path transform="rotate(-120 81 93)" d="M1 46H161V140H1z"/></g><path stroke="#594ECC" stroke-width="2" d="M6 52L86 6 166 52 166 146 86 192 6 146z"/><g fill="#594ECC"><path d="M166 142c2.206 0 4 1.78 4 4 0 2.2-1.794 4-4 4-2.208 0-4-1.8-4-4 0-2.22 1.792-4 4-4z" opacity=".7"/><path d="M166 48c2.206 0 4 1.78 4 4 0 2.2-1.794 4-4 4-2.208 0-4-1.8-4-4 0-2.22 1.792-4 4-4zM86 188c2.208 0 4 1.78 4 4 0 2.2-1.792 4-4 4s-4-1.8-4-4c0-2.22 1.792-4 4-4zM6 48c2.208 0 4 1.78 4 4 0 2.2-1.792 4-4 4s-4-1.8-4-4c0-2.22 1.792-4 4-4zM86 2c2.208 0 4 1.78 4 4 0 2.2-1.792 4-4 4s-4-1.8-4-4c0-2.22 1.792-4 4-4z" opacity=".6"/><path d="M6 142c2.208 0 4 1.78 4 4 0 2.2-1.792 4-4 4s-4-1.8-4-4c0-2.22 1.792-4 4-4z" opacity=".7"/></g><path d="M86 95c2.208 0 4 1.78 4 4 0 2.2-1.792 4-4 4s-4-1.8-4-4c0-2.22 1.792-4 4-4z" fill="#D0E65F"/></g><g transform="translate(481 280)"><g transform="translate(6 6)" opacity=".4" stroke="#594ECC"><path d="M80 93V0m0 93L0 46m80 47L0 140m80-47v93m0-93l80 47M80 93l80-47"/></g><g transform="translate(5 6)" opacity=".1" stroke="#594ECC"><path d="M1 46H161V140H1z"/><path transform="rotate(120 81 93)" d="M1 46H161V140H1z"/><path transform="rotate(-120 81 93)" d="M1 46H161V140H1z"/></g><path stroke="#594ECC" stroke-width="2" d="M6 52L86 6 166 52 166 146 86 192 6 146z"/><g fill="#594ECC"><path d="M166 142c2.206 0 4 1.78 4 4 0 2.2-1.794 4-4 4-2.208 0-4-1.8-4-4 0-2.22 1.792-4 4-4z" opacity=".7"/><path d="M166 48c2.206 0 4 1.78 4 4 0 2.2-1.794 4-4 4-2.208 0-4-1.8-4-4 0-2.22 1.792-4 4-4zM86 188c2.208 0 4 1.78 4 4 0 2.2-1.792 4-4 4s-4-1.8-4-4c0-2.22 1.792-4 4-4zM6 48c2.208 0 4 1.78 4 4 0 2.2-1.792 4-4 4s-4-1.8-4-4c0-2.22 1.792-4 4-4zM86 2c2.208 0 4 1.78 4 4 0 2.2-1.792 4-4 4s-4-1.8-4-4c0-2.22 1.792-4 4-4z" opacity=".6"/><path d="M6 142c2.208 0 4 1.78 4 4 0 2.2-1.792 4-4 4s-4-1.8-4-4c0-2.22 1.792-4 4-4z" opacity=".7"/></g><path d="M86 95c2.208 0 4 1.78 4 4 0 2.2-1.792 4-4 4s-4-1.8-4-4c0-2.22 1.792-4 4-4z" fill="#D0E65F"/></g><g transform="translate(641 280)"><g transform="translate(6 6)" opacity=".4" stroke="#594ECC"><path d="M80 93V0m0 93L0 46m80 47L0 140m80-47v93m0-93l80 47M80 93l80-47"/></g><g transform="translate(5 6)" opacity=".1" stroke="#594ECC"><path d="M1 46H161V140H1z"/><path transform="rotate(120 81 93)" d="M1 46H161V140H1z"/><path transform="rotate(-120 81 93)" d="M1 46H161V140H1z"/></g><path stroke="#594ECC" stroke-width="2" d="M6 52L86 6 166 52 166 146 86 192 6 146z"/><g fill="#594ECC"><path d="M166 142c2.206 0 4 1.78 4 4 0 2.2-1.794 4-4 4-2.208 0-4-1.8-4-4 0-2.22 1.792-4 4-4z" opacity=".7"/><path d="M166 48c2.206 0 4 1.78 4 4 0 2.2-1.794 4-4 4-2.208 0-4-1.8-4-4 0-2.22 1.792-4 4-4zM86 188c2.208 0 4 1.78 4 4 0 2.2-1.792 4-4 4s-4-1.8-4-4c0-2.22 1.792-4 4-4zM6 48c2.208 0 4 1.78 4 4 0 2.2-1.792 4-4 4s-4-1.8-4-4c0-2.22 1.792-4 4-4zM86 2c2.208 0 4 1.78 4 4 0 2.2-1.792 4-4 4s-4-1.8-4-4c0-2.22 1.792-4 4-4z" opacity=".6"/><path d="M6 142c2.208 0 4 1.78 4 4 0 2.2-1.792 4-4 4s-4-1.8-4-4c0-2.22 1.792-4 4-4z" opacity=".7"/></g><path d="M86 95c2.208 0 4 1.78 4 4 0 2.2-1.792 4-4 4s-4-1.8-4-4c0-2.22 1.792-4 4-4z" fill="#D0E65F"/></g><g transform="translate(322)"><g transform="translate(6 6)" opacity=".4" stroke="#594ECC"><path d="M80 93V0m0 93L0 46m80 47L0 140m80-47v93m0-93l80 47M80 93l80-47"/></g><g transform="translate(5 6)" opacity=".1" stroke="#594ECC"><path d="M1 46H161V140H1z"/><path transform="rotate(120 81 93)" d="M1 46H161V140H1z"/><path transform="rotate(-120 81 93)" d="M1 46H161V140H1z"/></g><path stroke="#594ECC" stroke-width="2" d="M6 52L86 6 166 52 166 146 86 192 6 146z"/><g fill="#594ECC"><path d="M166 142c2.206 0 4 1.78 4 4 0 2.2-1.794 4-4 4-2.208 0-4-1.8-4-4 0-2.22 1.792-4 4-4z" opacity=".7"/><path d="M166 48c2.206 0 4 1.78 4 4 0 2.2-1.794 4-4 4-2.208 0-4-1.8-4-4 0-2.22 1.792-4 4-4zM86 188c2.208 0 4 1.78 4 4 0 2.2-1.792 4-4 4s-4-1.8-4-4c0-2.22 1.792-4 4-4zM6 48c2.208 0 4 1.78 4 4 0 2.2-1.792 4-4 4s-4-1.8-4-4c0-2.22 1.792-4 4-4zM86 2c2.208 0 4 1.78 4 4 0 2.2-1.792 4-4 4s-4-1.8-4-4c0-2.22 1.792-4 4-4z" opacity=".6"/><path d="M6 142c2.208 0 4 1.78 4 4 0 2.2-1.792 4-4 4s-4-1.8-4-4c0-2.22 1.792-4 4-4z" opacity=".7"/></g><path d="M86 95c2.208 0 4 1.78 4 4 0 2.2-1.792 4-4 4s-4-1.8-4-4c0-2.22 1.792-4 4-4z" fill="#D0E65F"/></g><g transform="translate(482)"><g transform="translate(6 6)" opacity=".4" stroke="#594ECC"><path d="M80 93V0m0 93L0 46m80 47L0 140m80-47v93m0-93l80 47M80 93l80-47"/></g><g transform="translate(5 6)" opacity=".1" stroke="#594ECC"><path d="M1 46H161V140H1z"/><path transform="rotate(120 81 93)" d="M1 46H161V140H1z"/><path transform="rotate(-120 81 93)" d="M1 46H161V140H1z"/></g><path stroke="#594ECC" stroke-width="2" d="M6 52L86 6 166 52 166 146 86 192 6 146z"/><g fill="#594ECC"><path d="M166 142c2.206 0 4 1.78 4 4 0 2.2-1.794 4-4 4-2.208 0-4-1.8-4-4 0-2.22 1.792-4 4-4z" opacity=".7"/><path d="M166 48c2.206 0 4 1.78 4 4 0 2.2-1.794 4-4 4-2.208 0-4-1.8-4-4 0-2.22 1.792-4 4-4zM86 188c2.208 0 4 1.78 4 4 0 2.2-1.792 4-4 4s-4-1.8-4-4c0-2.22 1.792-4 4-4zM6 48c2.208 0 4 1.78 4 4 0 2.2-1.792 4-4 4s-4-1.8-4-4c0-2.22 1.792-4 4-4zM86 2c2.208 0 4 1.78 4 4 0 2.2-1.792 4-4 4s-4-1.8-4-4c0-2.22 1.792-4 4-4z" opacity=".6"/><path d="M6 142c2.208 0 4 1.78 4 4 0 2.2-1.792 4-4 4s-4-1.8-4-4c0-2.22 1.792-4 4-4z" opacity=".7"/></g><path d="M86 95c2.208 0 4 1.78 4 4 0 2.2-1.792 4-4 4s-4-1.8-4-4c0-2.22 1.792-4 4-4z" fill="#D0E65F"/></g><g transform="translate(642)"><g transform="translate(6 6)" opacity=".4" stroke="#594ECC"><path d="M80 93V0m0 93L0 46m80 47L0 140m80-47v93m0-93l80 47M80 93l80-47"/></g><g transform="translate(5 6)" opacity=".1" stroke="#594ECC"><path d="M1 46H161V140H1z"/><path transform="rotate(120 81 93)" d="M1 46H161V140H1z"/><path transform="rotate(-120 81 93)" d="M1 46H161V140H1z"/></g><path stroke="#594ECC" stroke-width="2" d="M6 52L86 6 166 52 166 146 86 192 6 146z"/><g fill="#594ECC"><path d="M166 142c2.206 0 4 1.78 4 4 0 2.2-1.794 4-4 4-2.208 0-4-1.8-4-4 0-2.22 1.792-4 4-4z" opacity=".7"/><path d="M166 48c2.206 0 4 1.78 4 4 0 2.2-1.794 4-4 4-2.208 0-4-1.8-4-4 0-2.22 1.792-4 4-4zM86 188c2.208 0 4 1.78 4 4 0 2.2-1.792 4-4 4s-4-1.8-4-4c0-2.22 1.792-4 4-4zM6 48c2.208 0 4 1.78 4 4 0 2.2-1.792 4-4 4s-4-1.8-4-4c0-2.22 1.792-4 4-4zM86 2c2.208 0 4 1.78 4 4 0 2.2-1.792 4-4 4s-4-1.8-4-4c0-2.22 1.792-4 4-4z" opacity=".6"/><path d="M6 142c2.208 0 4 1.78 4 4 0 2.2-1.792 4-4 4s-4-1.8-4-4c0-2.22 1.792-4 4-4z" opacity=".7"/></g><path d="M86 95c2.208 0 4 1.78 4 4 0 2.2-1.792 4-4 4s-4-1.8-4-4c0-2.22 1.792-4 4-4z" fill="#D0E65F"/></g><g transform="translate(240 980)"><g transform="translate(6 6)" opacity=".4" stroke="#594ECC"><path d="M80 93V0m0 93L0 46m80 47L0 140m80-47v93m0-93l80 47M80 93l80-47"/></g><g transform="translate(5 6)" opacity=".1" stroke="#594ECC"><path d="M1 46H161V140H1z"/><path transform="rotate(120 81 93)" d="M1 46H161V140H1z"/><path transform="rotate(-120 81 93)" d="M1 46H161V140H1z"/></g><path stroke="#594ECC" stroke-width="2" d="M6 52L86 6 166 52 166 146 86 192 6 146z"/><g fill="#594ECC"><path d="M166 142c2.206 0 4 1.78 4 4 0 2.2-1.794 4-4 4-2.208 0-4-1.8-4-4 0-2.22 1.792-4 4-4z" opacity=".7"/><path d="M166 48c2.206 0 4 1.78 4 4 0 2.2-1.794 4-4 4-2.208 0-4-1.8-4-4 0-2.22 1.792-4 4-4zM86 188c2.208 0 4 1.78 4 4 0 2.2-1.792 4-4 4s-4-1.8-4-4c0-2.22 1.792-4 4-4zM6 48c2.208 0 4 1.78 4 4 0 2.2-1.792 4-4 4s-4-1.8-4-4c0-2.22 1.792-4 4-4zM86 2c2.208 0 4 1.78 4 4 0 2.2-1.792 4-4 4s-4-1.8-4-4c0-2.22 1.792-4 4-4z" opacity=".6"/><path d="M6 142c2.208 0 4 1.78 4 4 0 2.2-1.792 4-4 4s-4-1.8-4-4c0-2.22 1.792-4 4-4z" opacity=".7"/></g><path d="M86 95c2.208 0 4 1.78 4 4 0 2.2-1.792 4-4 4s-4-1.8-4-4c0-2.22 1.792-4 4-4z" fill="#D0E65F"/></g><g transform="translate(400 980)"><g transform="translate(6 6)" opacity=".4" stroke="#594ECC"><path d="M80 93V0m0 93L0 46m80 47L0 140m80-47v93m0-93l80 47M80 93l80-47"/></g><g transform="translate(5 6)" opacity=".1" stroke="#594ECC"><path d="M1 46H161V140H1z"/><path transform="rotate(120 81 93)" d="M1 46H161V140H1z"/><path transform="rotate(-120 81 93)" d="M1 46H161V140H1z"/></g><path stroke="#594ECC" stroke-width="2" d="M6 52L86 6 166 52 166 146 86 192 6 146z"/><g fill="#594ECC"><path d="M166 142c2.206 0 4 1.78 4 4 0 2.2-1.794 4-4 4-2.208 0-4-1.8-4-4 0-2.22 1.792-4 4-4z" opacity=".7"/><path d="M166 48c2.206 0 4 1.78 4 4 0 2.2-1.794 4-4 4-2.208 0-4-1.8-4-4 0-2.22 1.792-4 4-4zM86 188c2.208 0 4 1.78 4 4 0 2.2-1.792 4-4 4s-4-1.8-4-4c0-2.22 1.792-4 4-4zM6 48c2.208 0 4 1.78 4 4 0 2.2-1.792 4-4 4s-4-1.8-4-4c0-2.22 1.792-4 4-4zM86 2c2.208 0 4 1.78 4 4 0 2.2-1.792 4-4 4s-4-1.8-4-4c0-2.22 1.792-4 4-4z" opacity=".6"/><path d="M6 142c2.208 0 4 1.78 4 4 0 2.2-1.792 4-4 4s-4-1.8-4-4c0-2.22 1.792-4 4-4z" opacity=".7"/></g><path d="M86 95c2.208 0 4 1.78 4 4 0 2.2-1.792 4-4 4s-4-1.8-4-4c0-2.22 1.792-4 4-4z" fill="#D0E65F"/></g><g transform="translate(560 980)"><g transform="translate(6 6)" opacity=".4" stroke="#594ECC"><path d="M80 93V0m0 93L0 46m80 47L0 140m80-47v93m0-93l80 47M80 93l80-47"/></g><g transform="translate(5 6)" opacity=".1" stroke="#594ECC"><path d="M1 46H161V140H1z"/><path transform="rotate(120 81 93)" d="M1 46H161V140H1z"/><path transform="rotate(-120 81 93)" d="M1 46H161V140H1z"/></g><path stroke="#594ECC" stroke-width="2" d="M6 52L86 6 166 52 166 146 86 192 6 146z"/><g fill="#594ECC"><path d="M166 142c2.206 0 4 1.78 4 4 0 2.2-1.794 4-4 4-2.208 0-4-1.8-4-4 0-2.22 1.792-4 4-4z" opacity=".7"/><path d="M166 48c2.206 0 4 1.78 4 4 0 2.2-1.794 4-4 4-2.208 0-4-1.8-4-4 0-2.22 1.792-4 4-4zM86 188c2.208 0 4 1.78 4 4 0 2.2-1.792 4-4 4s-4-1.8-4-4c0-2.22 1.792-4 4-4zM6 48c2.208 0 4 1.78 4 4 0 2.2-1.792 4-4 4s-4-1.8-4-4c0-2.22 1.792-4 4-4zM86 2c2.208 0 4 1.78 4 4 0 2.2-1.792 4-4 4s-4-1.8-4-4c0-2.22 1.792-4 4-4z" opacity=".6"/><path d="M6 142c2.208 0 4 1.78 4 4 0 2.2-1.792 4-4 4s-4-1.8-4-4c0-2.22 1.792-4 4-4z" opacity=".7"/></g><path d="M86 95c2.208 0 4 1.78 4 4 0 2.2-1.792 4-4 4s-4-1.8-4-4c0-2.22 1.792-4 4-4z" fill="#D0E65F"/></g><g transform="translate(320 1120)"><g transform="translate(6 6)" opacity=".4" stroke="#594ECC"><path d="M80 93V0m0 93L0 46m80 47L0 140m80-47v93m0-93l80 47M80 93l80-47"/></g><g transform="translate(5 6)" opacity=".1" stroke="#594ECC"><path d="M1 46H161V140H1z"/><path transform="rotate(120 81 93)" d="M1 46H161V140H1z"/><path transform="rotate(-120 81 93)" d="M1 46H161V140H1z"/></g><path stroke="#594ECC" stroke-width="2" d="M6 52L86 6 166 52 166 146 86 192 6 146z"/><g fill="#594ECC"><path d="M166 142c2.206 0 4 1.78 4 4 0 2.2-1.794 4-4 4-2.208 0-4-1.8-4-4 0-2.22 1.792-4 4-4z" opacity=".7"/><path d="M166 48c2.206 0 4 1.78 4 4 0 2.2-1.794 4-4 4-2.208 0-4-1.8-4-4 0-2.22 1.792-4 4-4zM86 188c2.208 0 4 1.78 4 4 0 2.2-1.792 4-4 4s-4-1.8-4-4c0-2.22 1.792-4 4-4zM6 48c2.208 0 4 1.78 4 4 0 2.2-1.792 4-4 4s-4-1.8-4-4c0-2.22 1.792-4 4-4zM86 2c2.208 0 4 1.78 4 4 0 2.2-1.792 4-4 4s-4-1.8-4-4c0-2.22 1.792-4 4-4z" opacity=".6"/><path d="M6 142c2.208 0 4 1.78 4 4 0 2.2-1.792 4-4 4s-4-1.8-4-4c0-2.22 1.792-4 4-4z" opacity=".7"/></g><path d="M86 95c2.208 0 4 1.78 4 4 0 2.2-1.792 4-4 4s-4-1.8-4-4c0-2.22 1.792-4 4-4z" fill="#D0E65F"/></g><g transform="translate(480 1120)"><g transform="translate(6 6)" opacity=".4" stroke="#594ECC"><path d="M80 93V0m0 93L0 46m80 47L0 140m80-47v93m0-93l80 47M80 93l80-47"/></g><g transform="translate(5 6)" opacity=".1" stroke="#594ECC"><path d="M1 46H161V140H1z"/><path transform="rotate(120 81 93)" d="M1 46H161V140H1z"/><path transform="rotate(-120 81 93)" d="M1 46H161V140H1z"/></g><path stroke="#594ECC" stroke-width="2" d="M6 52L86 6 166 52 166 146 86 192 6 146z"/><g fill="#594ECC"><path d="M166 142c2.206 0 4 1.78 4 4 0 2.2-1.794 4-4 4-2.208 0-4-1.8-4-4 0-2.22 1.792-4 4-4z" opacity=".7"/><path d="M166 48c2.206 0 4 1.78 4 4 0 2.2-1.794 4-4 4-2.208 0-4-1.8-4-4 0-2.22 1.792-4 4-4zM86 188c2.208 0 4 1.78 4 4 0 2.2-1.792 4-4 4s-4-1.8-4-4c0-2.22 1.792-4 4-4zM6 48c2.208 0 4 1.78 4 4 0 2.2-1.792 4-4 4s-4-1.8-4-4c0-2.22 1.792-4 4-4zM86 2c2.208 0 4 1.78 4 4 0 2.2-1.792 4-4 4s-4-1.8-4-4c0-2.22 1.792-4 4-4z" opacity=".6"/><path d="M6 142c2.208 0 4 1.78 4 4 0 2.2-1.792 4-4 4s-4-1.8-4-4c0-2.22 1.792-4 4-4z" opacity=".7"/></g><path d="M86 95c2.208 0 4 1.78 4 4 0 2.2-1.792 4-4 4s-4-1.8-4-4c0-2.22 1.792-4 4-4z" fill="#D0E65F"/></g><g transform="translate(640 1120)"><g transform="translate(6 6)" opacity=".4" stroke="#594ECC"><path d="M80 93V0m0 93L0 46m80 47L0 140m80-47v93m0-93l80 47M80 93l80-47"/></g><g transform="translate(5 6)" opacity=".1" stroke="#594ECC"><path d="M1 46H161V140H1z"/><path transform="rotate(120 81 93)" d="M1 46H161V140H1z"/><path transform="rotate(-120 81 93)" d="M1 46H161V140H1z"/></g><path stroke="#594ECC" stroke-width="2" d="M6 52L86 6 166 52 166 146 86 192 6 146z"/><g fill="#594ECC"><path d="M166 142c2.206 0 4 1.78 4 4 0 2.2-1.794 4-4 4-2.208 0-4-1.8-4-4 0-2.22 1.792-4 4-4z" opacity=".7"/><path d="M166 48c2.206 0 4 1.78 4 4 0 2.2-1.794 4-4 4-2.208 0-4-1.8-4-4 0-2.22 1.792-4 4-4zM86 188c2.208 0 4 1.78 4 4 0 2.2-1.792 4-4 4s-4-1.8-4-4c0-2.22 1.792-4 4-4zM6 48c2.208 0 4 1.78 4 4 0 2.2-1.792 4-4 4s-4-1.8-4-4c0-2.22 1.792-4 4-4zM86 2c2.208 0 4 1.78 4 4 0 2.2-1.792 4-4 4s-4-1.8-4-4c0-2.22 1.792-4 4-4z" opacity=".6"/><path d="M6 142c2.208 0 4 1.78 4 4 0 2.2-1.792 4-4 4s-4-1.8-4-4c0-2.22 1.792-4 4-4z" opacity=".7"/></g><path d="M86 95c2.208 0 4 1.78 4 4 0 2.2-1.792 4-4 4s-4-1.8-4-4c0-2.22 1.792-4 4-4z" fill="#D0E65F"/></g><g transform="translate(321 840)"><g transform="translate(6 6)" opacity=".4" stroke="#594ECC"><path d="M80 93V0m0 93L0 46m80 47L0 140m80-47v93m0-93l80 47M80 93l80-47"/></g><g transform="translate(5 6)" opacity=".1" stroke="#594ECC"><path d="M1 46H161V140H1z"/><path transform="rotate(120 81 93)" d="M1 46H161V140H1z"/><path transform="rotate(-120 81 93)" d="M1 46H161V140H1z"/></g><path stroke="#594ECC" stroke-width="2" d="M6 52L86 6 166 52 166 146 86 192 6 146z"/><g fill="#594ECC"><path d="M166 142c2.206 0 4 1.78 4 4 0 2.2-1.794 4-4 4-2.208 0-4-1.8-4-4 0-2.22 1.792-4 4-4z" opacity=".7"/><path d="M166 48c2.206 0 4 1.78 4 4 0 2.2-1.794 4-4 4-2.208 0-4-1.8-4-4 0-2.22 1.792-4 4-4zM86 188c2.208 0 4 1.78 4 4 0 2.2-1.792 4-4 4s-4-1.8-4-4c0-2.22 1.792-4 4-4zM6 48c2.208 0 4 1.78 4 4 0 2.2-1.792 4-4 4s-4-1.8-4-4c0-2.22 1.792-4 4-4zM86 2c2.208 0 4 1.78 4 4 0 2.2-1.792 4-4 4s-4-1.8-4-4c0-2.22 1.792-4 4-4z" opacity=".6"/><path d="M6 142c2.208 0 4 1.78 4 4 0 2.2-1.792 4-4 4s-4-1.8-4-4c0-2.22 1.792-4 4-4z" opacity=".7"/></g><path d="M86 95c2.208 0 4 1.78 4 4 0 2.2-1.792 4-4 4s-4-1.8-4-4c0-2.22 1.792-4 4-4z" fill="#D0E65F"/></g><g transform="translate(481 840)"><g transform="translate(6 6)" opacity=".4" stroke="#594ECC"><path d="M80 93V0m0 93L0 46m80 47L0 140m80-47v93m0-93l80 47M80 93l80-47"/></g><g transform="translate(5 6)" opacity=".1" stroke="#594ECC"><path d="M1 46H161V140H1z"/><path transform="rotate(120 81 93)" d="M1 46H161V140H1z"/><path transform="rotate(-120 81 93)" d="M1 46H161V140H1z"/></g><path stroke="#594ECC" stroke-width="2" d="M6 52L86 6 166 52 166 146 86 192 6 146z"/><g fill="#594ECC"><path d="M166 142c2.206 0 4 1.78 4 4 0 2.2-1.794 4-4 4-2.208 0-4-1.8-4-4 0-2.22 1.792-4 4-4z" opacity=".7"/><path d="M166 48c2.206 0 4 1.78 4 4 0 2.2-1.794 4-4 4-2.208 0-4-1.8-4-4 0-2.22 1.792-4 4-4zM86 188c2.208 0 4 1.78 4 4 0 2.2-1.792 4-4 4s-4-1.8-4-4c0-2.22 1.792-4 4-4zM6 48c2.208 0 4 1.78 4 4 0 2.2-1.792 4-4 4s-4-1.8-4-4c0-2.22 1.792-4 4-4zM86 2c2.208 0 4 1.78 4 4 0 2.2-1.792 4-4 4s-4-1.8-4-4c0-2.22 1.792-4 4-4z" opacity=".6"/><path d="M6 142c2.208 0 4 1.78 4 4 0 2.2-1.792 4-4 4s-4-1.8-4-4c0-2.22 1.792-4 4-4z" opacity=".7"/></g><path d="M86 95c2.208 0 4 1.78 4 4 0 2.2-1.792 4-4 4s-4-1.8-4-4c0-2.22 1.792-4 4-4z" fill="#D0E65F"/></g><g transform="translate(641 840)"><g transform="translate(6 6)" opacity=".4" stroke="#594ECC"><path d="M80 93V0m0 93L0 46m80 47L0 140m80-47v93m0-93l80 47M80 93l80-47"/></g><g transform="translate(5 6)" opacity=".1" stroke="#594ECC"><path d="M1 46H161V140H1z"/><path transform="rotate(120 81 93)" d="M1 46H161V140H1z"/><path transform="rotate(-120 81 93)" d="M1 46H161V140H1z"/></g><path stroke="#594ECC" stroke-width="2" d="M6 52L86 6 166 52 166 146 86 192 6 146z"/><g fill="#594ECC"><path d="M166 142c2.206 0 4 1.78 4 4 0 2.2-1.794 4-4 4-2.208 0-4-1.8-4-4 0-2.22 1.792-4 4-4z" opacity=".7"/><path d="M166 48c2.206 0 4 1.78 4 4 0 2.2-1.794 4-4 4-2.208 0-4-1.8-4-4 0-2.22 1.792-4 4-4zM86 188c2.208 0 4 1.78 4 4 0 2.2-1.792 4-4 4s-4-1.8-4-4c0-2.22 1.792-4 4-4zM6 48c2.208 0 4 1.78 4 4 0 2.2-1.792 4-4 4s-4-1.8-4-4c0-2.22 1.792-4 4-4zM86 2c2.208 0 4 1.78 4 4 0 2.2-1.792 4-4 4s-4-1.8-4-4c0-2.22 1.792-4 4-4z" opacity=".6"/><path d="M6 142c2.208 0 4 1.78 4 4 0 2.2-1.792 4-4 4s-4-1.8-4-4c0-2.22 1.792-4 4-4z" opacity=".7"/></g><path d="M86 95c2.208 0 4 1.78 4 4 0 2.2-1.792 4-4 4s-4-1.8-4-4c0-2.22 1.792-4 4-4z" fill="#D0E65F"/></g><g transform="translate(720 980)"><g transform="translate(6 6)" opacity=".4" stroke="#594ECC"><path d="M80 93V0m0 93L0 46m80 47L0 140m80-47v93m0-93l80 47M80 93l80-47"/></g><g transform="translate(5 6)" opacity=".1" stroke="#594ECC"><path d="M1 46H161V140H1z"/><path transform="rotate(120 81 93)" d="M1 46H161V140H1z"/><path transform="rotate(-120 81 93)" d="M1 46H161V140H1z"/></g><path stroke="#594ECC" stroke-width="2" d="M6 52L86 6 166 52 166 146 86 192 6 146z"/><g fill="#594ECC"><path d="M166 142c2.206 0 4 1.78 4 4 0 2.2-1.794 4-4 4-2.208 0-4-1.8-4-4 0-2.22 1.792-4 4-4z" opacity=".7"/><path d="M166 48c2.206 0 4 1.78 4 4 0 2.2-1.794 4-4 4-2.208 0-4-1.8-4-4 0-2.22 1.792-4 4-4zM86 188c2.208 0 4 1.78 4 4 0 2.2-1.792 4-4 4s-4-1.8-4-4c0-2.22 1.792-4 4-4zM6 48c2.208 0 4 1.78 4 4 0 2.2-1.792 4-4 4s-4-1.8-4-4c0-2.22 1.792-4 4-4zM86 2c2.208 0 4 1.78 4 4 0 2.2-1.792 4-4 4s-4-1.8-4-4c0-2.22 1.792-4 4-4z" opacity=".6"/><path d="M6 142c2.208 0 4 1.78 4 4 0 2.2-1.792 4-4 4s-4-1.8-4-4c0-2.22 1.792-4 4-4z" opacity=".7"/></g><path d="M86 95c2.208 0 4 1.78 4 4 0 2.2-1.792 4-4 4s-4-1.8-4-4c0-2.22 1.792-4 4-4z" fill="#D0E65F"/></g><g transform="translate(880 980)"><g transform="translate(6 6)" opacity=".4" stroke="#594ECC"><path d="M80 93V0m0 93L0 46m80 47L0 140m80-47v93m0-93l80 47M80 93l80-47"/></g><g transform="translate(5 6)" opacity=".1" stroke="#594ECC"><path d="M1 46H161V140H1z"/><path transform="rotate(120 81 93)" d="M1 46H161V140H1z"/><path transform="rotate(-120 81 93)" d="M1 46H161V140H1z"/></g><path stroke="#594ECC" stroke-width="2" d="M6 52L86 6 166 52 166 146 86 192 6 146z"/><g fill="#594ECC"><path d="M166 142c2.206 0 4 1.78 4 4 0 2.2-1.794 4-4 4-2.208 0-4-1.8-4-4 0-2.22 1.792-4 4-4z" opacity=".7"/><path d="M166 48c2.206 0 4 1.78 4 4 0 2.2-1.794 4-4 4-2.208 0-4-1.8-4-4 0-2.22 1.792-4 4-4zM86 188c2.208 0 4 1.78 4 4 0 2.2-1.792 4-4 4s-4-1.8-4-4c0-2.22 1.792-4 4-4zM6 48c2.208 0 4 1.78 4 4 0 2.2-1.792 4-4 4s-4-1.8-4-4c0-2.22 1.792-4 4-4zM86 2c2.208 0 4 1.78 4 4 0 2.2-1.792 4-4 4s-4-1.8-4-4c0-2.22 1.792-4 4-4z" opacity=".6"/><path d="M6 142c2.208 0 4 1.78 4 4 0 2.2-1.792 4-4 4s-4-1.8-4-4c0-2.22 1.792-4 4-4z" opacity=".7"/></g><path d="M86 95c2.208 0 4 1.78 4 4 0 2.2-1.792 4-4 4s-4-1.8-4-4c0-2.22 1.792-4 4-4z" fill="#D0E65F"/></g><g transform="translate(1040 980)"><g transform="translate(6 6)" opacity=".4" stroke="#594ECC"><path d="M80 93V0m0 93L0 46m80 47L0 140m80-47v93m0-93l80 47M80 93l80-47"/></g><g transform="translate(5 6)" opacity=".1" stroke="#594ECC"><path d="M1 46H161V140H1z"/><path transform="rotate(120 81 93)" d="M1 46H161V140H1z"/><path transform="rotate(-120 81 93)" d="M1 46H161V140H1z"/></g><path stroke="#594ECC" stroke-width="2" d="M6 52L86 6 166 52 166 146 86 192 6 146z"/><g fill="#594ECC"><path d="M166 142c2.206 0 4 1.78 4 4 0 2.2-1.794 4-4 4-2.208 0-4-1.8-4-4 0-2.22 1.792-4 4-4z" opacity=".7"/><path d="M166 48c2.206 0 4 1.78 4 4 0 2.2-1.794 4-4 4-2.208 0-4-1.8-4-4 0-2.22 1.792-4 4-4zM86 188c2.208 0 4 1.78 4 4 0 2.2-1.792 4-4 4s-4-1.8-4-4c0-2.22 1.792-4 4-4zM6 48c2.208 0 4 1.78 4 4 0 2.2-1.792 4-4 4s-4-1.8-4-4c0-2.22 1.792-4 4-4zM86 2c2.208 0 4 1.78 4 4 0 2.2-1.792 4-4 4s-4-1.8-4-4c0-2.22 1.792-4 4-4z" opacity=".6"/><path d="M6 142c2.208 0 4 1.78 4 4 0 2.2-1.792 4-4 4s-4-1.8-4-4c0-2.22 1.792-4 4-4z" opacity=".7"/></g><path d="M86 95c2.208 0 4 1.78 4 4 0 2.2-1.792 4-4 4s-4-1.8-4-4c0-2.22 1.792-4 4-4z" fill="#D0E65F"/></g><g transform="translate(800 1120)"><g transform="translate(6 6)" opacity=".4" stroke="#594ECC"><path d="M80 93V0m0 93L0 46m80 47L0 140m80-47v93m0-93l80 47M80 93l80-47"/></g><g transform="translate(5 6)" opacity=".1" stroke="#594ECC"><path d="M1 46H161V140H1z"/><path transform="rotate(120 81 93)" d="M1 46H161V140H1z"/><path transform="rotate(-120 81 93)" d="M1 46H161V140H1z"/></g><path stroke="#594ECC" stroke-width="2" d="M6 52L86 6 166 52 166 146 86 192 6 146z"/><g fill="#594ECC"><path d="M166 142c2.206 0 4 1.78 4 4 0 2.2-1.794 4-4 4-2.208 0-4-1.8-4-4 0-2.22 1.792-4 4-4z" opacity=".7"/><path d="M166 48c2.206 0 4 1.78 4 4 0 2.2-1.794 4-4 4-2.208 0-4-1.8-4-4 0-2.22 1.792-4 4-4zM86 188c2.208 0 4 1.78 4 4 0 2.2-1.792 4-4 4s-4-1.8-4-4c0-2.22 1.792-4 4-4zM6 48c2.208 0 4 1.78 4 4 0 2.2-1.792 4-4 4s-4-1.8-4-4c0-2.22 1.792-4 4-4zM86 2c2.208 0 4 1.78 4 4 0 2.2-1.792 4-4 4s-4-1.8-4-4c0-2.22 1.792-4 4-4z" opacity=".6"/><path d="M6 142c2.208 0 4 1.78 4 4 0 2.2-1.792 4-4 4s-4-1.8-4-4c0-2.22 1.792-4 4-4z" opacity=".7"/></g><path d="M86 95c2.208 0 4 1.78 4 4 0 2.2-1.792 4-4 4s-4-1.8-4-4c0-2.22 1.792-4 4-4z" fill="#D0E65F"/></g><g transform="translate(960 1120)"><g transform="translate(6 6)" opacity=".4" stroke="#594ECC"><path d="M80 93V0m0 93L0 46m80 47L0 140m80-47v93m0-93l80 47M80 93l80-47"/></g><g transform="translate(5 6)" opacity=".1" stroke="#594ECC"><path d="M1 46H161V140H1z"/><path transform="rotate(120 81 93)" d="M1 46H161V140H1z"/><path transform="rotate(-120 81 93)" d="M1 46H161V140H1z"/></g><path stroke="#594ECC" stroke-width="2" d="M6 52L86 6 166 52 166 146 86 192 6 146z"/><g fill="#594ECC"><path d="M166 142c2.206 0 4 1.78 4 4 0 2.2-1.794 4-4 4-2.208 0-4-1.8-4-4 0-2.22 1.792-4 4-4z" opacity=".7"/><path d="M166 48c2.206 0 4 1.78 4 4 0 2.2-1.794 4-4 4-2.208 0-4-1.8-4-4 0-2.22 1.792-4 4-4zM86 188c2.208 0 4 1.78 4 4 0 2.2-1.792 4-4 4s-4-1.8-4-4c0-2.22 1.792-4 4-4zM6 48c2.208 0 4 1.78 4 4 0 2.2-1.792 4-4 4s-4-1.8-4-4c0-2.22 1.792-4 4-4zM86 2c2.208 0 4 1.78 4 4 0 2.2-1.792 4-4 4s-4-1.8-4-4c0-2.22 1.792-4 4-4z" opacity=".6"/><path d="M6 142c2.208 0 4 1.78 4 4 0 2.2-1.792 4-4 4s-4-1.8-4-4c0-2.22 1.792-4 4-4z" opacity=".7"/></g><path d="M86 95c2.208 0 4 1.78 4 4 0 2.2-1.792 4-4 4s-4-1.8-4-4c0-2.22 1.792-4 4-4z" fill="#D0E65F"/></g><g transform="translate(1120 1120)"><g transform="translate(6 6)" opacity=".4" stroke="#594ECC"><path d="M80 93V0m0 93L0 46m80 47L0 140m80-47v93m0-93l80 47M80 93l80-47"/></g><g transform="translate(5 6)" opacity=".1" stroke="#594ECC"><path d="M1 46H161V140H1z"/><path transform="rotate(120 81 93)" d="M1 46H161V140H1z"/><path transform="rotate(-120 81 93)" d="M1 46H161V140H1z"/></g><path stroke="#594ECC" stroke-width="2" d="M6 52L86 6 166 52 166 146 86 192 6 146z"/><g fill="#594ECC"><path d="M166 142c2.206 0 4 1.78 4 4 0 2.2-1.794 4-4 4-2.208 0-4-1.8-4-4 0-2.22 1.792-4 4-4z" opacity=".7"/><path d="M166 48c2.206 0 4 1.78 4 4 0 2.2-1.794 4-4 4-2.208 0-4-1.8-4-4 0-2.22 1.792-4 4-4zM86 188c2.208 0 4 1.78 4 4 0 2.2-1.792 4-4 4s-4-1.8-4-4c0-2.22 1.792-4 4-4zM6 48c2.208 0 4 1.78 4 4 0 2.2-1.792 4-4 4s-4-1.8-4-4c0-2.22 1.792-4 4-4zM86 2c2.208 0 4 1.78 4 4 0 2.2-1.792 4-4 4s-4-1.8-4-4c0-2.22 1.792-4 4-4z" opacity=".6"/><path d="M6 142c2.208 0 4 1.78 4 4 0 2.2-1.792 4-4 4s-4-1.8-4-4c0-2.22 1.792-4 4-4z" opacity=".7"/></g><path d="M86 95c2.208 0 4 1.78 4 4 0 2.2-1.792 4-4 4s-4-1.8-4-4c0-2.22 1.792-4 4-4z" fill="#D0E65F"/></g><g transform="translate(801 840)"><g transform="translate(6 6)" opacity=".4" stroke="#594ECC"><path d="M80 93V0m0 93L0 46m80 47L0 140m80-47v93m0-93l80 47M80 93l80-47"/></g><g transform="translate(5 6)" opacity=".1" stroke="#594ECC"><path d="M1 46H161V140H1z"/><path transform="rotate(120 81 93)" d="M1 46H161V140H1z"/><path transform="rotate(-120 81 93)" d="M1 46H161V140H1z"/></g><path stroke="#594ECC" stroke-width="2" d="M6 52L86 6 166 52 166 146 86 192 6 146z"/><g fill="#594ECC"><path d="M166 142c2.206 0 4 1.78 4 4 0 2.2-1.794 4-4 4-2.208 0-4-1.8-4-4 0-2.22 1.792-4 4-4z" opacity=".7"/><path d="M166 48c2.206 0 4 1.78 4 4 0 2.2-1.794 4-4 4-2.208 0-4-1.8-4-4 0-2.22 1.792-4 4-4zM86 188c2.208 0 4 1.78 4 4 0 2.2-1.792 4-4 4s-4-1.8-4-4c0-2.22 1.792-4 4-4zM6 48c2.208 0 4 1.78 4 4 0 2.2-1.792 4-4 4s-4-1.8-4-4c0-2.22 1.792-4 4-4zM86 2c2.208 0 4 1.78 4 4 0 2.2-1.792 4-4 4s-4-1.8-4-4c0-2.22 1.792-4 4-4z" opacity=".6"/><path d="M6 142c2.208 0 4 1.78 4 4 0 2.2-1.792 4-4 4s-4-1.8-4-4c0-2.22 1.792-4 4-4z" opacity=".7"/></g><path d="M86 95c2.208 0 4 1.78 4 4 0 2.2-1.792 4-4 4s-4-1.8-4-4c0-2.22 1.792-4 4-4z" fill="#D0E65F"/></g><g transform="translate(961 840)"><g transform="translate(6 6)" opacity=".4" stroke="#594ECC"><path d="M80 93V0m0 93L0 46m80 47L0 140m80-47v93m0-93l80 47M80 93l80-47"/></g><g transform="translate(5 6)" opacity=".1" stroke="#594ECC"><path d="M1 46H161V140H1z"/><path transform="rotate(120 81 93)" d="M1 46H161V140H1z"/><path transform="rotate(-120 81 93)" d="M1 46H161V140H1z"/></g><path stroke="#594ECC" stroke-width="2" d="M6 52L86 6 166 52 166 146 86 192 6 146z"/><g fill="#594ECC"><path d="M166 142c2.206 0 4 1.78 4 4 0 2.2-1.794 4-4 4-2.208 0-4-1.8-4-4 0-2.22 1.792-4 4-4z" opacity=".7"/><path d="M166 48c2.206 0 4 1.78 4 4 0 2.2-1.794 4-4 4-2.208 0-4-1.8-4-4 0-2.22 1.792-4 4-4zM86 188c2.208 0 4 1.78 4 4 0 2.2-1.792 4-4 4s-4-1.8-4-4c0-2.22 1.792-4 4-4zM6 48c2.208 0 4 1.78 4 4 0 2.2-1.792 4-4 4s-4-1.8-4-4c0-2.22 1.792-4 4-4zM86 2c2.208 0 4 1.78 4 4 0 2.2-1.792 4-4 4s-4-1.8-4-4c0-2.22 1.792-4 4-4z" opacity=".6"/><path d="M6 142c2.208 0 4 1.78 4 4 0 2.2-1.792 4-4 4s-4-1.8-4-4c0-2.22 1.792-4 4-4z" opacity=".7"/></g><path d="M86 95c2.208 0 4 1.78 4 4 0 2.2-1.792 4-4 4s-4-1.8-4-4c0-2.22 1.792-4 4-4z" fill="#D0E65F"/></g><g transform="translate(1121 840)"><g transform="translate(6 6)" opacity=".4" stroke="#594ECC"><path d="M80 93V0m0 93L0 46m80 47L0 140m80-47v93m0-93l80 47M80 93l80-47"/></g><g transform="translate(5 6)" opacity=".1" stroke="#594ECC"><path d="M1 46H161V140H1z"/><path transform="rotate(120 81 93)" d="M1 46H161V140H1z"/><path transform="rotate(-120 81 93)" d="M1 46H161V140H1z"/></g><path stroke="#594ECC" stroke-width="2" d="M6 52L86 6 166 52 166 146 86 192 6 146z"/><g fill="#594ECC"><path d="M166 142c2.206 0 4 1.78 4 4 0 2.2-1.794 4-4 4-2.208 0-4-1.8-4-4 0-2.22 1.792-4 4-4z" opacity=".7"/><path d="M166 48c2.206 0 4 1.78 4 4 0 2.2-1.794 4-4 4-2.208 0-4-1.8-4-4 0-2.22 1.792-4 4-4zM86 188c2.208 0 4 1.78 4 4 0 2.2-1.792 4-4 4s-4-1.8-4-4c0-2.22 1.792-4 4-4zM6 48c2.208 0 4 1.78 4 4 0 2.2-1.792 4-4 4s-4-1.8-4-4c0-2.22 1.792-4 4-4zM86 2c2.208 0 4 1.78 4 4 0 2.2-1.792 4-4 4s-4-1.8-4-4c0-2.22 1.792-4 4-4z" opacity=".6"/><path d="M6 142c2.208 0 4 1.78 4 4 0 2.2-1.792 4-4 4s-4-1.8-4-4c0-2.22 1.792-4 4-4z" opacity=".7"/></g><path d="M86 95c2.208 0 4 1.78 4 4 0 2.2-1.792 4-4 4s-4-1.8-4-4c0-2.22 1.792-4 4-4z" fill="#D0E65F"/></g></g></svg>