<svg xmlns="http://www.w3.org/2000/svg" version="1.1" id="layer" viewBox="15.2 225.7 623.6 201.9"><title>Adyen Logo</title><path d="M103.2 271.6H16.8v27.5h56.3c3.5 0 6.3 2.8 6.3 6.3v48.7h-12c-3.5 0-6.3-2.8-6.3-6.3v-35H37.3c-12.2 0-22.1 9.9-22.1 22.1v24.6c0 12.2 9.9 22.1 22.1 22.1h88v-88c-.1-12.1-9.9-22-22.1-22M207.8 354.1h-12c-3.5 0-6.3-2.8-6.3-6.3v-76.2h-23.8c-12.2 0-22.1 9.9-22.1 22.1v65.9c0 12.2 9.9 22.1 22.1 22.1h88v-156h-45.9v128.4zM336.2 354.1h-12c-3.5 0-6.3-2.8-6.3-6.3v-76.2H272v88c0 12.2 9.9 22.1 22.1 22.1h42.1v13.8h-62.6v32.1H360c12.2 0 22.1-9.9 22.1-22.1V271.6h-45.9v82.5zM488.3 271.6h-88v88c0 12.2 9.9 22.1 22.1 22.1h86.4v-27.5h-56.3c-3.5 0-6.3-2.8-6.3-6.3v-48.7h12c3.5 0 6.3 2.8 6.3 6.3v35h23.8c12.2 0 22.1-9.9 22.1-22.1v-24.6c0-12.3-9.9-22.2-22.1-22.2M616.7 271.6h-88v110.1h45.9v-82.5h12c3.5 0 6.3 2.8 6.3 6.3v76.2h45.9v-88c0-12.2-9.9-22.1-22.1-22.1"/></svg>
