<svg width="184" height="48" viewBox="0 0 184 48" fill="none" xmlns="http://www.w3.org/2000/svg">
<path d="M0.458303 2.49618L0.282227 44.498C0.483457 44.1459 17.8899 2.49609 17.8899 2.49609L0.458303 2.49618Z" fill="#EA3323"/>
<path d="M30.9698 2.49618C33.7618 9.23661 48.3259 45.0514 48.3259 45.0514V2.49618H30.9698Z" fill="#EA3323"/>
<path d="M24.43 18.8442L16.7822 37.0031L25.0337 37.0786L28.3037 45.5041H35.5713C35.5713 45.5041 24.5306 18.8442 24.43 18.8442Z" fill="#EA3323"/>
<path d="M84.7373 5.70924L83.052 5.835C80.7379 6.01105 78.9519 6.81588 77.5936 8.32493C76.3108 9.73338 75.8077 11.2676 75.858 13.4809C75.9335 16.2223 77.1157 18.1589 79.3544 19.2656C80.5618 19.8692 81.0397 19.9446 82.9262 19.9195C85.2655 19.9195 88.1582 19.1901 88.1079 18.6619C88.0828 18.4859 88.0576 14.2354 88.0576 9.18006L88.0073 0H84.7373V5.70924ZM84.7373 17.0523L83.9827 17.2283C83.5802 17.3289 82.8508 17.3038 82.4232 17.2283C80.2599 16.7505 79.2035 15.342 79.2035 12.9024C79.2035 10.1609 80.7882 8.55129 83.4042 8.55129H84.7373V17.0523Z" fill="#EA3323"/>
<path d="M106.621 19.341L107.703 19.6428C108.281 19.7937 109.665 19.9195 110.771 19.9195C115.45 19.9446 118.544 17.3038 118.871 12.9778C119.123 10.1358 117.865 7.69616 115.576 6.46377C114.721 6.01106 114.142 5.91045 112.23 5.91045L109.891 5.9356V7.07662e-07H106.621V19.341ZM114.57 9.60763C115.148 10.2615 115.45 10.8652 115.576 11.7203C116.054 14.9396 113.84 17.5804 110.897 17.3038L110.017 17.2283L109.941 13.1036C109.891 9.95974 109.967 8.9034 110.193 8.7525C110.369 8.62674 111.249 8.57644 112.13 8.62674C113.589 8.7022 113.79 8.77765 114.57 9.60763Z" fill="#EA3323"/>
<path d="M64.2871 1.68519C64.1865 1.76064 64.111 2.0373 64.111 2.28881C64.111 2.54031 62.8031 6.46385 61.2184 11.0413C59.6337 15.5936 58.3257 19.3914 58.3257 19.492C58.3257 19.5674 59.03 19.6177 59.8852 19.5674L61.4448 19.492L62.1994 17.153L62.954 14.8391H69.5946L71.2547 19.6177H72.9903C73.9462 19.6177 74.6756 19.5171 74.6253 19.3914C74.6002 19.2656 73.1413 15.1912 71.4057 10.3371L68.2614 1.50913H66.3497C65.2933 1.50913 64.3626 1.58458 64.2871 1.68519ZM67.4817 7.94775C68.1105 9.88437 68.6387 11.6198 68.6387 11.7707C68.6387 11.9719 67.9093 12.0725 66.224 12.0725C64.0356 12.0725 63.8092 12.0222 63.935 11.6198C64.262 10.4125 66.2491 4.30087 66.2743 4.35118C66.2994 4.37633 66.8528 5.98598 67.4817 7.94775Z" fill="#EA3323"/>
<path d="M95.5282 6.01101C92.6103 6.96674 90.7741 9.58243 90.7741 12.8017C90.7741 17.1528 93.3398 19.9446 97.3141 19.9446C101.213 19.9194 103.577 17.5553 103.804 13.4305C103.98 10.0854 102.848 7.69612 100.509 6.48888C99.3515 5.91041 96.6349 5.6589 95.5282 6.01101ZM99.0245 8.95366C101.213 10.4879 101.087 15.6186 98.7982 16.9516C97.2386 17.8571 95.176 17.0271 94.3962 15.1659C93.5913 13.2796 94.2453 9.9094 95.5785 8.95366C96.3331 8.4255 98.2951 8.4255 99.0245 8.95366Z" fill="#EA3323"/>
<path d="M125.436 6.13696C122.619 7.143 121.16 9.48203 121.135 13.0786C121.109 16.4237 122.719 18.8633 125.436 19.643C126.92 20.0705 129.989 19.9951 131.146 19.5172C131.976 19.1651 132.026 19.0897 132.026 17.9076V16.6752L130.718 17.0273C129.033 17.48 126.995 17.3039 125.889 16.6249C125.008 16.0716 124.027 14.1852 124.405 13.808C124.53 13.6822 126.492 13.5565 128.756 13.5313L132.907 13.4559L132.982 12.0726C133.108 10.0857 132.605 8.65205 131.422 7.39451C129.913 5.86031 127.599 5.35729 125.436 6.13696ZM129.159 9.15507C129.687 9.68324 130.014 10.2617 130.014 10.6641V11.318H124.229L124.606 10.3875C125.285 8.77781 125.889 8.35024 127.473 8.32509C128.102 8.29994 128.505 8.50115 129.159 9.15507Z" fill="#EA3323"/>
<path d="M66.2491 29.5019C62.4257 30.4828 60.0613 32.9224 59.3318 36.6699C58.7533 39.5874 59.5079 42.9576 61.1932 44.9194C62.9539 46.9817 66.5258 48.2393 69.6448 47.9375C72.4118 47.686 72.4118 47.6608 72.4118 46.1518V44.8439L70.1479 44.9697C67.3307 45.1206 65.9724 44.7685 64.5135 43.4858C63.0797 42.2282 62.5263 40.8701 62.5263 38.5814C62.5012 35.1105 64.2871 32.8721 67.5571 32.193C68.8902 31.9164 70.978 32.0924 72.2357 32.5703C72.613 32.7212 72.6633 32.5703 72.6633 31.2373C72.6633 30.0301 72.5627 29.7031 72.2357 29.5522C71.3805 29.2001 67.5319 29.1749 66.2491 29.5019Z" fill="#EA3323"/>
<path d="M78.9268 34.0291C76.4366 34.9597 75.204 36.343 74.5249 38.9838C74.1727 40.3671 74.1476 40.8701 74.4243 42.3037C74.9525 45.347 76.7133 47.2585 79.5053 47.8369C82.4735 48.4657 85.2655 47.1327 86.5987 44.4667C88.4601 40.7192 87.2275 36.1166 83.9072 34.4064C82.5992 33.7524 80.1593 33.5764 78.9268 34.0291ZM82.8508 37.2987C85.341 39.7887 84.2845 44.8691 81.2158 45.1961C78.9519 45.4224 77.5685 43.7122 77.5936 40.7444C77.6188 38.0281 78.8262 36.4687 80.8888 36.4687C81.8446 36.4687 82.1716 36.6196 82.8508 37.2987Z" fill="#EA3323"/>
<path d="M95.4275 34.0041C95.025 34.155 94.371 34.4819 94.0189 34.7334C93.3146 35.2364 93.0379 35.1358 93.0379 34.4065C93.0379 34.0292 92.8115 33.9538 91.5035 33.9538H89.944L90.1201 34.8843C90.1955 35.4125 90.271 38.5312 90.271 41.8008V47.7867H91.7551C92.8618 47.7867 93.2643 47.6861 93.39 47.3843C93.4655 47.158 93.541 44.8441 93.541 42.2535C93.541 37.6258 93.5661 37.5 94.0943 37.1228C94.9244 36.5191 96.2073 36.3682 97.0876 36.7455C98.3705 37.2737 98.5717 38.1288 98.5717 43.2596V47.7867H101.59L101.64 42.7062L101.716 37.6258L102.571 37.0473C103.98 36.0916 105.741 36.3934 106.395 37.7012C106.621 38.1539 106.772 39.7887 106.822 43.0584L106.923 47.7867H109.891V42.505C109.891 36.5946 109.79 36.0916 108.306 34.7837C106.696 33.3753 104.03 33.4256 101.791 34.8843C100.861 35.5131 100.76 35.5383 100.534 35.1107C99.9049 34.0041 97.138 33.4004 95.4275 34.0041Z" fill="#EA3323"/>
<path d="M118.821 34.0041C118.418 34.155 117.764 34.4819 117.387 34.7334C116.557 35.3371 116.481 35.3371 116.381 34.6328C116.305 34.155 116.129 34.0795 114.846 34.0041L113.413 33.9286L113.463 40.7948L113.538 47.661L116.683 47.8119V42.7817C116.683 37.1982 116.683 37.2234 118.443 36.6952C120.305 36.1419 121.537 36.9467 121.814 38.9085C121.889 39.5373 121.965 41.8008 121.965 43.9135V47.7867H124.983V37.4749L125.989 36.9719C127.297 36.2928 128.329 36.3431 129.184 37.0725L129.888 37.6761L130.14 47.661L133.284 47.8119V42.832C133.284 37.3743 133.108 36.3682 132.026 35.1107C130.542 33.4507 127.474 33.325 125.159 34.8592L124.178 35.5131L123.499 34.8592C122.317 33.7274 120.531 33.4004 118.821 34.0041Z" fill="#EA3323"/>
<path d="M140.83 33.9286C138.918 34.5071 137.61 35.7143 136.73 37.7264C136.051 39.2606 136.001 42.4044 136.629 44.0644C137.158 45.4477 138.843 47.0825 140.226 47.5604C141.585 48.0382 144.981 47.9879 146.188 47.4598C147.093 47.0825 147.119 47.007 147.119 45.7998V44.5674L145.936 44.9195C142.767 45.8753 139.648 44.6177 139.497 42.329L139.447 41.6248L147.999 41.3732L147.974 39.4869C147.974 37.2988 147.37 35.8652 146.062 34.8843C144.704 33.8531 142.44 33.4507 140.83 33.9286ZM144.251 37.0221C144.578 37.3491 144.905 37.9779 145.006 38.4054L145.182 39.2354H142.239C139.296 39.2354 139.296 39.2354 139.472 38.657C139.749 37.7515 140.352 36.9718 141.057 36.5694C141.962 36.0664 143.522 36.2928 144.251 37.0221Z" fill="#EA3323"/>
<path d="M156.602 34.0544C156.098 34.2556 155.294 34.6831 154.816 35.0352L153.986 35.6892L153.734 34.8843C153.533 34.1047 153.457 34.0795 152.049 34.0041L150.565 33.9286L150.716 36.0161C150.816 37.1731 150.892 40.2918 150.892 42.9326V47.7867H152.401C153.231 47.7867 153.935 47.7616 153.96 47.7113C153.986 47.6861 154.061 45.5231 154.136 42.9075L154.287 38.1288L155.092 37.6761C155.52 37.4246 156.451 37.1479 157.155 37.0473L158.438 36.8964V35.3119C158.438 33.501 158.337 33.4507 156.602 34.0544Z" fill="#EA3323"/>
<path d="M165.103 34.0543C163.519 34.5573 162.613 35.1106 161.657 36.167C160.324 37.6509 159.871 39.0845 159.997 41.4235C160.123 43.5865 160.676 44.9446 161.884 46.0764C163.468 47.5855 166.764 48.3903 168.952 47.8118L170.008 47.51V44.8943L168.072 44.9698C165.707 45.0452 164.651 44.5925 163.77 43.1086C163.041 41.8511 163.091 39.3611 163.871 38.3048C164.953 36.8712 165.607 36.5945 167.896 36.5945L170.008 36.6197V35.3119C170.008 34.0543 169.983 34.004 169.229 33.8531C168.021 33.6267 166.21 33.7022 165.103 34.0543Z" fill="#EA3323"/>
<path d="M176.549 33.9287C173.807 34.8341 172.122 37.0725 171.845 40.2415C171.543 43.3854 172.826 46.0262 175.216 47.1832C176.473 47.8119 176.951 47.9125 178.813 47.8874C180.221 47.8874 181.278 47.7365 181.906 47.4598C182.812 47.0826 182.837 47.0071 182.837 45.7999V44.5675L181.655 44.9196C180.07 45.3974 178.385 45.3471 177.127 44.7938C175.97 44.2657 175.392 43.5111 175.14 42.3039L174.989 41.4991L179.341 41.4488L183.718 41.3733L183.692 39.5876C183.667 36.1419 181.806 34.0293 178.636 33.8029C177.832 33.7526 176.901 33.8029 176.549 33.9287ZM179.165 36.4689C179.869 36.7204 180.825 38.0785 180.825 38.7828C180.825 39.1852 180.523 39.2355 177.907 39.2355C175.014 39.2355 175.014 39.2355 175.165 38.657C175.719 36.7456 177.454 35.815 179.165 36.4689Z" fill="#EA3323"/>
</svg>
