<svg width="328" height="108" viewBox="0 0 328 108" fill="none" xmlns="http://www.w3.org/2000/svg">
<path d="M45.9222 25.2886H0.723182V39.7347H30.0121C31.82 39.7347 33.2664 41.1793 33.2664 42.9851V68.2654H27.1193C25.3114 68.2654 23.865 66.8207 23.865 65.0149V46.9577H11.5709C5.06227 46.9577 0 52.0135 0 58.5144V71.5158C0 78.0163 5.06227 83.0725 11.5709 83.0725H57.493V36.8453C57.493 30.3447 52.4306 25.2886 45.9222 25.2886Z" fill="#0ABF53"/>
<path d="M100.522 68.2654H94.3753C92.5674 68.2654 91.1209 66.8207 91.1209 65.0149V25.2885H78.8267C72.3182 25.2885 67.2559 30.3446 67.2559 36.8453V71.1547C67.2559 77.6552 72.3182 82.7114 78.8267 82.7114H124.749V1.45261H100.884L100.522 68.2654Z" fill="#0ABF53"/>
<path d="M167.417 68.2654H161.27C159.462 68.2654 158.015 66.8207 158.015 65.0149V25.2886H134.15V71.1547C134.15 77.6553 139.213 82.7115 145.721 82.7115H167.778V89.9345H135.235V106.547H180.434C186.943 106.547 192.005 101.491 192.005 94.9907V25.2886H168.14V68.2654H167.417Z" fill="#0ABF53"/>
<path d="M246.967 25.2886H201.044V71.1547C201.044 77.6553 206.107 82.7115 212.616 82.7115H257.814V68.2654H228.525C226.717 68.2654 225.271 66.8207 225.271 65.0149V39.7347H231.418C233.226 39.7347 234.673 41.1793 234.673 42.9851V61.0423H246.967C253.475 61.0423 258.537 55.9865 258.537 49.4856V36.8453C258.537 30.3447 253.114 25.2886 246.967 25.2886Z" fill="#0ABF53"/>
<path d="M313.861 25.2886H267.939V82.7115H291.804V39.7347H297.951C299.759 39.7347 301.205 41.1793 301.205 42.9851V82.7115H325.432V36.8453C325.432 30.3447 320.37 25.2886 313.861 25.2886Z" fill="#0ABF53"/>
</svg>
