<svg width="141" height="32" viewBox="0 0 141 32" fill="none" xmlns="http://www.w3.org/2000/svg">
<path fill-rule="evenodd" clip-rule="evenodd" d="M68.5979 17.6181V0.377979C68.5979 0.14567 68.3905 -0.0309617 68.1614 0.00487665L64.9321 0.513013C64.7485 0.541812 64.6128 0.700524 64.6128 0.886756L64.6237 18.372C64.6237 19.1989 64.6237 24.3046 70.7655 24.4831C70.9786 24.4895 71.1552 24.318 71.1552 24.1049V21.4951C71.1552 21.3057 71.0151 21.1425 70.8275 21.1213C68.5972 20.8647 68.5972 18.077 68.5972 17.6194L68.5979 17.6181Z" fill="#003DFF"/>
<path d="M121.856 6.70251H118.606C118.398 6.70251 118.229 6.87156 118.229 7.0801V24.1097C118.229 24.3182 118.398 24.4873 118.606 24.4873H121.856C122.064 24.4873 122.233 24.3182 122.233 24.1097V7.0801C122.233 6.87156 122.064 6.70251 121.856 6.70251Z" fill="#003DFF"/>
<path fill-rule="evenodd" clip-rule="evenodd" d="M118.606 4.56825H121.855C122.064 4.56825 122.233 4.3993 122.233 4.19067V0.377722C122.233 0.146053 122.026 -0.0312191 121.797 0.00461923L118.547 0.513396C118.364 0.542194 118.228 0.700267 118.228 0.886498V4.19003C118.228 4.39866 118.397 4.56761 118.606 4.56761L118.606 4.56825Z" fill="#003DFF"/>
<path fill-rule="evenodd" clip-rule="evenodd" d="M112.99 17.6181V0.377979C112.99 0.14567 112.783 -0.0309617 112.554 0.00487665L109.324 0.513013C109.141 0.541812 109.005 0.700524 109.005 0.886756L109.016 18.372C109.016 19.1989 109.016 24.3046 115.158 24.4831C115.371 24.4895 115.547 24.318 115.547 24.1049V21.4951C115.547 21.3057 115.407 21.1425 115.22 21.1213C112.989 20.8647 112.989 18.077 112.989 17.6194L112.99 17.6181Z" fill="#003DFF"/>
<path fill-rule="evenodd" clip-rule="evenodd" d="M104.538 9.13366C103.825 8.34969 102.949 7.74812 101.928 7.3219C100.909 6.904 99.7993 6.69153 98.5955 6.69153C97.3936 6.69153 96.282 6.8944 95.2728 7.3219C94.2751 7.74812 93.3983 8.34905 92.6642 9.13366C91.9302 9.91634 91.36 10.8533 90.9517 11.9514C90.5434 13.0503 90.3604 14.343 90.3604 15.6863C90.3604 17.0296 90.5645 18.0459 90.9715 19.1556C91.3798 20.264 91.9404 21.2105 92.6642 21.9945C93.3868 22.7772 94.2533 23.3781 95.2625 23.8159C96.2718 24.253 97.8301 24.4769 98.616 24.4865C99.3999 24.4865 100.97 24.2421 101.989 23.8159C103.007 23.3884 103.874 22.7772 104.598 21.9945C105.321 21.2105 105.882 20.264 106.278 19.1556C106.676 18.0459 106.87 17.0296 106.87 15.6863C106.87 14.343 106.656 13.0503 106.228 11.9514C105.819 10.8526 105.259 9.91634 104.536 9.13366H104.538ZM101.694 19.6132C100.96 20.6211 99.9305 21.1299 98.6166 21.1299C97.3015 21.1299 96.2724 20.6307 95.5383 19.6132C94.8043 18.6052 94.437 17.4366 94.437 15.6966C94.437 13.9757 94.7947 12.5517 95.5288 11.5451C96.2615 10.5371 97.2912 10.0399 98.6051 10.0399C99.9202 10.0399 100.949 10.5378 101.683 11.5451C102.417 12.5415 102.794 13.9757 102.794 15.6966C102.794 17.4366 102.428 18.5956 101.694 19.6132H101.694Z" fill="#003DFF"/>
<path fill-rule="evenodd" clip-rule="evenodd" d="M57.3377 6.70251H54.1807C51.0858 6.70251 48.3627 8.33316 46.7731 10.8047C45.8438 12.2498 45.3018 13.9809 45.3018 15.8432C45.3018 18.716 46.59 21.2778 48.6034 22.9533C48.7909 23.1197 48.9905 23.272 49.1992 23.4102C50.0222 23.9536 50.9981 24.2723 52.0483 24.2723C52.127 24.2723 52.2058 24.2703 52.2838 24.2665C52.3069 24.2652 52.3293 24.2633 52.3523 24.262C52.408 24.2588 52.4643 24.255 52.52 24.2492C52.5417 24.2473 52.5635 24.2441 52.5853 24.2415C52.6435 24.2351 52.7017 24.2281 52.76 24.2198C52.7734 24.2179 52.7869 24.2153 52.8003 24.2134C54.9052 23.8889 56.74 22.241 57.3377 20.1937V23.8947C57.3377 24.1033 57.5066 24.2723 57.7153 24.2723H60.942C61.1506 24.2723 61.3196 24.1033 61.3196 23.8947V7.0801C61.3196 6.87147 61.1506 6.70251 60.942 6.70251H57.3377ZM57.3377 19.9448C56.5569 20.595 55.5477 20.8395 54.4681 20.9124C54.4578 20.9131 54.4469 20.9143 54.4367 20.915C54.365 20.9195 54.2933 20.9214 54.2217 20.9214C51.5184 20.9214 49.2862 18.6245 49.2862 15.8419C49.2862 15.186 49.4117 14.5614 49.6331 13.9873C50.3511 12.1237 52.1142 10.8041 54.1807 10.8041H57.3377V19.9448Z" fill="#003DFF"/>
<path fill-rule="evenodd" clip-rule="evenodd" d="M136.665 6.70251H133.508C130.413 6.70251 127.69 8.33316 126.1 10.8047C125.171 12.2498 124.629 13.9809 124.629 15.8432C124.629 18.716 125.917 21.2778 127.931 22.9533C128.118 23.1197 128.318 23.272 128.526 23.4102C129.349 23.9536 130.325 24.2723 131.375 24.2723C131.454 24.2723 131.533 24.2703 131.611 24.2665C131.634 24.2652 131.656 24.2633 131.679 24.262C131.735 24.2588 131.791 24.255 131.847 24.2492C131.869 24.2473 131.891 24.2441 131.912 24.2415C131.971 24.2351 132.029 24.2281 132.087 24.2198C132.101 24.2179 132.114 24.2153 132.127 24.2134C134.232 23.8889 136.067 22.241 136.665 20.1937V23.8947C136.665 24.1033 136.834 24.2723 137.042 24.2723H140.269C140.478 24.2723 140.647 24.1033 140.647 23.8947V7.0801C140.647 6.87147 140.478 6.70251 140.269 6.70251H136.665ZM136.665 19.9448C135.884 20.595 134.875 20.8395 133.795 20.9124C133.785 20.9131 133.774 20.9143 133.764 20.915C133.692 20.9195 133.62 20.9214 133.549 20.9214C130.846 20.9214 128.613 18.6245 128.613 15.8419C128.613 15.186 128.739 14.5614 128.96 13.9873C129.678 12.1237 131.441 10.8041 133.508 10.8041H136.665V19.9448Z" fill="#003DFF"/>
<path fill-rule="evenodd" clip-rule="evenodd" d="M84.1927 6.70251H81.0357C77.9408 6.70251 75.2177 8.33316 73.628 10.8047C72.8735 11.9784 72.3737 13.3416 72.2131 14.8103C72.1759 15.1495 72.1567 15.4938 72.1567 15.8432C72.1567 16.1926 72.1766 16.5568 72.2163 16.9049C72.4902 19.3426 73.6971 21.4877 75.4583 22.9539C75.6459 23.1203 75.8455 23.2726 76.0542 23.4109C76.8772 23.9542 77.8531 24.2729 78.9033 24.2729C80.0546 24.2729 81.1182 23.8934 81.9854 23.2509C83.0279 22.5098 83.8336 21.4244 84.192 20.195V23.4115H84.185V24.1206C84.185 25.5183 83.8196 26.5698 83.0753 27.2795C82.3323 27.9886 81.0888 28.3438 79.3474 28.3438C78.6358 28.3438 77.505 28.306 76.3652 28.1895C76.1841 28.171 76.0158 28.2855 75.9639 28.4596L75.146 31.2185C75.0808 31.4399 75.2273 31.6678 75.4551 31.7004C76.8324 31.8975 78.1763 31.9999 78.9526 31.9999C82.0827 31.9999 84.4026 31.3119 85.9212 29.9386C87.2959 28.6964 88.0427 26.8097 88.1739 24.2735V7.0801C88.1739 6.87147 88.005 6.70251 87.7963 6.70251H84.192H84.1927ZM84.1927 10.8047C84.1927 10.8047 84.2343 19.7086 84.1927 19.9793C83.4196 20.6046 82.4577 20.8491 81.4094 20.9201C81.3992 20.9207 81.3883 20.922 81.3781 20.9227C81.3064 20.9271 81.2347 20.9291 81.163 20.9291C81.0786 20.9291 80.9947 20.9271 80.9109 20.9227C78.3248 20.7876 76.1418 18.5381 76.1418 15.8426C76.1418 15.1866 76.2673 14.562 76.4887 13.9879C77.2067 12.1243 78.9699 10.8047 81.0363 10.8047H84.1933H84.1927Z" fill="#003DFF"/>
<path d="M16.0858 0C7.34829 0 0.225417 7.04543 0.0993424 15.7535C-0.0286517 24.5973 7.1467 31.9256 15.9917 31.9768C18.7231 31.9928 21.354 31.3246 23.6906 30.0549C23.9184 29.9314 23.9536 29.6178 23.7597 29.4463L22.2634 28.1203C21.9594 27.8509 21.5268 27.7747 21.1524 27.9334C19.5218 28.6272 17.7497 28.9817 15.9233 28.9593C8.77606 28.8716 3.00161 22.925 3.11552 15.7785C3.22816 8.72216 9.00325 3.01682 16.0858 3.01682H29.0574V26.073L21.6977 19.5338C21.4596 19.322 21.0949 19.3636 20.9029 19.6177C19.7215 21.1817 17.7971 22.1545 15.6596 22.0073C12.6946 21.8025 10.2922 19.4154 10.0701 16.4517C9.80449 12.9165 12.6063 9.95474 16.0858 9.95474C19.2332 9.95474 21.8251 12.377 22.0958 15.4553C22.1201 15.7292 22.2436 15.9845 22.449 16.1669L24.3657 17.8661C24.5833 18.0587 24.9283 17.9409 24.982 17.6549C25.1203 16.9157 25.1689 16.1458 25.1145 15.3561C24.806 10.8545 21.1595 7.23295 16.656 6.95584C11.4927 6.63777 7.17613 10.6766 7.03918 15.7394C6.90543 20.6736 10.9481 24.9268 15.8829 25.0356C17.943 25.0811 19.8527 24.4334 21.3956 23.3109L31.0118 31.8353C31.424 32.2008 32.0748 31.9083 32.0748 31.3573V0.606692C32.0742 0.271987 31.8028 0 31.4675 0H16.0858Z" fill="#003DFF"/>
</svg>
