<svg id="Layer_1" data-name="Layer 1" xmlns="http://www.w3.org/2000/svg" viewBox="0 0 197.06 38.53"><defs><style>.cls-1{fill:#003037;}.cls-2{fill:#ff761c;}.cls-3{fill:#ff8c1e;}.cls-4{fill:#00c1ad;}.cls-5{fill:#d1d1d1;}</style></defs><path class="cls-1" d="M43.22,21.38A12.5,12.5,0,0,0,46.29,21l.34,2.3a13.14,13.14,0,0,1-3.42.43c-5.26,0-6.78-3.28-6.78-7.13S38.74,9.7,43.18,9.7a13.26,13.26,0,0,1,3.42.46l-.46,2.29a12,12,0,0,0-2.88-.34c-2.79.05-4.16,2.11-4.21,4.52S40,21.38,43.22,21.38Z" transform="translate(-4.97 -1.23)"/><path class="cls-1" d="M54,9.71c4.33,0,6.25,3.24,6.25,7s-1.66,7-6.28,7-6.25-3.32-6.25-7S49.66,9.76,54,9.71ZM54,21.4c2.76,0,3.65-2.26,3.65-4.68,0-2.21-1-4.71-3.68-4.71s-3.68,2.48-3.68,4.71C50.28,19.24,51.39,21.4,54,21.4Z" transform="translate(-4.97 -1.23)"/><path class="cls-1" d="M78.15,23.47V14.82c0-2.18-.81-2.78-2.18-2.78a5,5,0,0,0-3,1.32c0,.29.07.86.07,1v9.08H70.39V14.72c0-2.18-.65-2.71-2-2.71a6,6,0,0,0-3.1,1.35V23.47H62.6V10h2.67V11.1A6.14,6.14,0,0,1,68.8,9.68c1.88,0,3,.63,3.56,1.64a6.51,6.51,0,0,1,4-1.64c4.41-.07,4.47,3.46,4.47,5v8.84Z" transform="translate(-4.97 -1.23)"/><path class="cls-1" d="M99.31,23.47V14.82c0-2.18-.81-2.78-2.19-2.78a5,5,0,0,0-3,1.32c0,.29.07.86.07,1v9.08h-2.7V14.72c0-2.18-.65-2.71-2-2.71a6.06,6.06,0,0,0-3.11,1.35V23.47H83.75V10h2.67V11.1A6.2,6.2,0,0,1,90,9.68c1.87,0,3,.63,3.56,1.64a6.51,6.51,0,0,1,4-1.64c4.4-.07,4.47,3.46,4.47,5v8.84Z" transform="translate(-4.97 -1.23)"/><path class="cls-1" d="M114.43,21l.41,2.19a14.43,14.43,0,0,1-4.16.6c-5.34,0-6.64-3.58-6.64-7.15s1.59-6.89,6.06-6.89c2.77,0,5.07,1.7,5.1,6l0,1.41h-8.51c0,2.64,1.47,4.25,4.14,4.25A15.54,15.54,0,0,0,114.43,21Zm-7.64-5.86h5.94c-.1-2.73-1.47-3.29-2.74-3.29C108,11.82,107,13.19,106.79,15.13Z" transform="translate(-4.97 -1.23)"/><path class="cls-1" d="M125,12.42a7.15,7.15,0,0,0-1.73-.19,4,4,0,0,0-3.15,1.44v9.8h-2.66V10h2.66v1.2a4.43,4.43,0,0,1,3.13-1.37,6.11,6.11,0,0,1,2.24.36Z" transform="translate(-4.97 -1.23)"/><path class="cls-1" d="M132.82,21.38A12.57,12.57,0,0,0,135.9,21l.33,2.3a13.06,13.06,0,0,1-3.41.43c-5.27,0-6.79-3.28-6.79-7.13s2.31-6.92,6.76-6.92a13.26,13.26,0,0,1,3.42.46l-.46,2.29a12,12,0,0,0-2.89-.34c-2.79.05-4.16,2.11-4.2,4.52S129.55,21.38,132.82,21.38Z" transform="translate(-4.97 -1.23)"/><path class="cls-1" d="M147.71,21l.4,2.19a14.43,14.43,0,0,1-4.16.6c-5.33,0-6.63-3.58-6.63-7.15s1.59-6.89,6.06-6.89c2.76,0,5.07,1.7,5.1,6l0,1.41h-8.51c.05,2.64,1.46,4.25,4.13,4.25A15.55,15.55,0,0,0,147.71,21Zm-7.65-5.86H146c-.09-2.73-1.46-3.29-2.74-3.29C141.24,11.82,140.3,13.19,140.06,15.13Z" transform="translate(-4.97 -1.23)"/><path class="cls-1" d="M157.51,12.16h-3.68v6.55c0,1.37.17,2.33,1.57,2.52a10.7,10.7,0,0,0,2.33-.09l.17,2.3a16.18,16.18,0,0,1-2.38.17c-3.15-.12-4.33-1.73-4.33-4.25v-7.2h-1.95V10.31l1.95-.22V7h2.64v3h3.68v2.21Z" transform="translate(-4.97 -1.23)"/><path class="cls-1" d="M165.28,9.71c4.33,0,6.25,3.24,6.25,7s-1.65,7-6.27,7-6.25-3.32-6.25-7S161,9.76,165.28,9.71Zm0,11.69c2.77,0,3.66-2.26,3.66-4.68,0-2.21-1-4.71-3.68-4.71s-3.68,2.48-3.68,4.71C161.58,19.24,162.69,21.4,165.28,21.4Z" transform="translate(-4.97 -1.23)"/><path class="cls-1" d="M179.66,9.71c4.33,0,6.25,3.24,6.25,7s-1.66,7-6.28,7-6.25-3.32-6.25-7S175.33,9.76,179.66,9.71Zm0,11.69c2.76,0,3.65-2.26,3.65-4.68,0-2.21-1-4.71-3.68-4.71S176,14.49,176,16.72C176,19.24,177.06,21.4,179.66,21.4Z" transform="translate(-4.97 -1.23)"/><path class="cls-1" d="M188,23.47V5.12h2.57V23.47Z" transform="translate(-4.97 -1.23)"/><path class="cls-1" d="M193.31,20.85a17.52,17.52,0,0,0,3.83.58c1.06,0,2.14-.22,2.21-1.49s-1.32-1.76-2.91-2.43c-1.8-.74-3.75-1.75-3.7-4.25,0-1.25.8-3.69,4.79-3.58a18.11,18.11,0,0,1,3.84.53l-.45,2.22a16.64,16.64,0,0,0-3.51-.51c-1.16,0-2,.36-2.09,1.44,0,.92.69,1.4,2.47,2.12s4.36,1.7,4.24,4.54c-.08,1.8-1.25,3.77-4.89,3.72a15.81,15.81,0,0,1-4.37-.65Z" transform="translate(-4.97 -1.23)"/><path class="cls-2" d="M5.32,23.34a.61.61,0,0,0,0,1.1L17,29.92a1.11,1.11,0,0,0,.5.12V17.8a1.3,1.3,0,0,0-.51.11Z" transform="translate(-4.97 -1.23)"/><path class="cls-3" d="M17.54,17.79V30a1.23,1.23,0,0,0,.53-.11l11.7-5.46a.62.62,0,0,0,.35-.55.61.61,0,0,0-.35-.55L18.05,17.91A1.31,1.31,0,0,0,17.54,17.79Z" transform="translate(-4.97 -1.23)"/><path class="cls-4" d="M5,7.33a.61.61,0,0,0,.35.55L17,13.36a1.25,1.25,0,0,0,.5.11A1.31,1.31,0,0,0,18,13.4l.33-.15L29.76,7.89a.6.6,0,0,0,0-1.09L18.05,1.35a1.21,1.21,0,0,0-1,0L5.32,6.78A.62.62,0,0,0,5,7.33Z" transform="translate(-4.97 -1.23)"/><path class="cls-5" d="M17.54,14.16v3.63a1.3,1.3,0,0,0-.51.11L5.32,23.34a.61.61,0,0,0-.35.55V7.33a.61.61,0,0,0,.35.55L17,13.36a1.25,1.25,0,0,0,.5.11A1.31,1.31,0,0,0,18,13.4h0C17.59,13.57,17.54,13.74,17.54,14.16Z" transform="translate(-4.97 -1.23)"/><path class="cls-1" d="M82.47,36.07V30.44h1v7.33h-.9l-3.74-5.62v5.62h-1V30.44h.9Z" transform="translate(-4.97 -1.23)"/><path class="cls-1" d="M89.63,35.53h-4a1.83,1.83,0,0,0,.54,1.12,1.53,1.53,0,0,0,1.09.41,1.45,1.45,0,0,0,1.31-.7h.93a2.43,2.43,0,0,1-.86,1.08,2.29,2.29,0,0,1-1.39.45A2.46,2.46,0,0,1,86,37.53a2.42,2.42,0,0,1-.92-1,3,3,0,0,1-.34-1.42A2.84,2.84,0,0,1,85,33.74a2.61,2.61,0,0,1,.93-1,2.36,2.36,0,0,1,1.26-.36,2.21,2.21,0,0,1,1.24.35,2.49,2.49,0,0,1,.88.94A2.81,2.81,0,0,1,89.67,35,2.93,2.93,0,0,1,89.63,35.53Zm-3.46-1.88a1.88,1.88,0,0,0-.56,1.14h3.18a1.94,1.94,0,0,0-.51-1.13,1.38,1.38,0,0,0-1-.44A1.48,1.48,0,0,0,86.17,33.65Z" transform="translate(-4.97 -1.23)"/><path class="cls-1" d="M92.93,35.08l1.83,2.69H93.7l-1.35-2.05L91,37.77H90l1.82-2.69L90.1,32.5h1l1.26,2,1.25-2h1Z" transform="translate(-4.97 -1.23)"/><path class="cls-1" d="M96.57,37.42a1.81,1.81,0,0,1-.44-1.29v-2.8h-.9v-.79h.4a.64.64,0,0,0,.47-.17.6.6,0,0,0,.17-.46v-.79H97V32.5h1.2v.83H97V36.1a1.06,1.06,0,0,0,.22.71.82.82,0,0,0,.61.23.87.87,0,0,0,.37-.07v.83a1.81,1.81,0,0,1-.55.09A1.44,1.44,0,0,1,96.57,37.42Z" transform="translate(-4.97 -1.23)"/><path class="cls-1" d="M103,39.53a2.13,2.13,0,0,1-1.17-1.39h.91a1,1,0,0,0,.49.58,1.66,1.66,0,0,0,.89.22,1.45,1.45,0,0,0,1-.38,1.36,1.36,0,0,0,.39-1v-.7h0a2,2,0,0,1-1.53.76,2.28,2.28,0,0,1-1.19-.34,2.39,2.39,0,0,1-.87-.94,2.62,2.62,0,0,1-.32-1.31,2.7,2.7,0,0,1,.32-1.33,2.44,2.44,0,0,1,.86-.94,2.19,2.19,0,0,1,1.19-.34,1.86,1.86,0,0,1,1,.26,1.84,1.84,0,0,1,.59.51h0l.2-.66h.68v5a2.18,2.18,0,0,1-.64,1.63,2.37,2.37,0,0,1-1.7.61A2.51,2.51,0,0,1,103,39.53Zm1.79-3a1.66,1.66,0,0,0,.56-.64,1.86,1.86,0,0,0,.21-.89,1.94,1.94,0,0,0-.21-.91,1.53,1.53,0,0,0-.56-.64,1.37,1.37,0,0,0-1.52,0,1.6,1.6,0,0,0-.56.64,1.94,1.94,0,0,0-.21.91,1.86,1.86,0,0,0,.21.89,1.75,1.75,0,0,0,.56.64,1.37,1.37,0,0,0,1.52,0Z" transform="translate(-4.97 -1.23)"/><path class="cls-1" d="M112.52,35.53h-4a1.78,1.78,0,0,0,.54,1.12,1.51,1.51,0,0,0,1.09.41,1.42,1.42,0,0,0,1.3-.7h.94a2.43,2.43,0,0,1-.86,1.08,2.29,2.29,0,0,1-1.39.45,2.49,2.49,0,0,1-2.21-1.34,2.9,2.9,0,0,1-.34-1.42,2.84,2.84,0,0,1,.35-1.39,2.61,2.61,0,0,1,.93-1,2.34,2.34,0,0,1,1.26-.36,2.21,2.21,0,0,1,1.24.35,2.39,2.39,0,0,1,.87.94,2.7,2.7,0,0,1,.33,1.33A2.09,2.09,0,0,1,112.52,35.53Zm-3.45-1.88a1.89,1.89,0,0,0-.57,1.14h3.18a1.83,1.83,0,0,0-.51-1.13,1.36,1.36,0,0,0-1-.44A1.48,1.48,0,0,0,109.07,33.65Z" transform="translate(-4.97 -1.23)"/><path class="cls-1" d="M113.65,37.77V32.5h.68l.2.66h0a1.85,1.85,0,0,1,1.51-.77,2.11,2.11,0,0,1,1.09.29,2.05,2.05,0,0,1,.76.81,2.6,2.6,0,0,1,.27,1.21v3.07h-.92v-3a1.53,1.53,0,0,0-.37-1.09,1.24,1.24,0,0,0-1-.41,1.31,1.31,0,0,0-1,.41,1.54,1.54,0,0,0-.38,1.09v3Z" transform="translate(-4.97 -1.23)"/><path class="cls-1" d="M124.18,35.53h-4a1.83,1.83,0,0,0,.54,1.12,1.53,1.53,0,0,0,1.09.41,1.42,1.42,0,0,0,1.3-.7h.94a2.43,2.43,0,0,1-.86,1.08,2.29,2.29,0,0,1-1.39.45,2.49,2.49,0,0,1-2.21-1.34,2.9,2.9,0,0,1-.34-1.42,2.84,2.84,0,0,1,.35-1.39,2.61,2.61,0,0,1,.93-1,2.36,2.36,0,0,1,1.26-.36,2.21,2.21,0,0,1,1.24.35,2.49,2.49,0,0,1,.88.94,2.81,2.81,0,0,1,.32,1.33A2.09,2.09,0,0,1,124.18,35.53Zm-3.45-1.88a1.88,1.88,0,0,0-.56,1.14h3.18a1.94,1.94,0,0,0-.51-1.13,1.4,1.4,0,0,0-1-.44A1.48,1.48,0,0,0,120.73,33.65Z" transform="translate(-4.97 -1.23)"/><path class="cls-1" d="M125.32,37.77V32.5H126l.2.66h0a1.9,1.9,0,0,1,.56-.52,1.35,1.35,0,0,1,.8-.25,1.53,1.53,0,0,1,.41,0v.91a1.58,1.58,0,0,0-.41-.05,1.33,1.33,0,0,0-1,.41,1.57,1.57,0,0,0-.38,1.11v3Z" transform="translate(-4.97 -1.23)"/><path class="cls-1" d="M131.76,32.65a1.82,1.82,0,0,1,.71.72,2.06,2.06,0,0,1,.26,1.06v3.34h-.68l-.19-.66h-.05a1.92,1.92,0,0,1-.61.54,1.87,1.87,0,0,1-1,.24,2,2,0,0,1-.92-.21,1.56,1.56,0,0,1-.62-.57,1.48,1.48,0,0,1-.22-.8,1.4,1.4,0,0,1,.3-.88,2,2,0,0,1,.84-.59,3.37,3.37,0,0,1,1.23-.21h1v-.24a1.14,1.14,0,0,0-.31-.85,1.06,1.06,0,0,0-.81-.32,1.09,1.09,0,0,0-.75.24,1.07,1.07,0,0,0-.35.62h-.91a2,2,0,0,1,.31-.84,1.76,1.76,0,0,1,.7-.62,2.14,2.14,0,0,1,1-.23A2.08,2.08,0,0,1,131.76,32.65Zm-.34,4.06a1.25,1.25,0,0,0,.4-1v-.4h-.93a2.13,2.13,0,0,0-1.13.25.75.75,0,0,0-.4.67.74.74,0,0,0,.27.6,1.09,1.09,0,0,0,.74.22A1.44,1.44,0,0,0,131.42,36.71Z" transform="translate(-4.97 -1.23)"/><path class="cls-1" d="M134.78,37.42a1.85,1.85,0,0,1-.43-1.29v-2.8h-.9v-.79h.4a.64.64,0,0,0,.47-.17.6.6,0,0,0,.17-.46v-.79h.76V32.5h1.2v.83h-1.2V36.1a1.06,1.06,0,0,0,.22.71.82.82,0,0,0,.61.23.87.87,0,0,0,.37-.07v.83a1.81,1.81,0,0,1-.55.09A1.48,1.48,0,0,1,134.78,37.42Z" transform="translate(-4.97 -1.23)"/><path class="cls-1" d="M137.44,31.55a.56.56,0,0,1-.16-.41.54.54,0,0,1,.16-.41.57.57,0,0,1,.4-.15.6.6,0,0,1,.42.15.54.54,0,0,1,.16.41.53.53,0,0,1-.17.41.55.55,0,0,1-.41.17A.54.54,0,0,1,137.44,31.55Zm.86,6.22h-.91V32.5h.91Z" transform="translate(-4.97 -1.23)"/><path class="cls-1" d="M140.65,37.53a2.57,2.57,0,0,1-.93-1,2.88,2.88,0,0,1-.35-1.4,2.84,2.84,0,0,1,.35-1.39,2.61,2.61,0,0,1,.93-1,2.42,2.42,0,0,1,2.54,0,2.63,2.63,0,0,1,.94,1,2.83,2.83,0,0,1,.34,1.39,2.87,2.87,0,0,1-.34,1.4,2.59,2.59,0,0,1-.94,1,2.42,2.42,0,0,1-2.54,0Zm2.09-.73a1.73,1.73,0,0,0,.6-.68,2.12,2.12,0,0,0,.22-1,2.08,2.08,0,0,0-.22-1,1.7,1.7,0,0,0-.6-.67,1.48,1.48,0,0,0-.82-.24,1.53,1.53,0,0,0-.82.24,1.7,1.7,0,0,0-.6.67,2.08,2.08,0,0,0-.22,1,2.12,2.12,0,0,0,.22,1,1.73,1.73,0,0,0,.6.68,1.52,1.52,0,0,0,1.64,0Z" transform="translate(-4.97 -1.23)"/><path class="cls-1" d="M145.57,37.77V32.5h.67l.2.66h.05a1.82,1.82,0,0,1,.59-.53,1.73,1.73,0,0,1,.92-.24,2.09,2.09,0,0,1,1.09.29,1.92,1.92,0,0,1,.76.81,2.6,2.6,0,0,1,.27,1.21v3.07h-.91v-3a1.54,1.54,0,0,0-.38-1.09,1.22,1.22,0,0,0-1-.41,1.3,1.3,0,0,0-1,.41,1.5,1.5,0,0,0-.39,1.09v3Z" transform="translate(-4.97 -1.23)"/><path class="cls-1" d="M155.09,37.53a2.57,2.57,0,0,1-.93-1,2.87,2.87,0,0,1-.34-1.4,2.83,2.83,0,0,1,.34-1.39,2.61,2.61,0,0,1,.93-1,2.37,2.37,0,0,1,1.27-.36,2.18,2.18,0,0,1,1.11.28,2.59,2.59,0,0,1,.83.75,2.65,2.65,0,0,1,.43,1h-.91a1.67,1.67,0,0,0-.52-.84,1.35,1.35,0,0,0-.94-.33,1.47,1.47,0,0,0-.81.24,1.65,1.65,0,0,0-.61.67,2.08,2.08,0,0,0-.22,1,2.12,2.12,0,0,0,.22,1,1.73,1.73,0,0,0,.6.68,1.48,1.48,0,0,0,.82.24,1.35,1.35,0,0,0,.94-.33,1.67,1.67,0,0,0,.52-.84h.91a2.65,2.65,0,0,1-.43,1,2.59,2.59,0,0,1-.83.75,2.18,2.18,0,0,1-1.11.28A2.37,2.37,0,0,1,155.09,37.53Z" transform="translate(-4.97 -1.23)"/><path class="cls-1" d="M160.75,37.53a2.57,2.57,0,0,1-.93-1,2.88,2.88,0,0,1-.35-1.4,2.84,2.84,0,0,1,.35-1.39,2.61,2.61,0,0,1,.93-1,2.42,2.42,0,0,1,2.54,0,2.56,2.56,0,0,1,.94,1,2.83,2.83,0,0,1,.34,1.39,2.87,2.87,0,0,1-.34,1.4,2.52,2.52,0,0,1-.94,1,2.42,2.42,0,0,1-2.54,0Zm2.09-.73a1.73,1.73,0,0,0,.6-.68,2.12,2.12,0,0,0,.22-1,2.08,2.08,0,0,0-.22-1,1.7,1.7,0,0,0-.6-.67,1.5,1.5,0,0,0-1.63,0,1.65,1.65,0,0,0-.61.67,2.08,2.08,0,0,0-.22,1,2.12,2.12,0,0,0,.22,1,1.73,1.73,0,0,0,.6.68,1.52,1.52,0,0,0,1.64,0Z" transform="translate(-4.97 -1.23)"/><path class="cls-1" d="M171.87,32.65a1.78,1.78,0,0,1,.64.76,2.64,2.64,0,0,1,.23,1.16v3.2h-.9V34.59a1.51,1.51,0,0,0-.3-1,1,1,0,0,0-1.56,0,1.41,1.41,0,0,0-.32,1v3.18h-.91V34.59a1.57,1.57,0,0,0-.29-1,1,1,0,0,0-.78-.35,1,1,0,0,0-.79.36,1.49,1.49,0,0,0-.32,1v3.18h-.9V32.5h.67l.2.66h.05a1.87,1.87,0,0,1,.5-.52,1.26,1.26,0,0,1,.79-.25,1.54,1.54,0,0,1,1,.29,1.89,1.89,0,0,1,.54.65,2.2,2.2,0,0,1,.61-.65,1.64,1.64,0,0,1,1-.29A1.69,1.69,0,0,1,171.87,32.65Z" transform="translate(-4.97 -1.23)"/><path class="cls-1" d="M180.32,32.65a1.85,1.85,0,0,1,.64.76,2.79,2.79,0,0,1,.23,1.16v3.2h-.9V34.59a1.51,1.51,0,0,0-.3-1,1,1,0,0,0-.77-.35,1,1,0,0,0-.8.37,1.46,1.46,0,0,0-.32,1v3.18h-.9V34.59a1.51,1.51,0,0,0-.3-1,1,1,0,0,0-.77-.35,1,1,0,0,0-.79.36,1.44,1.44,0,0,0-.32,1v3.18h-.9V32.5h.67l.2.66h0a1.87,1.87,0,0,1,.5-.52,1.24,1.24,0,0,1,.79-.25,1.53,1.53,0,0,1,.95.29,1.82,1.82,0,0,1,.55.65,2.07,2.07,0,0,1,.61-.65,1.61,1.61,0,0,1,1-.29A1.73,1.73,0,0,1,180.32,32.65Z" transform="translate(-4.97 -1.23)"/><path class="cls-1" d="M187.17,35.53h-4a1.83,1.83,0,0,0,.54,1.12,1.53,1.53,0,0,0,1.1.41,1.44,1.44,0,0,0,1.3-.7H187a2.36,2.36,0,0,1-.86,1.08,2.26,2.26,0,0,1-1.38.45,2.49,2.49,0,0,1-2.22-1.34,3,3,0,0,1-.33-1.42,2.83,2.83,0,0,1,.34-1.39,2.61,2.61,0,0,1,.93-1,2.37,2.37,0,0,1,1.27-.36,2.2,2.2,0,0,1,1.23.35,2.42,2.42,0,0,1,.88.94,2.81,2.81,0,0,1,.32,1.33A2.21,2.21,0,0,1,187.17,35.53Zm-3.46-1.88a1.93,1.93,0,0,0-.56,1.14h3.18a1.94,1.94,0,0,0-.51-1.13,1.36,1.36,0,0,0-1-.44A1.49,1.49,0,0,0,183.71,33.65Z" transform="translate(-4.97 -1.23)"/><path class="cls-1" d="M188.3,37.77V32.5H189l.2.66h.05a2,2,0,0,1,.56-.52,1.36,1.36,0,0,1,.81-.25,1.58,1.58,0,0,1,.41,0v.91a1.64,1.64,0,0,0-.41-.05,1.3,1.3,0,0,0-1,.41,1.53,1.53,0,0,0-.39,1.11v3Z" transform="translate(-4.97 -1.23)"/><path class="cls-1" d="M192.67,37.53a2.57,2.57,0,0,1-.93-1,2.87,2.87,0,0,1-.34-1.4,2.83,2.83,0,0,1,.34-1.39,2.61,2.61,0,0,1,.93-1,2.4,2.4,0,0,1,1.28-.36,2.17,2.17,0,0,1,1.1.28,2.49,2.49,0,0,1,.83.75,2.65,2.65,0,0,1,.43,1h-.9a1.82,1.82,0,0,0-.52-.84,1.38,1.38,0,0,0-.94-.33,1.48,1.48,0,0,0-.82.24,1.7,1.7,0,0,0-.6.67,2,2,0,0,0-.23,1,2,2,0,0,0,.23,1,1.79,1.79,0,0,0,.59.68A1.52,1.52,0,0,0,194,37a1.38,1.38,0,0,0,.94-.33,1.82,1.82,0,0,0,.52-.84h.9a2.65,2.65,0,0,1-.43,1,2.49,2.49,0,0,1-.83.75,2.17,2.17,0,0,1-1.1.28A2.4,2.4,0,0,1,192.67,37.53Z" transform="translate(-4.97 -1.23)"/><path class="cls-1" d="M202,35.53h-4a1.79,1.79,0,0,0,.55,1.12,1.49,1.49,0,0,0,1.09.41,1.44,1.44,0,0,0,1.3-.7h.93a2.36,2.36,0,0,1-.86,1.08,2.26,2.26,0,0,1-1.38.45,2.41,2.41,0,0,1-1.29-.36,2.44,2.44,0,0,1-.93-1,3,3,0,0,1-.33-1.42,2.83,2.83,0,0,1,.34-1.39,2.61,2.61,0,0,1,.93-1,2.37,2.37,0,0,1,1.27-.36,2.2,2.2,0,0,1,1.23.35,2.35,2.35,0,0,1,.88.94A2.81,2.81,0,0,1,202,35,2.21,2.21,0,0,1,202,35.53Zm-3.46-1.88a1.93,1.93,0,0,0-.56,1.14h3.18a1.94,1.94,0,0,0-.51-1.13,1.36,1.36,0,0,0-1-.44A1.5,1.5,0,0,0,198.53,33.65Z" transform="translate(-4.97 -1.23)"/></svg>