<svg width="444" height="92" viewBox="0 0 444 92" fill="none" xmlns="http://www.w3.org/2000/svg">
<g clip-path="url(#clip0_1836_3542)">
<path d="M27.3171 64.3766C24.972 61.9998 23.1168 59.1818 21.8577 56.084C20.5987 52.9861 19.9606 49.6692 19.98 46.3233C19.9715 42.9774 20.6272 39.6635 21.9089 36.5752C23.1907 33.4869 25.0726 30.6862 27.4447 28.3368C28.4609 27.4298 29.2819 26.324 29.8577 25.0872C30.4335 23.8503 30.7518 22.5085 30.7933 21.1438C30.8347 19.7791 30.5983 18.4203 30.0986 17.1505C29.5989 15.8808 28.8464 14.7268 27.8872 13.7593C26.9279 12.7918 25.7821 12.0311 24.52 11.5238C23.2578 11.0164 21.9058 10.7732 20.5468 10.8088C19.1877 10.8445 17.8502 11.1584 16.6162 11.7313C15.3821 12.3042 14.2775 13.124 13.3699 14.1405C4.84517 22.6512 0.03566 34.214 -0.000768121 46.2856C-0.0371963 58.3573 4.70245 69.9491 13.1757 78.5116C14.0803 79.5267 15.1813 80.3462 16.4115 80.92C17.6418 81.4939 18.9755 81.8101 20.3315 81.8495C21.6874 81.8888 23.0371 81.6504 24.2983 81.1488C25.5595 80.6471 26.7057 79.8929 27.6672 78.9318C28.6286 77.9708 29.3851 76.8233 29.8905 75.5591C30.3959 74.2949 30.6397 72.9405 30.6069 71.5786C30.5742 70.2168 30.2656 68.8758 29.7 67.6376C29.1344 66.3994 28.3236 65.2898 27.3171 64.3766Z" fill="#FFDA00"/>
<path d="M27.4446 28.3369C32.2253 23.584 38.6873 20.9286 45.4142 20.9526C52.1411 20.9766 58.5841 23.6782 63.331 28.4651C64.2324 29.4909 65.3332 30.3207 66.5658 30.9035C67.7983 31.4863 69.1366 31.8098 70.4982 31.8541C71.8598 31.8983 73.2161 31.6624 74.4836 31.1609C75.7511 30.6593 76.903 29.9027 77.8686 28.9375C78.8342 27.9724 79.593 26.8191 80.0984 25.5486C80.6038 24.278 80.8451 22.9171 80.8075 21.5495C80.7699 20.1818 80.4541 18.8364 79.8796 17.5958C79.3051 16.3552 78.484 15.2458 77.4668 14.3357C73.2867 10.0836 68.3114 6.70274 62.8266 4.38724C57.3418 2.07175 51.4555 0.867247 45.5058 0.842906C39.5561 0.818564 33.6603 1.97486 28.1569 4.2454C22.6534 6.51594 17.6509 9.85597 13.4364 14.0737C12.4166 14.9761 11.5909 16.078 11.0098 17.3119C10.4287 18.5459 10.1045 19.886 10.0569 21.2502C10.0093 22.6143 10.2395 23.9739 10.7332 25.2457C11.2269 26.5174 11.9739 27.6746 12.9283 28.6465C13.8828 29.6183 15.0247 30.3843 16.2841 30.8976C17.5435 31.4109 18.894 31.6607 20.2529 31.6317C21.6118 31.6027 22.9505 31.2956 24.1871 30.729C25.4237 30.1625 26.5321 29.3485 27.4446 28.3369Z" fill="#67B3FF"/>
<path d="M63.27 64.5048C60.9043 66.8647 58.0983 68.7327 55.0126 70.0018C51.927 71.271 48.6224 71.9164 45.288 71.9011C41.9545 71.9061 38.6535 71.2431 35.5782 69.9511C32.5029 68.6591 29.7152 66.7639 27.3782 64.3766C26.475 63.3561 25.3739 62.5315 24.1423 61.9533C22.9108 61.3751 21.5746 61.0553 20.2157 61.0138C18.8569 60.9722 17.5038 61.2095 16.2395 61.7114C14.9751 62.2132 13.8261 62.9689 12.8627 63.9323C11.8993 64.8956 11.1418 66.0463 10.6367 67.3139C10.1315 68.5814 9.88926 69.9392 9.9248 71.3041C9.96034 72.6689 10.2729 74.0121 10.8433 75.2515C11.4138 76.4908 12.2301 77.6001 13.2423 78.5116C17.4296 82.7633 22.4111 86.1434 27.9016 88.4581C33.392 90.7727 39.2833 91.9764 45.2378 92.0003C51.1923 92.0241 57.093 90.8675 62.6016 88.5969C68.1102 86.3262 73.1184 82.9861 77.3393 78.768C78.2718 77.8402 79.0133 76.7371 79.5213 75.5216C80.0293 74.3061 80.294 73.0019 80.3002 71.6837C80.3064 70.3654 80.054 69.0589 79.5573 67.8386C79.0607 66.6183 78.3297 65.5082 77.4059 64.5717C76.4821 63.6352 75.3836 62.8905 74.1733 62.3803C72.9629 61.8701 71.6644 61.6043 70.3517 61.5981C69.0391 61.5919 67.7381 61.8454 66.523 62.3441C65.3079 62.8429 64.2026 63.5771 63.27 64.5048Z" fill="#EB5A68"/>
<path d="M27.4449 28.3368C26.0447 29.7414 24.2606 30.6966 22.319 31.0814C20.3774 31.4661 18.3658 31.2631 16.5393 30.498C14.7128 29.7329 13.1537 28.4402 12.0598 26.7839C10.9659 25.1277 10.3865 23.1824 10.3951 21.195C10.4037 19.2075 10.9999 17.2674 12.108 15.6207C13.2162 13.974 14.7864 12.6949 16.6194 11.9458C18.4525 11.1966 20.4658 11.0111 22.404 11.4128C24.3422 11.8144 26.1179 12.7852 27.5059 14.2019C29.3551 16.0892 30.3864 18.6342 30.3749 21.282C30.3635 23.9298 29.3103 26.4657 27.4449 28.3368Z" fill="#47A1FF"/>
<path d="M27.2504 78.5116C25.8496 79.9156 24.0652 80.8701 22.1235 81.2541C20.1818 81.6381 18.1702 81.4342 16.344 80.6684C14.5178 79.9026 12.9592 78.6093 11.866 76.9526C10.7728 75.2959 10.1941 73.3504 10.2035 71.3629C10.2128 69.3755 10.8098 67.4356 11.9186 65.7893C13.0274 64.1431 14.5981 62.8647 16.4314 62.1162C18.2648 61.3678 20.2781 61.1831 22.2162 61.5855C24.1542 61.9879 25.9295 62.9594 27.317 64.3766C29.1655 66.2647 30.1957 68.8101 30.1833 71.4579C30.1708 74.1057 29.1166 76.6411 27.2504 78.5116Z" fill="#D5465F"/>
<path fill-rule="evenodd" clip-rule="evenodd" d="M121.922 56.1553C124.803 53.9704 125.186 55.1911 127.617 57.6324C128.832 58.853 132.157 60.9766 129.981 62.7714C125.441 66.4946 121.345 68.1667 115.551 68.1667C102.436 68.1054 93.1623 58.2734 93.906 45.2308C94.2223 39.3896 96.5256 33.8604 101.071 30.0703C105.228 26.5365 110.406 24.9982 115.845 25.1264C118.511 25.1184 121.152 25.6413 123.615 26.6647C125.284 27.2697 126.856 28.1146 128.283 29.1729C131.163 31.4024 129.82 32.7067 127.578 34.9529C127.067 35.4657 126.557 35.984 126.107 36.4968C124.958 37.6506 124.187 38.4866 122.655 37.3942C119.713 35.3375 115.995 34.245 112.482 35.1647C101.16 38.0519 101.67 58.2901 115.557 58.357C117.858 58.3266 120.09 57.5548 121.922 56.1553ZM436.646 68.4176C436.192 68.4198 435.742 68.3316 435.322 68.1583C434.902 67.9849 434.52 67.7297 434.198 67.4074C433.877 67.0851 433.622 66.7021 433.449 66.2804C433.276 65.8588 433.187 65.4069 433.189 64.9507L433.383 20.11C433.381 19.6539 433.468 19.2018 433.641 18.7799C433.814 18.3579 434.068 17.9745 434.389 17.6517C434.71 17.3289 435.091 17.0731 435.511 16.899C435.931 16.725 436.381 16.6361 436.835 16.6376H440.548C441.003 16.6361 441.453 16.7251 441.873 16.8995C442.293 17.0739 442.675 17.3303 442.996 17.6537C443.317 17.9771 443.571 18.3612 443.743 18.7837C443.916 19.2063 444.003 19.659 444 20.1156L443.806 64.9563C443.808 65.4122 443.72 65.864 443.547 66.2856C443.375 66.7072 443.121 67.0903 442.8 67.4127C442.479 67.735 442.097 67.9903 441.677 68.1637C441.257 68.3372 440.808 68.4253 440.354 68.4231L436.646 68.4176ZM417.221 63.2173C413.192 67.0074 409.351 68.9972 403.657 68.9972C392.146 68.9303 386.641 59.3602 386.641 48.6308L386.707 30.388C386.706 29.9321 386.794 29.4804 386.968 29.0591C387.141 28.6377 387.396 28.2551 387.717 27.9332C388.039 27.6114 388.421 27.3567 388.841 27.184C389.261 27.0112 389.711 26.9238 390.165 26.9267H393.878C394.332 26.9245 394.782 27.0126 395.202 27.1861C395.621 27.3595 396.003 27.6148 396.324 27.9372C396.645 28.2596 396.899 28.6426 397.072 29.0642C397.244 29.4859 397.332 29.9377 397.33 30.3936L397.269 48.6364C397.269 54.6114 400.466 59.2989 406.737 59.2989C413.009 59.2989 416.844 54.0318 416.905 48.1515V41.6358C416.854 41.3827 416.834 41.1245 416.844 40.8666L416.905 30.5218C416.903 30.0659 416.99 29.6141 417.163 29.1924C417.336 28.7708 417.59 28.3877 417.911 28.0654C418.232 27.743 418.613 27.4877 419.033 27.3143C419.453 27.1408 419.903 27.0527 420.357 27.0549H424.02C424.474 27.0527 424.924 27.1408 425.344 27.3143C425.763 27.4877 426.145 27.743 426.466 28.0654C426.787 28.3877 427.041 28.7708 427.214 29.1924C427.387 29.6141 427.474 30.0659 427.472 30.5218L427.35 64.9563C427.341 65.8674 426.973 66.7378 426.325 67.3763C425.678 68.0148 424.805 68.3692 423.898 68.3618H420.762C419.872 68.3339 419.025 67.9661 418.395 67.3334C417.765 66.7007 417.399 65.8506 417.371 64.9563L417.221 63.2173ZM373.06 27.0549H380.225C380.679 27.0614 381.128 27.1582 381.545 27.3397C381.961 27.5211 382.338 27.7837 382.654 28.1123C382.969 28.4408 383.216 28.8288 383.381 29.2538C383.547 29.6788 383.626 30.1325 383.616 30.5886V32.9631C383.609 33.8784 383.244 34.7543 382.601 35.4026C381.957 36.0508 381.086 36.4197 380.175 36.4299H372.993L372.866 64.7612C372.868 65.2173 372.78 65.6694 372.607 66.0914C372.435 66.5133 372.181 66.8967 371.86 67.2195C371.539 67.5423 371.157 67.7981 370.738 67.9722C370.318 68.1462 369.868 68.2351 369.414 68.2336H365.706C365.252 68.2351 364.801 68.1463 364.381 67.9723C363.961 67.7983 363.579 67.5426 363.258 67.2199C362.937 66.8971 362.682 66.5137 362.509 66.0918C362.335 65.6698 362.247 65.2176 362.248 64.7612L362.376 25.5779C362.376 17.0333 367.238 10.2835 375.94 9.51437C376.196 9.51437 376.384 9.45306 376.64 9.45306C377.152 9.41962 377.665 9.41962 378.177 9.45306H381.507C381.961 9.45957 382.409 9.55618 382.825 9.73731C383.242 9.91844 383.618 10.1805 383.934 10.5084C384.249 10.8364 384.496 11.2237 384.662 11.6481C384.827 12.0725 384.908 12.5255 384.898 12.9812V15.1661C384.892 16.0843 384.527 16.9633 383.881 17.6131C383.235 18.2629 382.36 18.6313 381.446 18.6386H378.76C374.664 18.6386 372.938 21.7821 372.871 25.6392L373.06 27.0549ZM347.347 26.9267H355.2C356.107 26.9355 356.974 27.3056 357.61 27.9556C358.245 28.6056 358.598 29.4824 358.591 30.3936V32.768C358.582 33.6791 358.214 34.5495 357.567 35.188C356.919 35.8265 356.046 36.1809 355.139 36.1735H347.28L347.219 53.5078C347.219 56.8521 348.817 58.775 352.142 58.775H353.74C354.648 58.7853 355.515 59.1566 356.15 59.8075C356.786 60.4584 357.139 61.3358 357.131 62.2474V64.6553C357.121 65.5659 356.752 66.4355 356.105 67.0737C355.458 67.7119 354.586 68.0668 353.679 68.0608H350.671C350.115 68.072 349.559 68.0496 349.006 67.994C340.498 67.4366 336.724 61.8963 336.724 53.5413C336.791 42.2991 336.791 31.1237 336.852 19.8815C336.856 19.4299 336.949 18.9835 337.125 18.568C337.301 18.1524 337.557 17.7758 337.878 17.4595C338.199 17.1433 338.579 16.8937 338.996 16.7249C339.413 16.5561 339.86 16.4715 340.309 16.476H343.956C344.863 16.4848 345.73 16.8548 346.365 17.5048C347.001 18.1549 347.354 19.0317 347.347 19.9428V26.9267ZM233.572 26.4752H241.425C242.332 26.4841 243.199 26.8541 243.835 27.5041C244.47 28.1541 244.823 29.031 244.816 29.9421V32.3276C244.806 33.2383 244.437 34.1078 243.79 34.746C243.143 35.3842 242.271 35.7392 241.364 35.7332H233.483V53.0731C233.483 56.4173 235.081 58.3402 238.406 58.3402H240.01C240.459 58.3446 240.902 58.4378 241.316 58.6144C241.729 58.791 242.103 59.0475 242.417 59.3695C242.732 59.6914 242.98 60.0724 243.148 60.4906C243.316 60.9089 243.4 61.3562 243.395 61.8071V64.1815C243.386 65.0926 243.018 65.963 242.371 66.6015C241.723 67.24 240.85 67.5945 239.943 67.5871H237.579C228.299 67.5258 222.927 63.5405 222.927 53.0954C222.993 41.8532 222.993 30.6723 223.054 19.43C223.065 18.5184 223.434 17.648 224.083 17.0097C224.731 16.3713 225.604 16.0171 226.512 16.0245H230.159C231.066 16.0348 231.932 16.4062 232.567 17.0573C233.201 17.7084 233.553 18.5858 233.544 19.4969L233.572 26.4752ZM187.39 31.3578C191.164 27.8241 195.26 25.5779 200.566 25.5779C212.082 25.6392 218.032 35.0532 217.965 45.9387L217.904 64.1815C217.906 64.6379 217.817 65.0901 217.644 65.5121C217.471 65.9341 217.216 66.3174 216.895 66.6402C216.573 66.9629 216.192 67.2186 215.771 67.3926C215.351 67.5666 214.901 67.6554 214.446 67.654H210.739C210.285 67.6554 209.834 67.5666 209.414 67.3926C208.994 67.2186 208.612 66.9629 208.291 66.6402C207.969 66.3174 207.715 65.9341 207.542 65.5121C207.368 65.0901 207.28 64.6379 207.281 64.1815L207.348 46.0669C207.348 40.0919 204.151 35.4043 197.88 35.4043C191.608 35.4043 187.773 40.6102 187.712 46.5184L187.645 64.1815C187.637 65.0926 187.268 65.963 186.621 66.6015C185.974 67.24 185.101 67.5945 184.193 67.5871H180.547C179.64 67.5782 178.773 67.2082 178.137 66.5582C177.502 65.9082 177.149 65.0313 177.156 64.1202C177.217 53.1344 177.217 42.0872 177.284 31.1014V29.6244C177.287 28.7142 177.649 27.8424 178.291 27.1999C178.932 26.5573 179.802 26.1965 180.708 26.1965H183.844C184.735 26.2231 185.582 26.5905 186.212 27.2235C186.843 27.8565 187.208 28.7073 187.235 29.6021L187.39 31.3578ZM301.382 31.8037C305.156 28.2755 309.246 26.0238 314.557 26.0238C326.074 26.0906 332.018 35.5325 331.957 46.3902L331.89 64.6553C331.892 65.1114 331.804 65.5635 331.632 65.9855C331.459 66.4074 331.205 66.7908 330.884 67.1136C330.563 67.4364 330.182 67.6922 329.762 67.8663C329.342 68.0404 328.892 68.1292 328.438 68.1277H324.73C324.276 68.1292 323.826 68.0404 323.406 67.8664C322.985 67.6924 322.604 67.4367 322.282 67.114C321.961 66.7912 321.706 66.4078 321.533 65.9859C321.36 65.5639 321.271 65.1117 321.273 64.6553L321.339 46.5407C321.339 40.5656 318.137 35.8781 311.871 35.8781C305.605 35.8781 301.765 41.0784 301.698 46.9921L301.609 64.6553C301.599 65.5669 301.229 66.4373 300.581 67.0756C299.933 67.714 299.059 68.0683 298.152 68.0608H294.505C293.599 68.0505 292.734 67.6799 292.099 67.03C291.464 66.3802 291.112 65.5042 291.12 64.594L291.247 30.0926C291.249 29.6391 291.34 29.1903 291.514 28.7722C291.689 28.3541 291.945 27.9748 292.266 27.6562C292.587 27.3376 292.968 27.086 293.387 26.9158C293.805 26.7457 294.253 26.6603 294.705 26.6647H297.841C298.735 26.6944 299.584 27.0667 300.214 27.7051C300.843 28.3436 301.205 29.1999 301.226 30.0982L301.382 31.8037ZM152.564 25.2546C140.088 25.1877 131.263 34.245 131.196 46.7079C131.135 59.2989 139.832 68.2336 152.436 68.2949C165.04 68.3562 173.865 59.494 173.926 46.8193C173.992 34.4401 164.974 25.3159 152.564 25.2546ZM256.127 51.0164C257.02 56.7963 262.526 59.1707 267.898 59.2376C270.592 59.214 273.25 58.6235 275.702 57.5042C276.096 57.3429 276.48 57.1567 276.851 56.9468C278.133 56.239 279.282 55.7931 280.436 56.9468C281.074 57.5878 281.651 58.2344 282.29 58.8084C282.892 59.3861 283.449 60.0104 283.955 60.6756C285.681 62.855 284.465 63.3733 282.484 64.7222C278.26 67.5481 272.76 68.9582 267.704 68.9582C254.146 68.8969 245.188 60.5976 245.188 46.8639C245.254 33.8827 254.207 25.2769 267.127 25.3382C280.308 25.4051 287.79 33.1804 287.984 46.4125C288.045 50.0075 288.173 51.1669 284.465 51.1669L256.127 51.0164ZM152.564 34.9529C159.024 34.9529 163.309 40.6102 163.309 46.8416C163.309 53.3295 159.279 58.5465 152.497 58.5465C145.715 58.5465 141.753 53.2793 141.753 46.7915C141.753 40.3037 145.848 34.9529 152.564 34.9529ZM256.41 42.0873L277.65 42.1486C276.878 36.8145 272.466 34.6965 267.416 34.6965C262.365 34.6965 257.981 37.0765 256.41 42.0873Z" fill="#29303A"/>
</g>
<defs>
<clipPath id="clip0_1836_3542">
<rect width="444" height="92" fill="white"/>
</clipPath>
</defs>
</svg>
