<svg width="361" height="72" viewBox="0 0 361 72" fill="none" xmlns="http://www.w3.org/2000/svg">
<path d="M323.511 20.3005C315.797 20.3005 309.398 24.7667 306.559 29.029C304.53 23.2422 299.655 20.3005 292.65 20.3005C285.414 20.3005 279.45 24.1333 276.97 26.9569C275.88 24.7453 274.254 23.0973 272.192 21.9646C269.873 20.6011 266.953 19.9355 263.555 19.9355C261.682 19.9355 259.883 20.2039 258.198 20.6656C252.175 21.7928 247.328 25.4753 244.955 29.029C242.926 23.2422 238.052 20.3005 231.046 20.3005C223.332 20.3005 217.036 24.6648 214.905 27.5098V21.5244H199.273V70.5562H214.905V38.8794C216.531 36.8502 219.473 34.1072 223.633 34.1072C228.405 34.1072 230.134 36.9522 230.134 40.7045V70.5509H245.765V38.8794C246.893 37.3709 248.868 35.476 251.552 34.5956C252.068 34.4453 252.604 34.3219 253.163 34.2145C253.624 34.1447 254.102 34.1072 254.601 34.1072C258.348 34.1072 260.265 35.943 260.871 38.6056V70.5562H261.097H276.508H276.632V38.7291C278.28 36.716 281.179 34.1072 285.242 34.1072C290.014 34.1072 291.737 36.9522 291.737 40.7045V70.5509H307.369V38.8794C308.894 36.8502 311.937 34.1072 316.2 34.1072C320.87 34.1072 322.695 36.9522 322.695 40.7045V70.5509H338.23V35.0251C338.23 24.9761 332.545 20.3005 323.511 20.3005ZM179.465 70.5562H195.096V21.5244H179.465V53.1959C177.64 55.531 174.59 57.9681 170.124 57.9681C165.046 57.9681 162.002 55.939 162.002 50.0503V21.5244H146.365V56.449C146.365 65.4834 151.341 71.7801 162.507 71.7801C170.731 71.7801 176.416 68.1245 179.459 64.6728V70.5562H179.465ZM127.11 42.0304C127.11 36.0397 123.964 34.1125 118.988 34.1125C114.42 34.1125 111.376 36.6516 109.546 38.8847V70.5616H93.9141V2.84363H109.546V27.5152C112.493 24.0635 118.28 20.3059 126.498 20.3059C137.664 20.3059 142.742 26.5973 142.742 35.6371V70.5616H127.11V42.0304Z" fill="#FF6C00"/>
<path d="M76.2854 1.98081L42.4291 35.8371C42.166 36.1001 41.8171 36.2343 41.4682 36.2343C41.1193 36.2343 40.7703 36.1001 40.5073 35.8371C39.9759 35.3057 39.9759 34.4468 40.5073 33.9153L64.1697 10.253L63.649 9.4424C57.3684 3.59123 48.9459 0 39.6806 0C29.9859 0 21.2038 3.92404 14.8373 10.2637C12.5505 12.5881 5.09965 12.9799 0 12.3948C3.15641 16.4477 6.23767 22.6156 5.5774 26.4538C4.86345 29.2505 4.48232 32.1761 4.48232 35.1929C4.48232 54.6307 20.2375 70.3859 39.6753 70.3859C39.8792 70.3859 40.0779 70.3805 40.2818 70.3805V70.3859H74.8736V46.4551C87.0537 34.2374 87.5207 14.7621 76.2854 1.98081Z" fill="#FF6C00"/>
<path d="M24.9828 21.5729C22.9429 21.5729 21.1929 20.3382 20.4307 18.5721C20.1838 17.9387 20.0388 17.2516 20.0334 16.5323C20.0388 16.4088 20.0442 16.2853 20.0549 16.1619C20.0549 16.1243 20.0657 16.0867 20.0657 16.0438C20.4629 17.0261 21.4238 17.7186 22.5511 17.7186C24.0326 17.7186 25.2351 16.5162 25.2351 15.0346C25.2351 13.553 24.0326 12.3506 22.5511 12.3506C22.5189 12.3506 22.4866 12.3613 22.4544 12.3613C23.1952 11.9211 24.0541 11.6635 24.9774 11.6635C27.7151 11.6635 29.9321 13.8805 29.9321 16.6182C29.9375 19.3505 27.7205 21.5729 24.9828 21.5729Z" fill="white"/>
<path d="M355.063 35.2078L353.317 32.0616C354.126 31.7791 355.025 30.983 355.025 29.4934C355.025 27.9011 353.946 26.6426 352.046 26.6426H347.757V35.2078H349.966V32.3313H351.096L352.534 35.2078H355.063ZM351.712 30.4051H349.966V28.5688H351.712C352.303 28.5688 352.778 28.8899 352.778 29.4806C352.778 30.0841 352.303 30.4051 351.712 30.4051Z" fill="#FF6C00"/>
<path fill-rule="evenodd" clip-rule="evenodd" d="M358.086 23.9121C356.218 22.044 353.691 21 350.999 21C348.307 21 345.78 22.044 343.912 23.9121C342.044 25.7802 341 28.3077 341 31C341 33.6923 342.044 36.2198 343.912 38.0879C345.78 39.956 348.307 41 350.999 41C353.691 41 356.218 39.956 358.086 38.0879C359.954 36.2198 360.998 33.6923 360.998 31C361.053 28.3626 360.009 25.8352 358.086 23.9121ZM343.527 31.0549C343.527 35.1758 346.879 38.5275 350.999 38.5275C355.119 38.5275 358.471 35.1758 358.471 31.0549C358.471 26.9341 355.119 23.5824 350.999 23.5824C346.879 23.5824 343.527 26.9341 343.527 31.0549Z" fill="#FF6C00"/>
</svg>
