<?xml version="1.0" encoding="iso-8859-1"?>
<!-- Generator: Adobe Illustrator 18.0.0, SVG Export Plug-In . SVG Version: 6.00 Build 0)  -->
<!DOCTYPE svg PUBLIC "-//W3C//DTD SVG 1.1//EN" "http://www.w3.org/Graphics/SVG/1.1/DTD/svg11.dtd">
<svg version="1.1" id="Capa_1" xmlns="http://www.w3.org/2000/svg" xmlns:xlink="http://www.w3.org/1999/xlink" x="0px" y="0px"
	 viewBox="0 0 57.761 57.761" style="enable-background:new 0 0 57.761 57.761;" xml:space="preserve">
<g>
	<ellipse style="fill:#F4F4F4;" cx="31.332" cy="54.761" rx="15" ry="3"/>
	<ellipse style="fill:#D8D8D8;" cx="26.332" cy="54.761" rx="10" ry="2"/>
	<path style="fill:#E6E6E6;" d="M48.467,32.559c0-3.075-10.328-5.568-23.068-5.568S2.332,29.483,2.332,32.559
		c0,0.045,0,0.135,0,0.135c0,12.74,10.328,23.068,23.068,23.068s23.068-10.328,23.068-23.068
		C48.467,32.693,48.467,32.604,48.467,32.559z"/>
	
		<rect x="14.234" y="7.99" transform="matrix(0.9953 0.0971 -0.0971 0.9953 1.0375 -3.3397)" style="fill:#A46F3E;" width="41.195" height="2"/>
	<path style="fill:#EEAF4B;" d="M17.694,23.76c-0.878-0.728-1.362-1.711-1.362-2.77s0.483-2.042,1.362-2.77
		c0.412-0.342,0.638-0.778,0.638-1.23s-0.227-0.889-0.638-1.23c-0.878-0.728-1.362-1.711-1.362-2.77s0.483-2.042,1.362-2.77
		c0.412-0.342,0.638-0.778,0.638-1.23s-0.227-0.889-0.638-1.23c-0.878-0.728-1.362-1.711-1.362-2.77s0.483-2.042,1.362-2.77
		L18.97,3.76c-0.412,0.342-0.638,0.778-0.638,1.23s0.227,0.889,0.638,1.23c0.878,0.728,1.362,1.711,1.362,2.77
		s-0.483,2.042-1.362,2.77c-0.412,0.342-0.638,0.778-0.638,1.23s0.227,0.889,0.638,1.23c0.878,0.728,1.362,1.711,1.362,2.77
		s-0.483,2.042-1.362,2.77c-0.412,0.342-0.638,0.778-0.638,1.23s0.227,0.889,0.638,1.23L17.694,23.76z"/>
	<path style="fill:#EEAF4B;" d="M21.694,23.76c-0.878-0.728-1.362-1.711-1.362-2.77s0.483-2.042,1.362-2.77
		c0.412-0.342,0.638-0.778,0.638-1.23s-0.227-0.889-0.638-1.23c-0.878-0.728-1.362-1.711-1.362-2.77s0.483-2.042,1.362-2.77
		c0.412-0.342,0.638-0.778,0.638-1.23s-0.227-0.889-0.638-1.23c-0.878-0.728-1.362-1.711-1.362-2.77s0.483-2.042,1.362-2.77
		L22.97,3.76c-0.412,0.342-0.638,0.778-0.638,1.23s0.227,0.889,0.638,1.23c0.878,0.728,1.362,1.711,1.362,2.77
		s-0.483,2.042-1.362,2.77c-0.412,0.342-0.638,0.778-0.638,1.23s0.227,0.889,0.638,1.23c0.878,0.728,1.362,1.711,1.362,2.77
		s-0.483,2.042-1.362,2.77c-0.412,0.342-0.638,0.778-0.638,1.23s0.227,0.889,0.638,1.23L21.694,23.76z"/>
	<path style="fill:#EEAF4B;" d="M25.694,23.76c-0.878-0.728-1.362-1.711-1.362-2.77s0.483-2.042,1.362-2.77
		c0.412-0.342,0.638-0.778,0.638-1.23s-0.227-0.889-0.638-1.23c-0.878-0.728-1.362-1.711-1.362-2.77s0.483-2.042,1.362-2.77
		c0.412-0.342,0.638-0.778,0.638-1.23s-0.227-0.889-0.638-1.23c-0.878-0.728-1.362-1.711-1.362-2.77s0.483-2.042,1.362-2.77
		L26.97,3.76c-0.412,0.342-0.638,0.778-0.638,1.23s0.227,0.889,0.638,1.23c0.878,0.728,1.362,1.711,1.362,2.77
		s-0.483,2.042-1.362,2.77c-0.412,0.342-0.638,0.778-0.638,1.23s0.227,0.889,0.638,1.23c0.878,0.728,1.362,1.711,1.362,2.77
		s-0.483,2.042-1.362,2.77c-0.412,0.342-0.638,0.778-0.638,1.23s0.227,0.889,0.638,1.23L25.694,23.76z"/>
	<path style="fill:#EEAF4B;" d="M29.694,23.76c-0.878-0.728-1.362-1.711-1.362-2.77s0.483-2.042,1.362-2.77
		c0.412-0.342,0.638-0.778,0.638-1.23s-0.227-0.889-0.638-1.23c-0.878-0.728-1.362-1.711-1.362-2.77s0.483-2.042,1.362-2.77
		c0.412-0.342,0.638-0.778,0.638-1.23s-0.227-0.889-0.638-1.23c-0.878-0.728-1.362-1.711-1.362-2.77s0.483-2.042,1.362-2.77
		L30.97,3.76c-0.412,0.342-0.638,0.778-0.638,1.23s0.227,0.889,0.638,1.23c0.878,0.728,1.362,1.711,1.362,2.77
		s-0.483,2.042-1.362,2.77c-0.412,0.342-0.638,0.778-0.638,1.23s0.227,0.889,0.638,1.23c0.878,0.728,1.362,1.711,1.362,2.77
		s-0.483,2.042-1.362,2.77c-0.412,0.342-0.638,0.778-0.638,1.23s0.227,0.889,0.638,1.23L29.694,23.76z"/>
	<ellipse style="fill:#FBD490;" cx="25.399" cy="32.558" rx="23.068" ry="5.568"/>
	<path style="fill:#EEAF4B;" d="M34.562,36.399c-0.683-0.824-1.778-0.824-2.461,0l-1.539-1.277c0.728-0.878,1.711-1.361,2.77-1.361
		s2.042,0.483,2.77,1.361L34.562,36.399z"/>
	<path style="fill:#EEAF4B;" d="M40.562,35.399c-0.683-0.824-1.778-0.824-2.461,0l-1.539-1.277c0.728-0.878,1.711-1.361,2.77-1.361
		s2.042,0.483,2.77,1.361L40.562,35.399z"/>
	<path style="fill:#EEAF4B;" d="M44.562,33.399c-0.683-0.824-1.778-0.824-2.461,0l-1.539-1.277c0.728-0.878,1.711-1.361,2.77-1.361
		s2.042,0.483,2.77,1.361L44.562,33.399z"/>
	<path style="fill:#EEAF4B;" d="M38.562,32.399c-0.683-0.824-1.778-0.824-2.461,0l-1.539-1.277c0.728-0.878,1.711-1.361,2.77-1.361
		s2.042,0.483,2.77,1.361L38.562,32.399z"/>
	<path style="fill:#EEAF4B;" d="M32.562,33.399c-0.683-0.824-1.778-0.824-2.461,0l-1.539-1.277c0.728-0.878,1.711-1.361,2.77-1.361
		s2.042,0.483,2.77,1.361L32.562,33.399z"/>
	<path style="fill:#EEAF4B;" d="M32.562,30.399c-0.683-0.824-1.778-0.824-2.461,0l-1.539-1.277c0.728-0.878,1.711-1.361,2.77-1.361
		s2.042,0.483,2.77,1.361L32.562,30.399z"/>
	<path style="fill:#EEAF4B;" d="M26.562,32.399c-0.683-0.824-1.778-0.824-2.461,0l-1.539-1.277c0.728-0.878,1.711-1.361,2.77-1.361
		s2.042,0.483,2.77,1.361L26.562,32.399z"/>
	<path style="fill:#EEAF4B;" d="M27.562,36.399c-0.683-0.824-1.778-0.824-2.461,0l-1.539-1.277c0.728-0.878,1.711-1.361,2.77-1.361
		s2.042,0.483,2.77,1.361L27.562,36.399z"/>
	<path style="fill:#EEAF4B;" d="M21.562,36.399c-0.683-0.824-1.778-0.824-2.461,0l-1.539-1.277c0.728-0.878,1.711-1.361,2.77-1.361
		s2.042,0.483,2.77,1.361L21.562,36.399z"/>
	<path style="fill:#EEAF4B;" d="M9.562,35.399c-0.683-0.824-1.778-0.824-2.461,0l-1.539-1.277c0.728-0.878,1.711-1.361,2.77-1.361
		s2.042,0.483,2.77,1.361L9.562,35.399z"/>
	<path style="fill:#EEAF4B;" d="M16.562,35.399c-0.683-0.824-1.778-0.824-2.461,0l-1.539-1.277c0.728-0.878,1.711-1.361,2.77-1.361
		s2.042,0.483,2.77,1.361L16.562,35.399z"/>
	<path style="fill:#EEAF4B;" d="M19.562,32.399c-0.683-0.824-1.778-0.824-2.461,0l-1.539-1.277c0.728-0.878,1.711-1.361,2.77-1.361
		s2.042,0.483,2.77,1.361L19.562,32.399z"/>
	<path style="fill:#EEAF4B;" d="M11.562,32.399c-0.683-0.824-1.778-0.824-2.461,0l-1.539-1.277c0.728-0.878,1.711-1.361,2.77-1.361
		s2.042,0.483,2.77,1.361L11.562,32.399z"/>
	
		<rect x="31.832" y="-17.718" transform="matrix(0.1382 0.9904 -0.9904 0.1382 32.2461 -29.078)" style="fill:#AF7F58;" width="2" height="43.417"/>
	<path style="fill:#EDEDED;" d="M18.624,52.181c-9.44-1.46-11.3-13.42-11.3-13.42c2.865,1.45,5.293,2.767,6.198,4.954
		c3.225,0.168,4.927,1.206,4.384,4.283c8.688,2.048,8.378,3.64,5.943,4.859C22.299,52.706,18.624,52.181,18.624,52.181z"/>
</g>
<g>
</g>
<g>
</g>
<g>
</g>
<g>
</g>
<g>
</g>
<g>
</g>
<g>
</g>
<g>
</g>
<g>
</g>
<g>
</g>
<g>
</g>
<g>
</g>
<g>
</g>
<g>
</g>
<g>
</g>
</svg>
