<svg width="395" height="388" viewBox="0 0 395 388" fill="none" xmlns="http://www.w3.org/2000/svg">
<path fill-rule="evenodd" clip-rule="evenodd" d="M366.5 0H135C119.536 0 107 12.536 107 28V360C107 375.464 119.536 388 135 388H366.5C381.964 388 394.5 375.464 394.5 360V28C394.5 12.536 381.964 0 366.5 0ZM238.801 24H146C137.716 24 131 30.7158 131 39.0001V327.001C131 335.285 137.716 342.001 146 342.001H238.801C247.085 342.001 253.801 335.285 253.801 327.001V39.0001C253.801 30.7158 247.085 24 238.801 24ZM286.799 24H322.799C331.083 24 337.799 30.7158 337.799 39.0001V75.0002C337.799 83.2845 331.083 90.0003 322.799 90.0003H286.799C278.515 90.0003 271.799 83.2845 271.799 75.0002V39.0001C271.799 30.7158 278.515 24 286.799 24ZM322.799 108H286.799C278.515 108 271.799 114.716 271.799 123V159C271.799 167.285 278.515 174 286.799 174H322.799C331.083 174 337.799 167.285 337.799 159V123C337.799 114.716 331.083 108 322.799 108ZM286.799 192.001H322.799C331.083 192.001 337.799 198.717 337.799 207.001V243.001C337.799 251.286 331.083 258.001 322.799 258.001H286.799C278.515 258.001 271.799 251.286 271.799 243.001V207.001C271.799 198.717 278.515 192.001 286.799 192.001Z" fill="#0080FF" fill-opacity="0.07"/>
<path d="M196.599 375.11C196.078 375.11 195.627 375.015 195.246 374.824C194.865 374.626 194.568 374.351 194.355 373.999C194.15 373.64 194.047 373.218 194.047 372.734V369.236C194.047 368.752 194.15 368.334 194.355 367.982C194.568 367.623 194.865 367.348 195.246 367.157C195.627 366.959 196.078 366.86 196.599 366.86C197.112 366.86 197.56 366.959 197.941 367.157C198.322 367.348 198.619 367.623 198.832 367.982C199.045 368.334 199.151 368.752 199.151 369.236H197.765C197.765 368.862 197.662 368.576 197.457 368.378C197.259 368.173 196.973 368.07 196.599 368.07C196.225 368.07 195.935 368.169 195.73 368.367C195.525 368.565 195.422 368.851 195.422 369.225V372.734C195.422 373.108 195.525 373.398 195.73 373.603C195.935 373.801 196.225 373.9 196.599 373.9C196.973 373.9 197.259 373.801 197.457 373.603C197.662 373.398 197.765 373.108 197.765 372.734H199.151C199.151 373.218 199.045 373.64 198.832 373.999C198.619 374.351 198.322 374.626 197.941 374.824C197.56 375.015 197.112 375.11 196.599 375.11ZM201.732 375V366.97H203.107V373.757H206.517V375H201.732ZM210.846 375.11C210.076 375.11 209.464 374.897 209.009 374.472C208.562 374.039 208.338 373.46 208.338 372.734V369.236C208.338 368.51 208.562 367.934 209.009 367.509C209.464 367.076 210.076 366.86 210.846 366.86C211.616 366.86 212.225 367.076 212.672 367.509C213.127 367.934 213.354 368.506 213.354 369.225V372.734C213.354 373.46 213.127 374.039 212.672 374.472C212.225 374.897 211.616 375.11 210.846 375.11ZM210.846 373.9C211.22 373.9 211.503 373.801 211.693 373.603C211.884 373.398 211.979 373.108 211.979 372.734V369.236C211.979 368.862 211.884 368.576 211.693 368.378C211.503 368.173 211.22 368.07 210.846 368.07C210.472 368.07 210.19 368.173 209.999 368.378C209.809 368.576 209.713 368.862 209.713 369.236V372.734C209.713 373.108 209.809 373.398 209.999 373.603C210.19 373.801 210.472 373.9 210.846 373.9ZM217.992 375.11C217.208 375.11 216.592 374.897 216.144 374.472C215.704 374.039 215.484 373.453 215.484 372.712V366.97H216.87V372.701C216.87 373.082 216.966 373.379 217.156 373.592C217.347 373.805 217.626 373.911 217.992 373.911C218.352 373.911 218.627 373.805 218.817 373.592C219.015 373.379 219.114 373.082 219.114 372.701V366.97H220.5V372.712C220.5 373.453 220.28 374.039 219.84 374.472C219.4 374.897 218.784 375.11 217.992 375.11ZM222.663 375V366.97H225.05C225.593 366.97 226.062 367.076 226.458 367.289C226.861 367.494 227.173 367.784 227.393 368.158C227.613 368.532 227.723 368.972 227.723 369.478V372.481C227.723 372.987 227.613 373.431 227.393 373.812C227.173 374.186 226.861 374.479 226.458 374.692C226.062 374.897 225.593 375 225.05 375H222.663ZM224.038 373.768H225.05C225.446 373.768 225.761 373.654 225.996 373.427C226.231 373.192 226.348 372.877 226.348 372.481V369.478C226.348 369.089 226.231 368.781 225.996 368.554C225.761 368.319 225.446 368.202 225.05 368.202H224.038V373.768ZM239.451 375.11C238.901 375.11 238.425 375.018 238.021 374.835C237.625 374.644 237.314 374.38 237.086 374.043C236.866 373.698 236.756 373.295 236.756 372.833H238.131C238.131 373.163 238.252 373.427 238.494 373.625C238.736 373.816 239.059 373.911 239.462 373.911C239.858 373.911 240.166 373.816 240.386 373.625C240.614 373.434 240.727 373.174 240.727 372.844C240.727 372.573 240.65 372.342 240.496 372.151C240.342 371.953 240.13 371.817 239.858 371.744L238.89 371.48C238.267 371.311 237.783 371.022 237.438 370.611C237.094 370.193 236.921 369.691 236.921 369.104C236.921 368.422 237.149 367.879 237.603 367.476C238.058 367.065 238.67 366.86 239.44 366.86C240.218 366.86 240.834 367.062 241.288 367.465C241.75 367.861 241.981 368.396 241.981 369.071H240.606C240.606 368.763 240.5 368.517 240.287 368.334C240.082 368.151 239.796 368.059 239.429 368.059C239.07 368.059 238.788 368.151 238.582 368.334C238.384 368.51 238.285 368.759 238.285 369.082C238.285 369.331 238.359 369.548 238.505 369.731C238.659 369.914 238.879 370.043 239.165 370.116L240.144 370.391C240.768 370.56 241.248 370.853 241.585 371.271C241.93 371.682 242.102 372.191 242.102 372.8C242.102 373.262 241.992 373.669 241.772 374.021C241.552 374.366 241.244 374.633 240.848 374.824C240.452 375.015 239.987 375.11 239.451 375.11ZM244.243 375V366.97H249.061V368.18H245.596V370.27H248.676V371.436H245.596V373.79H249.061V375H244.243ZM251.257 375V366.97H253.798C254.333 366.97 254.795 367.069 255.184 367.267C255.58 367.465 255.888 367.744 256.108 368.103C256.328 368.455 256.438 368.873 256.438 369.357C256.438 369.892 256.302 370.362 256.031 370.765C255.767 371.161 255.407 371.443 254.953 371.612L256.548 375H255.008L253.611 371.81H252.632V375H251.257ZM252.632 370.6H253.798C254.186 370.6 254.491 370.494 254.711 370.281C254.931 370.068 255.041 369.775 255.041 369.401C255.041 369.027 254.927 368.73 254.7 368.51C254.48 368.29 254.179 368.18 253.798 368.18H252.632V370.6ZM259.975 375L257.951 366.97H259.37L260.591 372.206C260.657 372.463 260.716 372.741 260.767 373.042C260.826 373.335 260.87 373.57 260.899 373.746C260.929 373.57 260.969 373.335 261.02 373.042C261.079 372.741 261.141 372.459 261.207 372.195L262.384 366.97H263.781L261.757 375H259.975ZM265.702 375V373.757H267.319V368.213H265.702V366.97H270.322V368.213H268.705V373.757H270.322V375H265.702ZM275.202 375.11C274.681 375.11 274.23 375.015 273.849 374.824C273.467 374.626 273.17 374.351 272.958 373.999C272.752 373.64 272.65 373.218 272.65 372.734V369.236C272.65 368.752 272.752 368.334 272.958 367.982C273.17 367.623 273.467 367.348 273.849 367.157C274.23 366.959 274.681 366.86 275.202 366.86C275.715 366.86 276.162 366.959 276.544 367.157C276.925 367.348 277.222 367.623 277.435 367.982C277.647 368.334 277.754 368.752 277.754 369.236H276.368C276.368 368.862 276.265 368.576 276.06 368.378C275.862 368.173 275.576 368.07 275.202 368.07C274.828 368.07 274.538 368.169 274.333 368.367C274.127 368.565 274.025 368.851 274.025 369.225V372.734C274.025 373.108 274.127 373.398 274.333 373.603C274.538 373.801 274.828 373.9 275.202 373.9C275.576 373.9 275.862 373.801 276.06 373.603C276.265 373.398 276.368 373.108 276.368 372.734H277.754C277.754 373.218 277.647 373.64 277.435 373.999C277.222 374.351 276.925 374.626 276.544 374.824C276.162 375.015 275.715 375.11 275.202 375.11ZM279.972 375V366.97H284.79V368.18H281.325V370.27H284.405V371.436H281.325V373.79H284.79V375H279.972ZM289.471 375.11C288.921 375.11 288.445 375.018 288.041 374.835C287.645 374.644 287.334 374.38 287.106 374.043C286.886 373.698 286.776 373.295 286.776 372.833H288.151C288.151 373.163 288.272 373.427 288.514 373.625C288.756 373.816 289.079 373.911 289.482 373.911C289.878 373.911 290.186 373.816 290.406 373.625C290.634 373.434 290.747 373.174 290.747 372.844C290.747 372.573 290.67 372.342 290.516 372.151C290.362 371.953 290.15 371.817 289.878 371.744L288.91 371.48C288.287 371.311 287.803 371.022 287.458 370.611C287.114 370.193 286.941 369.691 286.941 369.104C286.941 368.422 287.169 367.879 287.623 367.476C288.078 367.065 288.69 366.86 289.46 366.86C290.238 366.86 290.854 367.062 291.308 367.465C291.77 367.861 292.001 368.396 292.001 369.071H290.626C290.626 368.763 290.52 368.517 290.307 368.334C290.102 368.151 289.816 368.059 289.449 368.059C289.09 368.059 288.808 368.151 288.602 368.334C288.404 368.51 288.305 368.759 288.305 369.082C288.305 369.331 288.379 369.548 288.525 369.731C288.679 369.914 288.899 370.043 289.185 370.116L290.164 370.391C290.788 370.56 291.268 370.853 291.605 371.271C291.95 371.682 292.122 372.191 292.122 372.8C292.122 373.262 292.012 373.669 291.792 374.021C291.572 374.366 291.264 374.633 290.868 374.824C290.472 375.015 290.007 375.11 289.471 375.11Z" fill="#0081F1"/>
<path fill-rule="evenodd" clip-rule="evenodd" d="M146.002 24H238.803C247.087 24 253.803 30.7158 253.803 39.0001V327.001C253.803 335.285 247.087 342.001 238.803 342.001H146.002C137.718 342.001 131.002 335.285 131.002 327.001V39.0001C131.002 30.7158 137.718 24 146.002 24ZM146.715 268.001H237.858C241.724 268.001 244.858 271.135 244.858 275.001V326.276C244.858 330.142 241.724 333.276 237.858 333.276H146.715C142.849 333.276 139.715 330.142 139.715 326.276V275.001C139.715 271.135 142.849 268.001 146.715 268.001Z" fill="#9176FF" fill-opacity="0.1"/>
<path d="M238.803 24H146.002C137.718 24 131.002 30.7158 131.002 39.0001V327.001C131.002 335.285 137.718 342.001 146.002 342.001H238.803C247.087 342.001 253.803 335.285 253.803 327.001V39.0001C253.803 30.7158 247.087 24 238.803 24Z" stroke="#644FC1"/>
<path d="M237.858 268.001H146.715C142.849 268.001 139.715 271.135 139.715 275.001V326.276C139.715 330.142 142.849 333.276 146.715 333.276H237.858C241.724 333.276 244.858 330.142 244.858 326.276V275.001C244.858 271.135 241.724 268.001 237.858 268.001Z" fill="#02BB3C" fill-opacity="0.09"/>
<path d="M237.858 268.001H146.715C142.849 268.001 139.715 271.135 139.715 275.001V326.276C139.715 330.142 142.849 333.276 146.715 333.276H237.858C241.724 333.276 244.858 330.142 244.858 326.276V275.001C244.858 271.135 241.724 268.001 237.858 268.001Z" stroke="#299764"/>
<mask id="mask0_4162_48225" style="mask-type:alpha" maskUnits="userSpaceOnUse" x="175" y="273" width="34" height="34">
<path opacity="0.2" d="M187.75 288.938C193.618 288.938 198.375 286.797 198.375 284.156C198.375 281.516 193.618 279.375 187.75 279.375C181.882 279.375 177.125 281.516 177.125 284.156C177.125 286.797 181.882 288.938 187.75 288.938Z" fill="black"/>
<path opacity="0.2" d="M198.375 285.843C203.223 286.294 206.875 288.22 206.875 290.531C206.875 293.174 202.12 295.312 196.25 295.312C193.647 295.312 191.256 294.887 189.41 294.197C194.497 293.838 198.375 291.859 198.375 289.469V285.843Z" fill="black"/>
<path d="M187.75 288.938C193.618 288.938 198.375 286.797 198.375 284.156C198.375 281.516 193.618 279.375 187.75 279.375C181.882 279.375 177.125 281.516 177.125 284.156C177.125 286.797 181.882 288.938 187.75 288.938Z" stroke="black" stroke-width="1.5" stroke-linecap="round" stroke-linejoin="round"/>
<path d="M177.125 284.156V289.469C177.125 292.112 181.88 294.25 187.75 294.25C193.62 294.25 198.375 292.112 198.375 289.469V284.156" stroke="black" stroke-width="1.5" stroke-linecap="round" stroke-linejoin="round"/>
<path d="M183.5 288.539V293.852" stroke="black" stroke-width="1.5" stroke-linecap="round" stroke-linejoin="round"/>
<path d="M198.375 285.843C203.223 286.294 206.875 288.22 206.875 290.531C206.875 293.174 202.12 295.312 196.25 295.312C193.647 295.312 191.256 294.887 189.41 294.197" stroke="black" stroke-width="1.5" stroke-linecap="round" stroke-linejoin="round"/>
<path d="M185.625 294.157V295.844C185.625 298.487 190.38 300.625 196.25 300.625C202.12 300.625 206.875 298.487 206.875 295.844V290.531" stroke="black" stroke-width="1.5" stroke-linecap="round" stroke-linejoin="round"/>
<path d="M200.5 294.914V300.227" stroke="black" stroke-width="1.5" stroke-linecap="round" stroke-linejoin="round"/>
<path d="M192 288.539V300.227" stroke="black" stroke-width="1.5" stroke-linecap="round" stroke-linejoin="round"/>
</mask>
<g mask="url(#mask0_4162_48225)">
<rect x="175" y="273" width="34" height="34" fill="#299764"/>
</g>
<path d="M165.039 323V314.97H167.712C168.248 314.97 168.713 315.073 169.109 315.278C169.513 315.483 169.824 315.773 170.044 316.147C170.264 316.514 170.374 316.946 170.374 317.445C170.374 317.944 170.264 318.38 170.044 318.754C169.824 319.121 169.513 319.407 169.109 319.612C168.713 319.817 168.248 319.92 167.712 319.92H166.414V323H165.039ZM166.414 318.71H167.712C168.101 318.71 168.409 318.593 168.636 318.358C168.864 318.123 168.977 317.819 168.977 317.445C168.977 317.071 168.864 316.767 168.636 316.532C168.409 316.297 168.101 316.18 167.712 316.18H166.414V318.71ZM171.723 323L173.747 314.97H175.518L177.553 323H176.145L175.705 321.053H173.571L173.131 323H171.723ZM173.824 319.931H175.452L174.968 317.775C174.887 317.416 174.818 317.093 174.759 316.807C174.7 316.514 174.66 316.301 174.638 316.169C174.616 316.301 174.576 316.514 174.517 316.807C174.458 317.093 174.389 317.412 174.308 317.764L173.824 319.931ZM181.091 323V320.085L178.737 314.97H180.178L181.432 317.753C181.527 317.973 181.608 318.189 181.674 318.402C181.74 318.615 181.784 318.78 181.806 318.897C181.835 318.78 181.879 318.615 181.938 318.402C182.004 318.189 182.084 317.973 182.18 317.753L183.401 314.97H184.831L182.477 320.085V323H181.091ZM186.245 323V314.97H187.873L188.643 317.522C188.724 317.779 188.786 318.013 188.83 318.226C188.882 318.431 188.915 318.585 188.929 318.688C188.944 318.585 188.973 318.431 189.017 318.226C189.069 318.013 189.135 317.779 189.215 317.522L189.974 314.97H191.613V323H190.326V319.623C190.326 318.882 190.356 318.197 190.414 317.566C190.473 316.928 190.539 316.323 190.612 315.751L189.523 319.546H188.324L187.224 315.828C187.298 316.341 187.367 316.906 187.433 317.522C187.499 318.131 187.532 318.831 187.532 319.623V323H186.245ZM193.743 323V314.97H198.561V316.18H195.096V318.27H198.176V319.436H195.096V321.79H198.561V323H193.743ZM200.713 323V314.97H202.396L204.629 321.46C204.607 321.225 204.585 320.95 204.563 320.635C204.541 320.312 204.519 319.986 204.497 319.656C204.482 319.326 204.475 319.033 204.475 318.776V314.97H205.729V323H204.046L201.835 316.51C201.849 316.723 201.868 316.979 201.89 317.28C201.912 317.581 201.93 317.889 201.945 318.204C201.959 318.519 201.967 318.809 201.967 319.073V323H200.713ZM209.673 323V316.213H207.572V314.97H213.16V316.213H211.059V323H209.673ZM217.534 323.11C216.984 323.11 216.507 323.018 216.104 322.835C215.708 322.644 215.396 322.38 215.169 322.043C214.949 321.698 214.839 321.295 214.839 320.833H216.214C216.214 321.163 216.335 321.427 216.577 321.625C216.819 321.816 217.142 321.911 217.545 321.911C217.941 321.911 218.249 321.816 218.469 321.625C218.696 321.434 218.81 321.174 218.81 320.844C218.81 320.573 218.733 320.342 218.579 320.151C218.425 319.953 218.212 319.817 217.941 319.744L216.973 319.48C216.35 319.311 215.866 319.022 215.521 318.611C215.176 318.193 215.004 317.691 215.004 317.104C215.004 316.422 215.231 315.879 215.686 315.476C216.141 315.065 216.753 314.86 217.523 314.86C218.3 314.86 218.916 315.062 219.371 315.465C219.833 315.861 220.064 316.396 220.064 317.071H218.689C218.689 316.763 218.583 316.517 218.37 316.334C218.165 316.151 217.879 316.059 217.512 316.059C217.153 316.059 216.87 316.151 216.665 316.334C216.467 316.51 216.368 316.759 216.368 317.082C216.368 317.331 216.441 317.548 216.588 317.731C216.742 317.914 216.962 318.043 217.248 318.116L218.227 318.391C218.85 318.56 219.331 318.853 219.668 319.271C220.013 319.682 220.185 320.191 220.185 320.8C220.185 321.262 220.075 321.669 219.855 322.021C219.635 322.366 219.327 322.633 218.931 322.824C218.535 323.015 218.069 323.11 217.534 323.11Z" fill="#299764"/>
<mask id="mask1_4162_48225" style="mask-type:alpha" maskUnits="userSpaceOnUse" x="169" y="158" width="49" height="49">
<path opacity="0.2" d="M180.259 166.139H206.022C206.319 166.139 206.61 166.228 206.857 166.394C207.103 166.56 207.295 166.796 207.408 167.071C207.52 167.346 207.548 167.649 207.489 167.94C207.429 168.232 207.284 168.499 207.072 168.707L179.209 196.57C178.997 196.779 178.852 197.046 178.792 197.337C178.733 197.628 178.761 197.931 178.873 198.206C178.986 198.482 179.178 198.717 179.424 198.883C179.671 199.049 179.962 199.138 180.259 199.139H206.022C206.319 199.138 206.61 199.049 206.857 198.883C207.103 198.717 207.295 198.482 207.408 198.206C207.52 197.931 207.548 197.628 207.489 197.337C207.429 197.046 207.284 196.779 207.072 196.57L179.209 168.707C178.997 168.499 178.852 168.232 178.792 167.94C178.733 167.649 178.761 167.346 178.873 167.071C178.986 166.796 179.178 166.56 179.424 166.394C179.671 166.228 179.962 166.139 180.259 166.139Z" fill="black"/>
<path d="M180.259 166.139H206.022C206.319 166.139 206.61 166.228 206.857 166.394C207.103 166.56 207.295 166.796 207.408 167.071C207.52 167.346 207.548 167.649 207.489 167.94C207.429 168.232 207.284 168.499 207.072 168.707L193.14 182.639L179.209 168.707C178.997 168.499 178.852 168.232 178.792 167.94C178.733 167.649 178.761 167.346 178.873 167.071C178.986 166.796 179.178 166.56 179.424 166.394C179.671 166.228 179.962 166.139 180.259 166.139V166.139Z" stroke="black" stroke-width="1.5" stroke-linecap="round" stroke-linejoin="round"/>
<path d="M180.259 199.139H206.022C206.319 199.138 206.61 199.049 206.857 198.883C207.103 198.717 207.295 198.482 207.408 198.206C207.52 197.931 207.548 197.628 207.489 197.337C207.429 197.046 207.284 196.779 207.072 196.57L193.14 182.639L179.209 196.57C178.997 196.779 178.852 197.046 178.792 197.337C178.733 197.628 178.761 197.931 178.873 198.206C178.986 198.482 179.178 198.717 179.424 198.883C179.671 199.049 179.962 199.138 180.259 199.139Z" stroke="black" stroke-width="1.5" stroke-linecap="round" stroke-linejoin="round"/>
</mask>
<g mask="url(#mask1_4162_48225)">
<rect x="169.141" y="158.639" width="48" height="48" fill="#644FC1"/>
</g>
<path d="M87 58H131" stroke="#0E9888"/>
<path d="M87 142H131" stroke="#0E9888"/>
<path d="M87 226H131" stroke="#0E9888"/>
<path d="M254.801 58.3994H270.801" stroke="#0894B3"/>
<path d="M254.801 142.399H270.801" stroke="#0894B3"/>
<path d="M254.801 226.399H270.801" stroke="#0894B3"/>
<path d="M304.6 91V107.8" stroke="#0894B3"/>
<path d="M304.6 175V191.8" stroke="#0894B3"/>
<path d="M36.0001 24.5H72.0002C80.0084 24.5 86.5003 30.9919 86.5003 39.0001V75.0002C86.5003 83.0084 80.0084 89.5003 72.0002 89.5003H36.0001C27.9919 89.5003 21.5 83.0084 21.5 75.0002V39.0001C21.5 30.9919 27.9919 24.5 36.0001 24.5Z" fill="#02C097" fill-opacity="0.095" stroke="#0E9888"/>
<path d="M50.0506 65.8002C50.0506 66.2694 49.67 66.6502 49.1996 66.6502C48.7302 66.6502 48.3496 66.2699 48.3496 65.8002C48.3496 65.33 48.7308 64.9492 49.1996 64.9492C49.6694 64.9492 50.0506 65.3304 50.0506 65.8002Z" fill="#0E9888" stroke="#0E9888" stroke-width="1.5"/>
<path d="M60.449 65.8002C60.449 66.27 60.0688 66.6502 59.599 66.6502C59.1286 66.6502 58.748 66.2694 58.748 65.8002C58.748 65.3304 59.1293 64.9492 59.599 64.9492C60.0682 64.9492 60.449 65.3298 60.449 65.8002Z" fill="#0E9888" stroke="#0E9888" stroke-width="1.5"/>
<path d="M45.428 51.3994H63.3686L60.7286 60.6393C60.6336 60.9753 60.4326 61.2703 60.1536 61.4793C59.8756 61.6893 59.5366 61.8013 59.1876 61.7993H49.6077C49.2597 61.8013 48.9205 61.6893 48.6423 61.4793C48.3641 61.2703 48.1622 60.9753 48.068 60.6393L44.4481 47.9794C44.4003 47.8122 44.2991 47.6651 44.1602 47.5604C44.0213 47.4557 43.852 47.3992 43.678 47.3994H41.998" stroke="#0E9888" stroke-width="1.5" stroke-linecap="round" stroke-linejoin="round"/>
<path d="M36.0001 108.5H72.0002C80.0084 108.5 86.5003 114.992 86.5003 123V159C86.5003 167.008 80.0084 173.5 72.0002 173.5H36.0001C27.9919 173.5 21.5 167.008 21.5 159V123C21.5 114.992 27.9919 108.5 36.0001 108.5Z" fill="#02C097" fill-opacity="0.095" stroke="#0E9888"/>
<path d="M58.7988 136.2H63.0588C63.2188 136.199 63.3748 136.246 63.5068 136.335C63.6388 136.424 63.7408 136.551 63.7988 136.7L65.1988 140.2" stroke="#0E9888" stroke-width="1.5" stroke-linecap="round" stroke-linejoin="round"/>
<path d="M42.8008 142.601H58.8006" stroke="#0E9888" stroke-width="1.5" stroke-linecap="round" stroke-linejoin="round"/>
<path d="M59.9996 149.801C61.3256 149.801 62.3996 148.726 62.3996 147.401C62.3996 146.075 61.3256 145.001 59.9996 145.001C58.6746 145.001 57.5996 146.075 57.5996 147.401C57.5996 148.726 58.6746 149.801 59.9996 149.801Z" stroke="#0E9888" stroke-width="1.5" stroke-miterlimit="10"/>
<path d="M47.9978 149.801C49.3237 149.801 50.3977 148.726 50.3977 147.401C50.3977 146.075 49.3237 145.001 47.9978 145.001C46.6723 145.001 45.5977 146.075 45.5977 147.401C45.5977 148.726 46.6723 149.801 47.9978 149.801Z" stroke="#0E9888" stroke-width="1.5" stroke-miterlimit="10"/>
<path d="M57.5984 147.4H50.3984" stroke="#0E9888" stroke-width="1.5" stroke-linecap="round" stroke-linejoin="round"/>
<path d="M45.6008 147.4H43.6008C43.3886 147.4 43.1851 147.316 43.0351 147.166C42.885 147.016 42.8008 146.813 42.8008 146.6V135.4C42.8008 135.188 42.885 134.985 43.0351 134.835C43.1851 134.685 43.3886 134.6 43.6008 134.6H58.8006V145.32" stroke="#0E9888" stroke-width="1.5" stroke-linecap="round" stroke-linejoin="round"/>
<path d="M58.7988 140.2H65.1998V146.6C65.1998 146.812 65.1148 147.016 64.9648 147.166C64.8148 147.316 64.6118 147.4 64.3998 147.4H62.3988" stroke="#0E9888" stroke-width="1.5" stroke-linecap="round" stroke-linejoin="round"/>
<path d="M36.0001 192.501H72.0002C80.0084 192.501 86.5003 198.993 86.5003 207.001V243.001C86.5003 251.009 80.0084 257.501 72.0002 257.501H36.0001C27.9919 257.501 21.5 251.009 21.5 243.001V207.001C21.5 198.993 27.9919 192.501 36.0001 192.501Z" fill="#02C097" fill-opacity="0.095" stroke="#0E9888"/>
<path d="M54 217.801V232.201" stroke="#0E9888" stroke-width="1.5" stroke-linecap="round" stroke-linejoin="round"/>
<path d="M46 221.001V217.801H61.9996V221.001" stroke="#0E9888" stroke-width="1.5" stroke-linecap="round" stroke-linejoin="round"/>
<path d="M50.7988 232.201H57.1988" stroke="#0E9888" stroke-width="1.5" stroke-linecap="round" stroke-linejoin="round"/>
<path d="M55 90L55 108" stroke="#0E9888"/>
<path d="M55 174L55 192" stroke="#0E9888"/>
<g opacity="0.5">
<path d="M45.1973 309.001H62.7977" stroke="#0E9888" stroke-width="1.5" stroke-linecap="round" stroke-linejoin="round"/>
<path d="M72.0002 276.001H36.0001C27.7158 276.001 21 282.717 21 291.001V327.001C21 335.286 27.7158 342.001 36.0001 342.001H72.0002C80.2845 342.001 87.0003 335.286 87.0003 327.001V291.001C87.0003 282.717 80.2845 276.001 72.0002 276.001Z" stroke="#0E9888" stroke-dasharray="4 4"/>
<path d="M53.998 300.201V317.801" stroke="#0E9888" stroke-width="1.5" stroke-linecap="round" stroke-linejoin="round"/>
</g>
<path d="M322.801 24H286.801C278.517 24 271.801 30.7158 271.801 39.0001V75.0002C271.801 83.2845 278.517 90.0003 286.801 90.0003H322.801C331.085 90.0003 337.801 83.2845 337.801 75.0002V39.0001C337.801 30.7158 331.085 24 322.801 24Z" fill="#02BFD4" fill-opacity="0.095"/>
<path d="M304.799 66.5992C310.101 66.5992 314.399 62.3012 314.399 56.9992C314.399 51.6975 310.101 47.3994 304.799 47.3994C299.497 47.3994 295.199 51.6975 295.199 56.9992C295.199 62.3012 299.497 66.5992 304.799 66.5992Z" stroke="#0894B3" stroke-width="1.5" stroke-miterlimit="10"/>
<path d="M295.199 57H314.399" stroke="#0894B3" stroke-width="1.5" stroke-linecap="round" stroke-linejoin="round"/>
<path d="M304.799 66.34C307.008 66.34 308.799 62.159 308.799 57C308.799 51.8419 307.008 47.6602 304.799 47.6602C302.59 47.6602 300.799 51.8419 300.799 57C300.799 62.159 302.59 66.34 304.799 66.34Z" stroke="#0894B3" stroke-width="1.5" stroke-miterlimit="10"/>
<path d="M322.801 24H286.801C278.517 24 271.801 30.7158 271.801 39.0001V75.0002C271.801 83.2845 278.517 90.0003 286.801 90.0003H322.801C331.085 90.0003 337.801 83.2845 337.801 75.0002V39.0001C337.801 30.7158 331.085 24 322.801 24Z" stroke="#0894B3"/>
<path d="M322.801 108H286.801C278.517 108 271.801 114.716 271.801 123V159C271.801 167.285 278.517 174 286.801 174H322.801C331.085 174 337.801 167.285 337.801 159V123C337.801 114.716 331.085 108 322.801 108Z" fill="#02BFD4" fill-opacity="0.095"/>
<path d="M309.6 130.6H300C299.116 130.6 298.4 131.317 298.4 132.2V149.801C298.4 150.684 299.116 151.401 300 151.401H309.6C310.483 151.401 311.2 150.684 311.2 149.801V132.2C311.2 131.317 310.483 130.6 309.6 130.6Z" stroke="#0894B3" stroke-width="1.5" stroke-linecap="round" stroke-linejoin="round"/>
<path d="M298.4 133.8H311.199" stroke="#0894B3" stroke-width="1.5" stroke-linecap="round" stroke-linejoin="round"/>
<path d="M298.4 148.2H311.199" stroke="#0894B3" stroke-width="1.5" stroke-linecap="round" stroke-linejoin="round"/>
<path d="M322.801 108H286.801C278.517 108 271.801 114.716 271.801 123V159C271.801 167.285 278.517 174 286.801 174H322.801C331.085 174 337.801 167.285 337.801 159V123C337.801 114.716 331.085 108 322.801 108Z" stroke="#0894B3"/>
<path d="M322.801 192.001H286.801C278.517 192.001 271.801 198.717 271.801 207.001V243.001C271.801 251.286 278.517 258.001 286.801 258.001H322.801C331.085 258.001 337.801 251.286 337.801 243.001V207.001C337.801 198.717 331.085 192.001 322.801 192.001Z" fill="#02BFD4" fill-opacity="0.095"/>
<path d="M296.805 226.161V233.001C296.805 233.213 296.889 233.417 297.039 233.567C297.189 233.717 297.393 233.801 297.605 233.801H312.005C312.217 233.801 312.421 233.717 312.571 233.567C312.721 233.417 312.805 233.213 312.805 233.001V226.161" stroke="#0894B3" stroke-width="1.5" stroke-linecap="round" stroke-linejoin="round"/>
<path d="M297.404 216.201H312.204C312.377 216.202 312.546 216.259 312.684 216.364C312.823 216.468 312.924 216.614 312.974 216.781L314.404 221.801H295.203L296.634 216.781C296.683 216.614 296.784 216.468 296.923 216.364C297.061 216.259 297.23 216.202 297.404 216.201Z" stroke="#0894B3" stroke-width="1.5" stroke-linecap="round" stroke-linejoin="round"/>
<path d="M301.604 221.801V223.401C301.604 224.25 301.266 225.064 300.666 225.664C300.066 226.264 299.252 226.601 298.404 226.601C297.555 226.601 296.741 226.264 296.141 225.664C295.541 225.064 295.203 224.25 295.203 223.401V221.801" stroke="#0894B3" stroke-width="1.5" stroke-linecap="round" stroke-linejoin="round"/>
<path d="M308.004 221.801V223.401C308.004 224.25 307.666 225.064 307.066 225.664C306.466 226.264 305.652 226.601 304.803 226.601C303.954 226.601 303.14 226.264 302.54 225.664C301.94 225.064 301.604 224.25 301.604 223.401V221.801" stroke="#0894B3" stroke-width="1.5" stroke-linecap="round" stroke-linejoin="round"/>
<path d="M314.404 221.801V223.401C314.404 224.25 314.067 225.064 313.467 225.664C312.867 226.264 312.053 226.601 311.204 226.601C310.356 226.601 309.542 226.264 308.942 225.664C308.341 225.064 308.004 224.25 308.004 223.401V221.801" stroke="#0894B3" stroke-width="1.5" stroke-linecap="round" stroke-linejoin="round"/>
<path d="M322.801 192.001H286.801C278.517 192.001 271.801 198.717 271.801 207.001V243.001C271.801 251.286 278.517 258.001 286.801 258.001H322.801C331.085 258.001 337.801 251.286 337.801 243.001V207.001C337.801 198.717 331.085 192.001 322.801 192.001Z" stroke="#0894B3"/>
<g opacity="0.5">
<path d="M296 309.001H313.6" stroke="#0894B3" stroke-width="1.5" stroke-linecap="round" stroke-linejoin="round"/>
<path d="M304.801 300.201V317.801" stroke="#0894B3" stroke-width="1.5" stroke-linecap="round" stroke-linejoin="round"/>
<path d="M322.801 276.001H286.801C278.517 276.001 271.801 282.717 271.801 291.001V327.001C271.801 335.286 278.517 342.001 286.801 342.001H322.801C331.085 342.001 337.801 335.286 337.801 327.001V291.001C337.801 282.717 331.085 276.001 322.801 276.001Z" stroke="#0894B3" stroke-dasharray="4 4"/>
</g>
<path d="M167.536 46.11C167.016 46.11 166.565 46.0147 166.183 45.824C165.802 45.626 165.505 45.351 165.292 44.999C165.087 44.6397 164.984 44.218 164.984 43.734V40.236C164.984 39.752 165.087 39.334 165.292 38.982C165.505 38.6227 165.802 38.3477 166.183 38.157C166.565 37.959 167.016 37.86 167.536 37.86C168.05 37.86 168.497 37.959 168.878 38.157C169.26 38.3477 169.557 38.6227 169.769 38.982C169.982 39.334 170.088 39.752 170.088 40.236H168.702C168.702 39.862 168.6 39.576 168.394 39.378C168.196 39.1727 167.91 39.07 167.536 39.07C167.162 39.07 166.873 39.169 166.667 39.367C166.462 39.565 166.359 39.851 166.359 40.225V43.734C166.359 44.108 166.462 44.3977 166.667 44.603C166.873 44.801 167.162 44.9 167.536 44.9C167.91 44.9 168.196 44.801 168.394 44.603C168.6 44.3977 168.702 44.108 168.702 43.734H170.088C170.088 44.218 169.982 44.6397 169.769 44.999C169.557 45.351 169.26 45.626 168.878 45.824C168.497 46.0147 168.05 46.11 167.536 46.11ZM174.638 46.11C173.868 46.11 173.256 45.8973 172.801 45.472C172.354 45.0393 172.13 44.46 172.13 43.734V40.236C172.13 39.51 172.354 38.9343 172.801 38.509C173.256 38.0763 173.868 37.86 174.638 37.86C175.408 37.86 176.017 38.0763 176.464 38.509C176.919 38.9343 177.146 39.5063 177.146 40.225V43.734C177.146 44.46 176.919 45.0393 176.464 45.472C176.017 45.8973 175.408 46.11 174.638 46.11ZM174.638 44.9C175.012 44.9 175.294 44.801 175.485 44.603C175.676 44.3977 175.771 44.108 175.771 43.734V40.236C175.771 39.862 175.676 39.576 175.485 39.378C175.294 39.1727 175.012 39.07 174.638 39.07C174.264 39.07 173.982 39.1727 173.791 39.378C173.6 39.576 173.505 39.862 173.505 40.236V43.734C173.505 44.108 173.6 44.3977 173.791 44.603C173.982 44.801 174.264 44.9 174.638 44.9ZM179.1 46V37.97H180.728L181.498 40.522C181.578 40.7787 181.641 41.0133 181.685 41.226C181.736 41.4313 181.769 41.5853 181.784 41.688C181.798 41.5853 181.828 41.4313 181.872 41.226C181.923 41.0133 181.989 40.7787 182.07 40.522L182.829 37.97H184.468V46H183.181V42.623C183.181 41.8823 183.21 41.1967 183.269 40.566C183.327 39.928 183.393 39.323 183.467 38.751L182.378 42.546H181.179L180.079 38.828C180.152 39.3413 180.222 39.906 180.288 40.522C180.354 41.1307 180.387 41.831 180.387 42.623V46H179.1ZM186.476 46V37.97H189.149C189.685 37.97 190.15 38.0727 190.546 38.278C190.95 38.4833 191.261 38.773 191.481 39.147C191.701 39.5137 191.811 39.9463 191.811 40.445C191.811 40.9437 191.701 41.38 191.481 41.754C191.261 42.1207 190.95 42.4067 190.546 42.612C190.15 42.8173 189.685 42.92 189.149 42.92H187.851V46H186.476ZM187.851 41.71H189.149C189.538 41.71 189.846 41.5927 190.073 41.358C190.301 41.1233 190.414 40.819 190.414 40.445C190.414 40.071 190.301 39.7667 190.073 39.532C189.846 39.2973 189.538 39.18 189.149 39.18H187.851V41.71ZM196.075 46.11C195.305 46.11 194.693 45.8973 194.238 45.472C193.791 45.0393 193.567 44.46 193.567 43.734V40.236C193.567 39.51 193.791 38.9343 194.238 38.509C194.693 38.0763 195.305 37.86 196.075 37.86C196.845 37.86 197.454 38.0763 197.901 38.509C198.356 38.9343 198.583 39.5063 198.583 40.225V43.734C198.583 44.46 198.356 45.0393 197.901 45.472C197.454 45.8973 196.845 46.11 196.075 46.11ZM196.075 44.9C196.449 44.9 196.731 44.801 196.922 44.603C197.113 44.3977 197.208 44.108 197.208 43.734V40.236C197.208 39.862 197.113 39.576 196.922 39.378C196.731 39.1727 196.449 39.07 196.075 39.07C195.701 39.07 195.419 39.1727 195.228 39.378C195.037 39.576 194.942 39.862 194.942 40.236V43.734C194.942 44.108 195.037 44.3977 195.228 44.603C195.419 44.801 195.701 44.9 196.075 44.9ZM203.243 46.11C202.693 46.11 202.216 46.0183 201.813 45.835C201.417 45.6443 201.105 45.3803 200.878 45.043C200.658 44.6983 200.548 44.295 200.548 43.833H201.923C201.923 44.163 202.044 44.427 202.286 44.625C202.528 44.8157 202.85 44.911 203.254 44.911C203.65 44.911 203.958 44.8157 204.178 44.625C204.405 44.4343 204.519 44.174 204.519 43.844C204.519 43.5727 204.442 43.3417 204.288 43.151C204.134 42.953 203.921 42.8173 203.65 42.744L202.682 42.48C202.058 42.3113 201.574 42.0217 201.23 41.611C200.885 41.193 200.713 40.6907 200.713 40.104C200.713 39.422 200.94 38.8793 201.395 38.476C201.849 38.0653 202.462 37.86 203.232 37.86C204.009 37.86 204.625 38.0617 205.08 38.465C205.542 38.861 205.773 39.3963 205.773 40.071H204.398C204.398 39.763 204.291 39.5173 204.079 39.334C203.873 39.1507 203.587 39.059 203.221 39.059C202.861 39.059 202.579 39.1507 202.374 39.334C202.176 39.51 202.077 39.7593 202.077 40.082C202.077 40.3313 202.15 40.5477 202.297 40.731C202.451 40.9143 202.671 41.0427 202.957 41.116L203.936 41.391C204.559 41.5597 205.039 41.853 205.377 42.271C205.721 42.6817 205.894 43.1913 205.894 43.8C205.894 44.262 205.784 44.669 205.564 45.021C205.344 45.3657 205.036 45.6333 204.64 45.824C204.244 46.0147 203.778 46.11 203.243 46.11ZM208.034 46V37.97H212.852V39.18H209.387V41.27H212.467V42.436H209.387V44.79H212.852V46H208.034ZM215.048 46V37.97H217.589C218.124 37.97 218.586 38.069 218.975 38.267C219.371 38.465 219.679 38.7437 219.899 39.103C220.119 39.455 220.229 39.873 220.229 40.357C220.229 40.8923 220.093 41.3617 219.822 41.765C219.558 42.161 219.199 42.4433 218.744 42.612L220.339 46H218.799L217.402 42.81H216.423V46H215.048ZM216.423 41.6H217.589C217.978 41.6 218.282 41.4937 218.502 41.281C218.722 41.0683 218.832 40.775 218.832 40.401C218.832 40.027 218.718 39.73 218.491 39.51C218.271 39.29 217.97 39.18 217.589 39.18H216.423V41.6Z" fill="#644FC1"/>
<path d="M357 268.126H348.97V265.453C348.97 264.918 349.073 264.452 349.278 264.056C349.483 263.653 349.773 263.341 350.147 263.121C350.514 262.901 350.946 262.791 351.445 262.791C351.944 262.791 352.38 262.901 352.754 263.121C353.121 263.341 353.407 263.653 353.612 264.056C353.817 264.452 353.92 264.918 353.92 265.453V266.751H357V268.126ZM352.71 266.751V265.453C352.71 265.065 352.593 264.757 352.358 264.529C352.123 264.302 351.819 264.188 351.445 264.188C351.071 264.188 350.767 264.302 350.532 264.529C350.297 264.757 350.18 265.065 350.18 265.453V266.751H352.71ZM357 260.827L348.97 261.652V260.464L354.58 259.98C354.771 259.965 355.016 259.95 355.317 259.936C355.61 259.914 355.86 259.899 356.065 259.892C355.86 259.877 355.61 259.855 355.317 259.826C355.016 259.796 354.771 259.771 354.58 259.749L348.97 259.089V257.934L354.58 257.318C354.771 257.296 355.016 257.27 355.317 257.241C355.61 257.204 355.86 257.171 356.065 257.142C355.86 257.134 355.61 257.123 355.317 257.109C355.016 257.094 354.771 257.076 354.58 257.054L348.97 256.581V255.404L357 256.273V257.791L351.368 258.385C351.155 258.407 350.899 258.432 350.598 258.462C350.29 258.484 350.037 258.502 349.839 258.517C350.037 258.531 350.29 258.553 350.598 258.583C350.899 258.605 351.155 258.627 351.368 258.649L357 259.298V260.827ZM357 254.297L348.97 252.273V250.502L357 248.467V249.875L355.053 250.315V252.449L357 252.889V254.297ZM353.931 252.196V250.568L351.775 251.052C351.416 251.133 351.093 251.202 350.807 251.261C350.514 251.32 350.301 251.36 350.169 251.382C350.301 251.404 350.514 251.444 350.807 251.503C351.093 251.562 351.412 251.631 351.764 251.712L353.931 252.196ZM357.11 237.828C357.11 238.488 356.927 239.001 356.56 239.368C356.193 239.734 355.687 239.918 355.042 239.918H354.019C353.586 239.918 353.223 239.822 352.93 239.632C352.629 239.434 352.42 239.155 352.303 238.796C352.024 238.979 351.757 239.118 351.5 239.214C351.236 239.302 350.972 239.346 350.708 239.346C350.158 239.346 349.714 239.155 349.377 238.774C349.032 238.385 348.86 237.872 348.86 237.234C348.86 236.574 349.043 236.046 349.41 235.65C349.769 235.254 350.253 235.056 350.862 235.056V236.332C350.598 236.332 350.389 236.416 350.235 236.585C350.074 236.746 349.993 236.962 349.993 237.234C349.993 237.498 350.07 237.71 350.224 237.872C350.371 238.026 350.569 238.103 350.818 238.103C350.994 238.103 351.188 238.059 351.401 237.971C351.614 237.875 351.83 237.747 352.05 237.586L354.195 236.068L353.04 235.463V234.132L355.273 235.309L357 234.077V235.452L356.274 235.969C356.831 236.482 357.11 237.102 357.11 237.828ZM355.977 237.718C355.977 237.505 355.918 237.307 355.801 237.124C355.684 236.94 355.522 236.783 355.317 236.651L353.205 238.158C353.33 238.458 353.601 238.609 354.019 238.609H355.042C355.343 238.609 355.574 238.528 355.735 238.367C355.896 238.205 355.977 237.989 355.977 237.718ZM357 225.307H348.97V223.624L355.46 221.391C355.225 221.413 354.95 221.435 354.635 221.457C354.312 221.479 353.986 221.501 353.656 221.523C353.326 221.538 353.033 221.545 352.776 221.545H348.97V220.291H357V221.974L350.51 224.185C350.723 224.171 350.979 224.152 351.28 224.13C351.581 224.108 351.889 224.09 352.204 224.075C352.519 224.061 352.809 224.053 353.073 224.053H357V225.307ZM357 218.569L348.97 216.545V214.774L357 212.739V214.147L355.053 214.587V216.721L357 217.161V218.569ZM353.931 216.468V214.84L351.775 215.324C351.416 215.404 351.093 215.474 350.807 215.533C350.514 215.591 350.301 215.632 350.169 215.654C350.301 215.676 350.514 215.716 350.807 215.775C351.093 215.833 351.412 215.903 351.764 215.984L353.931 216.468ZM357 209.201H350.213V211.302H348.97V205.714H350.213V207.815H357V209.201ZM357 203.672H355.757V202.055H350.213V203.672H348.97V199.052H350.213V200.669H355.757V199.052H357V203.672ZM357 195.107L348.97 197.131V195.712L354.206 194.491C354.463 194.425 354.741 194.367 355.042 194.315C355.335 194.257 355.57 194.213 355.746 194.183C355.57 194.154 355.335 194.114 355.042 194.062C354.741 194.004 354.459 193.941 354.195 193.875L348.97 192.698V191.301L357 193.325V195.107ZM357 189.403H348.97V184.585H350.18V188.05H352.27V184.97H353.436V188.05H355.79V184.585H357V189.403ZM357.11 172.757C357.11 173.307 357.018 173.784 356.835 174.187C356.644 174.583 356.38 174.895 356.043 175.122C355.698 175.342 355.295 175.452 354.833 175.452V174.077C355.163 174.077 355.427 173.956 355.625 173.714C355.816 173.472 355.911 173.15 355.911 172.746C355.911 172.35 355.816 172.042 355.625 171.822C355.434 171.595 355.174 171.481 354.844 171.481C354.573 171.481 354.342 171.558 354.151 171.712C353.953 171.866 353.817 172.079 353.744 172.35L353.48 173.318C353.311 173.942 353.022 174.426 352.611 174.77C352.193 175.115 351.691 175.287 351.104 175.287C350.422 175.287 349.879 175.06 349.476 174.605C349.065 174.151 348.86 173.538 348.86 172.768C348.86 171.991 349.062 171.375 349.465 170.92C349.861 170.458 350.396 170.227 351.071 170.227V171.602C350.763 171.602 350.517 171.709 350.334 171.921C350.151 172.127 350.059 172.413 350.059 172.779C350.059 173.139 350.151 173.421 350.334 173.626C350.51 173.824 350.759 173.923 351.082 173.923C351.331 173.923 351.548 173.85 351.731 173.703C351.914 173.549 352.043 173.329 352.116 173.043L352.391 172.064C352.56 171.441 352.853 170.961 353.271 170.623C353.682 170.279 354.191 170.106 354.8 170.106C355.262 170.106 355.669 170.216 356.021 170.436C356.366 170.656 356.633 170.964 356.824 171.36C357.015 171.756 357.11 172.222 357.11 172.757ZM357 166.327H350.213V168.428H348.97V162.84H350.213V164.941H357V166.327ZM357.11 158.488C357.11 159.258 356.897 159.87 356.472 160.325C356.039 160.772 355.46 160.996 354.734 160.996H351.236C350.51 160.996 349.934 160.772 349.509 160.325C349.076 159.87 348.86 159.258 348.86 158.488C348.86 157.718 349.076 157.109 349.509 156.662C349.934 156.207 350.506 155.98 351.225 155.98H354.734C355.46 155.98 356.039 156.207 356.472 156.662C356.897 157.109 357.11 157.718 357.11 158.488ZM355.9 158.488C355.9 158.114 355.801 157.832 355.603 157.641C355.398 157.45 355.108 157.355 354.734 157.355H351.236C350.862 157.355 350.576 157.45 350.378 157.641C350.173 157.832 350.07 158.114 350.07 158.488C350.07 158.862 350.173 159.144 350.378 159.335C350.576 159.526 350.862 159.621 351.236 159.621H354.734C355.108 159.621 355.398 159.526 355.603 159.335C355.801 159.144 355.9 158.862 355.9 158.488ZM357 153.806H348.97V151.265C348.97 150.73 349.069 150.268 349.267 149.879C349.465 149.483 349.744 149.175 350.103 148.955C350.455 148.735 350.873 148.625 351.357 148.625C351.892 148.625 352.362 148.761 352.765 149.032C353.161 149.296 353.443 149.656 353.612 150.11L357 148.515V150.055L353.81 151.452V152.431H357V153.806ZM352.6 152.431V151.265C352.6 150.877 352.494 150.572 352.281 150.352C352.068 150.132 351.775 150.022 351.401 150.022C351.027 150.022 350.73 150.136 350.51 150.363C350.29 150.583 350.18 150.884 350.18 151.265V152.431H352.6ZM357 146.528H348.97V141.71H350.18V145.175H352.27V142.095H353.436V145.175H355.79V141.71H357V146.528ZM357 139.471H348.97V134.477H350.246V138.118H352.391V134.763H353.667V138.096H357V139.471ZM357 132.369H348.97V129.828C348.97 129.293 349.069 128.831 349.267 128.442C349.465 128.046 349.744 127.738 350.103 127.518C350.455 127.298 350.873 127.188 351.357 127.188C351.892 127.188 352.362 127.324 352.765 127.595C353.161 127.859 353.443 128.218 353.612 128.673L357 127.078V128.618L353.81 130.015V130.994H357V132.369ZM352.6 130.994V129.828C352.6 129.439 352.494 129.135 352.281 128.915C352.068 128.695 351.775 128.585 351.401 128.585C351.027 128.585 350.73 128.699 350.51 128.926C350.29 129.146 350.18 129.447 350.18 129.828V130.994H352.6ZM357.11 122.759C357.11 123.529 356.897 124.142 356.472 124.596C356.039 125.044 355.46 125.267 354.734 125.267H351.236C350.51 125.267 349.934 125.044 349.509 124.596C349.076 124.142 348.86 123.529 348.86 122.759C348.86 121.989 349.076 121.381 349.509 120.933C349.934 120.479 350.506 120.251 351.225 120.251H354.734C355.46 120.251 356.039 120.479 356.472 120.933C356.897 121.381 357.11 121.989 357.11 122.759ZM355.9 122.759C355.9 122.385 355.801 122.103 355.603 121.912C355.398 121.722 355.108 121.626 354.734 121.626H351.236C350.862 121.626 350.576 121.722 350.378 121.912C350.173 122.103 350.07 122.385 350.07 122.759C350.07 123.133 350.173 123.416 350.378 123.606C350.576 123.797 350.862 123.892 351.236 123.892H354.734C355.108 123.892 355.398 123.797 355.603 123.606C355.801 123.416 355.9 123.133 355.9 122.759ZM357 118.122H348.97V116.439L355.46 114.206C355.225 114.228 354.95 114.25 354.635 114.272C354.312 114.294 353.986 114.316 353.656 114.338C353.326 114.352 353.033 114.36 352.776 114.36H348.97V113.106H357V114.789L350.51 117C350.723 116.985 350.979 116.967 351.28 116.945C351.581 116.923 351.889 116.904 352.204 116.89C352.519 116.875 352.809 116.868 353.073 116.868H357V118.122ZM357 109.161H350.213V111.262H348.97V105.674H350.213V107.775H357V109.161ZM357.11 101.3C357.11 101.85 357.018 102.327 356.835 102.73C356.644 103.126 356.38 103.438 356.043 103.665C355.698 103.885 355.295 103.995 354.833 103.995V102.62C355.163 102.62 355.427 102.499 355.625 102.257C355.816 102.015 355.911 101.693 355.911 101.289C355.911 100.893 355.816 100.585 355.625 100.365C355.434 100.138 355.174 100.024 354.844 100.024C354.573 100.024 354.342 100.101 354.151 100.255C353.953 100.409 353.817 100.622 353.744 100.893L353.48 101.861C353.311 102.485 353.022 102.969 352.611 103.313C352.193 103.658 351.691 103.83 351.104 103.83C350.422 103.83 349.879 103.603 349.476 103.148C349.065 102.694 348.86 102.081 348.86 101.311C348.86 100.534 349.062 99.9179 349.465 99.4633C349.861 99.0013 350.396 98.7703 351.071 98.7703V100.145C350.763 100.145 350.517 100.252 350.334 100.464C350.151 100.67 350.059 100.956 350.059 101.322C350.059 101.682 350.151 101.964 350.334 102.169C350.51 102.367 350.759 102.466 351.082 102.466C351.331 102.466 351.548 102.393 351.731 102.246C351.914 102.092 352.043 101.872 352.116 101.586L352.391 100.607C352.56 99.9839 352.853 99.5036 353.271 99.1663C353.682 98.8216 354.191 98.6493 354.8 98.6493C355.262 98.6493 355.669 98.7593 356.021 98.9793C356.366 99.1993 356.633 99.5073 356.824 99.9033C357.015 100.299 357.11 100.765 357.11 101.3Z" fill="#0894B3"/>
<path d="M10 243.116H1.97V240.652C1.97 239.882 2.157 239.27 2.531 238.815C2.905 238.353 3.40733 238.122 4.038 238.122C4.478 238.122 4.852 238.24 5.16 238.474C5.46067 238.702 5.65867 239.013 5.754 239.409C5.84933 238.962 6.073 238.606 6.425 238.342C6.76967 238.071 7.19867 237.935 7.712 237.935C8.174 237.935 8.57733 238.045 8.922 238.265C9.26667 238.478 9.53433 238.779 9.725 239.167C9.90833 239.549 10 240.003 10 240.531L10 243.116ZM5.281 241.774V240.674C5.281 240.315 5.18567 240.029 4.995 239.816C4.797 239.604 4.52933 239.497 4.192 239.497C3.862 239.497 3.60167 239.604 3.411 239.816C3.213 240.022 3.114 240.308 3.114 240.674V241.774H5.281ZM8.856 241.774L8.856 240.619C8.856 240.216 8.74967 239.901 8.537 239.673C8.317 239.439 8.02 239.321 7.646 239.321C7.272 239.321 6.97133 239.439 6.744 239.673C6.50933 239.901 6.392 240.216 6.392 240.619L6.392 241.774H8.856ZM10 236.433L1.97 234.409V232.638L10 230.603V232.011L8.053 232.451V234.585L10 235.025V236.433ZM6.931 234.332V232.704L4.775 233.188C4.41567 233.268 4.093 233.338 3.807 233.397C3.51367 233.455 3.301 233.496 3.169 233.518C3.301 233.54 3.51367 233.58 3.807 233.639C4.093 233.697 4.412 233.767 4.764 233.848L6.931 234.332ZM10.11 226.328C10.11 226.849 10.0147 227.3 9.824 227.681C9.626 228.062 9.351 228.359 8.999 228.572C8.63967 228.777 8.218 228.88 7.734 228.88H4.236C3.752 228.88 3.334 228.777 2.982 228.572C2.62267 228.359 2.34767 228.062 2.157 227.681C1.959 227.3 1.86 226.849 1.86 226.328C1.86 225.815 1.959 225.367 2.157 224.986C2.34767 224.605 2.62267 224.308 2.982 224.095C3.334 223.882 3.752 223.776 4.236 223.776V225.162C3.862 225.162 3.576 225.265 3.378 225.47C3.17267 225.668 3.07 225.954 3.07 226.328C3.07 226.702 3.169 226.992 3.367 227.197C3.565 227.402 3.851 227.505 4.225 227.505H7.734C8.108 227.505 8.39767 227.402 8.603 227.197C8.801 226.992 8.9 226.702 8.9 226.328C8.9 225.954 8.801 225.668 8.603 225.47C8.39767 225.265 8.108 225.162 7.734 225.162V223.776C8.218 223.776 8.63967 223.882 8.999 224.095C9.351 224.308 9.626 224.605 9.824 224.986C10.0147 225.367 10.11 225.815 10.11 226.328ZM10 221.69H1.97V220.315H5.248L5.248 219.369L1.97 217.84V216.355L5.798 218.159L10 216.267V217.796L6.447 219.38V220.315H10V221.69ZM7.008 213.841H5.732V210.321H7.008L7.008 213.841ZM10 207.267H1.97V202.449H3.18L3.18 205.914H5.27L5.27 202.834H6.436V205.914H8.79V202.449H10V207.267ZM10 200.297H1.97V198.614L8.46 196.381C8.22533 196.403 7.95033 196.425 7.635 196.447C7.31233 196.469 6.986 196.491 6.656 196.513C6.326 196.528 6.03267 196.535 5.776 196.535H1.97V195.281H10V196.964L3.51 199.175C3.72267 199.161 3.97933 199.142 4.28 199.12C4.58067 199.098 4.88867 199.08 5.204 199.065C5.51933 199.051 5.809 199.043 6.073 199.043H10V200.297ZM10 193.119H1.97V190.732C1.97 190.189 2.07633 189.72 2.289 189.324C2.49433 188.92 2.784 188.609 3.158 188.389C3.532 188.169 3.972 188.059 4.478 188.059H7.481C7.987 188.059 8.43067 188.169 8.812 188.389C9.186 188.609 9.47933 188.92 9.692 189.324C9.89733 189.72 10 190.189 10 190.732V193.119ZM8.768 191.744V190.732C8.768 190.336 8.65433 190.02 8.427 189.786C8.19233 189.551 7.877 189.434 7.481 189.434H4.478C4.08933 189.434 3.78133 189.551 3.554 189.786C3.31933 190.02 3.202 190.336 3.202 190.732V191.744H8.768ZM10.11 176.33C10.11 176.88 10.0183 177.357 9.835 177.76C9.64433 178.156 9.38033 178.468 9.043 178.695C8.69833 178.915 8.295 179.025 7.833 179.025V177.65C8.163 177.65 8.427 177.529 8.625 177.287C8.81567 177.045 8.911 176.722 8.911 176.319C8.911 175.923 8.81567 175.615 8.625 175.395C8.43433 175.168 8.174 175.054 7.844 175.054C7.57267 175.054 7.34167 175.131 7.151 175.285C6.953 175.439 6.81733 175.652 6.744 175.923L6.48 176.891C6.31133 177.514 6.02167 177.998 5.611 178.343C5.193 178.688 4.69067 178.86 4.104 178.86C3.422 178.86 2.87933 178.633 2.476 178.178C2.06533 177.723 1.86 177.111 1.86 176.341C1.86 175.564 2.06167 174.948 2.465 174.493C2.861 174.031 3.39633 173.8 4.071 173.8V175.175C3.763 175.175 3.51733 175.281 3.334 175.494C3.15067 175.699 3.059 175.985 3.059 176.352C3.059 176.711 3.15067 176.994 3.334 177.199C3.51 177.397 3.75933 177.496 4.082 177.496C4.33133 177.496 4.54767 177.423 4.731 177.276C4.91433 177.122 5.04267 176.902 5.116 176.616L5.391 175.637C5.55967 175.014 5.853 174.533 6.271 174.196C6.68167 173.851 7.19133 173.679 7.8 173.679C8.262 173.679 8.669 173.789 9.021 174.009C9.36567 174.229 9.63333 174.537 9.824 174.933C10.0147 175.329 10.11 175.795 10.11 176.33ZM10 171.538H1.97V166.72H3.18V170.185H5.27V167.105H6.436V170.185H8.79V166.72H10V171.538ZM10 164.525H1.97V161.984C1.97 161.448 2.069 160.986 2.267 160.598C2.465 160.202 2.74367 159.894 3.103 159.674C3.455 159.454 3.873 159.344 4.357 159.344C4.89233 159.344 5.36167 159.479 5.765 159.751C6.161 160.015 6.44333 160.374 6.612 160.829L10 159.234V160.774L6.81 162.171V163.15H10V164.525ZM5.6 163.15V161.984C5.6 161.595 5.49367 161.291 5.281 161.071C5.06833 160.851 4.775 160.741 4.401 160.741C4.027 160.741 3.73 160.854 3.51 161.082C3.29 161.302 3.18 161.602 3.18 161.984V163.15H5.6ZM10 155.806L1.97 157.83V156.411L7.206 155.19C7.46267 155.124 7.74133 155.065 8.042 155.014C8.33533 154.955 8.57 154.911 8.746 154.882C8.57 154.853 8.33533 154.812 8.042 154.761C7.74133 154.702 7.459 154.64 7.195 154.574L1.97 153.397V152L10 154.024L10 155.806ZM10 150.079H8.757V148.462H3.213V150.079H1.97V145.459H3.213V147.076H8.757V145.459H10V150.079ZM10.11 140.58C10.11 141.1 10.0147 141.551 9.824 141.933C9.626 142.314 9.351 142.611 8.999 142.824C8.63967 143.029 8.218 143.132 7.734 143.132H4.236C3.752 143.132 3.334 143.029 2.982 142.824C2.62267 142.611 2.34767 142.314 2.157 141.933C1.959 141.551 1.86 141.1 1.86 140.58C1.86 140.066 1.959 139.619 2.157 139.238C2.34767 138.856 2.62267 138.559 2.982 138.347C3.334 138.134 3.752 138.028 4.236 138.028V139.414C3.862 139.414 3.576 139.516 3.378 139.722C3.17267 139.92 3.07 140.206 3.07 140.58C3.07 140.954 3.169 141.243 3.367 141.449C3.565 141.654 3.851 141.757 4.225 141.757H7.734C8.108 141.757 8.39767 141.654 8.603 141.449C8.801 141.243 8.9 140.954 8.9 140.58C8.9 140.206 8.801 139.92 8.603 139.722C8.39767 139.516 8.108 139.414 7.734 139.414V138.028C8.218 138.028 8.63967 138.134 8.999 138.347C9.351 138.559 9.626 138.856 9.824 139.238C10.0147 139.619 10.11 140.066 10.11 140.58ZM10 135.81H1.97V130.992H3.18L3.18 134.457H5.27L5.27 131.377H6.436V134.457H8.79V130.992H10V135.81ZM10.11 126.31C10.11 126.86 10.0183 127.337 9.835 127.74C9.64433 128.136 9.38033 128.448 9.043 128.675C8.69833 128.895 8.295 129.005 7.833 129.005V127.63C8.163 127.63 8.427 127.509 8.625 127.267C8.81567 127.025 8.911 126.703 8.911 126.299C8.911 125.903 8.81567 125.595 8.625 125.375C8.43433 125.148 8.174 125.034 7.844 125.034C7.57267 125.034 7.34167 125.111 7.151 125.265C6.953 125.419 6.81733 125.632 6.744 125.903L6.48 126.871C6.31133 127.495 6.02167 127.979 5.611 128.323C5.193 128.668 4.69067 128.84 4.104 128.84C3.422 128.84 2.87933 128.613 2.476 128.158C2.06533 127.704 1.86 127.091 1.86 126.321C1.86 125.544 2.06167 124.928 2.465 124.473C2.861 124.011 3.39633 123.78 4.071 123.78V125.155C3.763 125.155 3.51733 125.262 3.334 125.474C3.15067 125.68 3.059 125.966 3.059 126.332C3.059 126.692 3.15067 126.974 3.334 127.179C3.51 127.377 3.75933 127.476 4.082 127.476C4.33133 127.476 4.54767 127.403 4.731 127.256C4.91433 127.102 5.04267 126.882 5.116 126.596L5.391 125.617C5.55967 124.994 5.853 124.514 6.271 124.176C6.68167 123.832 7.19133 123.659 7.8 123.659C8.262 123.659 8.669 123.769 9.021 123.989C9.36567 124.209 9.63333 124.517 9.824 124.913C10.0147 125.309 10.11 125.775 10.11 126.31Z" fill="#0E9888"/>
</svg>
