<svg width="667" height="165" viewBox="0 0 667 165" fill="none" xmlns="http://www.w3.org/2000/svg">
<g clip-path="url(#clip0_1818_2516)">
<path d="M108.53 3.66L96.99 32.54L108.21 55.78L120.44 25.79H147.12V128.09C147.12 131.99 145.56 135.74 142.78 138.49C140.01 141.25 136.26 142.8 132.34 142.8C129.22 142.8 123.83 141.06 121.7 136.83L105.38 101.04L105.27 101.21L78.33 42.39L78.42 42.28L67.12 17.58C60.74 4.77 47.69 0 36.99 0C27.18 0 17.77 3.89 10.84 10.8C3.9 17.72 0 27.1 0 36.88L0.37 161.27H56.38L70.86 130.03L59.67 106.78L44.44 139.14H22.22V36.88C22.22 32.97 23.78 29.22 26.55 26.46C29.32 23.7 33.08 22.14 37 22.14C38.97 22.14 45.62 22.59 48.05 29.02L60.58 56.48L64.72 65.65L91.55 124.46C96.23 134.51 101.43 145.63 103.71 150.42C108.36 160.11 120.44 164.95 132.33 164.95C137.19 164.95 142 164 146.49 162.14C150.98 160.29 155.06 157.57 158.49 154.15C161.92 150.73 164.65 146.66 166.51 142.19C168.37 137.71 169.33 132.92 169.33 128.08V3.66H108.54H108.53Z" fill="#FC5E02"/>
<path d="M221.12 52.08V7.16001C221.11 7.06001 221.12 6.96001 221.15 6.86001C221.18 6.76001 221.24 6.68001 221.32 6.61001C221.4 6.54001 221.49 6.48001 221.59 6.45001C221.69 6.42001 221.8 6.41001 221.91 6.42001H231.42C231.61 6.42001 231.8 6.46001 231.96 6.55001C232.12 6.65001 232.25 6.78001 232.33 6.95001L252.83 38.82H253.18V7.16001C253.17 7.06001 253.18 6.96001 253.21 6.86001C253.24 6.76001 253.3 6.68001 253.38 6.61001C253.46 6.54001 253.55 6.48001 253.65 6.45001C253.75 6.42001 253.86 6.41001 253.97 6.42001H261.86C261.97 6.41001 262.07 6.42001 262.18 6.45001C262.28 6.48001 262.37 6.54001 262.45 6.61001C262.53 6.68001 262.58 6.77001 262.62 6.86001C262.65 6.96001 262.66 7.06001 262.65 7.16001V52.28C262.66 52.38 262.65 52.48 262.62 52.58C262.59 52.68 262.53 52.76 262.45 52.83C262.37 52.9 262.28 52.96 262.18 52.99C262.08 53.02 261.97 53.03 261.86 53.02H252.35C252.17 52.97 252.01 52.88 251.88 52.75C251.76 52.62 251.68 52.46 251.65 52.28L230.85 20.28H230.59V52.07C230.6 52.17 230.59 52.27 230.56 52.37C230.53 52.47 230.47 52.55 230.39 52.62C230.31 52.69 230.22 52.74 230.12 52.78C230.02 52.81 229.91 52.82 229.8 52.81H221.91C221.8 52.82 221.7 52.81 221.59 52.78C221.49 52.75 221.4 52.69 221.32 52.62C221.24 52.55 221.19 52.46 221.15 52.37C221.12 52.27 221.11 52.17 221.12 52.07" fill="#291E30"/>
<path d="M314.67 42.07V24.1H309.95C309.85 24.11 309.75 24.1 309.65 24.07C309.55 24.04 309.47 23.99 309.39 23.91C309.32 23.84 309.26 23.75 309.23 23.66C309.2 23.56 309.19 23.46 309.2 23.36V17.93C309.2 17.41 309.46 17.15 309.94 17.15H314.66V7.47999C314.66 7.37999 314.66 7.27999 314.7 7.18999C314.73 7.09999 314.79 7.00999 314.86 6.93999C314.93 6.86999 315.01 6.80999 315.11 6.76999C315.2 6.72999 315.3 6.70999 315.4 6.70999L323.6 6.64999C323.71 6.63999 323.81 6.64999 323.92 6.67999C324.02 6.70999 324.11 6.76999 324.19 6.84999C324.27 6.91999 324.32 7.01999 324.36 7.11999C324.39 7.21999 324.4 7.32999 324.39 7.42999V16.35C324.39 16.71 324.68 17 325.04 17H333.81C333.92 16.99 334.02 17 334.13 17.03C334.23 17.06 334.32 17.12 334.4 17.2C334.48 17.28 334.53 17.37 334.57 17.47C334.6 17.57 334.61 17.68 334.6 17.78V23.38C334.6 23.48 334.6 23.58 334.55 23.68C334.51 23.77 334.45 23.86 334.38 23.93C334.31 24 334.22 24.05 334.12 24.08C334.02 24.11 333.92 24.12 333.82 24.11H324.4V45.01C324.4 45.37 324.69 45.66 325.05 45.66H333.82C333.92 45.65 334.03 45.66 334.12 45.69C334.22 45.72 334.31 45.77 334.38 45.84C334.46 45.91 334.51 46 334.55 46.09C334.59 46.18 334.6 46.29 334.6 46.39V51.82C334.61 51.92 334.6 52.03 334.57 52.13C334.54 52.23 334.48 52.32 334.4 52.4C334.32 52.48 334.23 52.53 334.13 52.57C334.03 52.6 333.92 52.61 333.81 52.6H325.48C324.03 52.77 322.57 52.61 321.19 52.15C319.81 51.68 318.56 50.92 317.52 49.91C316.48 48.9 315.69 47.67 315.19 46.32C314.7 44.97 314.52 43.52 314.66 42.09" fill="#291E30"/>
<path d="M422.82 52.03V27.81C422.61 26.35 422.75 24.85 423.22 23.45C423.69 22.05 424.49 20.77 425.55 19.72C426.61 18.67 427.9 17.88 429.31 17.41C430.73 16.94 432.24 16.8 433.72 17H444.58C444.69 16.99 444.79 17 444.9 17.03C445 17.06 445.09 17.12 445.17 17.2C445.25 17.28 445.3 17.37 445.34 17.47C445.37 17.57 445.38 17.68 445.37 17.78V24.07C445.37 24.17 445.37 24.28 445.32 24.37C445.28 24.47 445.23 24.55 445.15 24.63C445.08 24.7 444.99 24.76 444.89 24.8C444.79 24.84 444.69 24.85 444.58 24.85H433.11C432.75 24.85 432.46 25.14 432.46 25.5V52.04C432.46 52.56 432.2 52.82 431.76 52.82H423.61C423.5 52.83 423.4 52.82 423.29 52.79C423.19 52.76 423.1 52.7 423.02 52.62C422.94 52.55 422.89 52.45 422.85 52.35C422.82 52.25 422.8 52.14 422.82 52.04" fill="#291E30"/>
<path d="M379.07 35.42C379.07 35.17 379.07 34.93 379.07 34.68C378.95 32.34 379.32 30 380.16 27.8C381.04 25.49 382.41 23.38 384.18 21.64C385.95 19.9 388.08 18.55 390.42 17.69C393.71 16.39 401.41 16.22 405.13 17.66C407.48 18.52 409.62 19.86 411.4 21.61C413.18 23.36 414.56 25.46 415.44 27.78C416.28 29.98 416.65 32.32 416.53 34.67C416.52 34.93 416.52 35.19 416.53 35.44C416.62 37.77 416.23 40.09 415.38 42.27C414.49 44.57 413.11 46.65 411.33 48.38C409.55 50.11 407.42 51.44 405.08 52.28C400.55 53.85 394.62 53.96 390.46 52.25C388.13 51.4 386.01 50.07 384.24 48.34C382.47 46.61 381.1 44.53 380.21 42.24C379.37 40.06 378.98 37.74 379.07 35.41M397.75 46.12C403.6 46.12 406.88 42.07 406.88 35.04C406.88 28.01 403.5 23.83 397.75 23.83C392 23.83 388.62 27.88 388.62 35.04C388.62 42.2 391.86 46.12 397.75 46.12Z" fill="#291E30"/>
<path d="M338.89 35.05C338.75 32.58 339.14 30.11 340.04 27.81C340.94 25.5 342.32 23.41 344.1 21.67C345.88 19.93 348.01 18.58 350.35 17.72C352.69 16.85 355.2 16.49 357.69 16.65C366.91 16.6 373.55 21.22 374.64 29.19C374.65 29.3 374.64 29.41 374.61 29.51C374.58 29.61 374.52 29.71 374.44 29.78C374.36 29.86 374.27 29.92 374.17 29.96C374.07 30 373.96 30.02 373.85 30.01L366.01 30.4C365.53 30.4 365.31 30.14 365.18 29.62C365.07 28.76 364.78 27.93 364.34 27.18C363.9 26.43 363.32 25.77 362.62 25.24C361.92 24.71 361.13 24.32 360.28 24.1C359.43 23.88 358.55 23.82 357.68 23.94C351.97 23.94 348.74 28.25 348.74 35.14C348.74 42.03 352.05 46.22 357.68 46.22C359.48 46.47 361.31 46.01 362.77 44.95C364.24 43.89 365.13 42.5 365.43 40.73C365.43 40.62 365.45 40.52 365.49 40.42C365.53 40.32 365.59 40.24 365.67 40.16C365.75 40.09 365.84 40.03 365.94 39.99C366.04 39.95 366.15 39.94 366.25 39.94L374.19 40.16C374.67 40.16 375.02 40.42 374.98 40.85C373.76 48.78 366.98 53.41 357.59 53.36C355.1 53.54 352.6 53.2 350.26 52.34C347.92 51.49 345.79 50.15 344.01 48.41C342.24 46.67 340.86 44.58 339.98 42.27C339.1 39.96 338.72 37.5 338.88 35.03" fill="#291E30"/>
<path d="M269.21 35.05C269.03 32.57 269.4 30.08 270.28 27.75C271.17 25.42 272.55 23.31 274.34 21.56C276.13 19.81 278.28 18.47 280.65 17.62C283.01 16.77 285.54 16.44 288.05 16.64C298.95 16.64 305.49 23.53 305.49 34.91V36.85C305.49 37.06 305.41 37.25 305.26 37.4C305.11 37.55 304.91 37.63 304.71 37.63H279.16C279.12 38.8 279.33 39.96 279.77 41.04C280.21 42.12 280.88 43.1 281.73 43.92C282.58 44.73 283.59 45.36 284.7 45.76C285.81 46.16 287 46.33 288.18 46.25C289.76 46.47 291.37 46.16 292.76 45.38C294.15 44.6 295.11 43.66 295.73 42.21C295.76 42.01 295.87 41.83 296.03 41.71C296.19 41.59 296.4 41.54 296.6 41.56L304.44 41.94C305.01 41.94 305.27 41.94 305.18 42.5C303.92 49.31 296.4 53.27 287.92 53.18C285.45 53.36 282.96 53.02 280.63 52.18C278.3 51.34 276.18 50.01 274.41 48.3C272.64 46.58 271.26 44.51 270.36 42.23C269.46 39.94 269.07 37.5 269.21 35.05ZM296.16 31.9C296.23 30.83 296.08 29.75 295.71 28.74C295.34 27.73 294.75 26.81 294 26.04C293.24 25.27 292.33 24.66 291.32 24.26C290.31 23.86 289.23 23.67 288.14 23.71C286.99 23.61 285.84 23.76 284.75 24.12C283.66 24.49 282.66 25.08 281.82 25.85C280.98 26.62 280.3 27.56 279.84 28.6C279.38 29.64 279.15 30.77 279.15 31.9H296.16Z" fill="#291E30"/>
<path d="M448.84 35.05C448.66 32.57 449.03 30.08 449.91 27.75C450.8 25.42 452.18 23.31 453.97 21.56C455.76 19.81 457.91 18.47 460.28 17.62C462.64 16.77 465.17 16.44 467.68 16.64C478.58 16.64 485.12 23.53 485.12 34.91V36.85C485.12 37.06 485.04 37.25 484.89 37.4C484.74 37.55 484.54 37.63 484.34 37.63H458.79C458.75 38.8 458.96 39.96 459.4 41.04C459.84 42.12 460.51 43.1 461.36 43.92C462.21 44.73 463.22 45.36 464.33 45.76C465.44 46.16 466.62 46.33 467.8 46.25C469.38 46.47 470.99 46.16 472.38 45.38C473.77 44.6 474.73 43.66 475.35 42.21C475.38 42.01 475.49 41.83 475.65 41.71C475.81 41.59 476.02 41.54 476.22 41.56L484.06 41.94C484.63 41.94 484.89 41.94 484.8 42.5C483.54 49.31 476.02 53.27 467.54 53.18C465.07 53.36 462.58 53.02 460.25 52.18C457.92 51.34 455.8 50.01 454.03 48.3C452.26 46.58 450.88 44.51 449.98 42.23C449.08 39.94 448.69 37.5 448.83 35.05M475.78 31.9C475.85 30.83 475.7 29.75 475.32 28.74C474.95 27.73 474.36 26.81 473.61 26.04C472.85 25.27 471.94 24.66 470.93 24.26C469.92 23.86 468.84 23.67 467.75 23.71C466.6 23.61 465.45 23.76 464.36 24.12C463.27 24.49 462.28 25.08 461.43 25.85C460.59 26.62 459.91 27.56 459.45 28.6C458.99 29.64 458.76 30.77 458.76 31.9H475.77H475.78Z" fill="#291E30"/>
<path fill-rule="evenodd" clip-rule="evenodd" d="M622.35 146.63H610.45V94.3H622.35C637 94.3 643.41 103.2 643.41 120.46C643.41 137.72 637 146.62 622.35 146.62M624.57 77.28H587.94V163.62H624.57C651.65 163.62 666.43 148.05 666.43 120.45C666.43 92.85 651.65 77.28 624.57 77.28ZM577.34 163.62L547.91 119.53L575.51 77.27H551.05L536.14 103.7L521.36 77.27H494.8L522.4 120.18L493.1 163.61H518.61L534.31 136.01L550.53 163.61H577.35L577.34 163.62ZM434.35 147.79V128.69H452.8C460.91 128.69 464.97 132.09 464.97 138.11C464.97 144.13 460.91 147.79 452.8 147.79H434.35ZM434.35 112.6V93.76H450.7C458.68 93.76 462.74 96.9 462.74 103.18C462.74 109.46 458.68 112.6 450.7 112.6H434.35ZM412.63 163.62H456.59C477.39 163.62 487.99 155.25 487.99 140.33C487.99 129.86 481.45 121.88 468.24 120.05V119.92C480.01 118.09 485.77 110.37 485.77 100.56C485.77 85.51 475.96 77.4 454.63 77.27H412.64V163.61L412.63 163.62ZM393.53 77.28H373.64V120.84L374.16 136.8H374.03L367.49 123.98L340.67 77.28H315.68V163.62H335.57V120.06L335.05 104.1H335.18L341.72 116.92L368.54 163.62H393.53V77.28ZM298.29 77.28H275.79V128.83C275.79 141.26 270.56 147.28 259.7 147.28C248.84 147.28 243.74 141.26 243.74 128.83V77.28H221.11V128.43C221.11 152.76 234.32 164.93 259.7 164.93C285.08 164.93 298.29 152.76 298.29 128.43V77.28Z" fill="#262F4D"/>
</g>
<defs>
<clipPath id="clip0_1818_2516">
<rect width="666.44" height="164.95" fill="white"/>
</clipPath>
</defs>
</svg>
