<svg width="364" height="82" viewBox="0 0 364 82" fill="none" xmlns="http://www.w3.org/2000/svg">
<g clip-path="url(#clip0_590_112674)">
<path fill-rule="evenodd" clip-rule="evenodd" d="M79.9826 43.5951C79.9826 43.5951 61.8369 66.8301 59.8237 69.3779C48.9259 83.1778 30.3085 82.8015 20.0548 68.5164C15.3544 61.9594 10.7042 55.3605 6.16281 48.6947C-3.84007 34.0249 -0.419358 15.4075 13.9744 5.72246C28.1173 -3.79533 46.6343 0.0937474 56.5954 14.5126C58.5376 17.3222 60.6147 20.035 62.6919 22.748L62.6924 22.7487C64.0518 24.524 65.4112 26.2995 66.7328 28.1022L56.7224 40.6132C54.3558 37.6809 52.0208 34.7228 49.6856 31.7645L49.6851 31.7638C47.1266 28.5226 44.5677 25.2809 41.9674 22.0733C39.1154 18.5522 35.3853 16.5951 30.7184 16.6621L30.71 16.6704C25.2904 16.8293 21.1002 19.146 18.382 23.8715C15.5719 28.7558 15.5468 33.7991 18.658 38.4493C23.5173 45.7172 28.5689 52.8765 33.7878 59.8936C37.3172 64.6357 42.8205 64.6692 46.559 60.1863C48.4701 57.8905 57.8081 46.2358 57.8081 46.2358L71.2735 29.2577C74.9064 24.3023 79.7312 17.7215 83.5011 12.8733C91.4465 2.65301 102.068 -1.36152 114.547 1.39847C127.435 4.25046 135.322 12.7897 137.865 25.7868C139.395 33.6067 137.823 41.0587 133.323 47.6827C128.246 55.1681 123.103 62.6034 117.717 69.8714C108.483 82.3331 89.9745 82.676 80.0135 70.6993C77.5959 67.7914 74.4815 63.8797 72.0585 60.8363C76.0138 55.6659 82.1866 47.5967 82.1866 47.5967C83.5245 49.2426 84.8386 50.9083 86.1527 52.5739C88.2208 55.1952 90.289 57.8168 92.4502 60.3619C95.9963 64.5437 101.466 64.6441 104.694 60.3452C110.189 53.0104 115.709 45.6418 120.477 37.8304C126.139 28.5635 119.038 16.7792 108.216 16.6955L108.207 16.7039C103.841 16.6704 99.9105 18.2846 97.184 21.6468C94.0029 25.5604 90.8691 29.5158 87.736 33.4712L87.7305 33.467L87.4818 33.7921C85.2629 36.5934 79.9826 43.5951 79.9826 43.5951Z" fill="#03C9A5"/>
<path fill-rule="evenodd" clip-rule="evenodd" d="M222.371 26.7195V52.9311V80.2132C222.371 80.3972 222.371 80.5728 222.404 80.7484C222.505 81.2753 222.622 81.3841 223.165 81.3841H231.395C232.056 81.3841 232.223 81.2168 232.29 80.5728V80.1713C232.29 79.5566 232.288 78.944 232.286 78.3313C232.284 77.7187 232.282 77.1061 232.282 76.4913C232.269 73.815 232.259 71.1407 232.248 68.4665C232.238 65.7922 232.227 63.1179 232.215 60.4416C232.206 60.3747 232.215 60.3078 232.223 60.2408C232.299 59.7139 232.675 59.5049 233.135 59.7892C233.389 59.9431 233.601 60.1612 233.812 60.3794C233.865 60.4339 233.918 60.4884 233.971 60.5419C234.063 60.6374 234.149 60.7389 234.235 60.84C234.352 60.9779 234.468 61.1155 234.598 61.2361C235.376 61.9303 236.162 62.6161 237.124 63.0761C237.692 63.3487 238.252 63.6397 238.814 63.9321L238.816 63.9331C239.099 64.08 239.382 64.2272 239.667 64.3725C239.759 64.4227 239.868 64.4645 239.976 64.4896C240.256 64.5548 240.537 64.6263 240.817 64.698C241.4 64.8465 241.985 64.9958 242.577 65.0917C244.635 65.4263 246.717 65.5099 248.775 65.1754C250.389 64.9161 251.995 64.5816 253.525 63.9125C254.445 63.511 255.34 63.0678 256.185 62.5408C257.64 61.6376 259.037 60.6339 260.158 59.3125C260.3 59.1427 260.446 58.9745 260.591 58.8063C261.119 58.1954 261.648 57.5839 262.048 56.8954C262.218 56.6029 262.398 56.3145 262.579 56.0256C263.162 55.0922 263.749 54.1531 264.005 53.0482C264.019 52.9711 264.056 52.9023 264.093 52.8339C264.119 52.7835 264.146 52.7333 264.164 52.6802C264.202 52.577 264.241 52.4738 264.28 52.3704C264.413 52.0213 264.546 51.6699 264.649 51.3085C264.695 51.1429 264.722 50.9702 264.749 50.797C264.78 50.594 264.812 50.3902 264.875 50.1962C265.285 48.9583 265.427 47.6787 265.51 46.3824C265.745 42.8027 265.31 39.3318 264.022 35.9613C263.499 34.6079 262.767 33.3893 262.031 32.1638L261.906 31.9551C261.621 31.4784 261.303 31.01 260.919 30.6086C260.666 30.3444 260.419 30.0753 260.171 29.8062C259.173 28.7208 258.174 27.6357 256.854 26.8784C256.576 26.7193 256.308 26.5399 256.04 26.3604C255.463 25.9739 254.885 25.5865 254.194 25.3981C254.086 25.373 253.985 25.3228 253.893 25.2559C253.392 24.8879 252.823 24.729 252.229 24.5951C252.022 24.5447 251.821 24.4698 251.619 24.3945C251.486 24.345 251.353 24.2954 251.217 24.2522L251.17 24.2374C250.844 24.1337 250.524 24.0321 250.188 23.9762C248.49 23.7002 246.776 23.6417 245.053 23.6919L244.837 23.6982C243.236 23.7449 241.633 23.7916 240.152 24.5199C240.093 24.545 240.026 24.5701 239.96 24.5784C239.142 24.7063 238.464 25.1421 237.802 25.5678L237.799 25.5694L237.796 25.5716C237.68 25.6456 237.566 25.7194 237.45 25.7911C236.666 26.2739 235.946 26.8695 235.23 27.4617C235.053 27.6082 234.876 27.7545 234.699 27.8988C234.543 28.0252 234.413 28.1856 234.282 28.347C234.188 28.4632 234.093 28.5799 233.988 28.685L233.919 28.752C233.624 29.0399 233.326 29.3303 232.993 29.5631C232.658 29.789 232.34 29.6384 232.215 29.2537C232.173 29.1282 232.165 28.9944 232.165 28.8606V25.7242C232.173 24.7792 232.031 24.6202 231.103 24.6202H227.423C226.954 24.6202 226.486 24.6184 226.017 24.6165C225.081 24.6128 224.144 24.6091 223.207 24.6202C222.53 24.6286 222.296 24.9046 222.321 25.5821C222.326 25.7128 222.334 25.8427 222.342 25.9719C222.356 26.2227 222.371 26.4711 222.371 26.7195ZM232.138 44.9655C232.136 44.7625 232.133 44.5596 232.123 44.3584L232.131 44.3667C232.081 43.2627 232.206 42.1838 232.608 41.1467C232.662 41.0115 232.694 40.8708 232.727 40.729C232.734 40.6954 232.742 40.6618 232.75 40.6282C233.419 37.7093 235.176 35.5515 237.618 33.9624C238.521 33.3686 239.5 32.7664 240.67 32.6995C240.98 32.6828 241.281 32.5908 241.582 32.4988C243.029 32.0639 244.476 32.0889 245.931 32.4737C246.207 32.5489 246.492 32.6242 246.776 32.666C247.487 32.7664 248.131 33.0173 248.775 33.3518C249.461 33.7115 250.13 34.0962 250.774 34.5311C250.958 34.6566 251.133 34.7904 251.292 34.9493C251.343 35 251.393 35.0507 251.443 35.1013L251.549 35.2075C252.345 36.0057 253.141 36.8046 253.693 37.8013C254.228 38.7715 254.763 39.75 254.956 40.8707C255.031 41.2889 255.123 41.6987 255.232 42.1085C255.608 43.5053 255.675 44.9187 255.374 46.3405C255.206 47.1265 255.039 47.9131 254.847 48.6907C254.778 48.9594 254.664 49.211 254.551 49.4597C254.526 49.5129 254.502 49.566 254.479 49.6191C254.467 49.6433 254.455 49.6671 254.442 49.6907C254.419 49.7311 254.395 49.7707 254.371 49.8104C254.317 49.8997 254.262 49.9893 254.228 50.0874C253.668 51.7434 252.446 52.8976 251.225 54.0351C250.063 55.114 248.641 55.7998 247.152 56.2598C246.286 56.5264 245.311 56.544 244.386 56.5607L244.376 56.5609C243.33 56.586 242.276 56.5609 241.239 56.4187C240.043 56.2598 238.964 55.7329 237.902 55.1307C236.898 54.5536 236.062 53.8009 235.284 52.9812C234.565 52.2202 233.98 51.3671 233.503 50.422C232.842 49.1005 232.541 47.6954 232.24 46.2904C232.148 45.8591 232.143 45.412 232.138 44.9655ZM196.184 64.5147H200.4L200.408 64.523L200.82 64.5232C201.165 64.5236 201.51 64.5242 201.855 64.5249H201.856C202.824 64.5267 203.792 64.5286 204.757 64.523C205.552 64.5147 205.761 64.3139 205.953 63.5445C206.137 62.8336 206.338 62.1227 206.539 61.4201C206.603 61.2028 206.671 60.9855 206.74 60.7683L206.741 60.7647C206.833 60.473 206.926 60.1813 207.007 59.8896C207.367 58.635 207.718 57.3721 208.069 56.1092C208.071 56.1046 208.074 56.1 208.077 56.0952C208.085 56.0827 208.094 56.0689 208.094 56.0507C208.521 54.746 208.947 53.4412 209.374 52.1282C209.401 52.0462 209.414 51.9618 209.426 51.8776C209.436 51.8071 209.447 51.7368 209.466 51.6681C209.867 50.238 210.277 48.8078 210.687 47.3776C210.778 47.0579 210.865 46.7402 210.953 46.4225L210.955 46.4158C211.042 46.0959 211.13 45.776 211.222 45.454C211.306 45.1529 211.398 44.8518 211.49 44.5591C211.541 44.3938 211.6 44.2296 211.658 44.0649L211.659 44.0638C211.764 43.7705 211.869 43.4758 211.933 43.1707C211.955 43.0698 211.977 42.9688 211.998 42.8678C212.13 42.2489 212.261 41.6322 212.577 41.0715C212.643 40.9444 212.68 40.7991 212.717 40.6549C212.736 40.5808 212.755 40.5067 212.778 40.4358C212.882 40.0849 212.985 39.7339 213.087 39.3829L213.087 39.382C213.19 39.0307 213.292 38.6795 213.397 38.3282L213.436 38.1818C213.499 37.9523 213.562 37.7192 213.631 37.4918C213.719 37.1829 213.808 36.8739 213.898 36.5649C213.988 36.255 214.078 35.945 214.166 35.6351C214.193 35.5423 214.222 35.4496 214.251 35.3568L214.252 35.3544C214.296 35.2138 214.34 35.0732 214.375 34.9326L214.398 34.8342C214.407 34.7985 214.415 34.7628 214.423 34.7271C214.434 34.6788 214.445 34.6304 214.456 34.582C214.607 33.9201 214.758 33.2594 215.078 32.6409C215.177 32.4485 215.219 32.2316 215.261 32.0159C215.279 31.9222 215.298 31.8288 215.32 31.7377C215.36 31.5841 215.394 31.4305 215.428 31.2774L215.428 31.2766C215.481 31.0381 215.533 30.8009 215.605 30.5668C215.851 29.7597 216.1 28.9505 216.349 28.1413C216.598 27.3321 216.847 26.523 217.093 25.7159C217.311 24.9966 217.102 24.7122 216.357 24.6704H216.023H208.529C208.353 24.6704 208.169 24.6704 207.994 24.6871C207.617 24.729 207.375 24.9381 207.291 25.3061C207.259 25.447 207.242 25.5929 207.225 25.7384C207.211 25.8603 207.197 25.9825 207.174 26.1006C207.116 26.4101 207.057 26.7111 206.973 27.0122C206.91 27.2378 206.838 27.4601 206.767 27.6815C206.64 28.0757 206.513 28.4674 206.438 28.8689L206.423 28.9516C206.286 29.718 206.151 30.4755 205.844 31.194C205.762 31.3772 205.729 31.5811 205.696 31.7854C205.683 31.8702 205.669 31.9554 205.652 32.0388C205.468 32.8626 205.286 33.6885 205.104 34.5144C204.922 35.3403 204.74 36.1662 204.556 36.99C204.556 37.0151 204.548 37.0402 204.54 37.0569C204.199 37.8586 204.032 38.7056 203.865 39.5519C203.695 40.4097 203.526 41.2668 203.176 42.0751C203.16 42.1002 203.16 42.1169 203.16 42.142C202.912 43.1818 202.665 44.2297 202.417 45.2777L202.407 45.3202C202.34 45.5962 202.281 45.8805 202.223 46.1649C202.164 46.4242 202.106 46.6855 202.047 46.9469C201.989 47.2083 201.93 47.4696 201.872 47.7289C201.803 48.0244 201.731 48.3189 201.659 48.6131L201.659 48.6152C201.519 49.1864 201.38 49.7564 201.269 50.33C201.144 50.974 200.935 51.5761 200.609 52.1365C200.591 52.1658 200.574 52.1959 200.557 52.2263C200.416 52.474 200.266 52.7379 199.923 52.6634C199.634 52.6 199.588 52.3343 199.546 52.0871L199.546 52.0857C199.541 52.0583 199.537 52.031 199.532 52.0043C199.528 51.9868 199.525 51.9695 199.521 51.9525C199.478 51.7458 199.447 51.5361 199.417 51.3272C199.36 50.9359 199.304 50.5477 199.162 50.1878C198.852 49.4183 198.677 48.6154 198.509 47.8125C198.457 47.5585 198.37 47.3124 198.282 47.066C198.242 46.9557 198.203 46.8447 198.167 46.7336C198.138 46.6481 198.106 46.5634 198.075 46.4787C198.004 46.2902 197.934 46.1019 197.899 45.9056C197.74 45.0693 197.564 44.2496 197.205 43.4718C197.094 43.2375 197.046 42.9759 196.999 42.7138C196.989 42.6574 196.979 42.6005 196.968 42.5443C196.961 42.5076 196.953 42.4711 196.945 42.4347C196.923 42.3339 196.907 42.2293 196.891 42.1245L196.891 42.1236C196.86 41.9156 196.828 41.7064 196.745 41.5231C196.419 40.8012 196.249 40.0403 196.079 39.2777C196.027 39.0418 195.974 38.8058 195.917 38.5707C195.863 38.3486 195.784 38.13 195.706 37.9126C195.663 37.7946 195.62 37.6764 195.582 37.5587C195.555 37.4769 195.524 37.3958 195.493 37.3148C195.42 37.1226 195.346 36.9308 195.323 36.7307C195.244 36.1368 195.06 35.5735 194.875 35.0092C194.805 34.7949 194.735 34.5801 194.671 34.3638C194.503 33.8106 194.347 33.2529 194.191 32.6943L194.189 32.6901C194.041 32.1607 193.892 31.6304 193.734 31.102C193.423 30.0606 193.136 29.0084 192.848 27.9562C192.626 27.141 192.404 26.3257 192.17 25.5151C191.977 24.821 191.768 24.6871 191.066 24.6871C190.027 24.6871 188.986 24.6862 187.946 24.6853H187.945C185.862 24.6834 183.396 24.6816 181.316 24.6871C180.471 24.6871 177.903 34.9131 177.903 34.9131C177.903 34.9131 172.892 52.2536 172.75 52.3874C172.474 52.6551 172.164 52.6216 171.988 52.2703C171.902 52.0859 171.866 51.8744 171.83 51.6624C171.816 51.5859 171.803 51.5093 171.788 51.434C171.743 51.2209 171.705 51.0063 171.667 50.7914C171.619 50.5254 171.572 50.2591 171.512 49.9954C171.461 49.7695 171.398 49.5462 171.334 49.3226L171.334 49.3214C171.282 49.1397 171.23 48.9579 171.186 48.7743C171.113 48.4617 171.043 48.1461 170.972 47.8301L170.972 47.8288L170.972 47.8276C170.873 47.3836 170.774 46.9387 170.667 46.4994C170.609 46.2709 170.54 46.0441 170.471 45.8175C170.391 45.5548 170.312 45.2924 170.249 45.0274C170.186 44.7557 170.138 44.4818 170.09 44.2079C170.042 43.934 169.994 43.66 169.931 43.3882C169.835 42.9784 169.732 42.5685 169.63 42.1587C169.527 41.7489 169.425 41.3391 169.329 40.9293C168.978 39.4322 168.626 37.9351 168.267 36.4464C168.25 36.3836 168.223 36.3209 168.196 36.2582C168.168 36.1955 168.141 36.1327 168.124 36.07C167.999 35.6437 167.874 35.2167 167.773 34.782C167.677 34.353 167.589 33.924 167.501 33.4967C167.436 33.1825 167.372 32.8691 167.305 32.5573C167.129 31.7711 166.954 30.9933 166.77 30.2155C166.723 29.9977 166.667 29.7831 166.611 29.5697C166.594 29.5052 166.577 29.4408 166.56 29.3765C166.543 29.3104 166.526 29.2444 166.51 29.1784C166.406 28.7565 166.303 28.3366 166.201 27.9167L166.201 27.9155C166.098 27.4952 165.996 27.075 165.891 26.6526C165.863 26.5366 165.839 26.4187 165.814 26.3004C165.766 26.0693 165.718 25.8368 165.64 25.6155C165.381 24.9046 165.047 24.6788 164.286 24.6704H161.944H156.524C155.587 24.6788 155.403 24.9966 155.83 25.8162C155.972 26.0922 156.098 26.3933 156.139 26.6944C156.236 27.3361 156.44 27.9316 156.648 28.5399L156.675 28.618C156.95 29.4393 157.188 30.2718 157.426 31.1056C157.542 31.5115 157.658 31.9178 157.779 32.3231L157.782 32.3355C157.999 33.0507 158.215 33.7658 158.431 34.4893C158.473 34.6398 158.513 34.7904 158.552 34.9409C158.592 35.0915 158.632 35.242 158.674 35.3926C158.819 35.9172 158.962 36.443 159.104 36.9686C159.346 37.8592 159.587 38.7494 159.844 39.6329C160.086 40.456 160.34 41.2737 160.595 42.0907L160.595 42.0921C160.79 42.7189 160.986 43.3457 161.174 43.9736C161.241 44.1951 161.293 44.4228 161.346 44.6505C161.398 44.8785 161.45 45.1069 161.517 45.3285C161.783 46.22 162.059 47.1083 162.334 47.9953C162.5 48.5312 162.667 49.0669 162.83 49.6023C163.039 50.2798 163.24 50.9656 163.441 51.6514C163.516 51.9009 163.584 52.1543 163.651 52.409C163.681 52.5213 163.711 52.6345 163.742 52.7471C164.093 54.0351 164.444 55.323 164.804 56.611C164.812 56.6381 164.825 56.6652 164.838 56.6931C164.854 56.7255 164.87 56.7591 164.879 56.795C165.331 58.2838 165.783 59.7725 166.226 61.2612C166.31 61.5371 166.389 61.813 166.468 62.0888L166.469 62.0899C166.548 62.3657 166.627 62.6414 166.711 62.9172C166.742 63.0138 166.776 63.109 166.81 63.2039C166.858 63.3391 166.906 63.4738 166.945 63.6114C167.188 64.4896 167.23 64.5314 168.133 64.5314H176.697C176.777 64.5314 176.854 64.5293 176.931 64.5272L176.984 64.5258C177.009 64.5252 177.035 64.5246 177.061 64.5241C177.095 64.5234 177.13 64.523 177.166 64.523C177.5 64.5063 177.692 64.3139 177.793 64.0128C177.856 63.8236 177.927 63.6373 177.998 63.4516C178.133 63.0958 178.268 62.7416 178.345 62.3736C178.548 61.3673 178.844 60.3986 179.143 59.4241L179.218 59.1795L179.282 58.9696C179.37 58.6781 179.436 58.3817 179.502 58.0857C179.629 57.5156 179.756 56.9472 180.043 56.4187C180.126 56.2681 180.168 56.0841 180.185 55.9085C180.243 55.206 180.469 54.562 180.728 53.918C180.816 53.7047 180.876 53.4773 180.935 53.2499C180.955 53.1741 180.975 53.0983 180.996 53.0231C181.102 52.6193 181.201 52.2127 181.3 51.8061C181.543 50.8064 181.785 49.8069 182.142 48.8496C182.348 48.2952 182.48 47.7209 182.611 47.1484C182.798 46.3305 182.985 45.5159 183.388 44.7682C183.445 44.6618 183.463 44.5234 183.479 44.3921L183.48 44.3834C183.572 43.6307 183.789 42.9114 184.099 42.2089C184.166 42.064 184.203 41.9043 184.24 41.7446C184.259 41.6647 184.277 41.5844 184.3 41.5064C184.417 41.0882 184.536 40.6721 184.655 40.256L184.658 40.2443C184.777 39.8321 184.895 39.4199 185.011 39.0056C185.016 38.9878 185.021 38.97 185.026 38.9522C185.03 38.939 185.034 38.9257 185.038 38.9124C185.048 38.8813 185.058 38.8503 185.067 38.8192C185.122 38.6467 185.176 38.473 185.195 38.2947C185.278 37.5002 185.571 36.7809 185.872 36.0617L185.888 36.0232C186.017 35.7055 186.165 35.3437 186.583 35.3758C187.001 35.4113 187.065 35.7475 187.126 36.0682C187.132 36.0998 187.138 36.1314 187.144 36.1625C187.149 36.1878 187.154 36.2128 187.16 36.2373C187.202 36.4195 187.237 36.603 187.272 36.7863C187.33 37.0824 187.387 37.3782 187.469 37.6675C187.777 38.7306 188.099 39.7888 188.421 40.8458L188.421 40.8469L188.423 40.8537C188.521 41.1745 188.618 41.4952 188.716 41.8158C188.738 41.8882 188.753 41.9606 188.768 42.0331C188.775 42.0694 188.783 42.1057 188.791 42.142C188.899 42.56 189.003 42.9797 189.108 43.3998L189.109 43.4047C189.337 44.3192 189.565 45.2354 189.828 46.1398C190.11 47.116 190.423 48.0884 190.735 49.0595L190.736 49.0628C190.886 49.53 191.036 49.9969 191.183 50.4638C191.218 50.5792 191.244 50.6985 191.271 50.8191C191.283 50.8733 191.295 50.9278 191.308 50.9823C191.493 51.669 191.675 52.3577 191.857 53.0465C192.039 53.7335 192.22 54.4206 192.404 55.1056C192.408 55.1265 192.417 55.1474 192.425 55.1683C192.429 55.1786 192.433 55.1889 192.437 55.1993C192.441 55.2099 192.444 55.2205 192.446 55.231C192.555 55.6032 192.663 55.9775 192.772 56.3518C192.881 56.726 192.989 57.1003 193.098 57.4725C193.134 57.5964 193.17 57.7184 193.206 57.8403L193.211 57.8572C193.249 57.9848 193.286 58.1123 193.324 58.2419C193.409 58.5358 193.498 58.8296 193.587 59.1243L193.588 59.1302C193.691 59.471 193.794 59.8129 193.893 60.1572C194.01 60.5587 194.119 60.9685 194.227 61.3783C194.276 61.5568 194.327 61.7346 194.377 61.9123C194.509 62.3759 194.641 62.8387 194.737 63.3103C194.93 64.2387 195.214 64.5147 196.184 64.5147ZM313.752 44.6511V62.1059C313.752 62.3527 313.756 62.5973 313.76 62.8419C313.764 63.0866 313.768 63.3312 313.768 63.5779C313.768 64.2888 313.593 64.4812 312.865 64.5147H312.531H305.171H304.769C304.209 64.4728 304.008 64.2805 303.991 63.7201C303.975 63.2263 303.96 62.7325 303.946 62.2397C303.937 61.9472 303.929 61.6551 303.92 61.3635C303.913 61.1479 303.907 60.9325 303.899 60.7176C303.899 60.5168 303.899 60.3161 303.874 60.1154C303.816 59.6052 303.523 59.3961 303.038 59.5969C302.762 59.7056 302.503 59.9147 302.31 60.1488C301.675 60.935 300.964 61.6292 300.127 62.2063C299.968 62.3126 299.819 62.4344 299.67 62.5561C299.491 62.7025 299.312 62.8487 299.115 62.9674C298.992 63.0442 298.869 63.1217 298.745 63.1993L298.744 63.2003C298.116 63.5951 297.486 63.9913 296.815 64.3056C296.345 64.5259 295.837 64.6614 295.329 64.7966C295.124 64.8513 294.918 64.9061 294.716 64.9663C293.687 65.2757 292.625 65.4179 291.546 65.4347C290.81 65.4347 290.074 65.443 289.338 65.4514C287.766 65.4597 286.235 65.2339 284.738 64.7488C284.504 64.6736 284.262 64.6317 284.019 64.5983C283.567 64.5314 283.149 64.4227 282.79 64.1216C282.706 64.0463 282.606 63.971 282.505 63.9459C281.88 63.7945 281.337 63.4825 280.792 63.1689L280.791 63.1682C280.644 63.0836 280.497 62.9989 280.347 62.9172C279.469 62.4238 278.616 61.9052 277.888 61.211C277.807 61.1324 277.725 61.054 277.643 60.9756L277.502 60.841C276.777 60.1475 276.054 59.456 275.379 58.7103C274.947 58.2364 274.585 57.6928 274.224 57.1522C274.152 57.044 274.08 56.9359 274.008 56.8285C273.698 56.3685 273.397 55.9001 273.146 55.4067C272.799 54.7331 272.48 54.043 272.161 53.3542L272.161 53.3534L272.153 53.3372C272.083 53.1849 272.013 53.0328 271.942 52.8809C271.808 52.5798 271.708 52.2536 271.616 51.9358C271.571 51.7766 271.533 51.6145 271.495 51.4525L271.495 51.4509C271.441 51.222 271.388 50.9933 271.315 50.7732C270.52 48.3562 270.545 45.8638 270.587 43.3631C270.592 42.9951 270.618 42.6271 270.645 42.2592C270.665 41.9831 270.685 41.7071 270.696 41.4311C270.75 40.0319 271.15 38.7085 271.548 37.3912L271.548 37.3898C271.645 37.0697 271.742 36.75 271.833 36.4297C272.021 35.7836 272.351 35.1798 272.68 34.5761C272.79 34.3748 272.9 34.1736 273.004 33.9707C273.289 33.4187 273.615 32.8835 273.941 32.3566C275.011 30.6086 276.416 29.1617 278.014 27.8904C278.16 27.7747 278.303 27.6529 278.446 27.531C278.778 27.2476 279.112 26.9635 279.486 26.753C279.716 26.6232 279.941 26.4812 280.165 26.339C280.708 25.9955 281.253 25.6508 281.886 25.4733C282.036 25.4305 282.179 25.3637 282.322 25.2971C282.402 25.2596 282.483 25.222 282.564 25.189C283.04 25.0133 283.517 24.8377 284.002 24.6704C284.088 24.6429 284.18 24.6253 284.271 24.6078C284.402 24.5825 284.533 24.5574 284.646 24.5031C285.542 24.07 286.493 23.9858 287.452 23.9009C287.604 23.8875 287.756 23.874 287.908 23.8591C289.756 23.6835 291.605 23.7504 293.445 23.993C293.831 24.0465 294.213 24.1506 294.594 24.2544C294.749 24.2967 294.904 24.339 295.059 24.3777C295.385 24.4613 295.703 24.5533 296.021 24.6537C296.38 24.7708 296.74 24.8879 297.091 25.0301C297.501 25.1973 297.919 25.373 298.296 25.5904C298.338 25.6143 298.38 25.638 298.422 25.6618L298.487 25.6982C298.986 25.9795 299.489 26.2631 299.927 26.6191C300.035 26.7089 300.145 26.7974 300.256 26.8854C300.336 26.9498 300.418 27.014 300.499 27.0782C301.196 27.6282 301.895 28.1803 302.419 28.9275C302.561 29.1366 302.812 29.3039 303.046 29.4042C303.481 29.5799 303.799 29.3708 303.841 28.9024C303.864 28.6855 303.859 28.4645 303.854 28.2452C303.851 28.1516 303.849 28.0583 303.849 27.9657V25.8246C303.849 24.913 304.067 24.6872 305.003 24.6788H311.962C312.021 24.6788 312.079 24.6784 312.137 24.6781C312.369 24.6768 312.598 24.6755 312.832 24.6955C313.517 24.7541 313.727 24.9882 313.727 25.674V44.6611L313.752 44.6511ZM304 44.5591C304.088 43.5069 303.821 42.4507 303.55 41.3787C303.435 40.9253 303.32 40.4691 303.23 40.0093C303.218 39.9465 303.191 39.8838 303.164 39.821L303.163 39.8182C303.155 39.7982 303.146 39.7783 303.138 39.7584C302.478 38.3951 301.817 37.0486 300.763 35.9111C299.918 34.9995 298.915 34.2886 297.861 33.6948C296.631 33.0006 295.268 32.666 293.846 32.5322C293.749 32.5235 293.652 32.5145 293.555 32.5055C292.719 32.4275 291.892 32.3506 291.053 32.5155C290.509 32.6242 289.949 32.6995 289.397 32.7413C288.532 32.8049 287.802 33.1926 287.072 33.5807C286.842 33.7029 286.612 33.8251 286.378 33.9373C285.884 34.1715 285.407 34.4977 285.006 34.8657C284.22 35.5849 283.45 36.3209 282.848 37.2242C282.213 38.1776 281.594 39.1061 281.359 40.2518C281.318 40.4693 281.251 40.6867 281.159 40.8875C280.506 42.4431 280.556 44.0656 280.657 45.6965C280.69 46.2485 280.757 46.8089 280.883 47.3442C280.999 47.8524 281.156 48.3472 281.313 48.8449C281.371 49.0268 281.429 49.2098 281.485 49.3932C281.543 49.5856 281.619 49.7696 281.711 49.9536C282.313 51.0994 282.99 52.1783 283.852 53.1652C284.722 54.1605 285.792 54.8714 286.896 55.5154C287.933 56.1176 289.062 56.5609 290.308 56.5609C290.403 56.5609 290.498 56.5778 290.592 56.5948C290.673 56.6094 290.754 56.6239 290.835 56.6278C291.053 56.6401 291.271 56.6598 291.488 56.6795C292.005 56.7262 292.52 56.7728 293.027 56.7198C293.218 56.6995 293.41 56.681 293.602 56.6624C294.914 56.5358 296.236 56.4082 297.417 55.7078C297.869 55.4318 298.321 55.1558 298.781 54.8881C300.42 53.9431 301.532 52.4878 302.427 50.8903C302.954 49.9536 303.448 48.95 303.523 47.8293C303.531 47.6954 303.573 47.57 303.623 47.4445C303.933 46.5496 304.016 45.6213 303.991 44.5591H304ZM321.931 81.4091H326.456C327.303 81.411 329.422 81.3562 330.27 81.3506C330.18 81.3502 330.359 81.3495 330.27 81.3506C330.843 81.3531 333.927 80.7687 333.927 80.7687C334.989 80.5679 336.509 79.7866 337.412 79.2346C338.859 78.3481 339.963 77.0935 340.866 75.6633C341.251 75.0612 341.628 74.459 341.979 73.8401C342.38 73.1459 342.773 72.4517 343.108 71.7241C343.387 71.1173 343.642 70.4968 343.898 69.8757C344.04 69.5294 344.182 69.183 344.329 68.8386C344.367 68.7592 344.413 68.6818 344.459 68.6044C344.505 68.5271 344.551 68.4497 344.588 68.3703C344.615 68.311 344.642 68.2523 344.67 68.1937C344.747 68.0291 344.823 67.8655 344.873 67.6928L344.902 67.5849C345.059 67.0181 345.215 66.4506 345.609 65.9866C345.668 65.9163 345.689 65.8146 345.71 65.713C345.722 65.6575 345.733 65.602 345.751 65.5517C345.787 65.4509 345.822 65.3494 345.858 65.2476C345.946 64.9947 346.034 64.74 346.136 64.4896C346.4 63.8538 346.669 63.218 346.936 62.5843C347.091 62.2177 347.245 61.8518 347.398 61.487C347.527 61.1749 347.662 60.8628 347.798 60.5507C347.866 60.3945 347.934 60.2382 348.001 60.0819C348.142 59.7551 348.288 59.4284 348.433 59.101C348.65 58.6157 348.866 58.1292 349.071 57.6398C349.369 56.9268 349.662 56.2088 349.954 55.4936C350.039 55.2859 350.124 55.0784 350.209 54.8714C350.234 54.8129 350.276 54.7543 350.301 54.6958C350.393 54.495 350.485 54.2922 350.577 54.0894C350.669 53.8866 350.761 53.6838 350.853 53.483C350.887 53.4049 350.92 53.3268 350.954 53.2488C351.035 53.0598 351.115 52.8721 351.204 52.6885C351.337 52.4044 351.475 52.1213 351.612 51.8378C351.871 51.3034 352.131 50.7677 352.366 50.2212C352.646 49.5788 352.896 48.9322 353.146 48.2844C353.248 48.0213 353.35 47.758 353.454 47.4947C353.472 47.4396 353.503 47.387 353.534 47.3342C353.56 47.2908 353.585 47.2472 353.604 47.202C353.805 46.7587 354.006 46.3071 354.198 45.8638C354.248 45.7509 354.292 45.638 354.336 45.5251C354.38 45.4122 354.424 45.2992 354.474 45.1863C354.611 44.8907 354.749 44.596 354.888 44.3013C355.165 43.7123 355.441 43.1232 355.703 42.5267C356.009 41.8306 356.301 41.1255 356.592 40.4213C356.7 40.161 356.808 39.9008 356.916 39.6413C356.941 39.5911 356.969 39.543 356.996 39.4949C357.023 39.4468 357.05 39.3987 357.075 39.3485C357.191 39.1015 357.309 38.8544 357.428 38.6069C357.702 38.0333 357.978 37.4572 358.229 36.8729C358.486 36.2829 358.721 35.6894 358.956 35.0969C359.081 34.7823 359.206 34.468 359.333 34.1547C359.35 34.1129 359.371 34.0732 359.392 34.0335C359.413 33.9937 359.434 33.954 359.45 33.9122C359.554 33.6899 359.658 33.468 359.762 33.2463C360.111 32.5004 360.46 31.756 360.789 31.0017C361.035 30.4432 361.26 29.8741 361.484 29.3059C361.603 29.0061 361.721 28.7065 361.842 28.4089C361.872 28.3348 361.913 28.2665 361.954 28.1988C361.983 28.152 362.011 28.1055 362.035 28.0577C362.089 27.943 362.145 27.8274 362.2 27.7112C362.307 27.4881 362.415 27.2627 362.52 27.0373C362.559 26.9509 362.598 26.8644 362.637 26.7781C362.772 26.4801 362.906 26.1833 363.055 25.8915C363.085 25.8324 363.118 25.7742 363.151 25.7163C363.288 25.4791 363.422 25.2454 363.281 24.9631C363.111 24.6241 362.793 24.637 362.491 24.6492C362.436 24.6514 362.381 24.6537 362.327 24.6537H354.968H353.496C353.144 24.6537 352.893 24.8042 352.751 25.122C352.442 25.8413 352.141 26.5522 351.84 27.2715C351.785 27.4053 351.729 27.5391 351.672 27.6729C351.616 27.8068 351.559 27.9406 351.505 28.0744C351.415 28.2985 351.331 28.5241 351.247 28.7493C351.136 29.0452 351.026 29.3403 350.903 29.63C350.822 29.8257 350.724 30.0124 350.626 30.199C350.56 30.3235 350.495 30.448 350.434 30.5751C350.326 30.7926 350.234 31.0184 350.15 31.2442C350.102 31.3693 350.059 31.4977 350.016 31.6264C349.961 31.7903 349.906 31.9548 349.841 32.114C349.774 32.2813 349.698 32.4423 349.623 32.6033C349.548 32.7643 349.473 32.9253 349.406 33.0926C349.226 33.5484 349.05 34.0042 348.875 34.46C348.699 34.9158 348.523 35.3716 348.344 35.8275C348.317 35.9007 348.275 35.9738 348.232 36.047C348.207 36.0909 348.181 36.1348 348.16 36.1787C348.001 36.5216 347.85 36.8645 347.7 37.2075C347.616 37.3998 347.536 37.5964 347.457 37.7929C347.378 37.9895 347.298 38.186 347.214 38.3784C347.172 38.473 347.127 38.5676 347.082 38.6627C347.003 38.828 346.924 38.9946 346.855 39.1645C346.759 39.4147 346.664 39.6654 346.57 39.9161C346.326 40.5624 346.083 41.2081 345.818 41.8409C345.37 42.91 344.907 43.9757 344.445 45.0424C344.191 45.6279 343.937 46.2137 343.685 46.8005C343.619 46.9558 343.554 47.111 343.488 47.2664C343.234 47.8645 342.979 48.4647 342.74 49.0754C342.573 49.5103 342.416 49.9473 342.259 50.3843C342.102 50.8213 341.945 51.2583 341.778 51.6932C341.577 52.2118 341.126 52.3121 340.716 51.9525C340.331 51.6263 340.097 51.1998 339.963 50.7147C339.854 50.33 339.737 49.9452 339.587 49.5772C339.356 48.9972 339.114 48.4198 338.872 47.8421C338.685 47.3952 338.498 46.9481 338.316 46.4994C338.283 46.4193 338.263 46.3339 338.243 46.2476C338.228 46.1808 338.212 46.1135 338.19 46.0478C338.155 45.9296 338.107 45.8156 338.058 45.6999C338.038 45.6518 338.017 45.6034 337.998 45.5543C337.868 45.2488 337.734 44.9447 337.6 44.6408C337.286 43.9299 336.973 43.2198 336.71 42.4933C336.663 42.3616 336.619 42.2295 336.575 42.0978C336.414 41.6189 336.256 41.1448 335.974 40.7118C335.9 40.6035 335.861 40.4681 335.822 40.3345C335.804 40.2721 335.786 40.2101 335.765 40.1514C335.581 39.6538 335.397 39.1541 335.213 38.6544C335.029 38.1546 334.845 37.6549 334.661 37.1573C334.644 37.1155 334.619 37.082 334.602 37.0402C334.498 36.7809 334.395 36.5237 334.293 36.2666C334.19 36.0094 334.088 35.7522 333.983 35.4929C333.9 35.2587 333.808 35.0329 333.716 34.8071C333.599 34.506 333.474 34.2049 333.349 33.9039C333.287 33.7533 333.225 33.6028 333.164 33.4522C333.08 33.247 332.992 33.0467 332.902 32.8437C332.875 32.782 332.848 32.7201 332.821 32.6576C332.704 32.39 332.586 32.1224 332.486 31.8547C332.317 31.4195 332.15 30.9828 331.984 30.5459C331.747 29.9249 331.51 29.3035 331.265 28.6849C331.096 28.2577 330.923 27.8331 330.751 27.409C330.487 26.7622 330.225 26.1166 329.977 25.4649C329.726 24.8126 329.609 24.6704 328.923 24.6704H319.824C319.046 24.6704 318.862 25.0635 319.155 25.6824C319.715 26.8613 320.216 28.0735 320.718 29.2858L320.719 29.2871C320.997 29.956 321.261 30.6324 321.525 31.3088C321.657 31.6472 321.789 31.9856 321.923 32.3231C321.981 32.4649 322.048 32.6066 322.115 32.7483L322.115 32.7497C322.283 33.1344 322.45 33.5191 322.625 33.9038C322.697 34.0669 322.772 34.2279 322.847 34.3889C322.922 34.5499 322.998 34.7109 323.069 34.874C323.093 34.9284 323.118 34.9829 323.143 35.0374C323.229 35.2258 323.315 35.4154 323.387 35.61C323.663 36.3225 323.932 37.0391 324.201 37.757C324.314 38.0588 324.427 38.3607 324.541 38.6627C324.553 38.692 324.57 38.7213 324.587 38.7505C324.603 38.7798 324.62 38.8091 324.633 38.8384C324.775 39.156 324.92 39.4714 325.065 39.7863C325.322 40.3419 325.577 40.8956 325.812 41.4562C326.102 42.1547 326.371 42.8617 326.64 43.5681C326.751 43.8597 326.862 44.1512 326.975 44.442C326.997 44.5003 327.027 44.5538 327.056 44.6063C327.081 44.6518 327.106 44.6965 327.125 44.7431C327.221 44.9689 327.315 45.1926 327.409 45.4163C327.503 45.6401 327.598 45.8638 327.694 46.0896C327.778 46.2775 327.857 46.4704 327.935 46.6606C327.958 46.7159 327.981 46.771 328.003 46.8256C328.187 47.2522 328.371 47.6871 328.547 48.1136C328.582 48.1985 328.615 48.2864 328.647 48.3747C328.692 48.4953 328.736 48.6167 328.789 48.7325C329.233 49.7445 329.676 50.7649 330.119 51.7852C330.37 52.354 330.621 52.9227 330.864 53.4998C331.193 54.2808 331.514 55.0619 331.836 55.8429C331.997 56.2328 332.157 56.6226 332.319 57.0125C332.383 57.1704 332.446 57.3281 332.509 57.4856C332.829 58.279 333.146 59.0676 333.481 59.8561C333.707 60.3914 333.95 60.9099 334.217 61.4201C334.418 61.8048 334.761 61.9805 335.213 61.9637C335.681 61.9386 336.149 61.9303 336.618 61.9637C337.429 62.0223 337.697 62.5241 337.354 63.2601C337.225 63.5456 337.111 63.8413 336.997 64.1373C336.904 64.3789 336.811 64.6208 336.71 64.8575C336.603 65.0993 336.481 65.3355 336.359 65.5719C336.118 66.0389 335.876 66.5074 335.748 67.0237C335.738 67.0668 335.701 67.1043 335.664 67.1427C335.636 67.1714 335.607 67.2006 335.589 67.2328C335.553 67.2969 335.515 67.3601 335.477 67.4233C335.4 67.5497 335.324 67.6761 335.263 67.8099C334.686 69.1146 333.891 70.2772 332.812 71.1888C332.068 71.8244 331.215 72.3262 330.186 72.4183C329.862 72.4448 329.541 72.512 329.221 72.5788C329.038 72.6172 328.855 72.6554 328.672 72.6859C328.538 72.708 328.404 72.7317 328.269 72.7554C327.793 72.8395 327.315 72.9237 326.832 72.9368C325.691 72.9602 324.554 72.9549 323.415 72.9497C322.926 72.9474 322.437 72.9452 321.948 72.9452C321.187 72.9452 321.011 73.1292 320.986 73.8903V74.1579V80.3135C320.986 80.5309 321.011 80.7568 321.036 80.9742C321.07 81.2669 321.245 81.4008 321.53 81.4091H321.931Z" fill="#3F4B52"/>
</g>
<defs>
<clipPath id="clip0_590_112674">
<rect width="363.817" height="81.9634" fill="white" transform="translate(0 0.0183105)"/>
</clipPath>
</defs>
</svg>
