<svg width="57" height="56" viewBox="0 0 57 56" fill="none" xmlns="http://www.w3.org/2000/svg">
<g clip-path="url(#clip0_4018_23588)">
<rect x="0.666016" width="56" height="56" rx="16" fill="#E5484D" fill-opacity="0.08"/>
<mask id="mask0_4018_23588" style="mask-type:alpha" maskUnits="userSpaceOnUse" x="8" y="8" width="41" height="40">
<path opacity="0.2" d="M20.541 25.5C23.6476 25.5 26.166 22.9816 26.166 19.875C26.166 16.7684 23.6476 14.25 20.541 14.25C17.4344 14.25 14.916 16.7684 14.916 19.875C14.916 22.9816 17.4344 25.5 20.541 25.5Z" fill="black"/>
<path opacity="0.2" d="M36.791 25.5C39.8976 25.5 42.416 22.9816 42.416 19.875C42.416 16.7684 39.8976 14.25 36.791 14.25C33.6844 14.25 31.166 16.7684 31.166 19.875C31.166 22.9816 33.6844 25.5 36.791 25.5Z" fill="black"/>
<path opacity="0.2" d="M20.541 41.75C23.6476 41.75 26.166 39.2316 26.166 36.125C26.166 33.0184 23.6476 30.5 20.541 30.5C17.4344 30.5 14.916 33.0184 14.916 36.125C14.916 39.2316 17.4344 41.75 20.541 41.75Z" fill="black"/>
<path d="M20.541 25.5C23.6476 25.5 26.166 22.9816 26.166 19.875C26.166 16.7684 23.6476 14.25 20.541 14.25C17.4344 14.25 14.916 16.7684 14.916 19.875C14.916 22.9816 17.4344 25.5 20.541 25.5Z" stroke="black" stroke-width="1.5" stroke-linecap="round" stroke-linejoin="round"/>
<path d="M36.791 25.5C39.8976 25.5 42.416 22.9816 42.416 19.875C42.416 16.7684 39.8976 14.25 36.791 14.25C33.6844 14.25 31.166 16.7684 31.166 19.875C31.166 22.9816 33.6844 25.5 36.791 25.5Z" stroke="black" stroke-width="1.5" stroke-linecap="round" stroke-linejoin="round"/>
<path d="M20.541 41.75C23.6476 41.75 26.166 39.2316 26.166 36.125C26.166 33.0184 23.6476 30.5 20.541 30.5C17.4344 30.5 14.916 33.0184 14.916 36.125C14.916 39.2316 17.4344 41.75 20.541 41.75Z" stroke="black" stroke-width="1.5" stroke-linecap="round" stroke-linejoin="round"/>
<path d="M36.791 31.75V40.5" stroke="black" stroke-width="1.5" stroke-linecap="round" stroke-linejoin="round"/>
<path d="M41.166 36.125H32.416" stroke="black" stroke-width="1.5" stroke-linecap="round" stroke-linejoin="round"/>
</mask>
<g mask="url(#mask0_4018_23588)">
<rect x="8.66602" y="8" width="40" height="40" fill="#E5484D"/>
</g>
</g>
<defs>
<clipPath id="clip0_4018_23588">
<rect width="56" height="56" fill="white" transform="translate(0.666016)"/>
</clipPath>
</defs>
</svg>
