<svg width="56" height="56" viewBox="0 0 56 56" fill="none" xmlns="http://www.w3.org/2000/svg">
<rect width="56" height="56" fill="#F8FAF9"/>
<path d="M27.4995 10C17.936 10 10.1398 17.7066 10.0018 27.2318C9.86175 36.9054 17.7154 44.9214 27.3966 44.9774C30.3861 44.9949 33.2658 44.2641 35.8232 42.8752C36.0725 42.7401 36.1111 42.3971 35.8988 42.2095L34.2611 40.7591C33.9284 40.4643 33.4549 40.381 33.0451 40.5546C31.2603 41.3135 29.3207 41.7013 27.3216 41.6768C19.4988 41.5809 13.1785 35.0763 13.3031 27.2591C13.4264 19.5406 19.7474 13.2999 27.4995 13.2999H41.6973V38.5197L33.6419 31.3668C33.3813 31.1351 32.9821 31.1806 32.7719 31.4585C31.4789 33.1694 29.3726 34.2334 27.033 34.0724C23.7877 33.8484 21.1582 31.2373 20.9151 27.9955C20.6244 24.1286 23.6911 20.8889 27.4995 20.8889C30.9444 20.8889 33.7813 23.5385 34.0776 26.9056C34.1042 27.2052 34.2394 27.4845 34.4643 27.684L36.5622 29.5426C36.8003 29.7533 37.1779 29.6245 37.2367 29.3116C37.388 28.503 37.4413 27.6609 37.3817 26.7971C37.0441 21.8731 33.0528 17.9117 28.1236 17.6086C22.4723 17.2606 17.7476 21.6785 17.5977 27.2164C17.4513 32.6136 21.8762 37.2659 27.2775 37.3849C29.5323 37.4346 31.6225 36.7262 33.3113 35.4984L43.8365 44.8227C44.2876 45.2224 45 44.9025 45 44.2998V10.6636C44.9993 10.2975 44.7023 10 44.3353 10H27.4995Z" fill="#003DFF"/>
</svg>
