<svg width="56" height="56" viewBox="0 0 56 56" fill="none" xmlns="http://www.w3.org/2000/svg">
<g clip-path="url(#clip0_4018_33912)">
<rect width="56" height="56" rx="16" fill="#AA99EC" fill-opacity="0.095"/>
<path d="M19.6667 19.875H16.3333C15.4493 19.875 14.6014 20.2262 13.9763 20.8513C13.3512 21.4764 13 22.3243 13 23.2083V36.5417H16.3333V29.875H19.6667V36.5417H23V23.2083C23 22.3243 22.6488 21.4764 22.0237 20.8513C21.3986 20.2262 20.5507 19.875 19.6667 19.875V19.875ZM19.6667 26.5417H16.3333V23.2083H19.6667V26.5417ZM31.3333 19.875H24.6667V36.5417H28V29.875H31.3333C32.2174 29.875 33.0652 29.5238 33.6904 28.8987C34.3155 28.2736 34.6667 27.4257 34.6667 26.5417V23.2083C34.6667 22.3243 34.3155 21.4764 33.6904 20.8513C33.0652 20.2262 32.2174 19.875 31.3333 19.875V19.875ZM31.3333 26.5417H28V23.2083H31.3333V26.5417ZM41.3333 23.2083V33.2083H43V36.5417H36.3333V33.2083H38V23.2083H36.3333V19.875H43V23.2083H41.3333Z" fill="#644FC1"/>
</g>
<defs>
<clipPath id="clip0_4018_33912">
<rect width="56" height="56" fill="white"/>
</clipPath>
</defs>
</svg>
