<svg width="56" height="56" viewBox="0 0 56 56" fill="none" xmlns="http://www.w3.org/2000/svg">
<rect width="56" height="56" fill="#F8FAF9"/>
<path d="M28.9254 30.356H33.217C34.4374 30.356 35.2103 29.6848 35.2103 28.6067C35.2103 27.5898 34.4374 26.8576 33.217 26.8576H28.9254C28.7829 26.8576 28.6609 26.9796 28.6609 27.1016V30.1119C28.6813 30.2542 28.7829 30.356 28.9254 30.356Z" fill="#292929"/>
<path d="M28.9254 37.2918H33.3594C34.7222 37.2918 35.5357 36.6003 35.5357 35.3799C35.5357 34.3223 34.7628 33.468 33.3594 33.468H28.9254C28.7829 33.468 28.6609 33.59 28.6609 33.7121V37.0275C28.6813 37.1902 28.7829 37.2918 28.9254 37.2918Z" fill="#292929"/>
<path d="M44.6262 11.0747L31.9348 23.7256H34.0093C37.2432 23.7256 39.1551 25.7594 39.1551 27.9764C39.1551 29.7256 37.9754 31.0068 36.7144 31.5763C36.511 31.6577 36.511 31.9424 36.7348 32.0239C38.1992 32.5933 39.2365 34.1187 39.2365 35.9086C39.2365 38.4305 37.5483 40.4441 34.2738 40.4441H25.284C25.1416 40.4441 25.0195 40.3221 25.0195 40.2V30.6205L11.0874 44.4916C10.9043 44.6746 11.0264 45 11.2908 45H44.7889C44.911 45 45.0127 44.8984 45.0127 44.7763V11.2577C45.0737 11.0341 44.7889 10.912 44.6262 11.0747Z" fill="#292929"/>
</svg>
