<svg width="56" height="56" viewBox="0 0 56 56" fill="none" xmlns="http://www.w3.org/2000/svg">
<rect width="56" height="56" rx="16" fill="#02C097" fill-opacity="0.095"/>
<mask id="mask0_4110_33965" style="mask-type:alpha" maskUnits="userSpaceOnUse" x="12" y="12" width="32" height="32">
<path opacity="0.2" d="M37.9998 22.8375V21C37.9998 19.6739 37.4731 18.4021 36.5354 17.4645C35.5977 16.5268 34.3259 16 32.9998 16C31.6738 16 30.402 16.5268 29.4643 17.4645C28.5266 18.4021 27.9998 19.6739 27.9998 21C27.9998 19.6739 27.4731 18.4021 26.5354 17.4645C25.5977 16.5268 24.3259 16 22.9998 16C21.6738 16 20.402 16.5268 19.4643 17.4645C18.5266 18.4021 17.9998 19.6739 17.9998 21V22.8375C16.8318 23.2545 15.8213 24.0224 15.1068 25.0362C14.3923 26.0499 14.0088 27.2598 14.0088 28.5C14.0088 29.7402 14.3923 30.9501 15.1068 31.9638C15.8213 32.9776 16.8318 33.7455 17.9998 34.1625V34.1625V35C17.9998 36.3261 18.5266 37.5979 19.4643 38.5355C20.402 39.4732 21.6738 40 22.9998 40C24.3259 40 25.5977 39.4732 26.5354 38.5355C27.4731 37.5979 27.9998 36.3261 27.9998 35C27.9998 36.3261 28.5266 37.5979 29.4643 38.5355C30.402 39.4732 31.6738 40 32.9998 40C34.3259 40 35.5977 39.4732 36.5354 38.5355C37.4731 37.5979 37.9998 36.3261 37.9998 35V34.1625C39.1679 33.7455 40.1784 32.9776 40.8929 31.9638C41.6074 30.9501 41.9909 29.7402 41.9909 28.5C41.9909 27.2598 41.6074 26.0499 40.8929 25.0362C40.1784 24.0224 39.1679 23.2545 37.9998 22.8375V22.8375Z" fill="black"/>
<path d="M28 34V22" stroke="black" stroke-width="1.5" stroke-linecap="round" stroke-linejoin="round"/>
<path d="M23 30C23.9889 30 24.9556 30.2932 25.7779 30.8427C26.6001 31.3921 27.241 32.173 27.6194 33.0866C27.9978 34.0002 28.0969 35.0055 27.9039 35.9755C27.711 36.9454 27.2348 37.8363 26.5355 38.5355C25.8363 39.2348 24.9454 39.711 23.9755 39.9039C23.0055 40.0969 22.0002 39.9978 21.0866 39.6194C20.173 39.241 19.3921 38.6001 18.8427 37.7779C18.2932 36.9556 18 35.9889 18 35V34.1625" stroke="black" stroke-width="1.5" stroke-linecap="round" stroke-linejoin="round"/>
<path d="M33 30C32.0111 30 31.0444 30.2932 30.2222 30.8427C29.3999 31.3921 28.759 32.173 28.3806 33.0866C28.0022 34.0002 27.9031 35.0055 28.0961 35.9755C28.289 36.9454 28.7652 37.8363 29.4645 38.5355C30.1637 39.2348 31.0546 39.711 32.0246 39.9039C32.9945 40.0969 33.9998 39.9978 34.9134 39.6194C35.8271 39.241 36.6079 38.6001 37.1574 37.7779C37.7068 36.9556 38 35.9889 38 35V34.1625" stroke="black" stroke-width="1.5" stroke-linecap="round" stroke-linejoin="round"/>
<path d="M20.9995 34.5H19.9995C18.5813 34.5038 17.2076 34.0051 16.1221 33.0924C15.0366 32.1797 14.3094 30.912 14.0697 29.5142C13.83 28.1163 14.0932 26.6788 14.8126 25.4566C15.532 24.2343 16.6611 23.3064 17.9995 22.8375V21C17.9995 19.6739 18.5263 18.4021 19.464 17.4645C20.4017 16.5268 21.6734 16 22.9995 16C24.3256 16 25.5974 16.5268 26.535 17.4645C27.4727 18.4021 27.9995 19.6739 27.9995 21V35" stroke="black" stroke-width="1.5" stroke-linecap="round" stroke-linejoin="round"/>
<path d="M35 34.5H36C37.4182 34.5038 38.7919 34.0051 39.8774 33.0924C40.963 32.1797 41.6901 30.912 41.9298 29.5142C42.1695 28.1163 41.9063 26.6788 41.1869 25.4566C40.4675 24.2343 39.3385 23.3064 38 22.8375V21C38 19.6739 37.4732 18.4021 36.5355 17.4645C35.5979 16.5268 34.3261 16 33 16C31.6739 16 30.4021 16.5268 29.4645 17.4645C28.5268 18.4021 28 19.6739 28 21" stroke="black" stroke-width="1.5" stroke-linecap="round" stroke-linejoin="round"/>
<path d="M23 22.5V23.5C23 24.4283 22.6313 25.3185 21.9749 25.9749C21.3185 26.6313 20.4283 27 19.5 27" stroke="black" stroke-width="1.5" stroke-linecap="round" stroke-linejoin="round"/>
<path d="M33 22.5V23.5C33 24.4283 33.3687 25.3185 34.0251 25.9749C34.6815 26.6313 35.5717 27 36.5 27" stroke="black" stroke-width="1.5" stroke-linecap="round" stroke-linejoin="round"/>
</mask>
<g mask="url(#mask0_4110_33965)">
<rect x="12" y="12" width="32" height="32" fill="#0C6D62"/>
</g>
</svg>
