<svg width="56" height="56" viewBox="0 0 56 56" fill="none" xmlns="http://www.w3.org/2000/svg">
<g clip-path="url(#clip0_4103_36638)">
<rect width="56" height="56" rx="16" fill="#0080FF" fill-opacity="0.07"/>
<mask id="mask0_4103_36638" style="mask-type:alpha" maskUnits="userSpaceOnUse" x="8" y="8" width="40" height="40">
<path opacity="0.2" d="M20.5 28C20.5 25.5277 21.2331 23.111 22.6066 21.0554C23.9801 18.9998 25.9324 17.3976 28.2165 16.4515C30.5005 15.5054 33.0139 15.2579 35.4386 15.7402C37.8634 16.2225 40.0907 17.413 41.8388 19.1612C43.587 20.9093 44.7775 23.1366 45.2598 25.5614C45.7421 27.9861 45.4946 30.4995 44.5485 32.7835C43.6024 35.0676 42.0002 37.0199 39.9446 38.3934C37.889 39.7669 35.4723 40.5 33 40.5H19.25C16.9294 40.5 14.7038 39.5781 13.0628 37.9372C11.4219 36.2962 10.5 34.0707 10.5 31.75C10.5 29.4294 11.4219 27.2038 13.0628 25.5628C14.7038 23.9219 16.9294 23 19.25 23C19.9821 22.9997 20.7114 23.0889 21.4219 23.2656" fill="black"/>
<path d="M20.5 28C20.5 25.5277 21.2331 23.111 22.6066 21.0554C23.9801 18.9998 25.9324 17.3976 28.2165 16.4515C30.5005 15.5054 33.0139 15.2579 35.4386 15.7402C37.8634 16.2225 40.0907 17.413 41.8388 19.1612C43.587 20.9093 44.7775 23.1366 45.2598 25.5614C45.7421 27.9861 45.4946 30.4995 44.5485 32.7835C43.6024 35.0676 42.0002 37.0199 39.9446 38.3934C37.889 39.7669 35.4723 40.5 33 40.5H19.25C16.9294 40.5 14.7038 39.5781 13.0628 37.9372C11.4219 36.2962 10.5 34.0707 10.5 31.75C10.5 29.4294 11.4219 27.2038 13.0628 25.5628C14.7038 23.9219 16.9294 23 19.25 23C19.9821 22.9997 20.7114 23.0889 21.4219 23.2656" stroke="black" stroke-width="2" stroke-linecap="round" stroke-linejoin="round"/>
</mask>
<g mask="url(#mask0_4103_36638)">
<rect x="8" y="8" width="40" height="40" fill="#0081F1"/>
</g>
</g>
<defs>
<clipPath id="clip0_4103_36638">
<rect width="56" height="56" fill="white"/>
</clipPath>
</defs>
</svg>
