<svg width="56" height="56" viewBox="0 0 56 56" fill="none" xmlns="http://www.w3.org/2000/svg">
<rect width="56" height="56" fill="#F8FAF9"/>
<path d="M10.4924 39.0749C10.3466 39.1448 10.2236 39.2545 10.1374 39.3914C10.0513 39.5282 10.0056 39.6866 10.0056 39.8483C10.0056 40.01 10.0513 40.1684 10.1374 40.3052C10.2236 40.4421 10.3466 40.5518 10.4924 40.6217L26.9171 48.3278C27.135 48.4383 27.3759 48.4961 27.6202 48.4966V31.2844C27.3732 31.287 27.1292 31.3396 26.9031 31.4391L10.4924 39.0749Z" fill="#FF761C"/>
<path d="M27.6763 31.2705V48.4405C27.9331 48.4449 28.1877 48.3921 28.4216 48.2858L44.8744 40.6078C45.0201 40.5373 45.1434 40.4276 45.2303 40.291C45.3173 40.1544 45.3644 39.9963 45.3666 39.8344C45.3661 39.6721 45.3196 39.5133 45.2325 39.3764C45.1453 39.2395 45.0212 39.1301 44.8744 39.061L28.3934 31.4392C28.1682 31.3353 27.9243 31.2779 27.6763 31.2705Z" fill="#FF8C1E"/>
<path d="M10.0423 16.5613C10.0428 16.7236 10.0893 16.8824 10.1764 17.0193C10.2635 17.1562 10.3877 17.2655 10.5345 17.3347L26.917 25.0408C27.1382 25.1403 27.3776 25.193 27.6201 25.1955C27.8586 25.2086 28.0974 25.1752 28.3232 25.0971L28.7873 24.8861L44.8604 17.3488C45.0069 17.2813 45.131 17.1733 45.218 17.0374C45.305 16.9016 45.3512 16.7437 45.3512 16.5824C45.3512 16.4211 45.305 16.2632 45.218 16.1273C45.131 15.9915 45.0069 15.8834 44.8604 15.816L28.3935 8.15207C28.1727 8.05185 27.9329 8 27.6904 8C27.4479 8 27.2081 8.05185 26.9873 8.15207L10.4923 15.7879C10.3544 15.8641 10.2397 15.9763 10.1605 16.1124C10.0813 16.2486 10.0404 16.4037 10.0423 16.5613Z" fill="#00C1AD"/>
<path d="M27.6762 26.1658V31.2704C27.4292 31.2729 27.1852 31.3256 26.9591 31.4251L10.4922 39.0749C10.3454 39.1441 10.2212 39.2535 10.1341 39.3904C10.047 39.5273 10.0005 39.6861 10 39.8483V16.5613C10.0005 16.7235 10.047 16.8824 10.1341 17.0193C10.2212 17.1562 10.3454 17.2655 10.4922 17.3347L26.9169 25.0408C27.1381 25.1403 27.3775 25.193 27.62 25.1955C27.8585 25.2086 28.0973 25.1751 28.3231 25.0971C27.7465 25.3361 27.6762 25.5752 27.6762 26.1658Z" fill="#D1D1D1"/>
</svg>
