<svg width="24" height="24" viewBox="0 0 24 24" fill="none" xmlns="http://www.w3.org/2000/svg">
<svg x="2" y="2">
	<path opacity="0.2" d="M4.63274 3.125H15.3671C15.491 3.12521 15.6121 3.16225 15.7149 3.23143C15.8178 3.30061 15.8977 3.3988 15.9446 3.51352C15.9915 3.62824 16.0032 3.75431 15.9783 3.87571C15.9534 3.9971 15.8929 4.10835 15.8046 4.19531L4.19525 15.8047C4.10694 15.8916 4.04649 16.0029 4.02156 16.1243C3.99663 16.2457 4.00836 16.3718 4.05526 16.4865C4.10215 16.6012 4.18209 16.6994 4.28491 16.7686C4.38774 16.8377 4.50881 16.8748 4.63274 16.875H15.3671C15.491 16.8748 15.6121 16.8377 15.7149 16.7686C15.8178 16.6994 15.8977 16.6012 15.9446 16.4865C15.9915 16.3718 16.0032 16.2457 15.9783 16.1243C15.9534 16.0029 15.8929 15.8916 15.8046 15.8047L4.19525 4.19531C4.10694 4.10835 4.04649 3.9971 4.02156 3.87571C3.99663 3.75431 4.00836 3.62824 4.05526 3.51352C4.10215 3.3988 4.18209 3.30061 4.28491 3.23143C4.38774 3.16225 4.50881 3.12521 4.63274 3.125Z" fill="#644FC1"/>
	<path d="M4.63274 3.125H15.3671C15.4911 3.12521 15.6121 3.16225 15.7149 3.23143C15.8178 3.30061 15.8977 3.3988 15.9446 3.51352C15.9915 3.62824 16.0032 3.75431 15.9783 3.87571C15.9534 3.9971 15.8929 4.10835 15.8046 4.19531L9.99993 10L4.19525 4.19531C4.10694 4.10835 4.04649 3.9971 4.02156 3.87571C3.99663 3.75431 4.00836 3.62824 4.05526 3.51352C4.10215 3.3988 4.18209 3.30061 4.28491 3.23143C4.38774 3.16225 4.50881 3.12521 4.63274 3.125V3.125Z" stroke="#644FC1" stroke-linecap="round" stroke-linejoin="round"/>
	<path d="M4.63274 16.875H15.3671C15.4911 16.8748 15.6121 16.8377 15.7149 16.7686C15.8178 16.6994 15.8977 16.6012 15.9446 16.4865C15.9915 16.3718 16.0032 16.2457 15.9783 16.1243C15.9534 16.0029 15.8929 15.8916 15.8046 15.8047L9.99993 10L4.19525 15.8047C4.10694 15.8916 4.04649 16.0029 4.02156 16.1243C3.99663 16.2457 4.00836 16.3718 4.05526 16.4865C4.10215 16.6012 4.18209 16.6994 4.28491 16.7686C4.38774 16.8377 4.50881 16.8748 4.63274 16.875Z" stroke="#644FC1" stroke-linecap="round" stroke-linejoin="round"/>
</svg>
<rect width="24" height="24" fill="#9176FF" opacity="0.1" rx="6"/>

</svg>

