<svg width="56" height="56" viewBox="0 0 56 56" fill="none" xmlns="http://www.w3.org/2000/svg">
<g clip-path="url(#clip0_4129_42257)">
<rect width="56" height="56" rx="16" fill="#02BB3C" fill-opacity="0.09"/>
<mask id="mask0_4129_42257" style="mask-type:alpha" maskUnits="userSpaceOnUse" x="8" y="8" width="40" height="40">
<path opacity="0.2" d="M17.2655 14.25H38.7342C38.9821 14.2504 39.2242 14.3245 39.4299 14.4629C39.6356 14.6012 39.7954 14.7976 39.8892 15.027C39.983 15.2565 40.0065 15.5086 39.9566 15.7514C39.9068 15.9942 39.7858 16.2167 39.6092 16.3906L16.3905 39.6094C16.2139 39.7833 16.093 40.0058 16.0431 40.2486C15.9933 40.4914 16.0167 40.7435 16.1105 40.973C16.2043 41.2024 16.3642 41.3988 16.5698 41.5371C16.7755 41.6755 17.0176 41.7496 17.2655 41.75H38.7342C38.9821 41.7496 39.2242 41.6755 39.4299 41.5371C39.6356 41.3988 39.7954 41.2024 39.8892 40.973C39.983 40.7435 40.0065 40.4914 39.9566 40.2486C39.9068 40.0058 39.7858 39.7833 39.6092 39.6094L16.3905 16.3906C16.2139 16.2167 16.093 15.9942 16.0431 15.7514C15.9933 15.5086 16.0167 15.2565 16.1105 15.027C16.2043 14.7976 16.3642 14.6012 16.5698 14.4629C16.7755 14.3245 17.0176 14.2504 17.2655 14.25V14.25Z" fill="black"/>
<path d="M17.2655 14.25H38.7342C38.9821 14.2504 39.2242 14.3245 39.4299 14.4629C39.6356 14.6012 39.7954 14.7976 39.8892 15.027C39.983 15.2565 40.0065 15.5086 39.9566 15.7514C39.9068 15.9942 39.7858 16.2167 39.6092 16.3906L27.9999 28L16.3905 16.3906C16.2139 16.2167 16.093 15.9942 16.0431 15.7514C15.9933 15.5086 16.0167 15.2565 16.1105 15.027C16.2043 14.7976 16.3642 14.6012 16.5698 14.4629C16.7755 14.3245 17.0176 14.2504 17.2655 14.25V14.25Z" stroke="black" stroke-width="1.5" stroke-linecap="round" stroke-linejoin="round"/>
<path d="M17.2655 41.75H38.7342C38.9821 41.7496 39.2242 41.6755 39.4299 41.5371C39.6356 41.3988 39.7954 41.2024 39.8892 40.973C39.983 40.7435 40.0065 40.4914 39.9566 40.2486C39.9068 40.0058 39.7858 39.7833 39.6092 39.6094L27.9999 28L16.3905 39.6094C16.2139 39.7833 16.093 40.0058 16.0431 40.2486C15.9933 40.4914 16.0167 40.7435 16.1105 40.973C16.2043 41.2024 16.3642 41.3988 16.5698 41.5371C16.7755 41.6755 17.0176 41.7496 17.2655 41.75Z" stroke="black" stroke-width="1.5" stroke-linecap="round" stroke-linejoin="round"/>
</mask>
<g mask="url(#mask0_4129_42257)">
<rect x="8" y="8" width="40" height="40" fill="#299764"/>
</g>
</g>
<defs>
<clipPath id="clip0_4129_42257">
<rect width="56" height="56" fill="white"/>
</clipPath>
</defs>
</svg>
