<svg width="56" height="56" viewBox="0 0 56 56" fill="none" xmlns="http://www.w3.org/2000/svg">
<g clip-path="url(#clip0_4110_36621)">
<rect width="56" height="56" rx="16" fill="#02BFD4" fill-opacity="0.095"/>
<mask id="mask0_4110_36621" style="mask-type:alpha" maskUnits="userSpaceOnUse" x="8" y="8" width="40" height="40">
<path opacity="0.2" d="M42.2038 19.0934C43.0237 21.0079 43.2244 23.1309 42.7778 25.1652C42.3312 27.1995 41.2596 29.0431 39.7131 30.4381C38.1666 31.8331 36.2225 32.7095 34.1532 32.9447C32.0838 33.1799 29.9926 32.762 28.1725 31.7497V31.7497L19.4069 41.9059C18.7024 42.6104 17.7469 43.0062 16.7506 43.0062C15.7544 43.0062 14.7989 42.6104 14.0944 41.9059C13.3899 41.2014 12.9941 40.246 12.9941 39.2497C12.9941 38.2534 13.3899 37.2979 14.0944 36.5934L24.2506 27.8278C23.2383 26.0077 22.8205 23.9166 23.0556 21.8472C23.2908 19.7778 24.1672 17.8337 25.5622 16.2872C26.9572 14.7407 28.8009 13.6691 30.8351 13.2225C32.8694 12.7759 34.9924 12.9766 36.9069 13.7965L30.3444 20.3434L31.235 24.7653L35.6569 25.6559L42.2038 19.0934Z" fill="black"/>
<path d="M42.2038 19.0934C43.0237 21.0079 43.2244 23.1309 42.7778 25.1652C42.3312 27.1995 41.2596 29.0431 39.7131 30.4381C38.1666 31.8331 36.2225 32.7095 34.1532 32.9447C32.0838 33.1799 29.9926 32.762 28.1725 31.7497V31.7497L19.4069 41.9059C18.7024 42.6104 17.7469 43.0062 16.7506 43.0062C15.7544 43.0062 14.7989 42.6104 14.0944 41.9059C13.3899 41.2014 12.9941 40.246 12.9941 39.2497C12.9941 38.2534 13.3899 37.2979 14.0944 36.5934L24.2506 27.8278C23.2383 26.0077 22.8205 23.9166 23.0556 21.8472C23.2908 19.7778 24.1672 17.8337 25.5622 16.2872C26.9572 14.7407 28.8009 13.6691 30.8351 13.2225C32.8694 12.7759 34.9924 12.9766 36.9069 13.7965L30.3444 20.3434L31.235 24.7653L35.6569 25.6559L42.2038 19.0934Z" stroke="black" stroke-width="1.5" stroke-linecap="round" stroke-linejoin="round"/>
</mask>
<g mask="url(#mask0_4110_36621)">
<rect x="8" y="8" width="40" height="40" fill="#0894B3"/>
</g>
</g>
<defs>
<clipPath id="clip0_4110_36621">
<rect width="56" height="56" fill="white"/>
</clipPath>
</defs>
</svg>
