<svg width="56" height="56" viewBox="0 0 56 56" fill="none" xmlns="http://www.w3.org/2000/svg">
<rect width="56" height="56" fill="#F8FAF9"/>
<path d="M22.3779 35.3491C21.4012 34.3634 20.6285 33.1947 20.1041 31.91C19.5797 30.6252 19.314 29.2496 19.322 27.862C19.3185 26.4744 19.5916 25.1 20.1254 23.8192C20.6593 22.5384 21.4431 21.3769 22.4311 20.4026C22.8543 20.0264 23.1963 19.5678 23.4361 19.0548C23.6759 18.5419 23.8085 17.9854 23.8257 17.4194C23.843 16.8535 23.7445 16.2899 23.5364 15.7633C23.3283 15.2367 23.0149 14.7582 22.6153 14.3569C22.2158 13.9557 21.7386 13.6402 21.2129 13.4298C20.6872 13.2194 20.1241 13.1185 19.5581 13.1333C18.992 13.1481 18.435 13.2783 17.921 13.5159C17.407 13.7534 16.9469 14.0934 16.5689 14.515C13.0184 18.0446 11.0153 22.84 11.0001 27.8464C10.9849 32.8528 12.959 37.6602 16.488 41.2112C16.8648 41.6322 17.3234 41.9721 17.8358 42.2101C18.3482 42.4481 18.9037 42.5792 19.4684 42.5955C20.0332 42.6119 20.5953 42.513 21.1206 42.305C21.6459 42.0969 22.1233 41.7841 22.5237 41.3855C22.9241 40.987 23.2392 40.5111 23.4497 39.9868C23.6602 39.4625 23.7618 38.9008 23.7481 38.336C23.7345 37.7712 23.606 37.2151 23.3704 36.7016C23.1348 36.188 22.7971 35.7279 22.3779 35.3491Z" fill="#FFDA00"/>
<path d="M22.431 20.4026C24.4221 18.4314 27.1135 17.3302 29.9153 17.3401C32.717 17.3501 35.4005 18.4705 37.3776 20.4557C37.753 20.8812 38.2115 21.2253 38.7249 21.467C39.2382 21.7087 39.7956 21.8429 40.3627 21.8612C40.9298 21.8796 41.4947 21.7818 42.0226 21.5737C42.5505 21.3657 43.0303 21.052 43.4325 20.6517C43.8346 20.2514 44.1507 19.7731 44.3612 19.2462C44.5717 18.7193 44.6722 18.1549 44.6565 17.5877C44.6408 17.0205 44.5093 16.4625 44.27 15.948C44.0308 15.4335 43.6888 14.9734 43.2651 14.5959C41.5241 12.8325 39.4519 11.4304 37.1675 10.4701C34.8831 9.50979 32.4315 9.01025 29.9535 9.00016C27.4754 8.99006 25.0198 9.46961 22.7277 10.4113C20.4355 11.3529 18.3519 12.7381 16.5966 14.4873C16.1719 14.8615 15.828 15.3185 15.586 15.8303C15.3439 16.342 15.2089 16.8978 15.1891 17.4635C15.1693 18.0293 15.2651 18.5931 15.4707 19.1206C15.6764 19.648 15.9875 20.1279 16.385 20.531C16.7825 20.934 17.2581 21.2517 17.7827 21.4646C18.3072 21.6774 18.8697 21.781 19.4357 21.769C20.0016 21.757 20.5592 21.6296 21.0743 21.3947C21.5893 21.1597 22.051 20.8221 22.431 20.4026Z" fill="#67B3FF"/>
<path d="M37.3524 35.4023C36.3671 36.381 35.1984 37.1557 33.9132 37.682C32.628 38.2084 31.2517 38.4761 29.8629 38.4697C28.4745 38.4718 27.0996 38.1968 25.8188 37.661C24.538 37.1252 23.3769 36.3392 22.4035 35.3491C22.0273 34.9259 21.5687 34.5839 21.0558 34.3441C20.5429 34.1043 19.9864 33.9717 19.4204 33.9545C18.8544 33.9372 18.2909 34.0357 17.7643 34.2438C17.2377 34.4519 16.7591 34.7653 16.3579 35.1648C15.9566 35.5644 15.6411 36.0416 15.4307 36.5673C15.2203 37.093 15.1194 37.6561 15.1342 38.2221C15.149 38.7881 15.2792 39.3452 15.5168 39.8592C15.7544 40.3732 16.0944 40.8332 16.516 41.2112C18.2599 42.9745 20.3348 44.3763 22.6215 45.3363C24.9083 46.2962 27.362 46.7954 29.842 46.8053C32.322 46.8152 34.7797 46.3355 37.074 45.3938C39.3683 44.4521 41.4542 43.0669 43.2122 41.3176C43.6006 40.9328 43.9094 40.4753 44.121 39.9712C44.3326 39.4671 44.4428 38.9262 44.4454 38.3795C44.448 37.8328 44.3429 37.291 44.136 36.7849C43.9292 36.2788 43.6247 35.8184 43.2399 35.43C42.8552 35.0416 42.3977 34.7328 41.8936 34.5212C41.3895 34.3096 40.8486 34.1994 40.3019 34.1968C39.7552 34.1942 39.2133 34.2994 38.7072 34.5062C38.2012 34.713 37.7408 35.0175 37.3524 35.4023Z" fill="#EB5A68"/>
<path d="M22.4308 20.4026C21.8476 20.9851 21.1046 21.3812 20.2959 21.5408C19.4872 21.7004 18.6494 21.6162 17.8887 21.2988C17.1279 20.9815 16.4786 20.4454 16.023 19.7585C15.5674 19.0716 15.3261 18.2649 15.3296 17.4406C15.3332 16.6164 15.5815 15.8118 16.0431 15.1289C16.5046 14.4459 17.1586 13.9155 17.922 13.6048C18.6855 13.2941 19.524 13.2172 20.3313 13.3837C21.1385 13.5503 21.8781 13.9529 22.4562 14.5404C23.2264 15.3232 23.6559 16.3786 23.6512 17.4767C23.6464 18.5748 23.2077 19.6265 22.4308 20.4026Z" fill="#47A1FF"/>
<path d="M22.35 41.2113C21.7666 41.7935 21.0234 42.1894 20.2147 42.3486C19.406 42.5079 18.5682 42.4233 17.8076 42.1057C17.0469 41.7881 16.3978 41.2518 15.9425 40.5647C15.4871 39.8776 15.2461 39.0708 15.25 38.2465C15.2539 37.4223 15.5026 36.6178 15.9644 35.935C16.4262 35.2523 17.0804 34.7221 17.844 34.4117C18.6075 34.1013 19.4461 34.0247 20.2533 34.1916C21.0605 34.3585 21.7999 34.7614 22.3778 35.3491C23.1477 36.1322 23.5768 37.1878 23.5716 38.2859C23.5664 39.384 23.1273 40.4355 22.35 41.2113Z" fill="#D5465F"/>
</svg>
