<svg width="56" height="56" viewBox="0 0 56 56" fill="none" xmlns="http://www.w3.org/2000/svg">
<g clip-path="url(#clip0_4110_36621)">
<rect width="56" height="56" rx="16" fill="#02BFD4" fill-opacity="0.095"/>
<mask id="mask0_4110_36621" style="mask-type:alpha" maskUnits="userSpaceOnUse" x="8" y="8" width="40" height="40">
<path opacity="0.2" d="M13.1719 19.6562C13.0587 19.8507 12.9993 20.0719 13 20.2969V35.7031C13.0012 35.9257 13.0611 36.144 13.1735 36.336C13.286 36.528 13.4471 36.687 13.6406 36.7969L27.3906 44.5312C27.576 44.6372 27.7865 44.6911 28 44.6875V44.6875L28.1406 28L13.1719 19.6562Z" fill="black"/>
<path d="M43 35.7023V20.2961C42.9988 20.0736 42.939 19.8553 42.8265 19.6632C42.714 19.4712 42.5529 19.3122 42.3594 19.2023L28.6094 11.468C28.4241 11.361 28.2139 11.3047 28 11.3047C27.7861 11.3047 27.5759 11.361 27.3906 11.468L13.6406 19.2023C13.4471 19.3122 13.286 19.4712 13.1735 19.6632C13.061 19.8553 13.0012 20.0736 13 20.2961V35.7023C13.0012 35.9249 13.061 36.1432 13.1735 36.3352C13.286 36.5272 13.4471 36.6862 13.6406 36.7961L27.3906 44.5305C27.5759 44.6374 27.7861 44.6937 28 44.6937C28.2139 44.6937 28.4241 44.6374 28.6094 44.5305L42.3594 36.7961C42.5529 36.6862 42.714 36.5272 42.8265 36.3352C42.939 36.1432 42.9988 35.9249 43 35.7023V35.7023Z" stroke="black" stroke-width="1.5" stroke-linecap="round" stroke-linejoin="round"/>
<path d="M42.8281 19.6562L28.1406 28L13.1719 19.6562" stroke="black" stroke-width="1.5" stroke-linecap="round" stroke-linejoin="round"/>
<path d="M28.1406 28L28 44.6875" stroke="black" stroke-width="1.5" stroke-linecap="round" stroke-linejoin="round"/>
</mask>
<g mask="url(#mask0_4110_36621)">
<rect x="8" y="8" width="40" height="40" fill="#0894B3"/>
</g>
</g>
<defs>
<clipPath id="clip0_4110_36621">
<rect width="56" height="56" fill="white"/>
</clipPath>
</defs>
</svg>
