<svg width="56" height="56" viewBox="0 0 56 56" fill="none" xmlns="http://www.w3.org/2000/svg">
<g clip-path="url(#clip0_4018_44277)">
<rect width="56" height="56" rx="16" fill="#02C097" fill-opacity="0.095"/>
<mask id="mask0_4018_44277" style="mask-type:alpha" maskUnits="userSpaceOnUse" x="9" y="9" width="38" height="38">
<path d="M13.9109 25.8513C14.947 19.0007 20.8603 13.75 28 13.75C29.5286 13.75 31.0009 13.9907 32.3812 14.4362M13.9109 25.8513L21.9547 30.4953C22.433 30.7715 23.0446 30.6076 23.3208 30.1293L27.9999 22.0247M13.9109 25.8513C13.8049 26.5521 13.75 27.2696 13.75 28C13.75 29.0287 13.859 30.032 14.0661 30.9989M32.3812 14.4362C34.0441 14.9729 35.5735 15.807 36.9066 16.8757M32.3812 14.4362L28.0057 22.0147M36.9066 16.8757C40.1642 19.4873 42.25 23.5001 42.25 28C42.25 32.1942 40.438 35.9653 37.554 38.5729M36.9066 16.8757L28.0057 22.0147M37.554 38.5729C36.2845 39.7209 34.8071 40.6434 33.1852 41.2772M37.554 38.5729L33.1852 31.0059M14.0661 30.9989C15.4434 37.429 21.1587 42.25 28 42.25C29.8294 42.25 31.5783 41.9053 33.1852 41.2772M14.0661 30.9989H33.1812M33.1852 41.2772V31.0059M27.9999 22.0247V22.0247C27.9983 22.0219 27.9993 22.0184 28.0021 22.0168L28.0057 22.0147M27.9999 22.0247L28.0057 22.0147M27.9999 22.0247L33.1812 30.9989M33.1812 30.9989L33.1852 31.0059M33.1812 30.9989V30.9989C33.1834 30.9989 33.1852 31.0007 33.1852 31.0029V31.0059" stroke="black" stroke-width="1.5" stroke-miterlimit="1.5" stroke-linecap="round" stroke-linejoin="round"/>
</mask>
<g mask="url(#mask0_4018_44277)">
<rect x="9" y="9" width="38" height="38" fill="#0C6D62"/>
</g>
</g>
<defs>
<clipPath id="clip0_4018_44277">
<rect width="56" height="56" fill="white"/>
</clipPath>
</defs>
</svg>
