<svg width="56" height="56" viewBox="0 0 56 56" fill="none" xmlns="http://www.w3.org/2000/svg">
<g clip-path="url(#clip0_4102_45784)">
<rect width="56" height="56" rx="16" fill="#9176FF" fill-opacity="0.1"/>
<mask id="mask0_4102_45784" style="mask-type:alpha" maskUnits="userSpaceOnUse" x="8" y="8" width="40" height="40">
<path opacity="0.2" d="M27.1098 12.6382L22.6241 17.1239C22.136 17.6121 22.136 18.4035 22.6241 18.8917L27.1065 23.3741C27.5947 23.8622 28.3861 23.8622 28.8743 23.3741L33.36 18.8884C33.8481 18.4002 33.8481 17.6088 33.36 17.1206L28.8776 12.6382C28.3894 12.1501 27.598 12.1501 27.1098 12.6382Z" fill="black"/>
<path opacity="0.2" d="M37.1118 22.6382L32.6261 27.1239C32.1379 27.6121 32.1379 28.4035 32.6261 28.8917L37.1085 33.3741C37.5966 33.8622 38.3881 33.8622 38.8762 33.3741L43.3619 28.8884C43.8501 28.4002 43.8501 27.6088 43.3619 27.1206L38.8795 22.6382C38.3914 22.1501 37.5999 22.1501 37.1118 22.6382Z" fill="black"/>
<path opacity="0.2" d="M17.1098 22.6226L12.6241 27.1083C12.136 27.5965 12.136 28.3879 12.6241 28.8761L17.1065 33.3585C17.5947 33.8466 18.3861 33.8466 18.8743 33.3585L23.36 28.8728C23.8481 28.3846 23.8481 27.5931 23.36 27.105L18.8776 22.6226C18.3894 22.1344 17.598 22.1344 17.1098 22.6226Z" fill="black"/>
<path opacity="0.2" d="M27.1118 32.6226L22.6261 37.1083C22.1379 37.5965 22.1379 38.3879 22.6261 38.8761L27.1085 43.3585C27.5966 43.8466 28.3881 43.8466 28.8762 43.3585L33.3619 38.8728C33.8501 38.3846 33.8501 37.5931 33.3619 37.105L28.8795 32.6226C28.3914 32.1344 27.5999 32.1344 27.1118 32.6226Z" fill="black"/>
<path d="M27.1098 12.6382L22.6241 17.1239C22.136 17.6121 22.136 18.4035 22.6241 18.8917L27.1065 23.3741C27.5947 23.8622 28.3861 23.8622 28.8743 23.3741L33.36 18.8884C33.8481 18.4002 33.8481 17.6088 33.36 17.1206L28.8776 12.6382C28.3894 12.1501 27.598 12.1501 27.1098 12.6382Z" stroke="black" stroke-width="1.5" stroke-linecap="round" stroke-linejoin="round"/>
<path d="M37.1118 22.6382L32.6261 27.1239C32.1379 27.6121 32.1379 28.4035 32.6261 28.8917L37.1085 33.3741C37.5966 33.8622 38.3881 33.8622 38.8762 33.3741L43.3619 28.8884C43.8501 28.4002 43.8501 27.6088 43.3619 27.1206L38.8795 22.6382C38.3914 22.1501 37.5999 22.1501 37.1118 22.6382Z" stroke="black" stroke-width="1.5" stroke-linecap="round" stroke-linejoin="round"/>
<path d="M17.1098 22.6226L12.6241 27.1083C12.136 27.5965 12.136 28.3879 12.6241 28.8761L17.1065 33.3585C17.5947 33.8466 18.3861 33.8466 18.8743 33.3585L23.36 28.8728C23.8481 28.3846 23.8481 27.5931 23.36 27.105L18.8776 22.6226C18.3894 22.1344 17.598 22.1344 17.1098 22.6226Z" stroke="black" stroke-width="1.5" stroke-linecap="round" stroke-linejoin="round"/>
<path d="M27.1118 32.6226L22.6261 37.1083C22.1379 37.5965 22.1379 38.3879 22.6261 38.8761L27.1085 43.3585C27.5966 43.8466 28.3881 43.8466 28.8762 43.3585L33.3619 38.8728C33.8501 38.3846 33.8501 37.5931 33.3619 37.105L28.8795 32.6226C28.3914 32.1344 27.5999 32.1344 27.1118 32.6226Z" stroke="black" stroke-width="1.5" stroke-linecap="round" stroke-linejoin="round"/>
</mask>
<g mask="url(#mask0_4102_45784)">
<rect x="8" y="8" width="40" height="40" fill="#644FC1"/>
</g>
</g>
<defs>
<clipPath id="clip0_4102_45784">
<rect width="56" height="56" fill="white"/>
</clipPath>
</defs>
</svg>
