<svg width="56" height="56" viewBox="0 0 56 56" fill="none" xmlns="http://www.w3.org/2000/svg">
<g clip-path="url(#clip0_4018_33912)">
<rect width="56" height="56" rx="16" fill="#AA99EC" fill-opacity="0.095"/>
<mask id="mask0_4018_33912" style="mask-type:alpha" maskUnits="userSpaceOnUse" x="8" y="8" width="40" height="40">
<path opacity="0.2" d="M28 24.875C31.4518 24.875 34.25 22.0768 34.25 18.625C34.25 15.1732 31.4518 12.375 28 12.375C24.5482 12.375 21.75 15.1732 21.75 18.625C21.75 22.0768 24.5482 24.875 28 24.875Z" fill="black"/>
<path opacity="0.2" d="M37.375 41.125C40.8268 41.125 43.625 38.3268 43.625 34.875C43.625 31.4232 40.8268 28.625 37.375 28.625C33.9232 28.625 31.125 31.4232 31.125 34.875C31.125 38.3268 33.9232 41.125 37.375 41.125Z" fill="black"/>
<path opacity="0.2" d="M18.625 41.125C22.0768 41.125 24.875 38.3268 24.875 34.875C24.875 31.4232 22.0768 28.625 18.625 28.625C15.1732 28.625 12.375 31.4232 12.375 34.875C12.375 38.3268 15.1732 41.125 18.625 41.125Z" fill="black"/>
<path d="M28 24.875C31.4518 24.875 34.25 22.0768 34.25 18.625C34.25 15.1732 31.4518 12.375 28 12.375C24.5482 12.375 21.75 15.1732 21.75 18.625C21.75 22.0768 24.5482 24.875 28 24.875Z" stroke="black" stroke-width="1.5" stroke-linecap="round" stroke-linejoin="round"/>
<path d="M37.375 41.125C40.8268 41.125 43.625 38.3268 43.625 34.875C43.625 31.4232 40.8268 28.625 37.375 28.625C33.9232 28.625 31.125 31.4232 31.125 34.875C31.125 38.3268 33.9232 41.125 37.375 41.125Z" stroke="black" stroke-width="1.5" stroke-linecap="round" stroke-linejoin="round"/>
<path d="M18.625 41.125C22.0768 41.125 24.875 38.3268 24.875 34.875C24.875 31.4232 22.0768 28.625 18.625 28.625C15.1732 28.625 12.375 31.4232 12.375 34.875C12.375 38.3268 15.1732 41.125 18.625 41.125Z" stroke="black" stroke-width="1.5" stroke-linecap="round" stroke-linejoin="round"/>
</mask>
<g mask="url(#mask0_4018_33912)">
<rect x="8" y="8" width="40" height="40" fill="#644FC1"/>
</g>
</g>
<defs>
<clipPath id="clip0_4018_33912">
<rect width="56" height="56" fill="white"/>
</clipPath>
</defs>
</svg>
