<svg width="56" height="56" viewBox="0 0 56 56" fill="none" xmlns="http://www.w3.org/2000/svg">
<g clip-path="url(#clip0_4018_33912)">
<rect width="56" height="56" rx="16" fill="#AA99EC" fill-opacity="0.095"/>
<mask id="mask0_4018_33912" style="mask-type:alpha" maskUnits="userSpaceOnUse" x="8" y="8" width="40" height="40">
<path opacity="0.2" d="M19.875 25.5C22.9816 25.5 25.5 22.9816 25.5 19.875C25.5 16.7684 22.9816 14.25 19.875 14.25C16.7684 14.25 14.25 16.7684 14.25 19.875C14.25 22.9816 16.7684 25.5 19.875 25.5Z" fill="black"/>
<path opacity="0.2" d="M36.125 25.5C39.2316 25.5 41.75 22.9816 41.75 19.875C41.75 16.7684 39.2316 14.25 36.125 14.25C33.0184 14.25 30.5 16.7684 30.5 19.875C30.5 22.9816 33.0184 25.5 36.125 25.5Z" fill="black"/>
<path opacity="0.2" d="M19.875 41.75C22.9816 41.75 25.5 39.2316 25.5 36.125C25.5 33.0184 22.9816 30.5 19.875 30.5C16.7684 30.5 14.25 33.0184 14.25 36.125C14.25 39.2316 16.7684 41.75 19.875 41.75Z" fill="black"/>
<path d="M19.875 25.5C22.9816 25.5 25.5 22.9816 25.5 19.875C25.5 16.7684 22.9816 14.25 19.875 14.25C16.7684 14.25 14.25 16.7684 14.25 19.875C14.25 22.9816 16.7684 25.5 19.875 25.5Z" stroke="black" stroke-width="1.5" stroke-linecap="round" stroke-linejoin="round"/>
<path d="M36.125 25.5C39.2316 25.5 41.75 22.9816 41.75 19.875C41.75 16.7684 39.2316 14.25 36.125 14.25C33.0184 14.25 30.5 16.7684 30.5 19.875C30.5 22.9816 33.0184 25.5 36.125 25.5Z" stroke="black" stroke-width="1.5" stroke-linecap="round" stroke-linejoin="round"/>
<path d="M19.875 41.75C22.9816 41.75 25.5 39.2316 25.5 36.125C25.5 33.0184 22.9816 30.5 19.875 30.5C16.7684 30.5 14.25 33.0184 14.25 36.125C14.25 39.2316 16.7684 41.75 19.875 41.75Z" stroke="black" stroke-width="1.5" stroke-linecap="round" stroke-linejoin="round"/>
<path d="M36.125 31.75V40.5" stroke="black" stroke-width="1.5" stroke-linecap="round" stroke-linejoin="round"/>
<path d="M40.5 36.125H31.75" stroke="black" stroke-width="1.5" stroke-linecap="round" stroke-linejoin="round"/>
</mask>
<g mask="url(#mask0_4018_33912)">
<rect x="8" y="8" width="40" height="40" fill="#644FC1"/>
</g>
</g>
<defs>
<clipPath id="clip0_4018_33912">
<rect width="56" height="56" fill="white"/>
</clipPath>
</defs>
</svg>
