<svg width="56" height="56" viewBox="0 0 56 56" fill="none" xmlns="http://www.w3.org/2000/svg">
<g clip-path="url(#clip0_4103_36638)">
<rect width="56" height="56" rx="16" fill="#0080FF" fill-opacity="0.07"/>
<mask id="mask0_4103_36638" style="mask-type:alpha" maskUnits="userSpaceOnUse" x="8" y="8" width="40" height="40">
<path opacity="0.2" d="M43 19.25H32.1719C31.9016 19.2489 31.6388 19.1613 31.4219 19L27.0781 15.75C26.8612 15.5887 26.5984 15.5011 26.3281 15.5H19.25C18.9185 15.5 18.6005 15.6317 18.3661 15.8661C18.1317 16.1005 18 16.4185 18 16.75V20.5H21.3281C21.5984 20.5011 21.8612 20.5887 22.0781 20.75L26.4219 24C26.6388 24.1613 26.9016 24.2489 27.1719 24.25H38C38.3315 24.25 38.6495 24.3817 38.8839 24.6161C39.1183 24.8505 39.25 25.1685 39.25 25.5V35.5H43.1406C43.4348 35.5 43.717 35.3831 43.9251 35.1751C44.1331 34.967 44.25 34.6848 44.25 34.3906V20.5C44.25 20.1685 44.1183 19.8505 43.8839 19.6161C43.6495 19.3817 43.3315 19.25 43 19.25Z" fill="black"/>
<path d="M39.25 25.5V39.3906C39.25 39.6848 39.1331 39.967 38.9251 40.1751C38.717 40.3831 38.4348 40.5 38.1406 40.5H14.25C13.9185 40.5 13.6005 40.3683 13.3661 40.1339C13.1317 39.8995 13 39.5815 13 39.25V21.75C13 21.4185 13.1317 21.1005 13.3661 20.8661C13.6005 20.6317 13.9185 20.5 14.25 20.5H21.3281C21.5984 20.5011 21.8612 20.5887 22.0781 20.75L26.4219 24C26.6388 24.1613 26.9016 24.2489 27.1719 24.25H38C38.3315 24.25 38.6495 24.3817 38.8839 24.6161C39.1183 24.8505 39.25 25.1685 39.25 25.5Z" stroke="black" stroke-width="2" stroke-linecap="round" stroke-linejoin="round"/>
<path d="M18 20.5V16.75C18 16.4185 18.1317 16.1005 18.3661 15.8661C18.6005 15.6317 18.9185 15.5 19.25 15.5H26.3281C26.5984 15.5011 26.8612 15.5887 27.0781 15.75L31.4219 19C31.6388 19.1613 31.9016 19.2489 32.1719 19.25H43C43.3315 19.25 43.6495 19.3817 43.8839 19.6161C44.1183 19.8505 44.25 20.1685 44.25 20.5V34.3906C44.25 34.6848 44.1331 34.967 43.9251 35.1751C43.717 35.3831 43.4348 35.5 43.1406 35.5H39.25" stroke="black" stroke-width="1.5" stroke-linecap="round" stroke-linejoin="round"/>
</mask>
<g mask="url(#mask0_4103_36638)">
<rect x="8" y="8" width="40" height="40" fill="#0081F1"/>
</g>
</g>
<defs>
<clipPath id="clip0_4103_36638">
<rect width="56" height="56" fill="white"/>
</clipPath>
</defs>
</svg>
