<svg width="56" height="56" viewBox="0 0 56 56" fill="none" xmlns="http://www.w3.org/2000/svg">
<g clip-path="url(#clip0_4102_45743)">
<rect width="56" height="56" rx="16" fill="#02BB3C" fill-opacity="0.09"/>
<mask id="mask0_4102_45743" style="mask-type:alpha" maskUnits="userSpaceOnUse" x="8" y="8" width="40" height="40">
<path opacity="0.2" d="M28.343 43.0007C31.0864 42.9343 33.7595 42.1189 36.0729 40.6427C38.3863 39.1665 40.2519 37.0858 41.468 34.6257V34.6257L32.9836 29.4069C32.8375 29.313 32.6718 29.2542 32.4992 29.235L28.9211 28.7507C28.6541 28.7123 28.382 28.7636 28.1473 28.8965C27.9126 29.0294 27.7287 29.2364 27.6242 29.485L25.4836 34.2819C25.383 34.505 25.35 34.7528 25.3889 34.9944C25.4278 35.2361 25.5368 35.461 25.7023 35.6413L28.6398 38.8132C28.7726 38.9591 28.8699 39.1337 28.9241 39.3235C28.9783 39.5132 28.988 39.7128 28.9523 39.9069L28.343 43.0007Z" fill="black"/>
<path opacity="0.2" d="M18.1566 16.6875L16.7504 20C16.6279 20.2941 16.6223 20.6238 16.7348 20.9219L18.5316 25.7032C18.6019 25.9024 18.7221 26.0804 18.8807 26.2199C19.0394 26.3594 19.2313 26.4559 19.4379 26.5L20.2816 26.6719L21.5785 23.5938C21.6758 23.3675 21.8371 23.1745 22.0424 23.0385C22.2478 22.9025 22.4884 22.8294 22.7348 22.8282H26.0785C26.2858 22.8226 26.4891 22.7691 26.6723 22.6719L28.5941 21.6094C28.6794 21.5625 28.7582 21.5047 28.8285 21.4375L33.0316 17.6407C33.2373 17.4494 33.3735 17.1951 33.4188 16.9178C33.4641 16.6406 33.4158 16.3562 33.2816 16.1094L31.8285 13.4844C30.5778 13.163 29.2917 13.0003 28.0004 13C24.3802 12.9931 20.8812 14.3038 18.1566 16.6875V16.6875Z" fill="black"/>
<path d="M28 43C36.2843 43 43 36.2843 43 28C43 19.7157 36.2843 13 28 13C19.7157 13 13 19.7157 13 28C13 36.2843 19.7157 43 28 43Z" stroke="black" stroke-width="1.5" stroke-linecap="round" stroke-linejoin="round"/>
<path d="M41.468 34.6257L32.9836 29.4069C32.8375 29.313 32.6718 29.2542 32.4992 29.235L28.9211 28.7507C28.6541 28.7123 28.382 28.7636 28.1473 28.8965C27.9126 29.0294 27.7287 29.2364 27.6242 29.485L25.4836 34.2819C25.383 34.505 25.35 34.7528 25.3889 34.9944C25.4278 35.2361 25.5368 35.461 25.7023 35.6413L28.6398 38.8132C28.7726 38.9591 28.8699 39.1337 28.9241 39.3235C28.9783 39.5132 28.988 39.7128 28.9523 39.9069L28.343 43.0007" stroke="black" stroke-width="1.5" stroke-linecap="round" stroke-linejoin="round"/>
<path d="M18.1566 16.6875L16.7504 20C16.6279 20.2941 16.6223 20.6238 16.7348 20.9219L18.5316 25.7031C18.6019 25.9024 18.7221 26.0803 18.8807 26.2199C19.0394 26.3594 19.2313 26.4558 19.4379 26.5L22.7816 27.2188C22.9672 27.2563 23.1415 27.3365 23.2907 27.4532C23.4399 27.5698 23.5598 27.7196 23.641 27.8906L24.2348 29.125C24.3403 29.3337 24.5009 29.5096 24.6992 29.6335C24.8975 29.7574 25.1259 29.8248 25.3598 29.8281H27.4691" stroke="black" stroke-width="1.5" stroke-linecap="round" stroke-linejoin="round"/>
<path d="M31.8281 13.4844L33.2813 16.1094C33.4154 16.3562 33.4637 16.6406 33.4184 16.9178C33.3731 17.195 33.2369 17.4493 33.0312 17.6406L28.8281 21.4375C28.7578 21.5047 28.679 21.5625 28.5938 21.6094L26.6719 22.6719C26.4887 22.7691 26.2854 22.8226 26.0781 22.8281H22.7344C22.488 22.8294 22.2474 22.9025 22.0421 23.0385C21.8367 23.1745 21.6754 23.3675 21.5781 23.5938L20.2812 26.6719" stroke="black" stroke-width="1.5" stroke-linecap="round" stroke-linejoin="round"/>
</mask>
<g mask="url(#mask0_4102_45743)">
<rect x="8" y="8" width="40" height="40" fill="#299764"/>
</g>
</g>
<defs>
<clipPath id="clip0_4102_45743">
<rect width="56" height="56" fill="white"/>
</clipPath>
</defs>
</svg>
