<svg width="56" height="56" viewBox="0 0 56 56" fill="none" xmlns="http://www.w3.org/2000/svg">
<g clip-path="url(#clip0_4129_46394)">
<rect width="56" height="56" rx="16" fill="#AA99EC" fill-opacity="0.095"/>
<g clip-path="url(#clip1_4129_46394)">
<path d="M31.077 14.1265L38.4795 18.4015C38.8236 18.0392 39.2474 17.762 39.7172 17.5919C40.1871 17.4219 40.6901 17.3637 41.1864 17.4219C41.6827 17.4801 42.1586 17.6532 42.5763 17.9274C42.9941 18.2016 43.3422 18.5693 43.593 19.0015C43.8409 19.4345 43.9847 19.9191 44.0131 20.4172C44.0415 20.9153 43.9538 21.4132 43.7568 21.8715C43.5599 22.3299 43.2591 22.7362 42.8782 23.0584C42.4973 23.3806 42.0467 23.6098 41.562 23.728V32.2765C42.0482 32.392 42.5005 32.6198 42.8827 32.9416C43.2649 33.2635 43.5664 33.6704 43.763 34.1298C43.9596 34.5891 44.0458 35.0882 44.0147 35.5869C43.9836 36.0856 43.8361 36.5701 43.584 37.0015C43.3294 37.4411 42.9741 37.8141 42.5475 38.0899C42.1208 38.3657 41.6348 38.5364 41.1294 38.5881C40.624 38.6398 40.1135 38.5709 39.6399 38.3872C39.1662 38.2034 38.7429 37.91 38.4045 37.531L31.047 41.779C31.1934 42.22 31.2423 42.6875 31.1904 43.1492C31.1385 43.6109 30.9869 44.0559 30.7462 44.4533C30.5055 44.8507 30.1814 45.1912 29.7963 45.4511C29.4111 45.711 28.9742 45.8843 28.5155 45.9588C28.0569 46.0334 27.5876 46.0075 27.14 45.8829C26.6923 45.7583 26.2771 45.5381 25.9229 45.2373C25.5687 44.9366 25.284 44.5626 25.0885 44.1411C24.893 43.7196 24.7913 43.2606 24.7905 42.796C24.7905 42.4885 24.834 42.181 24.9225 41.8825L17.5185 37.612C17.1738 37.9721 16.75 38.247 16.2807 38.4149C15.8114 38.5828 15.3094 38.6391 14.8145 38.5793C14.3196 38.5195 13.8454 38.3453 13.4296 38.0705C13.0137 37.7956 12.6676 37.4277 12.4186 36.9959C12.1696 36.564 12.0246 36.0801 11.9951 35.5825C11.9656 35.0849 12.0524 34.5873 12.2486 34.129C12.4448 33.6708 12.745 33.2646 13.1255 32.9425C13.5059 32.6204 13.9562 32.3914 14.4405 32.2735L14.442 23.725C13.9563 23.6087 13.5044 23.3806 13.1222 23.0591C12.7401 22.7375 12.4382 22.3312 12.2406 21.8724C12.0429 21.4137 11.9551 20.9152 11.9839 20.4166C12.0127 19.918 12.1574 19.4329 12.4065 19C12.6566 18.5676 13.004 18.1994 13.4211 17.9247C13.8383 17.65 14.3137 17.4762 14.8097 17.4173C15.3057 17.3583 15.8087 17.4158 16.2786 17.585C16.7485 17.7543 17.1725 18.0308 17.517 18.3925L24.924 14.1175C24.7823 13.6389 24.7543 13.1339 24.8421 12.6426C24.9299 12.1513 25.1312 11.6873 25.43 11.2875C25.7287 10.8876 26.1166 10.5631 26.5629 10.3395C27.0092 10.116 27.5014 9.99978 28.0005 10C28.5007 9.99904 28.9942 10.1152 29.4416 10.3391C29.8889 10.563 30.2776 10.8885 30.5766 11.2895C30.8755 11.6906 31.0765 12.156 31.1634 12.6486C31.2503 13.1413 31.2207 13.6474 31.077 14.1265V14.1265ZM30.3045 15.442C30.277 15.4725 30.248 15.5015 30.2175 15.529L39.909 32.314C39.948 32.3005 39.993 32.29 40.032 32.2795V23.719C39.6236 23.6177 39.2391 23.437 38.9005 23.187C38.562 22.9371 38.276 22.6229 38.059 22.2623C37.8419 21.9018 37.6981 21.502 37.6356 21.0859C37.5732 20.6697 37.5934 20.2454 37.695 19.837L37.7235 19.729L30.3045 15.442V15.442ZM25.782 15.5305L25.692 15.4405L18.273 19.7185C18.3898 20.1229 18.4257 20.5464 18.3787 20.9646C18.3318 21.3829 18.2028 21.7879 17.9993 22.1563C17.7958 22.5248 17.5217 22.8495 17.1926 23.112C16.8635 23.3744 16.486 23.5695 16.0815 23.686L15.9675 23.7175V32.2795L16.0935 32.314L25.785 15.529L25.782 15.5305V15.5305ZM28.896 16.291C28.311 16.459 27.6915 16.459 27.108 16.291L17.418 33.0745C17.859 33.499 18.171 34.042 18.318 34.636H37.6845C37.83 34.039 38.145 33.4945 38.589 33.07L28.896 16.291ZM30.375 40.6315L37.7445 36.3745C37.7225 36.3043 37.7035 36.2333 37.6875 36.1615H18.3135L18.282 36.286L25.6905 40.564C25.9893 40.253 26.3481 40.0059 26.7451 39.8375C27.1422 39.6692 27.5692 39.5831 28.0005 39.5845C28.941 39.5845 29.7855 39.988 30.375 40.6315Z" fill="#644FC1"/>
</g>
</g>
<defs>
<clipPath id="clip0_4129_46394">
<rect width="56" height="56" fill="white"/>
</clipPath>
<clipPath id="clip1_4129_46394">
<rect width="36" height="36" fill="white" transform="translate(10 10)"/>
</clipPath>
</defs>
</svg>
