<svg width="56" height="56" viewBox="0 0 56 56" fill="none" xmlns="http://www.w3.org/2000/svg">
<mask id="mask0_4129_42380" style="mask-type:alpha" maskUnits="userSpaceOnUse" x="0" y="0" width="56" height="56">
<path opacity="0.2" d="M47.2501 10.5647C47.2534 10.2792 47.186 9.99744 47.0539 9.74443C46.9217 9.49143 46.7289 9.2751 46.4928 9.11477C46.2566 8.95444 45.9844 8.85511 45.7005 8.82564C45.4166 8.79617 45.1298 8.83749 44.8657 8.94591C41.5626 10.2147 35.197 12.249 28.0001 12.249C20.8032 12.249 14.4376 10.2147 11.1345 8.94591C10.8704 8.83749 10.5836 8.79617 10.2997 8.82564C10.0158 8.85511 9.74362 8.95444 9.50746 9.11477C9.2713 9.2751 9.07853 9.49143 8.94638 9.74443C8.81422 9.99744 8.74679 10.2792 8.75012 10.5647V22.749C8.75012 38.2147 17.3689 50.749 28.0001 50.749C38.6314 50.749 47.2501 38.2147 47.2501 22.749V10.5647Z" fill="black"/>
<path d="M31.959 28.0009C32.4515 27.4495 33.0548 27.0083 33.7296 26.7062C34.4044 26.4042 35.1353 26.248 35.8746 26.248C36.6139 26.248 37.3449 26.4042 38.0196 26.7062C38.6944 27.0083 39.2978 27.4495 39.7902 28.0009" stroke="black" stroke-width="1.5" stroke-linecap="round" stroke-linejoin="round"/>
<path d="M16.209 28.0009C16.7015 27.4495 17.3048 27.0083 17.9796 26.7062C18.6544 26.4042 19.3853 26.248 20.1246 26.248C20.8639 26.248 21.5949 26.4042 22.2696 26.7062C22.9444 27.0083 23.5478 27.4495 24.0402 28.0009" stroke="black" stroke-width="1.5" stroke-linecap="round" stroke-linejoin="round"/>
<path d="M33.7969 38.5C32.0789 39.641 30.0624 40.2496 28 40.2496C25.9376 40.2496 23.9211 39.641 22.2031 38.5" stroke="black" stroke-width="1.5" stroke-linecap="round" stroke-linejoin="round"/>
<path d="M47.2501 10.5647C47.2534 10.2792 47.186 9.99744 47.0539 9.74443C46.9217 9.49143 46.7289 9.2751 46.4928 9.11477C46.2566 8.95444 45.9844 8.85511 45.7005 8.82564C45.4166 8.79617 45.1298 8.83749 44.8657 8.94591C41.5626 10.2147 35.197 12.249 28.0001 12.249C20.8032 12.249 14.4376 10.2147 11.1345 8.94591C10.8704 8.83749 10.5836 8.79617 10.2997 8.82564C10.0158 8.85511 9.74362 8.95444 9.50746 9.11477C9.2713 9.2751 9.07853 9.49143 8.94638 9.74443C8.81422 9.99744 8.74679 10.2792 8.75012 10.5647V22.749C8.75012 38.2147 17.3689 50.749 28.0001 50.749C38.6314 50.749 47.2501 38.2147 47.2501 22.749V10.5647Z" stroke="black" stroke-width="1.5" stroke-linecap="round" stroke-linejoin="round"/>
</mask>
<g mask="url(#mask0_4129_42380)">
<rect width="56" height="56" fill="#111C18"/>
</g>
</svg>
