<svg width="56" height="56" viewBox="0 0 56 56" fill="none" xmlns="http://www.w3.org/2000/svg">
<rect width="56" height="56" fill="#F8FAF9"/>
<path fill-rule="evenodd" clip-rule="evenodd" d="M28.1089 28.2746L43.357 13.8443C48.4171 19.2919 48.2065 27.5927 42.7211 32.8002V43H27.1419V42.9977C27.0959 42.9977 27.0506 42.9983 27.0053 42.9989C26.9599 42.9994 26.9146 43 26.8687 43C18.1145 43 11.0187 36.2848 11.0187 28C11.0187 26.7142 11.1904 25.4672 11.5119 24.2752C11.8093 22.6393 10.4216 20.0104 9 18.2829C11.2967 18.5323 14.6524 18.3653 15.6823 17.3746C18.5496 14.6725 22.5049 13 26.8711 13C31.0439 13 34.8372 14.5307 37.6658 17.0246L37.9003 17.37L27.2434 27.4555C27.004 27.682 27.004 28.0481 27.2434 28.2746C27.3619 28.3867 27.519 28.4439 27.6762 28.4439C27.8333 28.4439 27.9905 28.3867 28.1089 28.2746ZM18.2014 20.9158C18.5447 21.6686 19.3329 22.1948 20.2516 22.1948C21.4846 22.1948 22.483 21.2476 22.4806 20.083C22.4806 18.9162 21.4822 17.9712 20.2492 17.9712C19.8333 17.9712 19.4465 18.081 19.1129 18.2687C19.1201 18.2687 19.1274 18.2675 19.1346 18.2664C19.1419 18.2652 19.1491 18.2641 19.1564 18.2641C19.8237 18.2641 20.3652 18.7766 20.3652 19.4081C20.3652 20.0395 19.8237 20.5521 19.1564 20.5521C18.6487 20.5521 18.2159 20.2569 18.037 19.8382C18.037 19.8477 18.0357 19.8565 18.0345 19.8651C18.0333 19.8731 18.0322 19.8808 18.0322 19.8886C18.0274 19.9412 18.0249 19.9938 18.0225 20.0464C18.0249 20.353 18.0902 20.6459 18.2014 20.9158Z" fill="#FF6C00"/>
</svg>
