<svg width="56" height="56" viewBox="0 0 56 56" fill="none" xmlns="http://www.w3.org/2000/svg">
<rect width="56" height="56" rx="16" fill="#02C097" fill-opacity="0.095"/>
<mask id="mask0_2807_30157" style="mask-type:alpha" maskUnits="userSpaceOnUse" x="12" y="12" width="32" height="32">
<path opacity="0.2" d="M28 40C34.6274 40 40 34.6274 40 28C40 21.3726 34.6274 16 28 16C21.3726 16 16 21.3726 16 28C16 34.6274 21.3726 40 28 40Z" fill="black"/>
<path d="M28 40C34.6274 40 40 34.6274 40 28C40 21.3726 34.6274 16 28 16C21.3726 16 16 21.3726 16 28C16 34.6274 21.3726 40 28 40Z" stroke="black" stroke-width="1.5" stroke-linecap="round" stroke-linejoin="round"/>
<path d="M27 27H28V34H29" stroke="black" stroke-width="1.5" stroke-linecap="round" stroke-linejoin="round"/>
<path d="M27.75 24C28.5784 24 29.25 23.3284 29.25 22.5C29.25 21.6716 28.5784 21 27.75 21C26.9216 21 26.25 21.6716 26.25 22.5C26.25 23.3284 26.9216 24 27.75 24Z" fill="black"/>
</mask>
<g mask="url(#mask0_2807_30157)">
<rect x="12" y="12" width="32" height="32" fill="#0C6D62"/>
</g>
</svg>
