<svg width="56" height="56" viewBox="0 0 56 56" fill="none" xmlns="http://www.w3.org/2000/svg">
<mask id="mask0_4110_11350" style="mask-type:alpha" maskUnits="userSpaceOnUse" x="0" y="0" width="56" height="56">
<path opacity="0.2" d="M45.5 18.9656V15.75C45.5 13.4294 44.5781 11.2038 42.9372 9.56282C41.2962 7.92187 39.0706 7 36.75 7C34.4293 7 32.2037 7.92187 30.5628 9.56282C28.9218 11.2038 28 13.4294 28 15.75C28 13.4294 27.0781 11.2038 25.4372 9.56282C23.7962 7.92187 21.5706 7 19.25 7C16.9293 7 14.7037 7.92187 13.0628 9.56282C11.4218 11.2038 10.5 13.4294 10.5 15.75V18.9656C8.45592 19.6953 6.68754 21.0393 5.43717 22.8133C4.1868 24.5873 3.51562 26.7046 3.51562 28.875C3.51562 31.0454 4.1868 33.1627 5.43717 34.9367C6.68754 36.7107 8.45592 38.0547 10.5 38.7844V38.7844V40.25C10.5 42.5706 11.4218 44.7962 13.0628 46.4372C14.7037 48.0781 16.9293 49 19.25 49C21.5706 49 23.7962 48.0781 25.4372 46.4372C27.0781 44.7962 28 42.5706 28 40.25C28 42.5706 28.9218 44.7962 30.5628 46.4372C32.2037 48.0781 34.4293 49 36.75 49C39.0706 49 41.2962 48.0781 42.9372 46.4372C44.5781 44.7962 45.5 42.5706 45.5 40.25V38.7844C47.544 38.0547 49.3124 36.7107 50.5628 34.9367C51.8131 33.1627 52.4843 31.0454 52.4843 28.875C52.4843 26.7046 51.8131 24.5873 50.5628 22.8133C49.3124 21.0393 47.544 19.6953 45.5 18.9656V18.9656Z" fill="black"/>
<path d="M28 38.5V17.5" stroke="black" stroke-width="1.5" stroke-linecap="round" stroke-linejoin="round"/>
<path d="M19.25 31.5C20.9806 31.5 22.6723 32.0132 24.1112 32.9746C25.5502 33.9361 26.6717 35.3027 27.3339 36.9015C27.9962 38.5004 28.1695 40.2597 27.8319 41.957C27.4943 43.6544 26.6609 45.2135 25.4372 46.4372C24.2135 47.6609 22.6544 48.4943 20.957 48.8319C19.2597 49.1695 17.5004 48.9962 15.9015 48.3339C14.3027 47.6717 12.9361 46.5502 11.9746 45.1112C11.0132 43.6723 10.5 41.9806 10.5 40.25V38.7844" stroke="black" stroke-width="1.5" stroke-linecap="round" stroke-linejoin="round"/>
<path d="M36.75 31.5C35.0194 31.5 33.3277 32.0132 31.8888 32.9746C30.4498 33.9361 29.3283 35.3027 28.6661 36.9015C28.0038 38.5004 27.8305 40.2597 28.1681 41.957C28.5058 43.6544 29.3391 45.2135 30.5628 46.4372C31.7865 47.6609 33.3456 48.4943 35.043 48.8319C36.7403 49.1695 38.4996 48.9962 40.0985 48.3339C41.6973 47.6717 43.0639 46.5502 44.0254 45.1112C44.9868 43.6723 45.5 41.9806 45.5 40.25V38.7844" stroke="black" stroke-width="1.5" stroke-linecap="round" stroke-linejoin="round"/>
<path d="M15.7499 39.375H13.9999C11.518 39.3817 9.11398 38.509 7.21435 36.9117C5.31471 35.3145 4.04227 33.096 3.62277 30.6498C3.20328 28.2036 3.66385 25.6879 4.92277 23.549C6.1817 21.4101 8.15758 19.7863 10.4999 18.9656V15.75C10.4999 13.4294 11.4218 11.2038 13.0627 9.56282C14.7036 7.92187 16.9292 7 19.2499 7C21.5705 7 23.7961 7.92187 25.4371 9.56282C27.078 11.2038 27.9999 13.4294 27.9999 15.75V40.25" stroke="black" stroke-width="1.5" stroke-linecap="round" stroke-linejoin="round"/>
<path d="M40.25 39.375H42C44.4819 39.3817 46.8859 38.509 48.7855 36.9117C50.6852 35.3145 51.9576 33.096 52.3771 30.6498C52.7966 28.2036 52.336 25.6879 51.0771 23.549C49.8182 21.4101 47.8423 19.7863 45.5 18.9656V15.75C45.5 13.4294 44.5781 11.2038 42.9372 9.56282C41.2962 7.92187 39.0706 7 36.75 7C34.4294 7 32.2038 7.92187 30.5628 9.56282C28.9219 11.2038 28 13.4294 28 15.75" stroke="black" stroke-width="1.5" stroke-linecap="round" stroke-linejoin="round"/>
<path d="M19.25 18.375V20.125C19.25 21.7495 18.6047 23.3074 17.456 24.456C16.3074 25.6047 14.7495 26.25 13.125 26.25" stroke="black" stroke-width="1.5" stroke-linecap="round" stroke-linejoin="round"/>
<path d="M36.75 18.375V20.125C36.75 21.7495 37.3953 23.3074 38.544 24.456C39.6926 25.6047 41.2505 26.25 42.875 26.25" stroke="black" stroke-width="1.5" stroke-linecap="round" stroke-linejoin="round"/>
</mask>
<g mask="url(#mask0_4110_11350)">
<rect width="56" height="56" fill="#111C18"/>
</g>
</svg>
