<svg width="56" height="56" viewBox="0 0 56 56" fill="none" xmlns="http://www.w3.org/2000/svg">
<rect width="56" height="56" rx="16" fill="#02C097" fill-opacity="0.095"/>
<mask id="mask0_2807_30172" style="mask-type:alpha" maskUnits="userSpaceOnUse" x="12" y="12" width="32" height="32">
<path opacity="0.2" d="M21.8375 32.8749C20.647 31.9492 19.6828 30.7647 19.0179 29.4111C18.353 28.0576 18.0049 26.5704 18 25.0624C17.975 19.6374 22.3375 15.1249 27.7625 14.9999C29.8621 14.9501 31.924 15.5626 33.6559 16.7506C35.3879 17.9385 36.7018 19.6416 37.4114 21.6183C38.121 23.5949 38.1902 25.7448 37.6093 27.7631C37.0284 29.7813 35.8268 31.5654 34.175 32.8624C33.8101 33.1444 33.5145 33.5062 33.3109 33.92C33.1072 34.3338 33.0009 34.7887 33 35.2499V35.9999C33 36.2651 32.8946 36.5195 32.7071 36.707C32.5196 36.8945 32.2652 36.9999 32 36.9999H24C23.7348 36.9999 23.4804 36.8945 23.2929 36.707C23.1054 36.5195 23 36.2651 23 35.9999V35.2499C22.9969 34.7921 22.8908 34.341 22.6895 33.9298C22.4883 33.5187 22.1971 33.1581 21.8375 32.8749V32.8749Z" fill="black"/>
<path d="M23 41H33" stroke="black" stroke-width="1.5" stroke-linecap="round" stroke-linejoin="round"/>
<path d="M21.8375 32.8749C20.647 31.9492 19.6828 30.7647 19.0179 29.4111C18.353 28.0576 18.0049 26.5704 18 25.0624C17.975 19.6374 22.3375 15.1249 27.7625 14.9999C29.8621 14.9501 31.924 15.5626 33.6559 16.7506C35.3879 17.9385 36.7018 19.6416 37.4114 21.6183C38.121 23.5949 38.1902 25.7448 37.6093 27.7631C37.0284 29.7813 35.8268 31.5654 34.175 32.8624C33.8101 33.1444 33.5145 33.5062 33.3109 33.92C33.1072 34.3338 33.0009 34.7887 33 35.2499V35.9999C33 36.2651 32.8946 36.5195 32.7071 36.707C32.5196 36.8945 32.2652 36.9999 32 36.9999H24C23.7348 36.9999 23.4804 36.8945 23.2929 36.707C23.1054 36.5195 23 36.2651 23 35.9999V35.2499C22.9969 34.7921 22.8908 34.341 22.6895 33.9298C22.4883 33.5187 22.1971 33.1581 21.8375 32.8749V32.8749Z" stroke="black" stroke-width="1.5" stroke-linecap="round" stroke-linejoin="round"/>
<path d="M29.0125 19.1001C30.2347 19.3073 31.3625 19.8887 32.2402 20.7642C33.1179 21.6396 33.7022 22.7659 33.9125 23.9876" stroke="black" stroke-width="1.5" stroke-linecap="round" stroke-linejoin="round"/>
</mask>
<g mask="url(#mask0_2807_30172)">
<rect x="12" y="12" width="32" height="32" fill="#0C6D62"/>
</g>
</svg>
