<svg width="56" height="56" viewBox="0 0 56 56" fill="none" xmlns="http://www.w3.org/2000/svg">
<rect width="56" height="56" rx="16" fill="#003825" fill-opacity="0.05"/>
<mask id="mask0_4133_40522" style="mask-type:alpha" maskUnits="userSpaceOnUse" x="12" y="12" width="32" height="32">
<path d="M27.2883 20.9251L29.7633 18.4501C30.8112 17.495 32.1868 16.9804 33.6042 17.0132C35.0217 17.046 36.372 17.6237 37.3746 18.6263C38.3771 19.6289 38.9549 20.9792 38.9877 22.3966C39.0205 23.8141 38.5059 25.1897 37.5508 26.2376L34.0133 29.7626C33.5035 30.2743 32.8976 30.6804 32.2305 30.9574C31.5634 31.2345 30.8481 31.3771 30.1258 31.3771C29.4034 31.3771 28.6882 31.2345 28.0211 30.9574C27.354 30.6804 26.7481 30.2743 26.2383 29.7626" stroke="black" stroke-width="1.5" stroke-linecap="round" stroke-linejoin="round"/>
<path d="M28.7126 35.0751L26.2376 37.5501C25.1897 38.5052 23.8141 39.0198 22.3966 38.987C20.9792 38.9541 19.6289 38.3764 18.6263 37.3739C17.6237 36.3713 17.046 35.021 17.0132 33.6035C16.9804 32.1861 17.495 30.8105 18.4501 29.7626L21.9876 26.2376C22.4974 25.7258 23.1033 25.3198 23.7704 25.0427C24.4375 24.7657 25.1527 24.623 25.8751 24.623C26.5974 24.623 27.3127 24.7657 27.9798 25.0427C28.6469 25.3198 29.2528 25.7258 29.7626 26.2376" stroke="black" stroke-width="1.5" stroke-linecap="round" stroke-linejoin="round"/>
</mask>
<g mask="url(#mask0_4133_40522)">
<rect x="12" y="12" width="32" height="32" fill="#111C18"/>
</g>
</svg>
