<svg width="15" height="15" viewBox="0 0 15 15" fill="none" xmlns="http://www.w3.org/2000/svg">
<path fill-rule="evenodd" clip-rule="evenodd" d="M8.51181 3.00544C9.18817 2.54597 10.0433 2.53697 10.6787 2.95422C10.8229 3.04896 10.977 3.19933 11.3889 3.61122C11.8008 4.0231 11.9512 4.17717 12.0459 4.32144C12.4631 4.95678 12.4541 5.81195 11.9947 6.4883C11.8898 6.64267 11.7275 6.80814 11.3005 7.23514L10.6818 7.85386C10.4865 8.04912 10.4865 8.3657 10.6818 8.56096C10.8771 8.75623 11.1936 8.75623 11.3889 8.56096L12.0076 7.94225L12.0506 7.89932C12.4202 7.52979 12.6567 7.29333 12.8219 7.05023C13.4971 6.05626 13.532 4.76255 12.8818 3.77251C12.7232 3.53105 12.4921 3.30004 12.1407 2.94874L12.096 2.90411L12.0514 2.85946C11.7001 2.50803 11.4691 2.27692 11.2276 2.11835C10.2376 1.46816 8.94386 1.50302 7.94989 2.17825C7.70679 2.34339 7.47032 2.57994 7.10078 2.94958L7.05787 2.9925L6.43915 3.61122C6.24389 3.80648 6.24389 4.12306 6.43915 4.31832C6.63442 4.51359 6.951 4.51359 7.14626 4.31832L7.76498 3.6996C8.19198 3.2726 8.35745 3.1103 8.51181 3.00544ZM4.31783 7.14675C4.5131 6.95149 4.5131 6.63491 4.31783 6.43964C4.12257 6.24438 3.80599 6.24438 3.61073 6.43964L2.99201 7.05836L2.9491 7.10127C2.57945 7.4708 2.34291 7.70727 2.17776 7.95038C1.50253 8.94435 1.46768 10.2381 2.11787 11.2281C2.27644 11.4696 2.50754 11.7006 2.85898 12.0519L2.90362 12.0965L2.94825 12.1411C3.29955 12.4926 3.53056 12.7237 3.77202 12.8823C4.76206 13.5324 6.05577 13.4976 7.04974 12.8224C7.29284 12.6572 7.52931 12.4207 7.89884 12.051L7.89884 12.051L7.94176 12.0081L8.56047 11.3894C8.75574 11.1941 8.75574 10.8775 8.56047 10.6823C8.36521 10.487 8.04863 10.487 7.85337 10.6823L7.23465 11.301C6.80765 11.728 6.64218 11.8903 6.48782 11.9952C5.81146 12.4546 4.95629 12.4636 4.32095 12.0464C4.17669 11.9516 4.02262 11.8013 3.61073 11.3894C3.19884 10.9775 3.04847 10.8234 2.95373 10.6792C2.53648 10.0438 2.54548 9.18866 3.00495 8.5123C3.10981 8.35794 3.27211 8.19247 3.69912 7.76547L4.31783 7.14675ZM9.6216 6.08561C9.81686 5.89035 9.81686 5.57376 9.6216 5.3785C9.42634 5.18324 9.10975 5.18324 8.91449 5.3785L5.37896 8.91404C5.1837 9.1093 5.1837 9.42588 5.37896 9.62114C5.57422 9.8164 5.8908 9.8164 6.08606 9.62114L9.6216 6.08561Z" fill="#111C18"/>
</svg>
