<svg width="56" height="56" viewBox="0 0 56 56" fill="none" xmlns="http://www.w3.org/2000/svg">
<g clip-path="url(#clip0_4018_33912)">
<rect width="56" height="56" rx="16" fill="#AA99EC" fill-opacity="0.095"/>
<mask id="mask0_4018_33912" style="mask-type:alpha" maskUnits="userSpaceOnUse" x="8" y="8" width="40" height="40">
<path opacity="0.2" d="M26.125 39.25C33.3737 39.25 39.25 33.3737 39.25 26.125C39.25 18.8763 33.3737 13 26.125 13C18.8763 13 13 18.8763 13 26.125C13 33.3737 18.8763 39.25 26.125 39.25Z" fill="black"/>
<path d="M26.125 39.25C33.3737 39.25 39.25 33.3737 39.25 26.125C39.25 18.8763 33.3737 13 26.125 13C18.8763 13 13 18.8763 13 26.125C13 33.3737 18.8763 39.25 26.125 39.25Z" stroke="black" stroke-width="1.5" stroke-linecap="round" stroke-linejoin="round"/>
<path d="M35.4062 35.4062L43 43" stroke="black" stroke-width="1.5" stroke-linecap="round" stroke-linejoin="round"/>
</mask>
<g mask="url(#mask0_4018_33912)">
<rect x="8" y="8" width="40" height="40" fill="#644FC1"/>
</g>
</g>
<defs>
<clipPath id="clip0_4018_33912">
<rect width="56" height="56" fill="white"/>
</clipPath>
</defs>
</svg>
