<svg width="56" height="56" viewBox="0 0 56 56" fill="none" xmlns="http://www.w3.org/2000/svg">
<g clip-path="url(#clip0_4018_33912)">
<rect width="56" height="56" rx="16" fill="#AA99EC" fill-opacity="0.095"/>
<mask id="mask0_4018_33912" style="mask-type:alpha" maskUnits="userSpaceOnUse" x="8" y="8" width="40" height="40">
<path opacity="0.2" d="M28 11.75C24.6848 11.75 21.5054 13.067 19.1612 15.4112C16.817 17.7554 15.5 20.9348 15.5 24.25C15.5 35.5 28 44.25 28 44.25C28 44.25 40.5 35.5 40.5 24.25C40.5 20.9348 39.183 17.7554 36.8388 15.4112C34.4946 13.067 31.3152 11.75 28 11.75V11.75ZM28 29.25C27.0111 29.25 26.0444 28.9568 25.2221 28.4073C24.3999 27.8579 23.759 27.077 23.3806 26.1634C23.0022 25.2498 22.9031 24.2445 23.0961 23.2745C23.289 22.3046 23.7652 21.4137 24.4645 20.7145C25.1637 20.0152 26.0546 19.539 27.0245 19.3461C27.9945 19.1531 28.9998 19.2522 29.9134 19.6306C30.827 20.009 31.6079 20.6499 32.1573 21.4721C32.7068 22.2944 33 23.2611 33 24.25C33 25.5761 32.4732 26.8479 31.5355 27.7855C30.5979 28.7232 29.3261 29.25 28 29.25Z" fill="black"/>
<path d="M28 29.25C30.7614 29.25 33 27.0114 33 24.25C33 21.4886 30.7614 19.25 28 19.25C25.2386 19.25 23 21.4886 23 24.25C23 27.0114 25.2386 29.25 28 29.25Z" stroke="black" stroke-width="1.5" stroke-linecap="round" stroke-linejoin="round"/>
<path d="M40.5 24.25C40.5 35.5 28 44.25 28 44.25C28 44.25 15.5 35.5 15.5 24.25C15.5 20.9348 16.817 17.7554 19.1612 15.4112C21.5054 13.067 24.6848 11.75 28 11.75C31.3152 11.75 34.4946 13.067 36.8388 15.4112C39.183 17.7554 40.5 20.9348 40.5 24.25V24.25Z" stroke="black" stroke-width="1.5" stroke-linecap="round" stroke-linejoin="round"/>
</mask>
<g mask="url(#mask0_4018_33912)">
<rect x="8" y="8" width="40" height="40" fill="#644FC1"/>
</g>
</g>
<defs>
<clipPath id="clip0_4018_33912">
<rect width="56" height="56" fill="white"/>
</clipPath>
</defs>
</svg>
