<svg width="56" height="56" viewBox="0 0 56 56" fill="none" xmlns="http://www.w3.org/2000/svg">
<g clip-path="url(#clip0_4102_45784)">
<rect width="56" height="56" rx="16" fill="#AA99EC" fill-opacity="0.095"/>
<path d="M28.9965 30.2732H32.8262C33.9153 30.2732 34.605 29.6742 34.605 28.7122C34.605 27.8047 33.9153 27.1513 32.8262 27.1513H28.9965C28.8694 27.1513 28.7605 27.2602 28.7605 27.3691V30.0554C28.7787 30.1824 28.8694 30.2732 28.9965 30.2732Z" fill="#644FC1"/>
<path d="M28.9965 36.4627H32.9533C34.1694 36.4627 34.8954 35.8456 34.8954 34.7566C34.8954 33.8128 34.2057 33.0504 32.9533 33.0504H28.9965C28.8694 33.0504 28.7605 33.1593 28.7605 33.2683V36.2268C28.7787 36.372 28.8694 36.4627 28.9965 36.4627Z" fill="#644FC1"/>
<path d="M43.008 13.0667L31.6822 24.3563H33.5335C36.4194 24.3563 38.1256 26.1713 38.1256 28.1497C38.1256 29.7107 37.0728 30.8541 35.9475 31.3623C35.766 31.4349 35.766 31.689 35.9657 31.7617C37.2725 32.2699 38.1982 33.6311 38.1982 35.2284C38.1982 37.479 36.6917 39.2759 33.7695 39.2759H25.747C25.6199 39.2759 25.511 39.167 25.511 39.0581V30.5093L13.078 42.8879C12.9146 43.0512 13.0235 43.3416 13.2595 43.3416H43.1532C43.2621 43.3416 43.3529 43.2509 43.3529 43.142V13.23C43.4073 13.0304 43.1532 12.9215 43.008 13.0667Z" fill="#644FC1"/>
</g>
<defs>
<clipPath id="clip0_4102_45784">
<rect width="56" height="56" fill="white"/>
</clipPath>
</defs>
</svg>
