<svg width="56" height="56" viewBox="0 0 56 56" fill="none" xmlns="http://www.w3.org/2000/svg">
<g clip-path="url(#clip0_4102_45784)">
<rect width="56" height="56" rx="16" fill="#AA99EC" fill-opacity="0.095"/>
<path d="M11.25 12.493C11.1786 12.5468 11.125 19.4022 11.125 27.6932C11.1429 40.4528 11.1786 42.714 11.375 42.3371C11.5179 42.0859 14.0893 35.8766 17.1071 28.5187C20.125 21.1609 22.8393 14.5927 23.1071 13.9107C23.3929 13.2288 23.625 12.6007 23.625 12.5289C23.625 12.3494 11.4286 12.3135 11.25 12.493Z" fill="#644FC1"/>
<path d="M33 12.5537C33 12.6609 34.5489 16.6632 36.4592 21.4518C38.3696 26.2403 41.0027 32.8871 42.3279 36.2284C43.6531 39.5696 44.7717 42.3391 44.8062 42.3749C44.8406 42.4106 44.875 35.6923 44.875 27.4196V12.375H38.9375C35.0308 12.375 33 12.4286 33 12.5537Z" fill="#644FC1"/>
<path d="M25.5407 30.2995C24.1987 33.6427 23.0604 36.5083 23.0095 36.6675C22.9415 36.9505 23.1794 36.9858 25.7106 37.0212L28.4797 37.0743L29.5839 40.0283L30.6881 43H33.1344C35.3939 43 35.5807 42.9823 35.4788 42.6816C35.0541 41.4611 28.1399 24.25 28.072 24.25C28.021 24.25 26.8828 26.9741 25.5407 30.2995Z" fill="#644FC1"/>
</g>
<defs>
<clipPath id="clip0_4102_45784">
<rect width="56" height="56" fill="white"/>
</clipPath>
</defs>
</svg>
