<svg width="56" height="56" viewBox="0 0 56 56" fill="none" xmlns="http://www.w3.org/2000/svg">
<g clip-path="url(#clip0_4102_45784)">
<rect width="56" height="56" rx="16" fill="#AA99EC" fill-opacity="0.095"/>
<path d="M27.6872 13.625C20.0026 13.625 13.7376 19.8172 13.6265 27.4725C13.5133 35.2459 19.8246 41.688 27.6039 41.7332C30.007 41.7476 32.3206 41.1606 34.375 40.0441C34.5756 39.9351 34.6065 39.6595 34.4357 39.5084L33.12 38.3426C32.8525 38.1061 32.4719 38.0382 32.1427 38.1781C30.7086 38.7877 29.1501 39.0992 27.5432 39.0797C21.2566 39.0026 16.1778 33.7757 16.2786 27.4941C16.3773 21.2915 21.4572 16.2765 27.6862 16.2765H39.0959V36.5424L32.6231 30.7943C32.4132 30.6082 32.0923 30.6441 31.9235 30.8683C30.8845 32.2428 29.1923 33.0982 27.3117 32.9687C24.7039 32.7888 22.5909 30.6904 22.3954 28.0852C22.1619 24.9783 24.6257 22.3741 27.6872 22.3741C30.4555 22.3741 32.7352 24.5033 32.9729 27.2093C32.9945 27.4498 33.1025 27.675 33.2835 27.8344L34.9696 29.3282C35.161 29.4978 35.4644 29.394 35.5118 29.1431C35.6332 28.4934 35.6764 27.8169 35.628 27.1219C35.3564 23.1647 32.1499 19.9817 28.1882 19.7381C23.6474 19.4584 19.8503 23.0085 19.73 27.4591C19.6127 31.7956 23.168 35.5348 27.5082 35.6304C29.3198 35.6705 30.9997 35.101 32.3566 34.115L40.8149 41.6078C41.177 41.9286 41.75 41.6715 41.75 41.1873V14.1586C41.75 13.8635 41.5113 13.625 41.2161 13.625H27.6872V13.625Z" fill="#644FC1"/>
</g>
<defs>
<clipPath id="clip0_4102_45784">
<rect width="56" height="56" fill="white"/>
</clipPath>
</defs>
</svg>
