<svg width="56" height="56" viewBox="0 0 56 56" fill="none" xmlns="http://www.w3.org/2000/svg">
<g clip-path="url(#clip0_4102_45784)">
<rect width="56" height="56" rx="16" fill="#AA99EC" fill-opacity="0.095"/>
<path d="M24.3199 15.6943C25.4409 16.8026 25.8691 18.426 25.4409 19.9362C26.8197 19.1145 28.4003 18.6814 30.0101 18.6837H30.0437C32.409 18.6903 34.6735 19.632 36.337 21.2976C37.671 22.6857 39.8861 22.739 41.2874 21.4198C42.6886 20.0984 42.7425 17.9041 41.4107 16.5161C41.3771 16.4805 41.3434 16.4472 41.3076 16.4139C38.3369 13.4379 34.2901 11.7611 30.0639 11.75H30.0034C26.8399 11.7434 23.7482 12.6761 21.125 14.4262H21.2236C22.385 14.424 23.4993 14.8815 24.3199 15.6966V15.6943Z" fill="#644FC1"/>
<path d="M38.861 33.625C37.9348 33.625 37.0445 33.9692 36.388 34.5817C34.7154 36.1445 32.4514 37.0231 30.0931 37.021H30.0593C28.4406 37.0189 26.8557 36.6007 25.473 35.8108C25.5787 36.1699 25.6304 36.5416 25.6304 36.9133C25.6304 39.192 23.6655 41.0379 21.2397 41.0379H21.125C23.7531 42.719 26.8557 43.6208 30.0346 43.625H30.0953C34.3084 43.6313 38.3529 42.0643 41.3363 39.2702C42.7122 37.9861 42.7234 35.8995 41.3565 34.6049C40.6978 33.9798 39.7985 33.6292 38.8633 33.6292V33.625H38.861Z" fill="#644FC1"/>
<path d="M17.5395 33.1108C18.3408 32.3307 19.434 31.8941 20.5711 31.8983C20.9641 31.8983 21.3549 31.9492 21.7324 32.0509C20.0662 29.3758 20.0728 26.0288 21.75 23.3601C19.4647 23.9664 17.1048 22.667 16.4792 20.4625C16.3782 20.1042 16.3255 19.7354 16.3255 19.3623V19.25C12.7406 24.3373 12.7231 31.0207 16.2838 36.125V36.0381C16.2794 34.9401 16.7316 33.8845 17.5395 33.1108Z" fill="#644FC1"/>
<path d="M21.125 15.8887C20.2605 15.8887 19.655 16.2469 18.9209 16.981C18.222 17.678 18.0019 18.2894 18 19.0156C18 20.7407 19.4019 22.1406 21.1269 22.1387C22.852 22.1387 24.2519 20.7368 24.25 19.0117C24.25 17.2866 22.8501 15.8887 21.125 15.8887Z" fill="#644FC1"/>
<path d="M18 36.418C18 37.2832 18.3594 37.8926 19.0937 38.627C19.7949 39.3281 20.4062 39.5508 21.1348 39.5527C22.8613 39.5469 24.2558 38.1445 24.25 36.418C24.2441 34.6914 22.8418 33.2969 21.1152 33.3028C19.3926 33.3086 18 34.7051 18 36.4277V36.418Z" fill="#644FC1"/>
</g>
<defs>
<clipPath id="clip0_4102_45784">
<rect width="56" height="56" fill="white"/>
</clipPath>
</defs>
</svg>
