<svg width="56" height="56" viewBox="0 0 56 56" fill="none" xmlns="http://www.w3.org/2000/svg">
<rect width="56" height="56" fill="#F8FAF9"/>
<path fill-rule="evenodd" clip-rule="evenodd" d="M36.4112 15C36.7572 15 37.0897 15.0138 37.4358 15.0413C40.3433 15.2893 43.0155 16.6258 44.9678 18.8029C46.92 20.9661 48 23.7632 48 26.6703V41H41.631V26.4912C41.6172 23.639 39.2495 21.3105 36.3696 21.3105C36.2035 21.3105 36.0235 21.3243 35.8436 21.3381C33.2683 21.5999 31.1083 24.025 31.1083 26.6428V41H24.7393V26.5325C24.7255 23.6665 22.3717 21.3243 19.4919 21.3243C19.3258 21.3243 19.1458 21.3381 18.9659 21.3519C16.4044 21.6136 14.2305 24.0388 14.2305 26.6703V41H8V26.4912C8 20.1532 13.1921 15 19.5611 15C22.7456 15 25.7778 16.3227 27.9654 18.6237C30.1531 16.3089 33.1991 15 36.4112 15Z" fill="black"/>
</svg>
