<svg width="56" height="56" viewBox="0 0 56 56" fill="none" xmlns="http://www.w3.org/2000/svg">
<g clip-path="url(#clip0_4107_36638)">
<rect width="56" height="56" rx="16" fill="#0080FF" fill-opacity="0.07"/>
<mask id="mask0_4107_36638" style="mask-type:alpha" maskUnits="userSpaceOnUse" x="8" y="8" width="40" height="40">
<path d="M28 33C30.7614 33 33 30.7614 33 28C33 25.2386 30.7614 23 28 23C25.2386 23 23 25.2386 23 28C23 30.7614 25.2386 33 28 33Z" stroke="black" stroke-width="2" stroke-linecap="round" stroke-linejoin="round"/>
<path opacity="0.2" d="M28 33C30.7614 33 33 30.7614 33 28C33 25.2386 30.7614 23 28 23C25.2386 23 23 25.2386 23 28C23 30.7614 25.2386 33 28 33Z" fill="black"/>
<path opacity="0.2" d="M44.25 18H35.5L45.5 26.75V19.25C45.5 18.9185 45.3683 18.6005 45.1339 18.3661C44.8995 18.1317 44.5815 18 44.25 18Z" fill="black"/>
<path opacity="0.2" d="M44.25 38C44.5815 38 44.8995 37.8683 45.1339 37.6339C45.3683 37.3995 45.5 37.0815 45.5 36.75V29.25L35.5 38H44.25Z" fill="black"/>
<path opacity="0.2" d="M10.5 19.25V26.75L20.5 18H11.75C11.4185 18 11.1005 18.1317 10.8661 18.3661C10.6317 18.6005 10.5 18.9185 10.5 19.25V19.25Z" fill="black"/>
<path opacity="0.2" d="M10.5 36.75C10.5 37.0815 10.6317 37.3995 10.8661 37.6339C11.1005 37.8683 11.4185 38 11.75 38H20.5L10.5 29.25V36.75Z" fill="black"/>
<path d="M44.25 18H11.75C11.0596 18 10.5 18.5596 10.5 19.25V36.75C10.5 37.4404 11.0596 38 11.75 38H44.25C44.9404 38 45.5 37.4404 45.5 36.75V19.25C45.5 18.5596 44.9404 18 44.25 18Z" stroke="black" stroke-width="1.5" stroke-linecap="round" stroke-linejoin="round"/>
<path d="M35.5 18L45.5 26.75" stroke="black" stroke-width="1.5" stroke-linecap="round" stroke-linejoin="round"/>
<path d="M35.5 38L45.5 29.25" stroke="black" stroke-width="1.5" stroke-linecap="round" stroke-linejoin="round"/>
<path d="M20.5 18L10.5 26.75" stroke="black" stroke-width="1.5" stroke-linecap="round" stroke-linejoin="round"/>
<path d="M20.5 38L10.5 29.25" stroke="black" stroke-width="1.5" stroke-linecap="round" stroke-linejoin="round"/>
</mask>
<g mask="url(#mask0_4107_36638)">
<rect x="8" y="8" width="40" height="40" fill="#0081F1"/>
</g>
</g>
<defs>
<clipPath id="clip0_4107_36638">
<rect width="56" height="56" fill="white"/>
</clipPath>
</defs>
</svg>
