<svg width="56" height="56" viewBox="0 0 56 56" fill="none" xmlns="http://www.w3.org/2000/svg">
<g clip-path="url(#clip0_4018_37995)">
<rect width="56" height="56" rx="16" fill="#02BFD4" fill-opacity="0.095"/>
<mask id="mask0_4018_37995" style="mask-type:alpha" maskUnits="userSpaceOnUse" x="8" y="8" width="40" height="40">
<path opacity="0.2" d="M13.8441 15.4379L23.0004 41.891C23.391 43.0316 25.016 43.0004 25.3754 41.8441L29.0629 29.8754C29.1185 29.6797 29.2242 29.5019 29.3694 29.3595C29.5146 29.217 29.6943 29.1148 29.891 29.0629L41.8441 25.3754C43.0004 25.016 43.0316 23.391 41.891 23.0004L15.4379 13.8441C15.2156 13.766 14.9758 13.7523 14.7461 13.8046C14.5164 13.8569 14.3061 13.973 14.1396 14.1396C13.973 14.3061 13.8569 14.5164 13.8046 14.7461C13.7523 14.9758 13.766 15.2156 13.8441 15.4379V15.4379Z" fill="black"/>
<path d="M13.8441 15.4379L23.0004 41.891C23.391 43.0316 25.016 43.0004 25.3754 41.8441L29.0629 29.8754C29.1185 29.6797 29.2242 29.5019 29.3694 29.3595C29.5146 29.217 29.6943 29.1148 29.891 29.0629L41.8441 25.3754C43.0004 25.016 43.0316 23.391 41.891 23.0004L15.4379 13.8441C15.2156 13.766 14.9758 13.7523 14.7461 13.8046C14.5164 13.8569 14.3061 13.973 14.1396 14.1396C13.973 14.3061 13.8569 14.5164 13.8046 14.7461C13.7523 14.9758 13.766 15.2156 13.8441 15.4379V15.4379Z" stroke="black" stroke-width="1.5" stroke-linecap="round" stroke-linejoin="round"/>
</mask>
<g mask="url(#mask0_4018_37995)">
<rect x="8" y="8" width="40" height="40" fill="#0894B3"/>
</g>
</g>
<defs>
<clipPath id="clip0_4018_37995">
<rect width="56" height="56" fill="white"/>
</clipPath>
</defs>
</svg>
