<?xml version="1.0" encoding="UTF-8"?>
<svg xmlns="http://www.w3.org/2000/svg" xmlns:xlink="http://www.w3.org/1999/xlink" width="56px" height="56px" viewBox="0 0 56 56" version="1.1">
<defs>
<filter id="alpha" filterUnits="objectBoundingBox" x="0%" y="0%" width="100%" height="100%">
  <feColorMatrix type="matrix" in="SourceGraphic" values="0 0 0 0 1 0 0 0 0 1 0 0 0 0 1 0 0 0 1 0"/>
</filter>
<mask id="mask0">
  <g filter="url(#alpha)">
<rect x="0" y="0" width="56" height="56" style="fill:rgb(0%,0%,0%);fill-opacity:0.101961;stroke:none;"/>
  </g>
</mask>
<clipPath id="clip1">
  <rect x="0" y="0" width="56" height="56"/>
</clipPath>
<g id="surface5" clip-path="url(#clip1)">
<path style=" stroke:none;fill-rule:nonzero;fill:rgb(41.568627%,44.313725%,43.137255%);fill-opacity:1;" d="M 14 0 L 42 0 C 49.730469 0 56 6.269531 56 14 L 56 42 C 56 49.730469 49.730469 56 42 56 L 14 56 C 6.269531 56 0 49.730469 0 42 L 0 14 C 0 6.269531 6.269531 0 14 0 Z M 14 0 "/>
</g>
</defs>
<g id="surface1">
<path style="fill:none;stroke-width:1;stroke-linecap:round;stroke-linejoin:round;stroke:rgb(41.568627%,44.313725%,43.137255%);stroke-opacity:1;stroke-miterlimit:4;" d="M 13.125558 3.750558 L 16.249442 3.750558 L 16.249442 6.874442 " transform="matrix(2.333333,0,0,2.333333,4.666667,4.666667)"/>
<path style="fill:none;stroke-width:1;stroke-linecap:round;stroke-linejoin:round;stroke:rgb(41.568627%,44.313725%,43.137255%);stroke-opacity:1;stroke-miterlimit:4;" d="M 11.875 8.125 L 16.249442 3.750558 " transform="matrix(2.333333,0,0,2.333333,4.666667,4.666667)"/>
<path style="fill:none;stroke-width:1;stroke-linecap:round;stroke-linejoin:round;stroke:rgb(41.568627%,44.313725%,43.137255%);stroke-opacity:1;stroke-miterlimit:4;" d="M 6.874442 16.249442 L 3.750558 16.249442 L 3.750558 13.125558 " transform="matrix(2.333333,0,0,2.333333,4.666667,4.666667)"/>
<path style="fill:none;stroke-width:1;stroke-linecap:round;stroke-linejoin:round;stroke:rgb(41.568627%,44.313725%,43.137255%);stroke-opacity:1;stroke-miterlimit:4;" d="M 8.125 11.875 L 3.750558 16.249442 " transform="matrix(2.333333,0,0,2.333333,4.666667,4.666667)"/>
<path style="fill:none;stroke-width:1;stroke-linecap:round;stroke-linejoin:round;stroke:rgb(41.568627%,44.313725%,43.137255%);stroke-opacity:1;stroke-miterlimit:4;" d="M 16.249442 13.125558 L 16.249442 16.249442 L 13.125558 16.249442 " transform="matrix(2.333333,0,0,2.333333,4.666667,4.666667)"/>
<path style="fill:none;stroke-width:1;stroke-linecap:round;stroke-linejoin:round;stroke:rgb(41.568627%,44.313725%,43.137255%);stroke-opacity:1;stroke-miterlimit:4;" d="M 11.875 11.875 L 16.249442 16.249442 " transform="matrix(2.333333,0,0,2.333333,4.666667,4.666667)"/>
<path style="fill:none;stroke-width:1;stroke-linecap:round;stroke-linejoin:round;stroke:rgb(41.568627%,44.313725%,43.137255%);stroke-opacity:1;stroke-miterlimit:4;" d="M 3.750558 6.874442 L 3.750558 3.750558 L 6.874442 3.750558 " transform="matrix(2.333333,0,0,2.333333,4.666667,4.666667)"/>
<path style="fill:none;stroke-width:1;stroke-linecap:round;stroke-linejoin:round;stroke:rgb(41.568627%,44.313725%,43.137255%);stroke-opacity:1;stroke-miterlimit:4;" d="M 8.125 8.125 L 3.750558 3.750558 " transform="matrix(2.333333,0,0,2.333333,4.666667,4.666667)"/>
<use xlink:href="#surface5" mask="url(#mask0)"/>
</g>
</svg>
