<svg width="56" height="56" viewBox="0 0 56 56" fill="none" xmlns="http://www.w3.org/2000/svg">
<rect width="56" height="56" rx="16" fill="#02C097" fill-opacity="0.095"/>
<mask id="mask0_4110_33965" style="mask-type:alpha" maskUnits="userSpaceOnUse" x="12" y="12" width="32" height="32">
<path opacity="0.2" d="M16.1375 21.3252C16.0469 21.4808 15.9995 21.6577 16 21.8377V34.1627C16.001 34.3407 16.0488 34.5154 16.1388 34.669C16.2288 34.8226 16.3577 34.9498 16.5125 35.0377L27.5125 41.2252C27.6608 41.3099 27.8292 41.3531 28 41.3502V41.3502L28.1125 28.0002L16.1375 21.3252Z" fill="black"/>
<path d="M40 34.1627V21.8377C39.999 21.6596 39.9512 21.485 39.8612 21.3314C39.7712 21.1778 39.6423 21.0506 39.4875 20.9627L28.4875 14.7752C28.3393 14.6896 28.1711 14.6445 28 14.6445C27.8289 14.6445 27.6607 14.6896 27.5125 14.7752L16.5125 20.9627C16.3577 21.0506 16.2288 21.1778 16.1388 21.3314C16.0488 21.485 16.001 21.6596 16 21.8377V34.1627C16.001 34.3407 16.0488 34.5153 16.1388 34.6689C16.2288 34.8226 16.3577 34.9497 16.5125 35.0377L27.5125 41.2252C27.6607 41.3107 27.8289 41.3558 28 41.3558C28.1711 41.3558 28.3393 41.3107 28.4875 41.2252L39.4875 35.0377C39.6423 34.9497 39.7712 34.8226 39.8612 34.6689C39.9512 34.5153 39.999 34.3407 40 34.1627V34.1627Z" stroke="black" stroke-width="1.5" stroke-linecap="round" stroke-linejoin="round"/>
<path d="M34.125 31.0625V24.5625L22 17.875" stroke="black" stroke-width="1.5" stroke-linecap="round" stroke-linejoin="round"/>
<path d="M39.8627 21.3252L28.1127 28.0002L16.1377 21.3252" stroke="black" stroke-width="1.5" stroke-linecap="round" stroke-linejoin="round"/>
<path d="M28.1125 28L28 41.35" stroke="black" stroke-width="1.5" stroke-linecap="round" stroke-linejoin="round"/>
</mask>
<g mask="url(#mask0_4110_33965)">
<rect x="12" y="12" width="32" height="32" fill="#0C6D62"/>
</g>
</svg>
