<svg width="24" height="24" viewBox="0 0 24 24" fill="none" xmlns="http://www.w3.org/2000/svg">
<svg x="0" y="0" width="24" height="24" >
<path d="M3.10165 10.6429C3.75602 6.31623 7.49074 3 12 3C12.9654 3 13.8953 3.152 14.7671 3.43337M3.10165 10.6429L7.86288 13.3918C8.34117 13.6679 8.95276 13.5041 9.2289 13.0258L12 8.22612M3.10165 10.6429C3.0347 11.0855 3 11.5387 3 12C3 12.6497 3.06885 13.2834 3.19965 13.894M14.7671 3.43337C15.8174 3.77237 16.7833 4.29915 17.6252 4.97415M14.7671 3.43337L12.0036 8.21979M17.6252 4.97415C19.6826 6.62354 21 9.15793 21 12C21 14.649 19.8556 17.0307 18.0341 18.6776M17.6252 4.97415L12.0036 8.21979M18.0341 18.6776C17.2323 19.4026 16.2992 19.9853 15.2749 20.3856M18.0341 18.6776L15.2749 13.8985M3.19965 13.894C4.0695 17.9551 7.67917 21 12 21C13.1554 21 14.26 20.7823 15.2749 20.3856M3.19965 13.894H15.2723M15.2749 20.3856V13.8985M12 8.22612V8.22612C11.999 8.22438 11.9996 8.22214 12.0013 8.22113L12.0036 8.21979M12 8.22612L12.0036 8.21979M12 8.22612L15.2723 13.894M15.2723 13.894L15.2749 13.8985M15.2723 13.894V13.894C15.2737 13.894 15.2749 13.8952 15.2749 13.8966V13.8985" stroke="#0C6D62" stroke-width="1.25" stroke-miterlimit="1.5" stroke-linecap="round" stroke-linejoin="round"/>
</svg>
<rect width="24" height="24" rx="6" fill="#0C6D62" opacity="0.1"/>

</svg>
