<svg width="24" height="24" viewBox="0 0 24 24" fill="none" xmlns="http://www.w3.org/2000/svg">
<g clip-path="url(#clip0_4133_46568)">
<rect width="24" height="24" rx="6" fill="#02BFD4" fill-opacity="0.095"/>
<mask id="mask0_4133_46568" style="mask-type:alpha" maskUnits="userSpaceOnUse" x="1" y="1" width="22" height="22">
<path fill-rule="evenodd" clip-rule="evenodd" d="M3.84315 10.5589C4.44305 6.50966 7.86605 3.40625 12 3.40625C12.8841 3.40625 13.7366 3.54838 14.5363 3.81187C15.4997 4.12928 16.3852 4.6224 17.1568 5.25388C19.0417 6.79648 20.25 9.16843 20.25 11.8281C20.25 14.307 19.2002 16.5363 17.5313 18.0767C16.7967 18.7549 15.9414 19.3001 15.0021 19.6749C14.071 20.0464 13.0582 20.25 12 20.25C8.03859 20.25 4.73033 17.4003 3.93298 13.5999C3.81304 13.0282 3.75 12.4354 3.75 11.8281C3.75 11.397 3.78178 10.9731 3.84315 10.5589ZM4.89832 10.3702L9.00016 12.7877L11.5384 8.29976C11.5526 8.26732 11.5701 8.23626 11.5908 8.20719L13.6194 4.62028C13.0991 4.499 12.5571 4.43488 12 4.43488C8.48928 4.43488 5.56124 6.98537 4.89832 10.3702ZM14.6084 4.92876L13.3794 7.10184L15.9153 5.60724C15.506 5.33818 15.0685 5.11015 14.6084 4.92876ZM16.7878 6.28076L12.6866 8.69792L15.2304 13.1956C15.2481 13.2212 15.2635 13.2485 15.2765 13.2772L17.3041 16.8623C18.5073 15.542 19.2424 13.773 19.2424 11.8281C19.2424 9.61891 18.2937 7.6362 16.7878 6.28076ZM16.5478 17.5823L15.3225 15.4157V18.3993C15.7585 18.1691 16.1689 17.8948 16.5478 17.5823ZM14.3148 18.8358V14.0065H5.07697C5.98767 17.0265 8.74326 19.2214 12 19.2214C12.8102 19.2214 13.5885 19.0857 14.3148 18.8358ZM4.84461 12.9778H7.30747L4.76553 11.4797C4.76028 11.5951 4.75763 11.7113 4.75763 11.8281C4.75763 12.2195 4.78738 12.6034 4.84461 12.9778ZM10.0562 12.9778H13.9437L11.9999 9.541L10.0562 12.9778Z" fill="black"/>
</mask>
<g mask="url(#mask0_4133_46568)">
<rect x="1" y="1" width="22" height="22" fill="#067A6F"/>
</g>
</g>
<defs>
<clipPath id="clip0_4133_46568">
<rect width="24" height="24" fill="white"/>
</clipPath>
</defs>
</svg>
