<svg width="56" height="56" viewBox="0 0 56 56" fill="none" xmlns="http://www.w3.org/2000/svg">
<rect width="56" height="56" rx="16" fill="#02C097" fill-opacity="0.095"/>
<mask id="mask0_4110_33965" style="mask-type:alpha" maskUnits="userSpaceOnUse" x="12" y="12" width="32" height="32">
<path opacity="0.2" d="M28.4996 34.5L24.6246 38.375C24.3458 38.6547 24.0147 38.8766 23.65 39.028C23.2854 39.1794 22.8944 39.2574 22.4996 39.2574C22.1047 39.2574 21.7138 39.1794 21.3491 39.028C20.9844 38.8766 20.6533 38.6547 20.3746 38.375L17.6246 35.625C17.3449 35.3463 17.123 35.0151 16.9715 34.6505C16.8201 34.2858 16.7422 33.8948 16.7422 33.5C16.7422 33.1052 16.8201 32.7142 16.9715 32.3495C17.123 31.9849 17.3449 31.6537 17.6246 31.375L21.4996 27.5L28.4996 34.5Z" fill="black"/>
<path opacity="0.2" d="M34.5 28.4996L38.375 24.6246C38.6547 24.3458 38.8766 24.0147 39.028 23.65C39.1794 23.2854 39.2574 22.8944 39.2574 22.4996C39.2574 22.1047 39.1794 21.7138 39.028 21.3491C38.8766 20.9844 38.6547 20.6533 38.375 20.3746L35.625 17.6246C35.3463 17.3449 35.0151 17.123 34.6505 16.9715C34.2858 16.8201 33.8948 16.7422 33.5 16.7422C33.1052 16.7422 32.7142 16.8201 32.3495 16.9715C31.9849 17.123 31.6537 17.3449 31.375 17.6246L27.5 21.4996L34.5 28.4996Z" fill="black"/>
<path d="M28.4996 34.5L24.6246 38.375C24.3458 38.6547 24.0147 38.8766 23.65 39.028C23.2854 39.1794 22.8944 39.2574 22.4996 39.2574C22.1047 39.2574 21.7138 39.1794 21.3491 39.028C20.9844 38.8766 20.6533 38.6547 20.3746 38.375L17.6246 35.625C17.3449 35.3463 17.123 35.0151 16.9715 34.6505C16.8201 34.2858 16.7422 33.8948 16.7422 33.5C16.7422 33.1052 16.8201 32.7142 16.9715 32.3495C17.123 31.9849 17.3449 31.6537 17.6246 31.375L21.4996 27.5" stroke="black" stroke-width="1.5" stroke-linecap="round" stroke-linejoin="round"/>
<path d="M19 37L15 41" stroke="black" stroke-width="1.5" stroke-linecap="round" stroke-linejoin="round"/>
<path d="M41 15L37 19" stroke="black" stroke-width="1.5" stroke-linecap="round" stroke-linejoin="round"/>
<path d="M30 30L27 33" stroke="black" stroke-width="1.5" stroke-linecap="round" stroke-linejoin="round"/>
<path d="M26 26L23 29" stroke="black" stroke-width="1.5" stroke-linecap="round" stroke-linejoin="round"/>
<path d="M34.5 28.4996L38.375 24.6246C38.6547 24.3458 38.8766 24.0147 39.028 23.65C39.1794 23.2854 39.2574 22.8944 39.2574 22.4996C39.2574 22.1047 39.1794 21.7138 39.028 21.3491C38.8766 20.9844 38.6547 20.6533 38.375 20.3746L35.625 17.6246C35.3463 17.3449 35.0151 17.123 34.6505 16.9715C34.2858 16.8201 33.8948 16.7422 33.5 16.7422C33.1052 16.7422 32.7142 16.8201 32.3495 16.9715C31.9849 17.123 31.6537 17.3449 31.375 17.6246L27.5 21.4996" stroke="black" stroke-width="1.5" stroke-linecap="round" stroke-linejoin="round"/>
<path d="M26.5 20.5L35.5 29.5" stroke="black" stroke-width="1.5" stroke-linecap="round" stroke-linejoin="round"/>
<path d="M20.5 26.5L29.5 35.5" stroke="black" stroke-width="1.5" stroke-linecap="round" stroke-linejoin="round"/>
</mask>
<g mask="url(#mask0_4110_33965)">
<rect x="12" y="12" width="32" height="32" fill="#0C6D62"/>
</g>
</svg>
