<svg width="56" height="56" viewBox="0 0 56 56" fill="none" xmlns="http://www.w3.org/2000/svg">
<g clip-path="url(#clip0_4101_45784)">
<rect width="56" height="56" rx="16" fill="#AA99EC" fill-opacity="0.095"/>
<g clip-path="url(#clip1_4101_45784)">
<path d="M20.4252 27.9707C20.4158 27.7443 20.4536 27.5185 20.536 27.3074C20.6184 27.0964 20.7437 26.9047 20.904 26.7446C21.0643 26.5845 21.256 26.4593 21.4672 26.3771C21.6783 26.295 21.9042 26.2575 22.1306 26.2671C22.4674 26.2674 22.7967 26.3677 23.0766 26.5551C23.3565 26.7425 23.5746 27.0086 23.7033 27.32C23.8319 27.6313 23.8654 27.9738 23.7995 28.3041C23.7336 28.6345 23.5712 28.9379 23.3328 29.1759C23.0945 29.414 22.791 29.5761 22.4606 29.6417C22.1301 29.7073 21.7877 29.6735 21.4765 29.5445C21.1653 29.4155 20.8993 29.1971 20.7122 28.917C20.5251 28.6369 20.4252 28.3076 20.4252 27.9707Z" fill="#644FC1"/>
<path d="M26.308 27.9707C26.2987 27.7443 26.3364 27.5185 26.4188 27.3074C26.5012 27.0964 26.6265 26.9047 26.7868 26.7446C26.9471 26.5845 27.1389 26.4593 27.35 26.3771C27.5611 26.295 27.787 26.2575 28.0134 26.2671C28.3503 26.2674 28.6795 26.3677 28.9594 26.5551C29.2393 26.7425 29.4574 27.0086 29.5861 27.32C29.7147 27.6313 29.7482 27.9738 29.6823 28.3041C29.6164 28.6345 29.454 28.9379 29.2157 29.1759C28.9773 29.414 28.6738 29.5761 28.3434 29.6417C28.0129 29.7073 27.6705 29.6735 27.3593 29.5445C27.0481 29.4155 26.7822 29.1971 26.595 28.917C26.4079 28.6369 26.308 28.3076 26.308 27.9707Z" fill="#644FC1"/>
<path d="M32.1889 27.9707C32.1795 27.7443 32.2172 27.5185 32.2996 27.3074C32.382 27.0964 32.5073 26.9047 32.6676 26.7446C32.8279 26.5845 33.0197 26.4593 33.2309 26.3771C33.442 26.295 33.6679 26.2575 33.8943 26.2671C34.2311 26.2674 34.5603 26.3677 34.8403 26.5551C35.1202 26.7425 35.3383 27.0086 35.4669 27.32C35.5956 27.6313 35.6291 27.9738 35.5632 28.3041C35.4972 28.6345 35.3348 28.9379 35.0965 29.1759C34.8582 29.414 34.5546 29.5761 34.2242 29.6417C33.8938 29.7073 33.5514 29.6735 33.2402 29.5445C32.929 29.4155 32.663 29.1971 32.4759 28.917C32.2888 28.6369 32.1889 28.3076 32.1889 27.9707Z" fill="#644FC1"/>
<path d="M13.3711 29.5528V26.5017C13.8936 26.5011 14.4127 26.4174 14.9089 26.2538C15.2315 26.0743 15.4971 25.8075 15.6751 25.4841C15.9101 25.0659 16.0608 24.6057 16.1185 24.1296C16.1979 23.425 16.23 22.7159 16.2145 22.007C16.1784 20.8566 16.2503 19.7054 16.4292 18.5684C16.5386 17.9829 16.8081 17.4391 17.2077 16.9975C17.5755 16.546 18.0668 16.2112 18.6215 16.034C19.373 15.8518 20.146 15.7749 20.9186 15.8053H21.5522V18.3136C20.979 18.2779 20.4037 18.3315 19.8469 18.4724C19.6112 18.5647 19.4145 18.7355 19.2901 18.9559C19.155 19.4925 19.0962 20.0454 19.1155 20.5984C19.1155 21.1325 19.0794 22.1455 19.0073 23.6373C18.9912 24.328 18.8868 25.0137 18.6966 25.6778C18.558 26.1411 18.3414 26.5773 18.056 26.9677C17.7159 27.3764 17.3143 27.7297 16.8656 28.015C17.309 28.2789 17.7005 28.6214 18.0211 29.0257C18.3364 29.4436 18.5697 29.9174 18.7088 30.4221C18.8936 31.1455 18.9978 31.8872 19.0195 32.6336C19.0754 34.0405 19.1033 34.9388 19.1033 35.3287C19.0825 35.8776 19.1473 36.4264 19.2953 36.9555C19.4294 37.1817 19.6334 37.3581 19.8766 37.4582C20.4233 37.6093 20.9914 37.6682 21.5575 37.6327V40.2265H20.9239C20.1585 40.2443 19.3958 40.131 18.6687 39.8914C18.1137 39.7248 17.6119 39.4162 17.2129 38.9959C16.8091 38.5549 16.5338 38.0115 16.417 37.425C16.2538 36.453 16.1854 35.4674 16.2128 34.4821C16.2542 33.4652 16.1899 32.4468 16.0208 31.4432C15.9141 30.8867 15.6358 30.3776 15.2248 29.9874C14.6558 29.6823 14.0164 29.5324 13.3711 29.5528Z" fill="#644FC1"/>
<path d="M40.7153 29.9948C40.3043 30.385 40.026 30.8941 39.9193 31.4506C39.7502 32.4542 39.6858 33.4726 39.7273 34.4895C39.753 35.4725 39.6835 36.4558 39.5196 37.4254C39.4028 38.0119 39.1275 38.5553 38.7237 38.9964C38.3268 39.4214 37.8255 39.735 37.2697 39.9058C36.5426 40.1453 35.7798 40.2587 35.0145 40.2409H34.3809V37.6523C34.947 37.6879 35.515 37.6289 36.0618 37.4778C36.3049 37.3777 36.509 37.2013 36.643 36.9751C36.791 36.446 36.8558 35.8972 36.835 35.3483C36.835 34.9584 36.863 34.0601 36.9188 32.6532C36.9418 31.9073 37.0471 31.1662 37.233 30.4434C37.3721 29.9387 37.6054 29.4649 37.9207 29.047C38.2413 28.6427 38.6329 28.3003 39.0762 28.0364C38.6276 27.7511 38.226 27.3978 37.8858 26.9891C37.6005 26.5987 37.3838 26.1625 37.2452 25.6992C37.055 25.0351 36.9506 24.3493 36.9345 23.6587C36.8624 22.1669 36.8263 21.1539 36.8263 20.6198C36.8456 20.0668 36.7869 19.5139 36.6518 18.9773C36.5273 18.7568 36.3307 18.586 36.0949 18.4938C35.5381 18.3528 34.9628 18.2992 34.3896 18.3349V15.8092H35.0232C35.7958 15.7788 36.5688 15.8558 37.3203 16.0379C37.875 16.2151 38.3663 16.5499 38.7341 17.0014C39.1338 17.4431 39.4032 17.9868 39.5126 18.5723C39.6915 19.7093 39.7634 20.8605 39.7273 22.0109C39.7118 22.7198 39.7439 23.4289 39.8233 24.1335C39.8811 24.6096 40.0317 25.0698 40.2667 25.488C40.4447 25.8114 40.7103 26.0782 41.0329 26.2577C41.5301 26.4229 42.0504 26.5077 42.5742 26.5091V29.5532C41.9265 29.534 41.2852 29.6864 40.7153 29.9948Z" fill="#644FC1"/>
</g>
</g>
<defs>
<clipPath id="clip0_4101_45784">
<rect width="56" height="56" fill="white"/>
</clipPath>
<clipPath id="clip1_4101_45784">
<rect width="40" height="40" fill="white" transform="translate(8 8)"/>
</clipPath>
</defs>
</svg>
