<svg width="56" height="56" fill="none" xmlns="http://www.w3.org/2000/svg"><path fill="#02C097" fill-opacity=".095" d="M16 0h24s16 0 16 16v24s0 16-16 16H16S0 56 0 40V16S0 0 16 0"/><mask id="a" style="mask-type:alpha" maskUnits="userSpaceOnUse" x="12" y="12" width="32" height="32"><path opacity=".2" d="M23 32c0 .313.063.6.087.913.313.025.6.087.913.087a9 9 0 0 0 9-9c0-.313-.063-.6-.087-.913-.313-.024-.6-.087-.913-.087a9 9 0 0 0-9 9Z" fill="#000"/><path d="M24 33a9 9 0 1 0 0-18 9 9 0 0 0 0 18Z" stroke="#000" stroke-width="1.5" stroke-linecap="round" stroke-linejoin="round"/><path d="M32 41a9 9 0 1 0 0-18 9 9 0 0 0 0 18Z" stroke="#000" stroke-width="1.5" stroke-linecap="round" stroke-linejoin="round"/></mask><g mask="url(#a)"><path fill="#0C6D62" d="M12 12h32v32H12Z"/></g></svg>