<svg width="56" height="56" viewBox="0 0 56 56" fill="none" xmlns="http://www.w3.org/2000/svg">
<g clip-path="url(#clip0_4018_33912)">
<rect width="56" height="56" rx="16" fill="#9176FF" fill-opacity="0.1"/>
<mask id="mask0_4018_33912" style="mask-type:alpha" maskUnits="userSpaceOnUse" x="8" y="8" width="40" height="40">
<path opacity="0.2" d="M14.6094 19.25H42.6406L38.5156 33.6875C38.3684 34.2115 38.0533 34.6726 37.6186 35.0001C37.1838 35.3275 36.6536 35.5032 36.1094 35.5H21.1406C20.5964 35.5032 20.0662 35.3275 19.6314 35.0001C19.1967 34.6726 18.8816 34.2115 18.7344 33.6875L14.6094 19.25Z" fill="black"/>
<path d="M20.5 44.25C21.8807 44.25 23 43.1307 23 41.75C23 40.3693 21.8807 39.25 20.5 39.25C19.1193 39.25 18 40.3693 18 41.75C18 43.1307 19.1193 44.25 20.5 44.25Z" fill="black"/>
<path d="M36.75 44.25C38.1307 44.25 39.25 43.1307 39.25 41.75C39.25 40.3693 38.1307 39.25 36.75 39.25C35.3693 39.25 34.25 40.3693 34.25 41.75C34.25 43.1307 35.3693 44.25 36.75 44.25Z" fill="black"/>
<path d="M14.6094 19.25H42.6406L38.5156 33.6875C38.3684 34.2115 38.0533 34.6726 37.6186 35.0001C37.1838 35.3275 36.6536 35.5032 36.1094 35.5H21.1406C20.5964 35.5032 20.0662 35.3275 19.6314 35.0001C19.1967 34.6726 18.8816 34.2115 18.7344 33.6875L13.0781 13.9063C13.0034 13.6449 12.8455 13.4151 12.6284 13.2516C12.4113 13.088 12.1468 12.9997 11.875 13H9.25" stroke="black" stroke-width="1.5" stroke-linecap="round" stroke-linejoin="round"/>
</mask>
<g mask="url(#mask0_4018_33912)">
<rect x="8" y="8" width="40" height="40" fill="#644FC1"/>
</g>
</g>
<defs>
<clipPath id="clip0_4018_33912">
<rect width="56" height="56" fill="white"/>
</clipPath>
</defs>
</svg>
