<svg width="56" height="56" viewBox="0 0 56 56" fill="none" xmlns="http://www.w3.org/2000/svg">
<rect width="56" height="56" fill="#FBFDFC"/>
<path d="M38.7614 42.115C37.1964 40.9412 34.8769 40.047 32.4455 39.0968C29.5391 37.9789 26.2135 36.6934 23.7542 34.7092C20.9596 32.4735 19.5902 29.6509 19.5902 26.1017C19.5343 22.9997 20.9596 20.0653 23.4189 18.1929C26.2414 15.9851 30.4893 14.8114 35.7432 14.8114C37.1126 14.8114 38.5099 14.8952 39.8513 15.0629C39.9911 15.0908 40.1308 14.9791 40.1308 14.8393C40.1308 14.7555 40.1029 14.6716 40.047 14.6157C32.6412 7.96451 21.267 8.57933 14.6157 15.9572C7.96451 23.335 8.57933 34.7371 15.9572 41.3884C19.2548 44.3507 23.5586 45.9995 28.0021 45.9995C31.8587 46.0275 35.6314 44.7699 38.7335 42.4783C38.7894 42.4224 38.8453 42.3665 38.8453 42.2827C38.8732 42.2547 38.8173 42.1709 38.7614 42.115Z" fill="#3C93FA"/>
<path d="M45.9997 26.3812C45.9997 26.3253 45.9718 26.2414 45.9159 26.2135C42.1431 23.0835 39.1249 21.8259 35.4081 21.8259C33.4518 21.8259 31.9148 22.2171 30.9087 22.9996C30.0423 23.6424 29.5673 24.6485 29.5673 25.7104C29.5673 28.8125 33.34 30.2098 37.7276 31.8587C39.9913 32.697 42.3108 33.5634 44.4627 34.7651C44.4906 34.793 44.5465 34.793 44.5745 34.793C44.6024 34.793 44.6304 34.793 44.6583 34.7651C44.7422 34.7371 44.798 34.6812 44.826 34.6253C45.6644 32.5294 46.0836 30.2937 46.0836 28.03C46.0556 27.499 46.0556 26.9401 45.9997 26.3812Z" fill="#3C93FA"/>
</svg>
