<svg width="56" height="56" viewBox="0 0 56 56" fill="none" xmlns="http://www.w3.org/2000/svg">
<rect width="56" height="56" fill="#3C93FA"/>
<path d="M16.4647 17.6178C21.9818 11.4979 31.2812 10.7947 37.6425 15.8966C36.7117 15.8101 35.7633 15.7668 34.8297 15.7668C30.1093 15.7668 26.2178 16.8194 23.5947 18.8698C21.2899 20.6259 19.9539 23.3763 20.0048 26.2839C20.006 29.5829 21.2908 32.2273 23.8844 34.3025C26.1372 36.1198 29.164 37.2851 31.7244 38.2699C31.7249 38.2701 31.7253 38.2703 31.7258 38.2704L31.8079 38.3025C33.7726 39.0703 35.5689 39.7722 36.8588 40.6346C34.2566 42.4553 31.144 43.4483 27.9683 43.4253H27.9647C24.1474 43.4253 20.4499 42.0086 17.6174 39.4643C11.2791 33.7498 10.7521 23.9545 16.4647 17.6178Z" fill="white" stroke="white"/>
<path d="M34.5323 22.9875C37.6495 22.9875 40.198 24.0184 43.4378 26.6858C43.4613 26.9585 43.4701 27.2217 43.4793 27.4938C43.4849 27.6587 43.4905 27.8269 43.4996 28.0024C43.4981 29.8433 43.1741 31.6605 42.5286 33.3735C40.6611 32.3647 38.6717 31.6229 36.7641 30.9164C36.7637 30.9162 36.7634 30.9161 36.763 30.916L36.7286 30.903C34.7804 30.1709 33.0409 29.5172 31.779 28.7193C30.5194 27.9228 29.8525 27.0581 29.8525 25.9325C29.8525 25.1402 30.2058 24.4006 30.8401 23.93L30.8401 23.9301L30.8491 23.9231C31.6156 23.327 32.8485 22.9875 34.5323 22.9875Z" fill="white" stroke="white"/>
</svg>
