<svg width="56" height="56" viewBox="0 0 56 56" fill="none" xmlns="http://www.w3.org/2000/svg">
<g clip-path="url(#clip0_4102_45743)">
<rect width="56" height="56" rx="16" fill="#02BB3C" fill-opacity="0.09"/>
<mask id="mask0_4102_45743" style="mask-type:alpha" maskUnits="userSpaceOnUse" x="8" y="8" width="40" height="40">
<path opacity="0.2" d="M24.25 24.25C25.9759 24.25 27.375 22.8509 27.375 21.125C27.375 19.3991 25.9759 18 24.25 18C22.5241 18 21.125 19.3991 21.125 21.125C21.125 22.8509 22.5241 24.25 24.25 24.25Z" fill="black"/>
<path d="M31.125 34.875H14.25" stroke="black" stroke-width="1.5" stroke-linecap="round" stroke-linejoin="round"/>
<path d="M41.75 34.875H37.375" stroke="black" stroke-width="1.5" stroke-linecap="round" stroke-linejoin="round"/>
<path d="M34.25 38C35.9759 38 37.375 36.6009 37.375 34.875C37.375 33.1491 35.9759 31.75 34.25 31.75C32.5241 31.75 31.125 33.1491 31.125 34.875C31.125 36.6009 32.5241 38 34.25 38Z" stroke="black" stroke-width="1.5" stroke-linecap="round" stroke-linejoin="round"/>
<path d="M21.125 21.125H14.25" stroke="black" stroke-width="1.5" stroke-linecap="round" stroke-linejoin="round"/>
<path d="M41.75 21.125H27.375" stroke="black" stroke-width="1.5" stroke-linecap="round" stroke-linejoin="round"/>
<path d="M24.25 24.25C25.9759 24.25 27.375 22.8509 27.375 21.125C27.375 19.3991 25.9759 18 24.25 18C22.5241 18 21.125 19.3991 21.125 21.125C21.125 22.8509 22.5241 24.25 24.25 24.25Z" stroke="black" stroke-width="1.5" stroke-linecap="round" stroke-linejoin="round"/>
</mask>
<g mask="url(#mask0_4102_45743)">
<rect x="8" y="8" width="40" height="40" fill="#299764"/>
</g>
</g>
<defs>
<clipPath id="clip0_4102_45743">
<rect width="56" height="56" fill="white"/>
</clipPath>
</defs>
</svg>
