<svg width="56" height="56" viewBox="0 0 56 56" fill="none" xmlns="http://www.w3.org/2000/svg">
<g clip-path="url(#clip0_4110_36621)">
<rect width="56" height="56" rx="16" fill="#02BFD4" fill-opacity="0.095"/>
<mask id="mask0_4110_36621" style="mask-type:alpha" maskUnits="userSpaceOnUse" x="8" y="8" width="40" height="40">
<path opacity="0.2" d="M31.75 39.25C29.6719 39.25 28 37.5156 28 35.3594C28 33.2031 29.6719 31.4688 31.75 31.4688C32.223 31.4651 32.6914 31.5609 33.125 31.75C33.3615 30.5914 33.9219 29.5236 34.741 28.6707C35.5601 27.8178 36.6044 27.2148 37.7526 26.9317C38.9007 26.6486 40.1056 26.6971 41.2273 27.0715C42.3491 27.4458 43.3416 28.1307 44.0895 29.0467C44.8375 29.9626 45.3103 31.0719 45.453 32.2458C45.5957 33.4197 45.4025 34.61 44.8957 35.6784C44.3889 36.7469 43.5894 37.6496 42.5901 38.2818C41.5907 38.914 40.4325 39.2498 39.25 39.25H31.75Z" fill="black"/>
<path d="M31.75 39.25C29.6719 39.25 28 37.5156 28 35.3594C28 33.2031 29.6719 31.4688 31.75 31.4688C32.223 31.4651 32.6914 31.5609 33.125 31.75C33.3615 30.5914 33.9219 29.5236 34.741 28.6707C35.5601 27.8178 36.6044 27.2148 37.7526 26.9317C38.9007 26.6486 40.1056 26.6971 41.2273 27.0715C42.3491 27.4458 43.3416 28.1307 44.0895 29.0467C44.8375 29.9626 45.3103 31.0719 45.453 32.2458C45.5957 33.4197 45.4025 34.61 44.8957 35.6784C44.3889 36.7469 43.5894 37.6496 42.5901 38.2818C41.5907 38.914 40.4325 39.2498 39.25 39.25H31.75Z" stroke="black" stroke-width="1.5" stroke-linecap="round" stroke-linejoin="round"/>
<path d="M10.5 35.4999V32.9999C10.5015 30.0522 11.3716 27.1703 13.0014 24.7142C14.6312 22.258 16.9485 20.3365 19.664 19.1897C22.3794 18.0428 25.3726 17.7215 28.2696 18.2657C31.1666 18.81 33.8391 20.1958 35.9531 22.2499" stroke="black" stroke-width="1.5" stroke-linecap="round" stroke-linejoin="round"/>
<path d="M15.5 35.5006V33.0006C15.4992 31.1514 16.0111 29.3381 16.979 27.7624C17.9468 26.1866 19.3326 24.9101 20.9824 24.0747C22.6322 23.2393 24.4813 22.8777 26.3242 23.0301C28.1672 23.1825 29.9318 23.843 31.4219 24.9381" stroke="black" stroke-width="1.5" stroke-linecap="round" stroke-linejoin="round"/>
<path d="M20.5 35.5V33C20.5 31.6739 21.0268 30.4022 21.9645 29.4645C22.9021 28.5268 24.1739 28 25.5 28C25.8898 27.9987 26.2782 28.0459 26.6563 28.1407" stroke="black" stroke-width="1.5" stroke-linecap="round" stroke-linejoin="round"/>
</mask>
<g mask="url(#mask0_4110_36621)">
<rect x="8" y="8" width="40" height="40" fill="#0894B3"/>
</g>
</g>
<defs>
<clipPath id="clip0_4110_36621">
<rect width="56" height="56" fill="white"/>
</clipPath>
</defs>
</svg>
