<svg width="24" height="24" viewBox="0 0 24 24" fill="none" xmlns="http://www.w3.org/2000/svg">


<path opacity="0.2" d="M9.5 9.5V10.75C9.5 11.413 9.23661 12.0489 8.76777 12.5178C8.29893 12.9866 7.66304 13.25 7 13.25C6.33696 13.25 5.70107 12.9866 5.23223 12.5178C4.76339 12.0489 4.5 11.413 4.5 10.75V9.5" fill="#0894B3"/>
<path opacity="0.2" d="M19.5 9.5V10.75C19.5 11.413 19.2366 12.0489 18.7678 12.5178C18.2989 12.9866 17.663 13.25 17 13.25C16.337 13.25 15.7011 12.9866 15.2322 12.5178C14.7634 12.0489 14.5 11.413 14.5 10.75V9.5" fill="#0894B3"/>
<path d="M5.75 12.9062V18.25C5.75 18.4158 5.81585 18.5747 5.93306 18.6919C6.05027 18.8092 6.20924 18.875 6.375 18.875H17.625C17.7908 18.875 17.9497 18.8092 18.0669 18.6919C18.1842 18.5747 18.25 18.4158 18.25 18.25V12.9062" stroke="#0894B3" stroke-linecap="round" stroke-linejoin="round"/>
<path d="M6.21875 5.125H17.7812C17.9168 5.12612 18.0485 5.17075 18.1568 5.25233C18.2651 5.33391 18.3443 5.44812 18.3828 5.57812L19.5 9.5H4.5L5.61719 5.57812C5.65568 5.44812 5.73492 5.33391 5.84322 5.25233C5.95152 5.17075 6.08317 5.12612 6.21875 5.125V5.125Z" stroke="#0894B3" stroke-linecap="round" stroke-linejoin="round"/>
<path d="M9.5 9.5V10.75C9.5 11.413 9.23661 12.0489 8.76777 12.5178C8.29893 12.9866 7.66304 13.25 7 13.25C6.33696 13.25 5.70107 12.9866 5.23223 12.5178C4.76339 12.0489 4.5 11.413 4.5 10.75V9.5" stroke="#0894B3" stroke-width="0.8" stroke-linecap="round" stroke-linejoin="round"/>
<path d="M14.5 9.5V10.75C14.5 11.413 14.2366 12.0489 13.7678 12.5178C13.2989 12.9866 12.663 13.25 12 13.25C11.337 13.25 10.7011 12.9866 10.2322 12.5178C9.76339 12.0489 9.5 11.413 9.5 10.75V9.5" stroke="#0894B3" stroke-width="0.8" stroke-linecap="round" stroke-linejoin="round"/>
<path d="M19.5 9.5V10.75C19.5 11.413 19.2366 12.0489 18.7678 12.5178C18.2989 12.9866 17.663 13.25 17 13.25C16.337 13.25 15.7011 12.9866 15.2322 12.5178C14.7634 12.0489 14.5 11.413 14.5 10.75V9.5" stroke="#0894B3" stroke-width="0.8" stroke-linecap="round" stroke-linejoin="round"/>

<rect width="24" height="24" rx="6" fill="#02BFD4" fill-opacity="0.095"/>
</svg>

