<svg width="57" height="56" viewBox="0 0 57 56" fill="none" xmlns="http://www.w3.org/2000/svg">
<g clip-path="url(#clip0_4133_43361)">
<rect x="0.666016" width="56" height="56" rx="16" fill="#02BB3C" fill-opacity="0.09"/>
<mask id="mask0_4133_43361" style="mask-type:alpha" maskUnits="userSpaceOnUse" x="8" y="8" width="41" height="40">
<path opacity="0.2" d="M14.916 38C14.916 38.663 15.1794 39.2989 15.6482 39.7678C16.1171 40.2366 16.753 40.5 17.416 40.5H42.416C42.7475 40.5 43.0655 40.3683 43.2999 40.1339C43.5343 39.8995 43.666 39.5815 43.666 39.25V21.75C43.666 21.4185 43.5343 21.1005 43.2999 20.8661C43.0655 20.6317 42.7475 20.5 42.416 20.5H17.416C16.753 20.5 16.1171 20.2366 15.6482 19.7678C15.1794 19.2989 14.916 18.663 14.916 18V38Z" fill="black"/>
<path d="M14.916 18V38C14.916 38.663 15.1794 39.2989 15.6482 39.7678C16.1171 40.2366 16.753 40.5 17.416 40.5H42.416C42.7475 40.5 43.0655 40.3683 43.2999 40.1339C43.5343 39.8995 43.666 39.5815 43.666 39.25V21.75C43.666 21.4185 43.5343 21.1005 43.2999 20.8661C43.0655 20.6317 42.7475 20.5 42.416 20.5H17.416C16.753 20.5 16.1171 20.2366 15.6482 19.7678C15.1794 19.2989 14.916 18.663 14.916 18ZM14.916 18C14.916 17.337 15.1794 16.7011 15.6482 16.2322C16.1171 15.7634 16.753 15.5 17.416 15.5H38.666" stroke="black" stroke-width="1.5" stroke-linecap="round" stroke-linejoin="round"/>
<path d="M36.791 32.375C37.8265 32.375 38.666 31.5355 38.666 30.5C38.666 29.4645 37.8265 28.625 36.791 28.625C35.7555 28.625 34.916 29.4645 34.916 30.5C34.916 31.5355 35.7555 32.375 36.791 32.375Z" fill="black"/>
</mask>
<g mask="url(#mask0_4133_43361)">
<rect x="8.66602" y="8" width="40" height="40" fill="#299764"/>
</g>
</g>
<defs>
<clipPath id="clip0_4133_43361">
<rect width="56" height="56" fill="white" transform="translate(0.666016)"/>
</clipPath>
</defs>
</svg>
