<svg width="56" height="56" viewBox="0 0 56 56" fill="none" xmlns="http://www.w3.org/2000/svg">
<rect width="56" height="56" fill="#F8FAF9"/>
<path fill-rule="evenodd" clip-rule="evenodd" d="M40 34.5053C40 41.8313 34.479 46 26.305 46C22.637 45.9971 19.0087 45.2163 15.6453 43.706V34.012C18.9436 35.862 23.0545 37.2433 26.305 37.2433C28.5038 37.2433 29.9618 36.6513 29.9618 34.7767C29.9618 29.8927 15 31.718 15 20.47C15 13.292 20.4493 9 28.4321 9C31.6826 9 34.9331 9.49333 38.2075 10.85V20.4207C35.1815 18.7771 31.8268 17.882 28.4082 17.806C26.3528 17.806 24.9665 18.4227 24.9665 20.026C24.9665 24.5893 40 22.4187 40 34.53V34.5053Z" fill="#635BFF"/>
</svg>
