<svg width="56" height="56" viewBox="0 0 56 56" fill="none" xmlns="http://www.w3.org/2000/svg">
<g clip-path="url(#clip0_4102_13049)">
<path d="M52.5 27.9999C52.4996 33.668 50.5339 39.1607 46.9377 43.542C43.3415 47.9234 38.3375 50.9222 32.7781 52.0276C27.2188 53.1331 21.4481 52.2767 16.4494 49.6044C11.4507 46.9321 7.53318 42.6093 5.36438 37.3724C3.19558 32.1356 2.90968 26.3087 4.55539 20.8847C6.20109 15.4607 9.67658 10.7751 14.3897 7.62631C19.1028 4.47751 24.7619 3.06031 30.4027 3.61619C36.0436 4.17207 41.3172 6.66664 45.325 10.6749C47.6034 12.9475 49.4102 15.6481 50.6415 18.6213C51.8729 21.5945 52.5044 24.7818 52.5 27.9999Z" fill="#009936" fill-opacity="0.2"/>
<path d="M48.8258 28.0004C48.8254 32.8183 47.1545 37.4871 44.0978 41.2112C41.0411 44.9353 36.7876 47.4844 32.0622 48.424C27.3367 49.3636 22.4317 48.6357 18.1828 46.3642C13.9339 44.0928 10.604 40.4184 8.7605 35.9671C6.91703 31.5157 6.67401 26.5629 8.07286 21.9525C9.47171 17.3421 12.4259 13.3593 16.432 10.6829C20.4381 8.00637 25.2484 6.80175 30.0431 7.27425C34.8378 7.74675 39.3204 9.86713 42.727 13.2741C44.6636 15.2059 46.1994 17.5014 47.246 20.0286C48.2926 22.5558 48.8295 25.265 48.8258 28.0004Z" fill="#299764"/>
<path d="M20.4057 27.9702C20.3963 27.7433 20.4341 27.5168 20.5167 27.3052C20.5993 27.0936 20.725 26.9015 20.8857 26.7409C21.0464 26.5804 21.2387 26.455 21.4503 26.3726C21.662 26.2902 21.8885 26.2526 22.1155 26.2622C22.4532 26.2626 22.7832 26.363 23.0639 26.5509C23.3445 26.7388 23.5632 27.0057 23.6922 27.3178C23.8212 27.6299 23.8548 27.9733 23.7887 28.3045C23.7226 28.6357 23.5598 28.9399 23.3208 29.1786C23.0819 29.4173 22.7775 29.5798 22.4463 29.6455C22.115 29.7113 21.7717 29.6774 21.4597 29.548C21.1477 29.4187 20.881 29.1998 20.6934 28.919C20.5058 28.6381 20.4057 28.308 20.4057 27.9702Z" fill="#DDF3E4"/>
<path d="M26.3041 27.9702C26.2947 27.7433 26.3325 27.5168 26.4152 27.3052C26.4978 27.0936 26.6234 26.9015 26.7841 26.7409C26.9448 26.5804 27.1371 26.455 27.3488 26.3726C27.5605 26.2902 27.7869 26.2526 28.0139 26.2622C28.3516 26.2626 28.6817 26.363 28.9623 26.5509C29.243 26.7388 29.4616 27.0057 29.5906 27.3178C29.7196 27.6299 29.7532 27.9733 29.6871 28.3045C29.621 28.6357 29.4582 28.9399 29.2193 29.1786C28.9803 29.4173 28.676 29.5798 28.3447 29.6455C28.0134 29.7113 27.6701 29.6774 27.3581 29.548C27.0461 29.4187 26.7795 29.1998 26.5919 28.919C26.4043 28.6381 26.3041 28.308 26.3041 27.9702Z" fill="#DDF3E4"/>
<path d="M32.2006 27.9702C32.1912 27.7433 32.229 27.5168 32.3116 27.3052C32.3943 27.0936 32.5199 26.9015 32.6806 26.7409C32.8413 26.5804 33.0336 26.455 33.2453 26.3726C33.4569 26.2902 33.6834 26.2526 33.9104 26.2622C34.2481 26.2626 34.5782 26.363 34.8588 26.5509C35.1395 26.7388 35.3581 27.0057 35.4871 27.3178C35.6161 27.6299 35.6497 27.9733 35.5836 28.3045C35.5175 28.6357 35.3547 28.9399 35.1157 29.1786C34.8768 29.4173 34.5725 29.5798 34.2412 29.6455C33.9099 29.7113 33.5666 29.6774 33.2546 29.548C32.9426 29.4187 32.676 29.1998 32.4884 28.919C32.3008 28.6381 32.2006 28.308 32.2006 27.9702Z" fill="#DDF3E4"/>
<path d="M13.334 29.5571V26.4981C13.8578 26.4975 14.3782 26.4136 14.8757 26.2496C15.1992 26.0696 15.4655 25.8021 15.644 25.4778C15.8796 25.0586 16.0306 24.5972 16.0885 24.1198C16.1681 23.4134 16.2003 22.7025 16.1847 21.9918C16.1486 20.8384 16.2206 19.6842 16.4 18.5443C16.5097 17.9573 16.7798 17.4121 17.1805 16.9693C17.5493 16.5166 18.0418 16.181 18.598 16.0033C19.3514 15.8207 20.1264 15.7436 20.901 15.7741H21.5362V18.2888C20.9615 18.253 20.3847 18.3068 19.8265 18.4481C19.5902 18.5406 19.393 18.7118 19.2682 18.9328C19.1328 19.4708 19.0739 20.0251 19.0932 20.5796C19.0932 21.1151 19.0571 22.1306 18.9847 23.6263C18.9686 24.3187 18.8639 25.0062 18.6732 25.6721C18.5343 26.1365 18.3171 26.5739 18.031 26.9653C17.69 27.375 17.2873 27.7293 16.8375 28.0153C17.282 28.2798 17.6746 28.6232 17.996 29.0286C18.3121 29.4475 18.546 29.9226 18.6855 30.4286C18.8708 31.1539 18.9752 31.8975 18.997 32.6458C19.053 34.0563 19.081 34.957 19.081 35.3478C19.0602 35.8982 19.1251 36.4484 19.2735 36.9788C19.4079 37.2056 19.6124 37.3825 19.8562 37.4828C20.4044 37.6343 20.9739 37.6934 21.5415 37.6578V40.2583H20.9062C20.1389 40.2761 19.3742 40.1625 18.6452 39.9223C18.0888 39.7553 17.5857 39.4459 17.1857 39.0246C16.7808 38.5823 16.5048 38.0376 16.3877 37.4496C16.2242 36.475 16.1556 35.4869 16.183 34.4991C16.2246 33.4795 16.16 32.4585 15.9905 31.4523C15.8836 30.8944 15.6045 30.3839 15.1925 29.9928C14.622 29.6869 13.981 29.5366 13.334 29.5571Z" fill="#DDF3E4"/>
<path d="M40.7492 30.0002C40.3372 30.3914 40.0581 30.9018 39.9512 31.4597C39.7816 32.4659 39.7171 33.487 39.7587 34.5065C39.7845 35.4921 39.7147 36.4778 39.5504 37.45C39.4333 38.038 39.1573 38.5827 38.7524 39.025C38.3546 39.4511 37.852 39.7655 37.2947 39.9367C36.5657 40.1769 35.801 40.2906 35.0337 40.2727H34.3984V37.6775C34.966 37.7131 35.5355 37.6539 36.0837 37.5025C36.3275 37.4022 36.532 37.2253 36.6664 36.9985C36.8148 36.4681 36.8798 35.9178 36.8589 35.3675C36.8589 34.9766 36.8869 34.076 36.9429 32.6655C36.966 31.9176 37.0716 31.1746 37.2579 30.45C37.3974 29.944 37.6313 29.469 37.9474 29.05C38.2688 28.6446 38.6614 28.3013 39.1059 28.0367C38.6561 27.7507 38.2535 27.3965 37.9124 26.9867C37.6263 26.5953 37.4091 26.1579 37.2702 25.6935C37.0795 25.0276 36.9748 24.3401 36.9587 23.6477C36.8864 22.152 36.8502 21.1365 36.8502 20.601C36.8695 20.0466 36.8106 19.4922 36.6752 18.9542C36.5504 18.7332 36.3533 18.562 36.1169 18.4695C35.5587 18.3282 34.9819 18.2744 34.4072 18.3102V15.778H35.0424C35.817 15.7475 36.5921 15.8246 37.3454 16.0072C37.9016 16.1849 38.3941 16.5205 38.7629 16.9732C39.1636 17.416 39.4338 17.9612 39.5434 18.5482C39.7228 19.6881 39.7949 20.8423 39.7587 21.9957C39.7431 22.7064 39.7753 23.4173 39.8549 24.1237C39.9128 24.6011 40.0639 25.0625 40.2994 25.4817C40.4779 25.806 40.7442 26.0735 41.0677 26.2535C41.5661 26.419 42.0877 26.5041 42.6129 26.5055V29.5575C41.9635 29.5382 41.3206 29.6909 40.7492 30.0002Z" fill="#DDF3E4"/>
</g>
<defs>
<clipPath id="clip0_4102_13049">
<rect width="56" height="56" fill="white"/>
</clipPath>
</defs>
</svg>
