<svg width="56" height="56" viewBox="0 0 56 56" fill="none" xmlns="http://www.w3.org/2000/svg">
<g clip-path="url(#clip0_4018_37995)">
<rect width="56" height="56" rx="16" fill="#02BFD4" fill-opacity="0.095"/>
<mask id="mask0_4018_37995" style="mask-type:alpha" maskUnits="userSpaceOnUse" x="8" y="8" width="40" height="40">
<path opacity="0.2" d="M40.5 14.25H23C22.6685 14.25 22.3505 14.3817 22.1161 14.6161C21.8817 14.8505 21.75 15.1685 21.75 15.5V23H15.5C15.1685 23 14.8505 23.1317 14.6161 23.3661C14.3817 23.6005 14.25 23.9185 14.25 24.25V40.5C14.25 40.8315 14.3817 41.1495 14.6161 41.3839C14.8505 41.6183 15.1685 41.75 15.5 41.75H33C33.3315 41.75 33.6495 41.6183 33.8839 41.3839C34.1183 41.1495 34.25 40.8315 34.25 40.5V33H40.5C40.8315 33 41.1495 32.8683 41.3839 32.6339C41.6183 32.3995 41.75 32.0815 41.75 31.75V15.5C41.75 15.1685 41.6183 14.8505 41.3839 14.6161C41.1495 14.3817 40.8315 14.25 40.5 14.25Z" fill="black"/>
<path d="M20.5 33H40.5C40.8315 33 41.1495 32.8683 41.3839 32.6339C41.6183 32.3995 41.75 32.0815 41.75 31.75V15.5C41.75 15.1685 41.6183 14.8505 41.3839 14.6161C41.1495 14.3817 40.8315 14.25 40.5 14.25H23C22.6685 14.25 22.3505 14.3817 22.1161 14.6161C21.8817 14.8505 21.75 15.1685 21.75 15.5V16.75" stroke="black" stroke-width="1.5" stroke-linecap="round" stroke-linejoin="round"/>
<path d="M24.25 29.25L20.5 33L24.25 36.75" stroke="black" stroke-width="1.5" stroke-linecap="round" stroke-linejoin="round"/>
<path d="M35.5 23H15.5C15.1685 23 14.8505 23.1317 14.6161 23.3661C14.3817 23.6005 14.25 23.9185 14.25 24.25V40.5C14.25 40.8315 14.3817 41.1495 14.6161 41.3839C14.8505 41.6183 15.1685 41.75 15.5 41.75H33C33.3315 41.75 33.6495 41.6183 33.8839 41.3839C34.1183 41.1495 34.25 40.8315 34.25 40.5V39.25" stroke="black" stroke-width="1.5" stroke-linecap="round" stroke-linejoin="round"/>
<path d="M31.75 26.75L35.5 23L31.75 19.25" stroke="black" stroke-width="1.5" stroke-linecap="round" stroke-linejoin="round"/>
</mask>
<g mask="url(#mask0_4018_37995)">
<rect x="8" y="8" width="40" height="40" fill="#0894B3"/>
</g>
</g>
<defs>
<clipPath id="clip0_4018_37995">
<rect width="56" height="56" fill="white"/>
</clipPath>
</defs>
</svg>
