<svg width="56" height="56" viewBox="0 0 56 56" fill="none" xmlns="http://www.w3.org/2000/svg">
<mask id="mask0_4110_11350" style="mask-type:alpha" maskUnits="userSpaceOnUse" x="0" y="0" width="56" height="56">
<path opacity="0.2" d="M28.8752 39.375L22.0939 46.1562C21.6062 46.6457 21.0266 47.034 20.3885 47.299C19.7503 47.564 19.0662 47.7004 18.3752 47.7004C17.6842 47.7004 17 47.564 16.3619 47.299C15.7238 47.034 15.1442 46.6457 14.6564 46.1562L9.84394 41.3437C9.3545 40.856 8.96616 40.2764 8.70118 39.6383C8.4362 39.0001 8.2998 38.316 8.2998 37.625C8.2998 36.934 8.4362 36.2498 8.70118 35.6117C8.96616 34.9736 9.3545 34.394 9.84394 33.9062L16.6252 27.125L28.8752 39.375Z" fill="black"/>
<path opacity="0.2" d="M39.375 28.8742L46.1562 22.093C46.6457 21.6052 47.034 21.0257 47.299 20.3875C47.564 19.7494 47.7004 19.0652 47.7004 18.3742C47.7004 17.6832 47.564 16.9991 47.299 16.3609C47.034 15.7228 46.6457 15.1432 46.1562 14.6555L41.3437 9.84297C40.856 9.35353 40.2764 8.96518 39.6383 8.70021C39.0001 8.43523 38.316 8.29883 37.625 8.29883C36.934 8.29883 36.2498 8.43523 35.6117 8.70021C34.9736 8.96518 34.394 9.35353 33.9062 9.84297L27.125 16.6242L39.375 28.8742Z" fill="black"/>
<path d="M28.8752 39.375L22.0939 46.1562C21.6062 46.6457 21.0266 47.034 20.3885 47.299C19.7503 47.564 19.0662 47.7004 18.3752 47.7004C17.6842 47.7004 17 47.564 16.3619 47.299C15.7238 47.034 15.1442 46.6457 14.6564 46.1562L9.84394 41.3437C9.3545 40.856 8.96616 40.2764 8.70118 39.6383C8.4362 39.0001 8.2998 38.316 8.2998 37.625C8.2998 36.934 8.4362 36.2498 8.70118 35.6117C8.96616 34.9736 9.3545 34.394 9.84394 33.9062L16.6252 27.125" stroke="black" stroke-width="1.5" stroke-linecap="round" stroke-linejoin="round"/>
<path d="M12.25 43.75L5.25 50.75" stroke="black" stroke-width="1.5" stroke-linecap="round" stroke-linejoin="round"/>
<path d="M50.75 5.25L43.75 12.25" stroke="black" stroke-width="1.5" stroke-linecap="round" stroke-linejoin="round"/>
<path d="M31.5 31.5L26.25 36.75" stroke="black" stroke-width="1.5" stroke-linecap="round" stroke-linejoin="round"/>
<path d="M24.5 24.5L19.25 29.75" stroke="black" stroke-width="1.5" stroke-linecap="round" stroke-linejoin="round"/>
<path d="M39.375 28.8742L46.1562 22.093C46.6457 21.6052 47.034 21.0257 47.299 20.3875C47.564 19.7494 47.7004 19.0652 47.7004 18.3742C47.7004 17.6832 47.564 16.9991 47.299 16.3609C47.034 15.7228 46.6457 15.1432 46.1562 14.6555L41.3437 9.84297C40.856 9.35353 40.2764 8.96518 39.6383 8.70021C39.0001 8.43523 38.316 8.29883 37.625 8.29883C36.934 8.29883 36.2498 8.43523 35.6117 8.70021C34.9736 8.96518 34.394 9.35353 33.9062 9.84297L27.125 16.6242" stroke="black" stroke-width="1.5" stroke-linecap="round" stroke-linejoin="round"/>
<path d="M25.375 14.875L41.125 30.625" stroke="black" stroke-width="1.5" stroke-linecap="round" stroke-linejoin="round"/>
<path d="M14.875 25.375L30.625 41.125" stroke="black" stroke-width="1.5" stroke-linecap="round" stroke-linejoin="round"/>
</mask>
<g mask="url(#mask0_4110_11350)">
<rect width="56" height="56" fill="#111C18"/>
</g>
</svg>
