<svg width="364" height="89" viewBox="0 0 364 89" fill="none" xmlns="http://www.w3.org/2000/svg">
<g clip-path="url(#clip0_1836_3531)">
<path d="M20.9231 89V41.8437H67.8336L20.9231 89Z" fill="#44D4E6"/>
<path d="M41.6234 41.8437H0V0L41.6234 41.8437Z" fill="#047CFF"/>
<path d="M0 41.8437H20.9232V62.8751L0 41.8437Z" fill="#02043B"/>
<path d="M137.817 40.2919C135.854 37.7953 133.01 36.1454 128.965 36.1454C121.114 36.1454 114.906 42.3868 114.906 51.0426C114.906 59.6985 121.114 65.9399 128.965 65.9399C132.971 65.9399 135.815 64.3287 137.817 61.7934V65.1754H143.946V36.8688H137.817V40.2919ZM129.727 60.1024C124.44 60.1024 121.237 55.9947 121.237 51.0426C121.237 46.0906 124.44 41.9829 129.727 41.9829C135.014 41.9829 138.218 45.8875 138.218 51.0426C138.218 56.1978 134.773 60.1024 129.727 60.1024ZM118.072 23.8246H84.8279V30.1459H98.1253V65.1754H104.775V30.1459H118.072V23.8246ZM182.48 36.1454C173.787 36.1454 167.34 42.5466 167.34 51.0426C167.34 59.5387 173.789 65.9399 182.48 65.9399C191.17 65.9399 197.62 59.5387 197.62 51.0426C197.62 42.5466 191.17 36.1454 182.48 36.1454ZM182.48 60.1024C177.473 60.1024 173.669 56.3986 173.669 51.0426C173.669 45.6867 177.475 41.9829 182.48 41.9829C187.485 41.9829 191.332 45.6867 191.332 51.0426C191.291 56.3575 187.487 60.1024 182.48 60.1024ZM153.56 65.1754H159.728V23.8246H153.56V65.1754ZM317.981 36.1454C315.097 36.1454 311.614 37.0308 309.329 40.333V36.8711H303.242V65.1777H309.409V49.5159C309.409 44.6848 312.733 42.0262 316.698 42.0262C320.663 42.0262 323.227 44.6826 323.227 49.4338V65.1777H329.395V47.3799C329.395 40.7757 324.667 36.1454 317.979 36.1454M218.766 36.1454C215.882 36.1454 212.399 37.0308 210.114 40.333V36.8711H203.986V65.1777H210.194V49.5159C210.194 44.6848 213.518 42.0262 217.483 42.0262C221.448 42.0262 224.012 44.6826 224.012 49.4338V65.1777H230.18V47.3799C230.18 40.7757 225.452 36.1454 218.764 36.1454M364 51.0038C364 42.186 358.554 36.1454 350.703 36.1454C342.412 36.1454 336.684 42.186 336.684 51.0426C336.684 59.8993 342.613 65.9399 351.064 65.9399C355.309 65.9399 359.195 64.8924 362.601 61.9531L358.795 58.1284C356.593 59.6574 353.949 60.5451 351.465 60.5451C347.499 60.5451 343.893 58.4114 343.093 53.3384H363.882C363.961 52.5739 364.002 51.8094 364.002 51.0038M343.134 48.5871C343.734 44.4407 346.219 41.6223 350.584 41.6223C354.47 41.6223 357.034 44.1988 357.714 48.5871H343.134ZM274.722 23.0601C262.105 23.0601 253.214 32.1199 253.214 44.4817C253.214 56.8436 262.107 65.9421 274.722 65.9421C287.337 65.9421 296.23 56.8824 296.23 44.4817C296.271 32.1199 287.337 23.0601 274.722 23.0601ZM274.722 59.5387C266.35 59.5387 260.142 53.4182 260.142 44.5205C260.142 35.6228 266.35 29.5023 274.722 29.5023C283.094 29.5023 289.303 35.6228 289.303 44.5205C289.303 53.4182 283.094 59.5387 274.722 59.5387ZM243.279 55.552C240.595 55.552 238.151 57.9276 238.151 60.7048C238.151 63.4821 240.595 65.8988 243.279 65.8988C245.964 65.8988 248.407 63.4433 248.407 60.7048C248.407 57.9664 246.005 55.552 243.279 55.552Z" fill="#02043B"/>
</g>
<defs>
<clipPath id="clip0_1836_3531">
<rect width="364" height="89" fill="white"/>
</clipPath>
</defs>
</svg>
