<svg width="56" height="56" viewBox="0 0 56 56" fill="none" xmlns="http://www.w3.org/2000/svg">
<g clip-path="url(#clip0_4018_33912)">
<rect width="56" height="56" rx="16" fill="#9176FF" fill-opacity="0.1"/>
<mask id="mask0_4018_33912" style="mask-type:alpha" maskUnits="userSpaceOnUse" x="8" y="8" width="40" height="40">
<path d="M31.75 38L20.5 16.75L9.25 38" stroke="black" stroke-width="2" stroke-linecap="round" stroke-linejoin="round"/>
<path d="M40.5 38.4531C43.2614 38.4531 45.5 36.4944 45.5 34.0781C45.5 31.6619 43.2614 29.7031 40.5 29.7031C37.7386 29.7031 35.5 31.6619 35.5 34.0781C35.5 36.4944 37.7386 38.4531 40.5 38.4531Z" stroke="black" stroke-width="1.5" stroke-linecap="round" stroke-linejoin="round"/>
<path d="M36.75 25.5628C37.7572 24.5958 39.1038 24.0628 40.5 24.0785C43.2656 24.0785 45.5 26.0316 45.5 28.4535V38.0003" stroke="black" stroke-width="1.5" stroke-linecap="round" stroke-linejoin="round"/>
<path d="M28.4375 31.75H12.5625" stroke="black" stroke-width="1.5" stroke-linecap="round" stroke-linejoin="round"/>
</mask>
<g mask="url(#mask0_4018_33912)">
<rect x="8" y="8" width="40" height="40" fill="#644FC1"/>
</g>
</g>
<defs>
<clipPath id="clip0_4018_33912">
<rect width="56" height="56" fill="white"/>
</clipPath>
</defs>
</svg>
