<svg width="32" height="32" viewBox="0 0 32 32" fill="none" xmlns="http://www.w3.org/2000/svg">
<mask id="mask0_4133_31551" style="mask-type:alpha" maskUnits="userSpaceOnUse" x="0" y="0" width="32" height="32">
<path opacity="0.2" d="M4 13H10V26H4C3.73478 26 3.48043 25.8946 3.29289 25.7071C3.10536 25.5196 3 25.2652 3 25V14C3 13.7348 3.10536 13.4804 3.29289 13.2929C3.48043 13.1054 3.73478 13 4 13V13Z" fill="black"/>
<path d="M4 13H10V26H4C3.73478 26 3.48043 25.8946 3.29289 25.7071C3.10536 25.5196 3 25.2652 3 25V14C3 13.7348 3.10536 13.4804 3.29289 13.2929C3.48043 13.1054 3.73478 13 4 13V13Z" stroke="black" stroke-width="1.5" stroke-linecap="round" stroke-linejoin="round"/>
<path d="M10 13L15 3C16.0609 3 17.0783 3.42143 17.8284 4.17157C18.5786 4.92172 19 5.93913 19 7V10H26.7375C27.0211 9.9993 27.3015 10.0593 27.56 10.176C27.8185 10.2926 28.049 10.4632 28.2361 10.6764C28.4232 10.8895 28.5625 11.1402 28.6447 11.4116C28.7268 11.683 28.75 11.9689 28.7125 12.25L27.2125 24.25C27.1518 24.7317 26.918 25.1749 26.5546 25.4969C26.1912 25.8189 25.723 25.9977 25.2375 26H10" stroke="black" stroke-width="1.5" stroke-linecap="round" stroke-linejoin="round"/>
</mask>
<g mask="url(#mask0_4133_31551)">
<rect width="32" height="32" fill="#0C6D62"/>
</g>
</svg>
