<svg width="32" height="32" viewBox="0 0 32 32" fill="none" xmlns="http://www.w3.org/2000/svg">
<mask id="mask0_4133_31551" style="mask-type:alpha" maskUnits="userSpaceOnUse" x="0" y="0" width="32" height="32">
<path opacity="0.2" d="M4 6H10V19H4C3.73478 19 3.48043 18.8946 3.29289 18.7071C3.10536 18.5196 3 18.2652 3 18V7C3 6.73478 3.10536 6.48043 3.29289 6.29289C3.48043 6.10536 3.73478 6 4 6V6Z" fill="black"/>
<path d="M4 6H10V19H4C3.73478 19 3.48043 18.8946 3.29289 18.7071C3.10536 18.5196 3 18.2652 3 18V7C3 6.73478 3.10536 6.48043 3.29289 6.29289C3.48043 6.10536 3.73478 6 4 6V6Z" stroke="black" stroke-width="1.5" stroke-linecap="round" stroke-linejoin="round"/>
<path d="M10 19L15 29C16.0609 29 17.0783 28.5786 17.8284 27.8284C18.5786 27.0783 19 26.0609 19 25V22H26.7375C27.0211 22.0007 27.3015 21.9407 27.56 21.824C27.8185 21.7074 28.049 21.5368 28.2361 21.3236C28.4232 21.1105 28.5625 20.8598 28.6447 20.5884C28.7268 20.317 28.75 20.0311 28.7125 19.75L27.2125 7.75C27.1518 7.26827 26.918 6.82507 26.5546 6.50307C26.1912 6.18107 25.723 6.00226 25.2375 6H10" stroke="black" stroke-width="1.5" stroke-linecap="round" stroke-linejoin="round"/>
</mask>
<g mask="url(#mask0_4133_31551)">
<rect width="32" height="32" fill="#0C6D62"/>
</g>
</svg>
