<svg width="56" height="56" viewBox="0 0 56 56" fill="none" xmlns="http://www.w3.org/2000/svg">
<rect width="56" height="56" rx="16" fill="#AA99EC" fill-opacity="0.095"/>
<mask id="mask0_2807_30195" style="mask-type:alpha" maskUnits="userSpaceOnUse" x="12" y="12" width="32" height="32">
<path opacity="0.2" d="M19.4125 17H36.5875C36.7858 17.0003 36.9795 17.0596 37.144 17.1703C37.3086 17.281 37.4365 17.4381 37.5115 17.6216C37.5865 17.8052 37.6053 18.0069 37.5654 18.2011C37.5255 18.3954 37.4288 18.5734 37.2875 18.7125L18.7125 37.2875C18.5712 37.4266 18.4745 37.6046 18.4346 37.7989C18.3947 37.9931 18.4135 38.1948 18.4885 38.3784C18.5636 38.5619 18.6915 38.719 18.856 38.8297C19.0205 38.9404 19.2142 38.9997 19.4125 39H36.5875C36.7858 38.9997 36.9795 38.9404 37.144 38.8297C37.3086 38.719 37.4365 38.5619 37.5115 38.3784C37.5865 38.1948 37.6053 37.9931 37.5654 37.7989C37.5255 37.6046 37.4288 37.4266 37.2875 37.2875L18.7125 18.7125C18.5712 18.5734 18.4745 18.3954 18.4346 18.2011C18.3947 18.0069 18.4135 17.8052 18.4885 17.6216C18.5636 17.4381 18.6915 17.281 18.856 17.1703C19.0205 17.0596 19.2142 17.0003 19.4125 17V17Z" fill="black"/>
<path d="M19.4125 17H36.5875C36.7858 17.0003 36.9795 17.0596 37.144 17.1703C37.3086 17.281 37.4365 17.4381 37.5115 17.6216C37.5865 17.8052 37.6053 18.0069 37.5654 18.2011C37.5255 18.3954 37.4288 18.5734 37.2875 18.7125L28 28L18.7125 18.7125C18.5712 18.5734 18.4745 18.3954 18.4346 18.2011C18.3947 18.0069 18.4135 17.8052 18.4885 17.6216C18.5636 17.4381 18.6915 17.281 18.856 17.1703C19.0205 17.0596 19.2142 17.0003 19.4125 17V17Z" stroke="black" stroke-width="1.5" stroke-linecap="round" stroke-linejoin="round"/>
<path d="M19.4125 39H36.5875C36.7858 38.9997 36.9795 38.9404 37.144 38.8297C37.3086 38.719 37.4365 38.5619 37.5115 38.3784C37.5865 38.1948 37.6053 37.9931 37.5654 37.7989C37.5255 37.6046 37.4288 37.4266 37.2875 37.2875L28 28L18.7125 37.2875C18.5712 37.4266 18.4745 37.6046 18.4346 37.7989C18.3947 37.9931 18.4135 38.1948 18.4885 38.3784C18.5636 38.5619 18.6915 38.719 18.856 38.8297C19.0205 38.9404 19.2142 38.9997 19.4125 39Z" stroke="black" stroke-width="1.5" stroke-linecap="round" stroke-linejoin="round"/>
</mask>
<g mask="url(#mask0_2807_30195)">
<rect x="12" y="12" width="32" height="32" fill="#644FC1"/>
</g>
</svg>

