<svg width="57" height="56" viewBox="0 0 57 56" fill="none" xmlns="http://www.w3.org/2000/svg">
<g clip-path="url(#clip0_4133_43361)">
<rect x="0.666016" width="56" height="56" rx="16" fill="#02BB3C" fill-opacity="0.09"/>
<mask id="mask0_4133_43361" style="mask-type:alpha" maskUnits="userSpaceOnUse" x="8" y="8" width="41" height="40">
<path opacity="0.2" d="M15.541 39.875C17.9573 39.875 19.916 37.9162 19.916 35.5C19.916 33.0838 17.9573 31.125 15.541 31.125C13.1248 31.125 11.166 33.0838 11.166 35.5C11.166 37.9162 13.1248 39.875 15.541 39.875Z" fill="black"/>
<path d="M15.541 39.875C17.9573 39.875 19.916 37.9162 19.916 35.5C19.916 33.0838 17.9573 31.125 15.541 31.125C13.1248 31.125 11.166 33.0838 11.166 35.5C11.166 37.9162 13.1248 39.875 15.541 39.875Z" stroke="black" stroke-width="1.5" stroke-linecap="round" stroke-linejoin="round"/>
<path d="M39.916 14.25L46.166 20.5L39.916 26.75" stroke="black" stroke-width="1.5" stroke-linecap="round" stroke-linejoin="round"/>
<path d="M19.916 35.5H21.166C23.1551 35.5 25.0628 34.7098 26.4693 33.3033C27.8758 31.8968 28.666 29.9891 28.666 28C28.666 26.0109 29.4562 24.1032 30.8627 22.6967C32.2692 21.2902 34.1769 20.5 36.166 20.5H46.166" stroke="black" stroke-width="1.5" stroke-linecap="round" stroke-linejoin="round"/>
</mask>
<g mask="url(#mask0_4133_43361)">
<rect x="8.66602" y="8" width="40" height="40" fill="#299764"/>
</g>
</g>
<defs>
<clipPath id="clip0_4133_43361">
<rect width="56" height="56" fill="white" transform="translate(0.666016)"/>
</clipPath>
</defs>
</svg>
