<svg width="56" height="56" viewBox="0 0 56 56" fill="none" xmlns="http://www.w3.org/2000/svg">
<g clip-path="url(#clip0_4018_37995)">
<rect width="56" height="56" rx="16" fill="#02BFD4" fill-opacity="0.095"/>
<mask id="mask0_4018_37995" style="mask-type:alpha" maskUnits="userSpaceOnUse" x="8" y="8" width="40" height="40">
<path opacity="0.2" d="M19.25 23.625H13C12.3096 23.625 11.75 24.1846 11.75 24.875V31.125C11.75 31.8154 12.3096 32.375 13 32.375H19.25C19.9404 32.375 20.5 31.8154 20.5 31.125V24.875C20.5 24.1846 19.9404 23.625 19.25 23.625Z" fill="black"/>
<path opacity="0.2" d="M41.75 14.25H34.25C33.5596 14.25 33 14.8096 33 15.5V23C33 23.6904 33.5596 24.25 34.25 24.25H41.75C42.4404 24.25 43 23.6904 43 23V15.5C43 14.8096 42.4404 14.25 41.75 14.25Z" fill="black"/>
<path opacity="0.2" d="M41.75 31.75H34.25C33.5596 31.75 33 32.3096 33 33V40.5C33 41.1904 33.5596 41.75 34.25 41.75H41.75C42.4404 41.75 43 41.1904 43 40.5V33C43 32.3096 42.4404 31.75 41.75 31.75Z" fill="black"/>
<path d="M19.25 23.625H13C12.3096 23.625 11.75 24.1846 11.75 24.875V31.125C11.75 31.8154 12.3096 32.375 13 32.375H19.25C19.9404 32.375 20.5 31.8154 20.5 31.125V24.875C20.5 24.1846 19.9404 23.625 19.25 23.625Z" stroke="black" stroke-width="1.5" stroke-linecap="round" stroke-linejoin="round"/>
<path d="M41.75 14.25H34.25C33.5596 14.25 33 14.8096 33 15.5V23C33 23.6904 33.5596 24.25 34.25 24.25H41.75C42.4404 24.25 43 23.6904 43 23V15.5C43 14.8096 42.4404 14.25 41.75 14.25Z" stroke="black" stroke-width="1.5" stroke-linecap="round" stroke-linejoin="round"/>
<path d="M41.75 31.75H34.25C33.5596 31.75 33 32.3096 33 33V40.5C33 41.1904 33.5596 41.75 34.25 41.75H41.75C42.4404 41.75 43 41.1904 43 40.5V33C43 32.3096 42.4404 31.75 41.75 31.75Z" stroke="black" stroke-width="1.5" stroke-linecap="round" stroke-linejoin="round"/>
<path d="M20.5 28H26.75" stroke="black" stroke-width="1.5" stroke-linecap="round" stroke-linejoin="round"/>
<path d="M33 36.75H30.5C30.007 36.7521 29.5184 36.6565 29.0625 36.4688C28.6066 36.2811 28.1924 36.0049 27.8438 35.6563C27.4951 35.3077 27.219 34.8934 27.0313 34.4375C26.8436 33.9816 26.748 33.4931 26.75 33V23C26.748 22.507 26.8436 22.0184 27.0313 21.5625C27.219 21.1066 27.4951 20.6924 27.8438 20.3438C28.1924 19.9951 28.6066 19.719 29.0625 19.5313C29.5184 19.3436 30.007 19.248 30.5 19.25H33" stroke="black" stroke-width="1.5" stroke-linecap="round" stroke-linejoin="round"/>
</mask>
<g mask="url(#mask0_4018_37995)">
<rect x="8" y="8" width="40" height="40" fill="#0894B3"/>
</g>
</g>
<defs>
<clipPath id="clip0_4018_37995">
<rect width="56" height="56" fill="white"/>
</clipPath>
</defs>
</svg>
