<svg width="56" height="56" viewBox="0 0 56 56" fill="none" xmlns="http://www.w3.org/2000/svg">
<rect width="56" height="56" fill="#F8FAF9"/>
<path d="M32.7919 11.7322L30.4748 17.51L32.7276 22.1594L35.1833 16.1596H40.5404V36.6258C40.5404 37.406 40.2272 38.1562 39.669 38.7064C39.1128 39.2586 38.3598 39.5687 37.5727 39.5687C36.9463 39.5687 35.864 39.2206 35.4363 38.3743L32.1594 31.2141L32.1373 31.2481L26.728 19.4806L26.7461 19.4586L24.4771 14.5171C23.1961 11.9543 20.5757 11 18.4273 11C16.4575 11 14.5681 11.7782 13.1766 13.1607C11.7831 14.5451 11 16.4216 11 18.3782L11.0743 43.2638H22.3206L25.2281 37.0139L22.9812 32.3625L19.9232 38.8364H15.4616V18.3782C15.4616 17.596 15.7748 16.8458 16.331 16.2936C16.8872 15.7414 17.6422 15.4293 18.4293 15.4293C18.8248 15.4293 20.1601 15.5194 20.648 16.8058L23.1639 22.2994L23.9952 24.134L29.3824 35.8995C30.3222 37.9102 31.3663 40.1348 31.8241 41.0931C32.7578 43.0317 35.1833 44 37.5707 44C38.5466 44 39.5124 43.8099 40.4139 43.4378C41.3155 43.0677 42.1347 42.5236 42.8234 41.8393C43.5121 41.1551 44.0603 40.3409 44.4338 39.4466C44.8072 38.5503 45 37.5921 45 36.6238V11.7322H32.7939H32.7919Z" fill="#FC5E02"/>
</svg>
