<svg width="56" height="56" viewBox="0 0 56 56" fill="none" xmlns="http://www.w3.org/2000/svg">
<mask id="mask0_4110_11350" style="mask-type:alpha" maskUnits="userSpaceOnUse" x="0" y="0" width="56" height="56">
<path opacity="0.2" d="M28 49C25.2152 49 22.5445 47.8938 20.5754 45.9246C18.6062 43.9555 17.5 41.2848 17.5 38.5C17.5 35.7152 18.6062 33.0445 20.5754 31.0754C22.5445 29.1062 25.2152 28 28 28C30.7848 28 33.4555 26.8938 35.4246 24.9246C37.3938 22.9555 38.5 20.2848 38.5 17.5C38.5 14.7152 37.3938 12.0445 35.4246 10.0754C33.4555 8.10625 30.7848 7 28 7C33.5695 7 38.911 9.21249 42.8492 13.1508C46.7875 17.089 49 22.4305 49 28C49 33.5695 46.7875 38.911 42.8492 42.8492C38.911 46.7875 33.5695 49 28 49Z" fill="black"/>
<path d="M28 49C39.598 49 49 39.598 49 28C49 16.402 39.598 7 28 7C16.402 7 7 16.402 7 28C7 39.598 16.402 49 28 49Z" stroke="black" stroke-width="1.5" stroke-linecap="round" stroke-linejoin="round"/>
<path d="M28 41.125C29.4497 41.125 30.625 39.9497 30.625 38.5C30.625 37.0503 29.4497 35.875 28 35.875C26.5503 35.875 25.375 37.0503 25.375 38.5C25.375 39.9497 26.5503 41.125 28 41.125Z" fill="black"/>
<path d="M28 49C25.2152 49 22.5445 47.8938 20.5754 45.9246C18.6062 43.9555 17.5 41.2848 17.5 38.5C17.5 35.7152 18.6062 33.0445 20.5754 31.0754C22.5445 29.1062 25.2152 28 28 28C30.7848 28 33.4555 26.8938 35.4246 24.9246C37.3938 22.9555 38.5 20.2848 38.5 17.5C38.5 14.7152 37.3938 12.0445 35.4246 10.0754C33.4555 8.10625 30.7848 7 28 7" stroke="black" stroke-width="1.5" stroke-linecap="round" stroke-linejoin="round"/>
<path d="M28 20.125C29.4497 20.125 30.625 18.9497 30.625 17.5C30.625 16.0503 29.4497 14.875 28 14.875C26.5503 14.875 25.375 16.0503 25.375 17.5C25.375 18.9497 26.5503 20.125 28 20.125Z" fill="black"/>
</mask>
<g mask="url(#mask0_4110_11350)">
<rect width="56" height="56" fill="#111C18"/>
</g>
</svg>
