<svg width="56" height="56" viewBox="0 0 56 56" fill="none" xmlns="http://www.w3.org/2000/svg">
<rect width="56" height="56" rx="16" fill="#02C097" fill-opacity="0.095"/>
<mask id="mask0_4102_41666" style="mask-type:alpha" maskUnits="userSpaceOnUse" x="12" y="12" width="32" height="32">
<path opacity="0.2" d="M27.9996 16C25.5715 15.9993 23.2002 16.7352 21.1992 18.1105C19.1981 19.4859 17.6613 21.4359 16.7918 23.703C15.9223 25.9701 15.7611 28.4477 16.3294 30.8084C16.8976 33.1691 18.1687 35.3019 19.9746 36.925V36.925C20.7271 35.4432 21.8752 34.1986 23.2917 33.3293C24.7081 32.46 26.3377 31.9999 27.9996 32C27.0107 32 26.044 31.7068 25.2218 31.1573C24.3995 30.6079 23.7586 29.827 23.3802 28.9134C23.0018 27.9998 22.9027 26.9945 23.0957 26.0245C23.2886 25.0546 23.7648 24.1637 24.4641 23.4645C25.1633 22.7652 26.0542 22.289 27.0242 22.0961C27.9941 21.9031 28.9994 22.0022 29.913 22.3806C30.8267 22.759 31.6075 23.3999 32.157 24.2221C32.7064 25.0444 32.9996 26.0111 32.9996 27C32.9996 28.3261 32.4728 29.5979 31.5351 30.5355C30.5975 31.4732 29.3257 32 27.9996 32C29.6615 31.9999 31.2911 32.46 32.7075 33.3293C34.124 34.1986 35.2721 35.4432 36.0246 36.925C37.8305 35.3019 39.1016 33.1691 39.6698 30.8084C40.2381 28.4477 40.0769 25.9701 39.2074 23.703C38.3379 21.4359 36.8011 19.4859 34.8001 18.1105C32.799 16.7352 30.4277 15.9993 27.9996 16Z" fill="black"/>
<path d="M28 40C34.6274 40 40 34.6274 40 28C40 21.3726 34.6274 16 28 16C21.3726 16 16 21.3726 16 28C16 34.6274 21.3726 40 28 40Z" stroke="black" stroke-width="1.5" stroke-linecap="round" stroke-linejoin="round"/>
<path d="M28 32C30.7614 32 33 29.7614 33 27C33 24.2386 30.7614 22 28 22C25.2386 22 23 24.2386 23 27C23 29.7614 25.2386 32 28 32Z" stroke="black" stroke-width="1.5" stroke-linecap="round" stroke-linejoin="round"/>
<path d="M19.9746 36.9248C20.727 35.4428 21.8751 34.1981 23.2915 33.3287C24.708 32.4592 26.3376 31.999 27.9996 31.999C29.6616 31.999 31.2912 32.4592 32.7077 33.3287C34.1242 34.1981 35.2722 35.4428 36.0246 36.9248" stroke="black" stroke-width="1.5" stroke-linecap="round" stroke-linejoin="round"/>
</mask>
<g mask="url(#mask0_4102_41666)">
<rect x="12" y="12" width="32" height="32" fill="#0C6D62"/>
</g>
</svg>
