<svg width="56" height="56" viewBox="0 0 56 56" fill="none" xmlns="http://www.w3.org/2000/svg">
<g clip-path="url(#clip0_4107_36638)">
<rect width="56" height="56" rx="16" fill="#0080FF" fill-opacity="0.07"/>
<mask id="mask0_4107_36638" style="mask-type:alpha" maskUnits="userSpaceOnUse" x="8" y="8" width="40" height="40">
<path opacity="0.2" d="M20.5 30.5C23.9518 30.5 26.75 27.7018 26.75 24.25C26.75 20.7982 23.9518 18 20.5 18C17.0482 18 14.25 20.7982 14.25 24.25C14.25 27.7018 17.0482 30.5 20.5 30.5Z" fill="black"/>
<path d="M20.5 30.5C23.9518 30.5 26.75 27.7018 26.75 24.25C26.75 20.7982 23.9518 18 20.5 18C17.0482 18 14.25 20.7982 14.25 24.25C14.25 27.7018 17.0482 30.5 20.5 30.5Z" stroke="black" stroke-width="1.5" stroke-linecap="round" stroke-linejoin="round"/>
<path d="M31.75 20.5H46.75" stroke="black" stroke-width="1.5" stroke-linecap="round" stroke-linejoin="round"/>
<path d="M31.75 28H46.75" stroke="black" stroke-width="1.5" stroke-linecap="round" stroke-linejoin="round"/>
<path d="M35.5 35.5H46.75" stroke="black" stroke-width="1.5" stroke-linecap="round" stroke-linejoin="round"/>
<path d="M10.8125 38.0001C11.3633 35.849 12.6143 33.9425 14.3683 32.581C16.1223 31.2195 18.2796 30.4805 20.5 30.4805C22.7204 30.4805 24.8777 31.2195 26.6317 32.581C28.3857 33.9425 29.6367 35.849 30.1875 38.0001" stroke="black" stroke-width="1.5" stroke-linecap="round" stroke-linejoin="round"/>
</mask>
<g mask="url(#mask0_4107_36638)">
<rect x="8" y="8" width="40" height="40" fill="#0081F1"/>
</g>
</g>
<defs>
<clipPath id="clip0_4107_36638">
<rect width="56" height="56" fill="white"/>
</clipPath>
</defs>
</svg>
