<svg width="56" height="56" viewBox="0 0 56 56" fill="none" xmlns="http://www.w3.org/2000/svg">
<g clip-path="url(#clip0_4110_36638)">
<rect width="56" height="56" rx="16" fill="#0080FF" fill-opacity="0.07"/>
<mask id="mask0_4110_36638" style="mask-type:alpha" maskUnits="userSpaceOnUse" x="8" y="8" width="40" height="40">
<path opacity="0.2" d="M16.75 32.375C18.4759 32.375 19.875 30.9759 19.875 29.25C19.875 27.5241 18.4759 26.125 16.75 26.125C15.0241 26.125 13.625 27.5241 13.625 29.25C13.625 30.9759 15.0241 32.375 16.75 32.375Z" fill="black"/>
<path d="M28 24.875V41.75" stroke="black" stroke-width="1.5" stroke-linecap="round" stroke-linejoin="round"/>
<path d="M28 14.25V18.625" stroke="black" stroke-width="1.5" stroke-linecap="round" stroke-linejoin="round"/>
<path d="M28 24.875C29.7259 24.875 31.125 23.4759 31.125 21.75C31.125 20.0241 29.7259 18.625 28 18.625C26.2741 18.625 24.875 20.0241 24.875 21.75C24.875 23.4759 26.2741 24.875 28 24.875Z" stroke="black" stroke-width="1.5" stroke-linecap="round" stroke-linejoin="round"/>
<path d="M39.25 37.375V41.75" stroke="black" stroke-width="1.5" stroke-linecap="round" stroke-linejoin="round"/>
<path d="M39.25 14.25V31.125" stroke="black" stroke-width="1.5" stroke-linecap="round" stroke-linejoin="round"/>
<path d="M39.25 37.375C40.9759 37.375 42.375 35.9759 42.375 34.25C42.375 32.5241 40.9759 31.125 39.25 31.125C37.5241 31.125 36.125 32.5241 36.125 34.25C36.125 35.9759 37.5241 37.375 39.25 37.375Z" stroke="black" stroke-width="1.5" stroke-linecap="round" stroke-linejoin="round"/>
<path d="M16.75 32.375V41.75" stroke="black" stroke-width="1.5" stroke-linecap="round" stroke-linejoin="round"/>
<path d="M16.75 14.25V26.125" stroke="black" stroke-width="1.5" stroke-linecap="round" stroke-linejoin="round"/>
<path d="M16.75 32.375C18.4759 32.375 19.875 30.9759 19.875 29.25C19.875 27.5241 18.4759 26.125 16.75 26.125C15.0241 26.125 13.625 27.5241 13.625 29.25C13.625 30.9759 15.0241 32.375 16.75 32.375Z" stroke="black" stroke-width="1.5" stroke-linecap="round" stroke-linejoin="round"/>
</mask>
<g mask="url(#mask0_4110_36638)">
<rect x="8" y="8" width="40" height="40" fill="#0081F1"/>
</g>
</g>
<defs>
<clipPath id="clip0_4110_36638">
<rect width="56" height="56" fill="white"/>
</clipPath>
</defs>
</svg>
