<svg width="56" height="56" viewBox="0 0 56 56" fill="none" xmlns="http://www.w3.org/2000/svg">
<g clip-path="url(#clip0_4107_36638)">
<rect width="56" height="56" rx="16" fill="#0080FF" fill-opacity="0.07"/>
<mask id="mask0_4107_36638" style="mask-type:alpha" maskUnits="userSpaceOnUse" x="8" y="8" width="40" height="40">
<path opacity="0.2" d="M14.25 38C14.25 38.663 14.5134 39.2989 14.9822 39.7678C15.4511 40.2366 16.087 40.5 16.75 40.5H41.75C42.0815 40.5 42.3995 40.3683 42.6339 40.1339C42.8683 39.8995 43 39.5815 43 39.25V21.75C43 21.4185 42.8683 21.1005 42.6339 20.8661C42.3995 20.6317 42.0815 20.5 41.75 20.5H16.75C16.087 20.5 15.4511 20.2366 14.9822 19.7678C14.5134 19.2989 14.25 18.663 14.25 18V38Z" fill="black"/>
<path d="M14.25 18V38C14.25 38.663 14.5134 39.2989 14.9822 39.7678C15.4511 40.2366 16.087 40.5 16.75 40.5H41.75C42.0815 40.5 42.3995 40.3683 42.6339 40.1339C42.8683 39.8995 43 39.5815 43 39.25V21.75C43 21.4185 42.8683 21.1005 42.6339 20.8661C42.3995 20.6317 42.0815 20.5 41.75 20.5H16.75C16.087 20.5 15.4511 20.2366 14.9822 19.7678C14.5134 19.2989 14.25 18.663 14.25 18ZM14.25 18C14.25 17.337 14.5134 16.7011 14.9822 16.2322C15.4511 15.7634 16.087 15.5 16.75 15.5H38" stroke="black" stroke-width="1.5" stroke-linecap="round" stroke-linejoin="round"/>
<path d="M36.125 32.375C37.1605 32.375 38 31.5355 38 30.5C38 29.4645 37.1605 28.625 36.125 28.625C35.0895 28.625 34.25 29.4645 34.25 30.5C34.25 31.5355 35.0895 32.375 36.125 32.375Z" fill="black"/>
</mask>
<g mask="url(#mask0_4107_36638)">
<rect x="8" y="8" width="40" height="40" fill="#0081F1"/>
</g>
</g>
<defs>
<clipPath id="clip0_4107_36638">
<rect width="56" height="56" fill="white"/>
</clipPath>
</defs>
</svg>
