<svg width="58" height="58" viewBox="0 0 58 58" fill="none" xmlns="http://www.w3.org/2000/svg">
<rect width="57.8118" height="57.7778" fill="#F8FAF9"/>
<path d="M13.3815 29C13.3815 35.1892 16.9815 40.52 22.1877 43.0538L14.7385 22.6446C13.844 24.644 13.3816 26.8097 13.3815 29ZM29 44.6185C30.8138 44.6185 32.5585 44.3 34.1923 43.7323L34.0815 43.5246L29.2769 30.3708L24.5969 43.9815C25.9815 44.3969 27.4631 44.6185 29 44.6185ZM31.1462 21.6754L36.7954 38.4708L38.36 33.2646C39.0246 31.1046 39.5369 29.5538 39.5369 28.2108C39.5369 26.2723 38.8446 24.9431 38.2631 23.9185C37.46 22.6169 36.7262 21.5231 36.7262 20.2492C36.7262 18.8092 37.8062 17.48 39.3569 17.48H39.5508C36.6729 14.838 32.9067 13.375 29 13.3815C26.4133 13.3811 23.867 14.0236 21.5903 15.2514C19.3135 16.4792 17.3777 18.2538 15.9569 20.4154L16.9538 20.4431C18.5877 20.4431 21.1077 20.2354 21.1077 20.2354C21.9662 20.1938 22.0631 21.4262 21.2185 21.5231C21.2185 21.5231 20.3738 21.6338 19.4185 21.6754L25.1231 38.5954L28.5431 28.3492L26.1062 21.6754C25.5603 21.6453 25.0154 21.5991 24.4723 21.5369C23.6277 21.4815 23.7246 20.1938 24.5692 20.2354C24.5692 20.2354 27.1446 20.4431 28.6815 20.4431C30.3154 20.4431 32.8354 20.2354 32.8354 20.2354C33.68 20.1938 33.7908 21.4262 32.9462 21.5231C32.9462 21.5231 32.1015 21.62 31.1462 21.6754ZM36.8508 42.5C39.2135 41.1262 41.1744 39.1563 42.5375 36.7873C43.9006 34.4184 44.6181 31.7331 44.6185 29C44.6185 26.2862 43.9262 23.7385 42.7077 21.5092C42.9551 23.9618 42.5838 26.4372 41.6277 28.7092L36.8508 42.5ZM29 47C24.2261 47 19.6477 45.1036 16.2721 41.7279C12.8964 38.3523 11 33.7739 11 29C11 24.2261 12.8964 19.6477 16.2721 16.2721C19.6477 12.8964 24.2261 11 29 11C33.7739 11 38.3523 12.8964 41.7279 16.2721C45.1036 19.6477 47 24.2261 47 29C47 33.7739 45.1036 38.3523 41.7279 41.7279C38.3523 45.1036 33.7739 47 29 47Z" fill="black"/>
</svg>
