<svg width="56" height="56" viewBox="0 0 56 56" fill="none" xmlns="http://www.w3.org/2000/svg">
<rect width="56" height="56" fill="#F8FAF9"/>
<path fill-rule="evenodd" clip-rule="evenodd" d="M31.6685 28.7288C31.6685 28.7288 25.3567 36.6733 24.6564 37.5445C20.8658 42.2629 14.3899 42.1343 10.8232 37.2499C9.18827 35.0079 7.57075 32.7516 5.99106 30.4725C2.51167 25.4566 3.70153 19.091 8.70825 15.7794C13.6277 12.5251 20.0686 13.8549 23.5335 18.785C24.2091 19.7456 24.9316 20.6732 25.6541 21.6008L25.6543 21.601C26.1271 22.2081 26.6 22.8151 27.0597 23.4315L23.5777 27.7093C22.7545 26.7067 21.9423 25.6952 21.13 24.6837L21.1298 24.6835C20.2399 23.5753 19.3498 22.4668 18.4453 21.3701C17.4533 20.1662 16.1558 19.497 14.5325 19.5199L14.5295 19.5228C12.6444 19.5771 11.1869 20.3692 10.2414 21.985C9.2639 23.655 9.25518 25.3794 10.3374 26.9694C12.0276 29.4544 13.7848 31.9023 15.6001 34.3016C16.8278 35.923 18.7421 35.9345 20.0425 34.4017C20.7072 33.6167 23.9553 29.6317 23.9553 29.6317L28.6391 23.8266C29.9028 22.1323 31.581 19.8821 32.8924 18.2245C35.6561 14.7299 39.3508 13.3573 43.6913 14.301C48.1744 15.2761 50.9177 18.1959 51.8021 22.6398C52.3345 25.3136 51.7876 27.8616 50.2224 30.1265C48.4565 32.6859 46.6674 35.2281 44.7939 37.7132C41.5821 41.9741 35.1441 42.0914 31.6792 37.9963C30.8383 37.002 29.755 35.6645 28.9122 34.6239C30.288 32.8561 32.4351 30.097 32.4351 30.097C32.9005 30.6598 33.3576 31.2293 33.8147 31.7989C34.5341 32.6951 35.2535 33.5915 36.0052 34.4617C37.2387 35.8916 39.1413 35.9259 40.2643 34.456C42.1756 31.9481 44.0957 29.4286 45.7539 26.7578C47.7234 23.5892 45.2535 19.5599 41.489 19.5313L41.4861 19.5342C39.9675 19.5228 38.6002 20.0747 37.6518 21.2243C36.5453 22.5624 35.4552 23.9148 34.3654 25.2673L34.3635 25.2658L34.277 25.377C33.5052 26.3348 31.6685 28.7288 31.6685 28.7288Z" fill="#03C9A5"/>
</svg>
